<svg xmlns="http://www.w3.org/2000/svg" width="160" height="132.338" viewBox="0 0 160 132.338">
  <g id="Group_16681" data-name="Group 16681" transform="translate(-2503.682 -2308.193)">
    <g id="Group_16653" data-name="Group 16653" transform="translate(2503.682 2308.194)">
      <g id="Group_16615" data-name="Group 16615" transform="translate(12.77 120.723)">
        <path id="Path_39421" data-name="Path 39421" d="M2562.059,2594.962H2538.3a4.237,4.237,0,0,0-4.493,3.91v2.115a.851.851,0,1,0,1.7,0v-2.115a2.55,2.55,0,0,1,2.792-2.189h23.757a2.55,2.55,0,0,1,2.792,2.189v2.115a.851.851,0,1,0,1.7,0v-2.115A4.238,4.238,0,0,0,2562.059,2594.962Z" transform="translate(-2533.809 -2594.962)" fill="#fff"/>
        <path id="Path_39422" data-name="Path 39422" d="M2604.723,2614.451a1.761,1.761,0,1,0,1.752-1.934A1.85,1.85,0,0,0,2604.723,2614.451Z" transform="translate(-2574.665 -2605.076)" fill="#6d72a0"/>
        <path id="Path_39423" data-name="Path 39423" d="M2603.357,2613.347h4.171c.276,0,.5-.3.5-.669v-1.667c0-.368-.226-.669-.5-.669h-4.171c-.276,0-.5.3-.5.669v1.667C2602.855,2613.046,2603.081,2613.347,2603.357,2613.347Z" transform="translate(-2573.589 -2603.823)" fill="#6d72a0"/>
      </g>
      <path id="Path_39424" data-name="Path 39424" d="M2516.1,2369.982h25.25a5.679,5.679,0,0,1,5.244,5.136l6.532,56.843H2518.8l-6.764-56.843C2511.714,2372.293,2513.542,2369.982,2516.1,2369.982Z" transform="translate(-2508.475 -2344.096)" fill="#52587f"/>
      <path id="Path_39425" data-name="Path 39425" d="M2527.565,2431.96l-6.027-56.843c-.3-2.825,1.388-5.136,3.75-5.136h23.3c2.362,0,4.54,2.311,4.839,5.136l6.027,56.843Z" transform="translate(-2513.95 -2344.096)" fill="#6d72a0"/>
      <path id="Path_39426" data-name="Path 39426" d="M2537.491,2442.7c.042,2.971.538,5.93.442,8.9s-.775,5.979-.062,8.855c.387,1.562,1.183,3.085,1,4.685a1.019,1.019,0,0,0,.105.8.6.6,0,0,0,.879-.128,1.783,1.783,0,0,0,.259-.974q.785-11.8.774-23.646c0-2.854-.04-5.712-.327-8.551a15.133,15.133,0,0,0-.63-3.329,1.687,1.687,0,0,0-.974-1.209c-1.233-.332-.853,1.547-.83,2.1a37.008,37.008,0,0,1-.122,4.195C2537.807,2437.164,2537.451,2439.921,2537.491,2442.7Z" transform="translate(-2523.159 -2377.696)" fill="#efefef"/>
      <g id="Group_16619" data-name="Group 16619" transform="translate(41.781 20.943)">
        <path id="Path_39427" data-name="Path 39427" d="M2628.442,2389.536c-.368,1.2-.873,2.356-1.219,3.564-.612,2.138-.714,4.409-1.439,6.51-.368,1.068-.895,2.08-1.193,3.17a34.686,34.686,0,0,1-.908,4.042c-.522,1.279-1.812,2.423-3.144,2.1a4,4,0,0,1-.883-.37c-.606-.314-1.522-1.2-2.128-1.515-1.115-.577-2.993-2.922-3.79-3.9-.582-.713-1.7-1.321-1.673-2.139.071-1.847-.745-6.153-.441-7.976.043-.255,3.688,3.711,3.888,3.55.378-.3.926.011,1.283.341a11.241,11.241,0,0,1,2.341,3.1c.488.952,1.112,2.155,2.17,2.078.99-.072,1.478-1.23,1.725-2.2,1.5-5.9,2.208-12.143,5.262-17.389a.816.816,0,0,1,.407-.414C2630.222,2381.614,2628.675,2388.778,2628.442,2389.536Z" transform="translate(-2608.063 -2371.878)" fill="#efefef"/>
        <path id="Path_39428" data-name="Path 39428" d="M2618.271,2408.742a2.257,2.257,0,0,1-2.195.907,2.445,2.445,0,0,1-2.324-1.441l-10.438-22.145,5.034-2.632c.47-.292,1.091,1.653,1.3,2.168l7.253,12.792Z" transform="translate(-2603.314 -2372.648)" fill="#efefef"/>
        <path id="Path_39429" data-name="Path 39429" d="M2633.051,2408.7l6.611-24.138c.09-.508-.227-1.228-.736-1.192l-5.019-.042-4.938,17.748Z" transform="translate(-2618.095 -2372.606)" fill="#efefef"/>
        <g id="Group_16616" data-name="Group 16616" transform="translate(6.467)">
          <path id="Path_39430" data-name="Path 39430" d="M2644.032,2359.173h-4.11a.39.39,0,0,1-.365-.57.881.881,0,0,1,.761-.57h4.11a.391.391,0,0,1,.366.57A.881.881,0,0,1,2644.032,2359.173Z" transform="translate(-2630.643 -2358.033)" fill="#000543"/>
          <path id="Path_39431" data-name="Path 39431" d="M2628.76,2376.516h-9.673a.5.5,0,0,1-.472-.735l5.52-15.885a1.138,1.138,0,0,1,.982-.735h9.674a.5.5,0,0,1,.472.735l-5.52,15.885A1.138,1.138,0,0,1,2628.76,2376.516Z" transform="translate(-2618.572 -2358.683)" fill="#88dce5"/>
        </g>
        <g id="Group_16618" data-name="Group 16618" transform="translate(17.559 6.878)">
          <path id="Path_39432" data-name="Path 39432" d="M2651.94,2376.4a.445.445,0,0,1-.227-.581l.558-1.294a.436.436,0,0,1,.574-.229.445.445,0,0,1,.226.581l-.558,1.294A.436.436,0,0,1,2651.94,2376.4Z" transform="translate(-2648.737 -2374.26)" fill="#ff9985"/>
          <g id="Group_16617" data-name="Group 16617" transform="translate(0 0.567)">
            <path id="Path_39433" data-name="Path 39433" d="M2648.666,2385.021a.549.549,0,0,1-.748.22l-2.293-1.272a.561.561,0,0,1-.218-.756.55.55,0,0,1,.748-.221l2.293,1.271A.562.562,0,0,1,2648.666,2385.021Z" transform="translate(-2645.085 -2379.819)" fill="#ff9985"/>
            <path id="Path_39434" data-name="Path 39434" d="M2648.9,2382.736a.55.55,0,0,1-.748.221l-3.129-1.735a.562.562,0,0,1-.218-.756.55.55,0,0,1,.748-.22l3.129,1.735A.562.562,0,0,1,2648.9,2382.736Z" transform="translate(-2644.74 -2378.236)" fill="#ff9985"/>
            <path id="Path_39435" data-name="Path 39435" d="M2651.2,2378.156a.549.549,0,0,1-.748.221l-3.13-1.735a.562.562,0,0,1-.218-.756.55.55,0,0,1,.748-.22l3.129,1.735A.562.562,0,0,1,2651.2,2378.156Z" transform="translate(-2646.064 -2375.597)" fill="#ff9985"/>
            <path id="Path_39436" data-name="Path 39436" d="M2649.587,2380.206a.549.549,0,0,1-.748.22l-3.423-1.9a.562.562,0,0,1-.218-.756.55.55,0,0,1,.748-.221l3.423,1.9A.561.561,0,0,1,2649.587,2380.206Z" transform="translate(-2644.965 -2376.684)" fill="#ff9985"/>
          </g>
        </g>
        <path id="Path_39437" data-name="Path 39437" d="M2654.254,2381.3a7.754,7.754,0,0,1-1.65,2.872l-.322-.566S2652.04,2381.14,2654.254,2381.3Z" transform="translate(-2631.521 -2371.432)" fill="#ff9985"/>
      </g>
      <path id="Path_39438" data-name="Path 39438" d="M2609.292,2596.554l-2.361,8.267,3.376.685,1.736-1.617-.145-.38,1.9-6.043Z" transform="translate(-2563.564 -2475.156)" fill="#ff9985"/>
      <g id="Group_16620" data-name="Group 16620" transform="translate(42.859 128.066)">
        <path id="Path_39439" data-name="Path 39439" d="M2611.254,2612.286l4.619,1.588c1.13.388,1.344,1.188.895,1.783l-10.7-.252.429-2.383a.889.889,0,0,1,.871-.736Z" transform="translate(-2605.934 -2612.286)" fill="#6ac3d1"/>
        <path id="Path_39440" data-name="Path 39440" d="M2605.888,2619.644l-.118.4c-.073.251.226.486.625.49l8.318.09a2.276,2.276,0,0,0,1.88-.732Z" transform="translate(-2605.759 -2616.525)" fill="#000543"/>
      </g>
      <rect id="Rectangle_4171" data-name="Rectangle 4171" width="2.083" height="0.759" rx="0.38" transform="translate(46.166 130.931) rotate(180)" fill="#000543"/>
      <path id="Path_39441" data-name="Path 39441" d="M2638.846,2596.949l-2.361,8.267,3.376.685,1.737-1.617-.145-.38,1.9-6.043Z" transform="translate(-2580.705 -2475.384)" fill="#ff9985"/>
      <g id="Group_16621" data-name="Group 16621" transform="translate(55.268 128.233)">
        <path id="Path_39442" data-name="Path 39442" d="M2640.808,2612.68l4.619,1.588c1.131.389,1.345,1.189.9,1.783l-10.7-.252.429-2.384a.889.889,0,0,1,.872-.735Z" transform="translate(-2635.489 -2612.68)" fill="#6ac3d1"/>
        <path id="Path_39443" data-name="Path 39443" d="M2635.442,2620.038l-.118.4c-.074.251.226.486.625.49l8.318.091a2.275,2.275,0,0,0,1.88-.733Z" transform="translate(-2635.313 -2616.919)" fill="#000543"/>
      </g>
      <rect id="Rectangle_4172" data-name="Rectangle 4172" width="2.082" height="0.759" rx="0.38" transform="translate(58.584 131.098) rotate(-180)" fill="#000543"/>
      <path id="Path_39444" data-name="Path 39444" d="M2571.945,2598.7c-.527,0-.958-.623-.958-1.384v-7.152c0-.762.431-1.385.958-1.385s.957.623.957,1.385v7.152C2572.9,2598.073,2572.471,2598.7,2571.945,2598.7Z" transform="translate(-2542.706 -2470.674)" fill="#fff"/>
      <g id="Group_16622" data-name="Group 16622" transform="translate(10.887 126.997)">
        <ellipse id="Ellipse_1622" data-name="Ellipse 1622" cx="1.803" cy="1.994" rx="1.803" ry="1.994" transform="translate(0.904 0.95)" fill="#6d72a0"/>
        <path id="Path_39445" data-name="Path 39445" d="M2534.176,2612.862h-4.292c-.284,0-.517-.31-.517-.69v-1.718c0-.379.232-.69.517-.69h4.292c.285,0,.517.311.517.69v1.718C2534.693,2612.552,2534.461,2612.862,2534.176,2612.862Z" transform="translate(-2529.368 -2609.764)" fill="#6d72a0"/>
      </g>
      <path id="Path_39446" data-name="Path 39446" d="M2569.113,2612.332h2.929a.569.569,0,0,0,.563-.57v-1.952a.568.568,0,0,0-.563-.57h-2.929a.569.569,0,0,0-.564.57v1.952A.569.569,0,0,0,2569.113,2612.332Z" transform="translate(-2541.297 -2482.465)" fill="#6d72a0"/>
      <path id="Path_39447" data-name="Path 39447" d="M2572.275,2617.071a.919.919,0,0,1-.911-.922v-1.381a.911.911,0,1,1,1.822,0v1.381A.919.919,0,0,1,2572.275,2617.071Z" transform="translate(-2542.925 -2485.119)" fill="#6d72a0"/>
      <path id="Path_39448" data-name="Path 39448" d="M2571.313,2582.768h-.24a1.538,1.538,0,0,1-1.524-1.542v-9.249a1.538,1.538,0,0,1,1.524-1.542h.24a1.538,1.538,0,0,1,1.525,1.542v9.249A1.538,1.538,0,0,1,2571.313,2582.768Z" transform="translate(-2541.875 -2460.108)" fill="#fff"/>
      <path id="Path_39449" data-name="Path 39449" d="M2569.472,2545.382a2.745,2.745,0,0,1-2.872-2.579v-21.363a2.889,2.889,0,0,1,5.745,0V2542.8A2.746,2.746,0,0,1,2569.472,2545.382Z" transform="translate(-2540.171 -2430.395)" fill="#6d72a0"/>
      <path id="Path_39450" data-name="Path 39450" d="M2567.819,2528.362h-12.907a2.223,2.223,0,0,1,0-4.445h12.907a2.223,2.223,0,0,1,0,4.445Z" transform="translate(-2532.139 -2433.068)" fill="#b2c3eb"/>
      <path id="Path_39451" data-name="Path 39451" d="M2528.119,2516.136v2.234a2.984,2.984,0,0,0,2.968,3h44.729a3.285,3.285,0,0,0,3.267-3.324l-.012-1.91Z" transform="translate(-2517.761 -2428.567)" fill="#52587f"/>
      <path id="Path_39452" data-name="Path 39452" d="M2602.251,2431.633c-.59-15.236-3.019-38.773-3.261-44.347l2.68-8.968c-2.272-6.892-12.35-7.534-12.35-7.534l7.774,60.849Z" transform="translate(-2553.369 -2344.558)" fill="#efefef"/>
      <path id="Path_39453" data-name="Path 39453" d="M2608.334,2491.664c-2.151-2.836-5.828-4.362-11.57-4.8-3.907-.3-9.31-.453-15.031-.614-6.583-.186-13.39-.378-17.927-.814-.5-.049-1.844-.177-2.4.922-.576,1.146.287,2.129,1.379,3.373.727.829,1.945,2.216,1.956,3l.014.928.864.312c.978.353,1.927.774,2.808,1.177,4.262,1.95,5.189,2.42,5.877,4.075l.324.779.834.038c6.066.279,14.343.36,20.2.4a2.824,2.824,0,0,1,2.786,2.888,104.215,104.215,0,0,1-5.81,31.644,1.605,1.605,0,0,0,1.511,2.116h5.4a1.97,1.97,0,0,0,1.839-1.277c.358-.943.727-1.889,1.657-4.229,2.062-5.185,4.193-10.547,5.1-15.632.226-1.267.455-2.5.677-3.7C2610.49,2503.3,2611.8,2496.235,2608.334,2491.664Z" transform="translate(-2537.194 -2411.116)" fill="#000543"/>
      <path id="Path_39454" data-name="Path 39454" d="M2594.228,2492.063c-2.152-2.835-5.828-4.362-11.571-4.8-3.907-.3-9.308-.453-15.026-.615-2.634-.074-5.3-.149-7.838-.241l-1.369-.049v11.182l.519.4a3.746,3.746,0,0,1,1.257,1.682l.324.779.834.038c6.388.294,15.314.368,20.693.406a2.339,2.339,0,0,1,2.3,2.39,103.906,103.906,0,0,1-5.8,32.077,1.762,1.762,0,0,0,1.656,2.328h5.625a1.323,1.323,0,0,0,1.237-.863c.583-1.556,1.207-3.126,1.868-4.787,2.062-5.187,4.195-10.551,5.1-15.639.225-1.268.454-2.5.678-3.7C2596.382,2503.7,2597.7,2496.634,2594.228,2492.063Z" transform="translate(-2535.514 -2411.666)" fill="#000543"/>
      <path id="Path_39455" data-name="Path 39455" d="M2572.727,2369.528l-.477-.1q-.562-.113-1.136-.207a52.8,52.8,0,0,0-10.382-.527l.832,51.569s11.547-.22,16.121-.328a1.726,1.726,0,0,0,1.657-1.963l-6.493-48.422Z" transform="translate(-2536.796 -2343.284)" fill="#88dce5"/>
      <path id="Path_39456" data-name="Path 39456" d="M2545.122,2368.765c-.347.013-.695.026-1.036.044-.8.042-1.586.091-2.343.154-5.163.2-10.007,7.694-7.358,15.912l2.159,35.619.505,12,9.168.234Z" transform="translate(-2520.94 -2343.398)" fill="#efefef"/>
      <path id="Path_39457" data-name="Path 39457" d="M2538.153,2515.43l.336,8.661a2.5,2.5,0,0,0,2.236,2.6h5.909a1.851,1.851,0,0,0,1.632-2.115l-.434-9.061Z" transform="translate(-2523.542 -2428.186)" fill="#efefef"/>
      <g id="Group_16623" data-name="Group 16623" transform="translate(36.005 26.017)">
        <path id="Path_39458" data-name="Path 39458" d="M2592.864,2394.449a.278.278,0,0,1-.274-.291l.76-15.382a.735.735,0,0,0-.375-.687l-.854-.456a.686.686,0,0,1-.348-.488.65.65,0,0,1,.155-.551l1.307-1.445a.289.289,0,0,0-.017-.373l-3.761-4.271a.279.279,0,0,1,.023-.391.27.27,0,0,1,.387.023l3.761,4.271a.847.847,0,0,1,.011,1.115l-1.307,1.445a.1.1,0,0,0-.019.083.131.131,0,0,0,.064.092l.854.456a1.281,1.281,0,0,1,.667,1.207l-.759,15.379A.276.276,0,0,1,2592.864,2394.449Z" transform="translate(-2589.387 -2370.044)" fill="#d8d8d8"/>
      </g>
      <g id="Group_16624" data-name="Group 16624" transform="translate(46.091 68.477)">
        <path id="Path_39459" data-name="Path 39459" d="M2615.087,2471.316h-1.437a.277.277,0,0,1,0-.554h1.438a.277.277,0,0,1,0,.554Z" transform="translate(-2613.375 -2470.762)" fill="#d7e1fc"/>
      </g>
      <g id="Group_16625" data-name="Group 16625" transform="translate(39.241 38.33)">
        <path id="Path_39460" data-name="Path 39460" d="M2602.818,2402.948h-4.79a.834.834,0,0,1-.821-.793l-.1-2.157a.745.745,0,0,1,.747-.792h4.79a.833.833,0,0,1,.82.792l.1,2.157A.746.746,0,0,1,2602.818,2402.948Z" transform="translate(-2597.106 -2399.206)" fill="#dceaf9"/>
      </g>
      <g id="Group_16626" data-name="Group 16626" transform="translate(41.967 37.104)">
        <path id="Path_39461" data-name="Path 39461" d="M2603.957,2397.885a.367.367,0,0,1-.365-.352l-.041-.858a.368.368,0,0,1,.347-.387.342.342,0,0,1,.383.351l.041.858a.367.367,0,0,1-.347.387Z" transform="translate(-2603.55 -2396.285)" fill="#6d72a0"/>
      </g>
      <g id="Group_16627" data-name="Group 16627" transform="translate(20.572 25.388)">
        <path id="Path_39462" data-name="Path 39462" d="M2556.3,2394.052a.277.277,0,0,1-.27-.228l-2.869-15.877a1.3,1.3,0,0,1,.4-1.25l.652-.527a.121.121,0,0,0,.028-.079.162.162,0,0,0-.038-.121l-1.3-1.321a.927.927,0,0,1-.14-1.071l2.484-4.876a.273.273,0,0,1,.369-.119.278.278,0,0,1,.118.373l-2.489,4.885a.376.376,0,0,0,.046.416l1.3,1.321a.714.714,0,0,1,.2.543.659.659,0,0,1-.233.481l-.651.527a.746.746,0,0,0-.2.714l2.871,15.88a.277.277,0,0,1-.221.323A.313.313,0,0,1,2556.3,2394.052Z" transform="translate(-2552.649 -2368.554)" fill="#d8d8d8"/>
      </g>
      <g id="Group_16629" data-name="Group 16629" transform="translate(24.147 25.123)">
        <g id="Group_16628" data-name="Group 16628">
          <path id="Path_39463" data-name="Path 39463" d="M2564.626,2387.131a.365.365,0,0,1-.31-.173c-5.445-8.764-2.2-18.706-2.165-18.806a.366.366,0,0,1,.464-.231.371.371,0,0,1,.228.469c-.032.1-3.164,9.714,2.092,18.175a.372.372,0,0,1-.115.51A.362.362,0,0,1,2564.626,2387.131Z" transform="translate(-2561.161 -2367.902)" fill="#6d72a0"/>
        </g>
        <path id="Path_39464" data-name="Path 39464" d="M2568.565,2410.473a1.366,1.366,0,0,1-1.369,1.452,1.529,1.529,0,0,1-1.5-1.452,1.366,1.366,0,0,1,1.368-1.453A1.53,1.53,0,0,1,2568.565,2410.473Z" transform="translate(-2563.77 -2391.592)" fill="#6d72a0"/>
      </g>
      <g id="Group_16630" data-name="Group 16630" transform="translate(33.919 36.676)">
        <path id="Path_39465" data-name="Path 39465" d="M2587.279,2408.365a.37.37,0,0,1,0-.739.488.488,0,0,0,.395-.131,1.46,1.46,0,0,0,.187-1l-.434-9.267a1.231,1.231,0,0,0-1.208-1.167,1.054,1.054,0,0,0-.775.331,1.081,1.081,0,0,0-.291.8l.434,9.267c.017.35.138,1.166.9,1.166a.37.37,0,0,1,0,.739c-.939,0-1.581-.734-1.633-1.871l-.434-9.267a1.817,1.817,0,0,1,.492-1.346,1.776,1.776,0,0,1,1.3-.56,1.972,1.972,0,0,1,1.938,1.871l.434,9.267a2.121,2.121,0,0,1-.387,1.545A1.215,1.215,0,0,1,2587.279,2408.365Z" transform="translate(-2584.42 -2395.321)" fill="#6d72a0"/>
      </g>
      <g id="Group_16631" data-name="Group 16631" transform="translate(34.13 25.714)">
        <path id="Path_39466" data-name="Path 39466" d="M2586.735,2380.945a.375.375,0,0,1-.365-.4,24.665,24.665,0,0,0-1.43-10.75.372.372,0,0,1,.19-.486.365.365,0,0,1,.481.193,24.939,24.939,0,0,1,1.487,11.109A.367.367,0,0,1,2586.735,2380.945Z" transform="translate(-2584.91 -2369.276)" fill="#6d72a0"/>
      </g>
      <g id="Group_16632" data-name="Group 16632" transform="translate(18.759 43.616)">
        <path id="Path_39467" data-name="Path 39467" d="M2551.4,2412.3h-3.182a.277.277,0,0,1,0-.554h3.182a.277.277,0,0,1,0,.554Z" transform="translate(-2547.94 -2411.742)" fill="#d8d8d8"/>
      </g>
      <path id="Path_39468" data-name="Path 39468" d="M2589.091,2424.645a.353.353,0,0,1-.354.375.4.4,0,0,1-.389-.375.354.354,0,0,1,.354-.375A.4.4,0,0,1,2589.091,2424.645Z" transform="translate(-2552.769 -2375.376)" fill="#452a51"/>
      <path id="Path_39469" data-name="Path 39469" d="M2591.1,2424.723a.353.353,0,0,1-.354.375.4.4,0,0,1-.389-.375.353.353,0,0,1,.354-.376A.4.4,0,0,1,2591.1,2424.723Z" transform="translate(-2553.932 -2375.421)" fill="#452a51"/>
      <g id="Group_16633" data-name="Group 16633" transform="translate(19.722 74.373)">
        <path id="Path_39470" data-name="Path 39470" d="M2555.148,2485.313H2550.9a.277.277,0,0,1,0-.554h4.247a.277.277,0,0,1,0,.554Z" transform="translate(-2550.628 -2484.759)" fill="#d8d8d8"/>
      </g>
      <g id="Group_16634" data-name="Group 16634" transform="translate(17.521 74.373)">
        <path id="Path_39471" data-name="Path 39471" d="M2546.859,2485.313h-1.567a.277.277,0,0,1,0-.554h1.567a.277.277,0,0,1,0,.554Z" transform="translate(-2545.018 -2484.759)" fill="#d7e1fc"/>
      </g>
      <g id="Group_16635" data-name="Group 16635" transform="translate(82.137 61.196)">
        <rect id="Rectangle_4173" data-name="Rectangle 4173" width="1.325" height="70.737" fill="#b2c3eb"/>
      </g>
      <g id="Group_16636" data-name="Group 16636" transform="translate(112.924 61.196)">
        <rect id="Rectangle_4174" data-name="Rectangle 4174" width="1.435" height="70.737" fill="#fff"/>
      </g>
      <g id="Group_16637" data-name="Group 16637" transform="translate(72.73 23.818)">
        <path id="Path_39472" data-name="Path 39472" d="M2680.227,2364.843h2.943a2.61,2.61,0,0,0-2.6,2.624v25.356a2.61,2.61,0,0,0,2.6,2.624h-2.943a2.61,2.61,0,0,1-2.6-2.624v-25.356A2.61,2.61,0,0,1,2680.227,2364.843Z" transform="translate(-2677.631 -2364.843)" fill="#6d72a0"/>
        <path id="Path_39473" data-name="Path 39473" d="M2684.574,2392.823v-25.356a2.61,2.61,0,0,1,2.6-2.624h30.964a2.61,2.61,0,0,1,2.6,2.624v25.356a2.61,2.61,0,0,1-2.6,2.624h-30.964A2.61,2.61,0,0,1,2684.574,2392.823Z" transform="translate(-2681.631 -2364.843)" fill="#91b4de"/>
      </g>
      <g id="Group_16638" data-name="Group 16638" transform="translate(88.498 54.26)">
        <rect id="Rectangle_4175" data-name="Rectangle 4175" width="2.2" height="6.251" fill="#6d72a0"/>
        <path id="Path_39474" data-name="Path 39474" d="M2727.754,2437.047v6.251h-8.122v-6.251Z" transform="translate(-2717.433 -2437.047)" fill="#91b4de"/>
      </g>
      <path id="Path_39475" data-name="Path 39475" d="M2580.311,2443.412l7.345,1.854c.329.07-.7,1.853-1.04,1.854l-6.144-.035Z" transform="translate(-2548.126 -2386.464)" fill="#ff9985"/>
      <path id="Path_39476" data-name="Path 39476" d="M2543.218,2408.195l-17.719-.563a1.181,1.181,0,0,1-1.072-1.56l4.115-12.322-5.334-8.527L2515.2,2411.4a1.757,1.757,0,0,0,1.686,2.162l26.477-.045Z" transform="translate(-2510.292 -2352.83)" fill="#efefef"/>
      <rect id="Rectangle_4176" data-name="Rectangle 4176" width="115.778" height="3.774" transform="translate(0.519 60.611)" fill="#fff"/>
      <g id="Group_16639" data-name="Group 16639" transform="translate(82.281 59.76)">
        <rect id="Rectangle_4177" data-name="Rectangle 4177" width="23.349" height="0.863" fill="#6d72a0"/>
      </g>
      <g id="Group_16640" data-name="Group 16640" transform="translate(32.639 60.239)">
        <rect id="Rectangle_4178" data-name="Rectangle 4178" width="1.619" height="71.695" fill="#fff"/>
      </g>
      <g id="Group_16641" data-name="Group 16641" transform="translate(2.589 60.362)">
        <rect id="Rectangle_4179" data-name="Rectangle 4179" width="1.619" height="71.695" fill="#b2c3eb"/>
      </g>
      <g id="Group_16642" data-name="Group 16642" transform="translate(0 60.605)">
        <rect id="Rectangle_4180" data-name="Rectangle 4180" width="35.681" height="3.781" fill="#b2c3eb"/>
      </g>
      <g id="Group_16644" data-name="Group 16644" transform="translate(36.412 58.245)">
        <g id="Group_16643" data-name="Group 16643">
          <path id="Path_39477" data-name="Path 39477" d="M2614.006,2447.7a.059.059,0,0,1,0,.024c-.045,1.593-2.156,1.172-21.232,1.172-1.2,0-2.167-.523-2.184-1.172a.211.211,0,0,1,0-.024c.084-1.594,2.3-1.157,21.232-1.157C2613.01,2446.539,2613.974,2447.054,2614.006,2447.7Z" transform="translate(-2590.591 -2446.484)" fill="#6d72a0"/>
        </g>
        <path id="Path_39478" data-name="Path 39478" d="M2637.071,2447.712c-.082-1.546-3.315-1.157-9.949-1.157-5.626,0-8.937-.381-9.016,1.157.016.673.986,1.2,2.182,1.2h7.462c5.975,0,9.276.377,9.319-1.172C2637.07,2447.718,2637.071,2447.731,2637.071,2447.712Z" transform="translate(-2606.444 -2446.5)" fill="#b2c3eb"/>
      </g>
      <g id="Group_16650" data-name="Group 16650" transform="translate(22.907 0)">
        <path id="Path_39479" data-name="Path 39479" d="M2575.652,2316.2c-.166-.2-.391-.331-.54-.541-.333-.469-.173-1.095-.216-1.661s-.654-1.234-1.031-.872a2.856,2.856,0,0,0-.195-2.5c-1.053-1.281-3.217.087-4.389-1.073-.35-.346-.533-.866-.925-1.154a1.342,1.342,0,0,0-1.715.262,4.307,4.307,0,0,0-.7,1.072,1.026,1.026,0,0,1-.141.073,1.62,1.62,0,0,1-1.123-.044c-.911-.218-1.756.509-2.264,1.478-.214.408-.9-.176-1.145.209-.56.875-1.722,1.282-1.954,2.333a14.8,14.8,0,0,1-.132,1.764c-.207.576-.812.926-.892,1.546-.126.986.743,1.9.783,2.867.019.456.425.885.436,1.055a2.247,2.247,0,0,0,.362,1.049,24.4,24.4,0,0,0,.773,3.628,6.656,6.656,0,0,0,1.141,2.336c0,.006.729.812.729.805a9.089,9.089,0,0,1,.022-1.768,5.545,5.545,0,0,1-.437-1.934,2.009,2.009,0,0,1,.1-3.927l1.185.325c3.822-.454,2.884-4.546,6.357-5.018a6.882,6.882,0,0,1,4.272.523,6.417,6.417,0,0,1,.628,2.968l.035.013c0-.051.455-.43.426-.814l.042.039C2575.8,2318.733,2576.333,2317,2575.652,2316.2Z" transform="translate(-2558.275 -2308.194)" fill="#000543"/>
        <path id="Path_39480" data-name="Path 39480" d="M2572.843,2327.682c-3.472.472-2.536,4.564-6.357,5.018l-1.185-.326a2.015,2.015,0,0,0-.132,3.929,6.363,6.363,0,0,0,.468,1.932,6.937,6.937,0,0,0,5.9,4.066c3.369.2,5.718-2.3,5.918-5.812l.292-5.138c0-.06,0-.118,0-.178a6.42,6.42,0,0,0-.628-2.968A6.885,6.885,0,0,0,2572.843,2327.682Z" transform="translate(-2561.378 -2319.365)" fill="#ff9985"/>
        <g id="Group_16645" data-name="Group 16645" transform="translate(3.482 14.104)">
          <path id="Path_39481" data-name="Path 39481" d="M2572.953,2356.7l.485-13.9a1.119,1.119,0,0,0-1.051-1.175l-4.367-.159a1.117,1.117,0,0,0-1.132,1.1l-.4,11.319a4.276,4.276,0,0,0,2.957,4.267C2572.009,2358.929,2572.936,2357.174,2572.953,2356.7Z" transform="translate(-2566.49 -2341.469)" fill="#ff9985"/>
        </g>
        <g id="Group_16646" data-name="Group 16646" transform="translate(9.19 11.11)">
          <path id="Path_39482" data-name="Path 39482" d="M2581.736,2334.479l-1.389-.074a.374.374,0,0,0-.039.746l1.389.074a.373.373,0,0,0,.039-.746Z" transform="translate(-2579.957 -2334.405)" fill="#000543"/>
        </g>
        <g id="Group_16647" data-name="Group 16647" transform="translate(14.67 11.32)">
          <path id="Path_39483" data-name="Path 39483" d="M2594.662,2334.975l-1.389-.074a.374.374,0,0,0-.039.747l1.39.074a.374.374,0,0,0,.039-.747Z" transform="translate(-2592.884 -2334.901)" fill="#000543"/>
        </g>
        <g id="Group_16648" data-name="Group 16648" transform="translate(14.58 12.648)">
          <path id="Path_39484" data-name="Path 39484" d="M2593.527,2338.72c-.019.366-.226.652-.461.64s-.411-.319-.392-.685.225-.652.461-.64S2593.545,2338.354,2593.527,2338.72Z" transform="translate(-2592.673 -2338.034)" fill="#000543"/>
        </g>
        <g id="Group_16649" data-name="Group 16649" transform="translate(9.365 12.472)">
          <path id="Path_39485" data-name="Path 39485" d="M2581.223,2338.3c-.019.366-.225.653-.46.64s-.411-.319-.392-.686.225-.652.46-.64S2581.242,2337.939,2581.223,2338.3Z" transform="translate(-2580.37 -2337.619)" fill="#000543"/>
        </g>
        <path id="Path_39486" data-name="Path 39486" d="M2587.68,2344.26l-.046-.127a.738.738,0,0,1-.556.594l-.733.166a.556.556,0,0,1-.6-.264l-.019.071a.579.579,0,0,0,.681.719l.733-.165A.752.752,0,0,0,2587.68,2344.26Z" transform="translate(-2574.082 -2328.899)" fill="#fa694f"/>
        <path id="Path_39487" data-name="Path 39487" d="M2582.206,2350.034l2.1.681A1.45,1.45,0,0,1,2582.206,2350.034Z" transform="translate(-2572.062 -2332.299)" fill="#fff"/>
      </g>
      <path id="Path_39488" data-name="Path 39488" d="M2566.221,2367.451s2.281,3.047,4.309,3.45l-.532,3.51a7.128,7.128,0,0,1-4.287-6.472Z" transform="translate(-2539.652 -2342.499)" fill="#6ac3d1"/>
      <path id="Path_39489" data-name="Path 39489" d="M2578.948,2368.349s-.22,2.317-1.983,3.086l1.768,3.144a6.713,6.713,0,0,0,1.606-5.423Z" transform="translate(-2546.176 -2343.018)" fill="#6ac3d1"/>
      <path id="Path_39490" data-name="Path 39490" d="M2576.247,2379.236a.671.671,0,0,0,.217-.251l.5-.967c.348-.672-.094-1.731-.7-1.681l-1.236.1c-.606.051-.772,1.162-.262,1.761l.735.864a.8.8,0,0,0,.19.162l.279,20.773,2.927,2.993,1.763-3.257Z" transform="translate(-2544.732 -2347.677)" fill="#000543"/>
      <g id="Group_16651" data-name="Group 16651" transform="translate(13.969 40.741)">
        <path id="Path_39491" data-name="Path 39491" d="M2555.777,2421.847a.275.275,0,0,1-.274-.269l-.024-.863a.763.763,0,0,0-.734-.746l-16.609-.528a1.529,1.529,0,0,1-1.221-.671,1.563,1.563,0,0,1-.195-1.391l4.071-12.191a.273.273,0,0,1,.347-.174.279.279,0,0,1,.172.352l-4.071,12.191a1.007,1.007,0,0,0,.125.9.987.987,0,0,0,.788.433l16.61.528a1.316,1.316,0,0,1,1.265,1.285l.024.862a.276.276,0,0,1-.266.285Z" transform="translate(-2536.638 -2405)" fill="#d8d8d8"/>
      </g>
      <path id="Path_39492" data-name="Path 39492" d="M2519.76,2383.432c-.382,1.248-.609,2.542-1,3.785-.506,1.594-1.283,3.084-1.894,4.64a47.528,47.528,0,0,0-2.4,10.75,4.262,4.262,0,0,0-.017,1.666,2.975,2.975,0,0,0,1.746,1.835c2.625-9.509,6.667-18.544,10.166-27.76.377-.993,3.027-5.543,2.124-6.089C2525.652,2370.542,2520.308,2381.647,2519.76,2383.432Z" transform="translate(-2509.841 -2345.227)" fill="#efefef"/>
      <path id="Path_39493" data-name="Path 39493" d="M2538.047,2510.894a7.828,7.828,0,0,0-.8.973c-.472.839-.175,1.88-.064,2.839a6.929,6.929,0,0,1-.183,2.557,8.963,8.963,0,0,0-.489,2.089c-.03,1.672,1.463,2.99,3.007,3.591q-.131-6.34-.261-12.679a1.091,1.091,0,0,0-.221-.777C2538.4,2508.87,2538.265,2510.619,2538.047,2510.894Z" transform="translate(-2522.594 -2424.68)" fill="#efefef"/>
      <path id="Path_39494" data-name="Path 39494" d="M2561.165,2519.871a15.851,15.851,0,0,0-.152,2q-.031.9-.061,1.8c-.133.07-.218-.23-.234-.457-.061-.873-.064-1.753-.067-2.632s-.007-1.759-.01-2.638a1.034,1.034,0,0,1,.13-.637c.138-.15.322-.005.463.139.323.33.708.415.489,1.017A7.252,7.252,0,0,0,2561.165,2519.871Z" transform="translate(-2536.706 -2429.213)" fill="#fff"/>
      <path id="Path_39495" data-name="Path 39495" d="M2611.289,2526.3a34.114,34.114,0,0,0-1.178,3.512c-.334,1.7.006,3.458-.125,5.186-.252,3.331-2.226,6.328-2.563,9.652-.094.923-.06,1.862-.237,2.773-.4,2.059-1.857,4.053-1.253,6.059.143.474.605.986,1.042.76a1.009,1.009,0,0,0,.406-.725c1.083-4.772,2.166-9.544,3.072-14.354.877-4.652,1.586-9.335,2.3-14.016a16.019,16.019,0,0,0,.1-6.368c-.17-.658-.747-1.684-1.576-1.213-.77.437-.253,1.4-.059,2.034A11.265,11.265,0,0,1,2611.289,2526.3Z" transform="translate(-2562.903 -2429.58)" fill="#000543"/>
      <path id="Path_39496" data-name="Path 39496" d="M2640.385,2526.017q-.163,2.01-.327,4.02a31.161,31.161,0,0,1-.357,3.106c-.39,2.124-1.219,4.146-1.618,6.27-.331,1.756-.363,3.559-.7,5.315-.648,3.409-2.427,6.623-2.367,10.094a1.431,1.431,0,0,0,.17.768.531.531,0,0,0,.681.216.8.8,0,0,0,.284-.472,101.4,101.4,0,0,0,5.987-30.406q.156-2.042.313-4.083a2.9,2.9,0,0,0-.067-1.153.967.967,0,0,0-.827-.7c-1.23-.016-1.054,1.791-1.012,2.527A32.638,32.638,0,0,1,2640.385,2526.017Z" transform="translate(-2579.856 -2430.47)" fill="#000543"/>
      <g id="Group_16652" data-name="Group 16652" transform="translate(42.062 74.95)">
        <path id="Path_39497" data-name="Path 39497" d="M2612.192,2538.364a.37.37,0,0,1,0-.739.962.962,0,0,0,.894-.625c.592-1.575,1.242-3.211,1.871-4.794,2.058-5.175,4.181-10.518,5.079-15.566.225-1.268.455-2.5.678-3.7,1.647-8.858,2.949-15.854-.421-20.3-2.085-2.747-5.678-4.227-11.309-4.66-1.314-.1-2.849-.191-4.695-.272a.37.37,0,0,1,.031-.74c1.854.082,3.4.172,4.719.274,5.853.45,9.613,2.022,11.833,4.947,3.569,4.7,2.242,11.844.56,20.884-.223,1.2-.451,2.427-.677,3.694-.911,5.122-3.049,10.5-5.117,15.7-.632,1.589-1.281,3.222-1.869,4.79A1.7,1.7,0,0,1,2612.192,2538.364Z" transform="translate(-2603.939 -2486.972)" fill="#2186c4"/>
      </g>
    </g>
    <g id="Group_16680" data-name="Group 16680" transform="translate(2600.878 2318.359)">
      <g id="Group_16677" data-name="Group 16677" transform="translate(0 0)">
        <g id="Group_16660" data-name="Group 16660" transform="translate(3.025 32.023)">
          <g id="Group_16654" data-name="Group 16654" transform="translate(47.296 31.061)">
            <path id="Path_39498" data-name="Path 39498" d="M2854.5,2499.461a.426.426,0,0,1-.422-.5l2.419-15.638a.427.427,0,1,1,.844.133l-2.419,15.638A.428.428,0,0,1,2854.5,2499.461Z" transform="translate(-2854.071 -2482.961)" fill="#6d72a0"/>
          </g>
          <g id="Group_16655" data-name="Group 16655" transform="translate(24.486 31.123)">
            <path id="Path_39499" data-name="Path 39499" d="M2800.623,2499.482a.377.377,0,0,1-.057,0,.37.37,0,0,1-.3-.422l2.419-15.638a.366.366,0,1,1,.722.114l-2.419,15.638A.367.367,0,0,1,2800.623,2499.482Z" transform="translate(-2800.257 -2483.105)" fill="#6d72a0"/>
          </g>
          <g id="Group_16656" data-name="Group 16656" transform="translate(46.936 49.123)">
            <path id="Path_39500" data-name="Path 39500" d="M2859.632,2566.122a.6.6,0,0,1-.59-.515l-5.813-39.341a.6.6,0,1,1,1.181-.178l5.814,39.34a.6.6,0,0,1-.5.687A.584.584,0,0,1,2859.632,2566.122Z" transform="translate(-2853.222 -2525.574)" fill="#6d72a0"/>
          </g>
          <g id="Group_16657" data-name="Group 16657" transform="translate(0 49.123)">
            <path id="Path_39501" data-name="Path 39501" d="M2743.085,2566.122a.586.586,0,0,1-.089-.007.6.6,0,0,1-.5-.687l5.814-39.34a.6.6,0,1,1,1.181.178l-5.814,39.341A.6.6,0,0,1,2743.085,2566.122Z" transform="translate(-2742.488 -2525.573)" fill="#6d72a0"/>
          </g>
          <g id="Group_16658" data-name="Group 16658" transform="translate(22.167 49.123)">
            <path id="Path_39502" data-name="Path 39502" d="M2795.384,2566.122a.579.579,0,0,1-.089-.007.6.6,0,0,1-.5-.687l5.814-39.34a.6.6,0,1,1,1.181.178l-5.814,39.341A.6.6,0,0,1,2795.384,2566.122Z" transform="translate(-2794.786 -2525.573)" fill="#6d72a0"/>
          </g>
          <path id="Path_39503" data-name="Path 39503" d="M2800.3,2522.721a1.309,1.309,0,0,1-1.3,1.316h-44.358a1.316,1.316,0,0,1,0-2.632h44.358A1.309,1.309,0,0,1,2800.3,2522.721Z" transform="translate(-2748.737 -2474.049)" fill="#b2c3eb"/>
          <g id="Group_16659" data-name="Group 16659" transform="translate(23.927)">
            <path id="Path_39504" data-name="Path 39504" d="M2830.791,2441.25h-22.223a3.573,3.573,0,0,1-3.524-4.119l3.226-23a5.086,5.086,0,0,1,4.661-4.453h21.9c2.22,0,3.755,2,3.412,4.453l-3.29,23.457A4.241,4.241,0,0,1,2830.791,2441.25Z" transform="translate(-2802.434 -2409.679)" fill="#95a9d1"/>
            <path id="Path_39505" data-name="Path 39505" d="M2824.6,2441.25H2802.22a3.294,3.294,0,0,1-3.249-3.8l3.27-23.319a5.086,5.086,0,0,1,4.661-4.453h21.9c2.22,0,3.755,2,3.412,4.453l-3.267,23.294A4.429,4.429,0,0,1,2824.6,2441.25Z" transform="translate(-2798.938 -2409.679)" fill="#b2c3eb"/>
          </g>
        </g>
        <g id="Group_16671" data-name="Group 16671">
          <path id="Path_39506" data-name="Path 39506" d="M2764.682,2483.967l3.588-.606-.935-2.476-3.391.594Z" transform="translate(-2751.824 -2418.298)" fill="#ff9985"/>
          <path id="Path_39507" data-name="Path 39507" d="M2756.328,2482.213s-3.394.1-5.71,4.961l6.565-2.46S2756.391,2482.184,2756.328,2482.213Z" transform="translate(-2744.146 -2419.073)" fill="#ff9985"/>
          <path id="Path_39508" data-name="Path 39508" d="M2778.264,2433.957a3.546,3.546,0,0,0,1.508-3.538c-1.771-10.243-4.415-19.39-2.77-19.773,6.639-1.543,7.877,5.344,8.116,6.383,3.961,17.242,3.209,16.945,1.9,19.457-2,3.852-16.665,6.319-20.146,6.743-.4.049-.7-.4-.668-.926C2766.561,2436.133,2764.646,2440.1,2778.264,2433.957Z" transform="translate(-2753.127 -2377.569)" fill="#4db4e8"/>
          <path id="Path_39509" data-name="Path 39509" d="M2822.052,2430.131c1-.362,1.595-2.212,1.141-3.37-2.935-10.37-6.635-19.738-5.006-19.953,6.575-.871,8.6,6.107,8.954,7.164,5.936,17.554,5.138,17.182,4.09,19.552-1.6,3.633-16.233,4.618-19.723,4.691-.4.009-.754-.468-.781-.988C2810.4,2431.123,2808.9,2434.884,2822.052,2430.131Z" transform="translate(-2778.651 -2375.426)" fill="#4db4e8"/>
          <path id="Path_39510" data-name="Path 39510" d="M2806,2333.01a12.231,12.231,0,0,0,2.766,1.86c.911.325,1.923.281,2.858.538s1.868,1.021,1.723,1.922c-.069.427-.37.8-.439,1.222-.193,1.2,1.342,1.9,2.3,2.727a3.721,3.721,0,0,1,1.191,3.731c-.258.947-.906,1.93-.472,2.824.342.7,1.286,1.105,1.407,1.87.177,1.122-1.492,1.7-1.857,2.781-.256.759.193,1.552.379,2.331a3.751,3.751,0,0,1-1.6,3.917,7.775,7.775,0,0,0-2.047,1.364c-.64.827-.5,2.072-1.27,2.795-1.6,1.5-3.444-.339-5.48-.729-2.562-.492-5.581,1.443-7.618-.107-.477-.363-.86-.906-1.463-1.012s-1.212.288-1.833.242c-1.164-.087-1.672-1.543-2.574-2.163-.1-.038-.66-.283-.75-.288-6.329-2.62-10.428-7.664-9.645-12.766.648-4.227,4.5-7.479,9.711-8.887.018-.056.015-.106.035-.163a5.131,5.131,0,0,1,2.848-2.839c2.408-1.165,4.441.381,6.6-.324.827-.271,1.282-1.122,2.064-1.487A3.309,3.309,0,0,1,2806,2333.01Z" transform="translate(-2761.93 -2332.176)" fill="#000543"/>
          <path id="Path_39511" data-name="Path 39511" d="M2747.345,2499.352c7.1.081,25.58.26,32.41-.356,7.988-.722,5.865-15.774-2.187-15.991-16.007-.431-33.008,1.641-39.824,5.636-3.583,2.1-3.022,9.888.877,10.908A22.2,22.2,0,0,0,2747.345,2499.352Z" transform="translate(-2735.351 -2419.553)" fill="#000543"/>
          <path id="Path_39512" data-name="Path 39512" d="M2815.159,2438.458c3.148-2.809-.754-11.2.9-25.974.554-4.953-3.773-13.363-8.02-14.331-5.5-1.254-8.907-2.732-12.072-.734a13.733,13.733,0,0,0-3.081,2.061c-3.718,3.3-.962,8.857.772,13.424,4.5,11.846-.429,10.494.365,18.86.152,1.6-2.083,2.458-.365,2.62,5.937.557,10.611,5.975,18.708,4.831a5.9,5.9,0,0,0,2.672-.815Z" transform="translate(-2767.434 -2369.492)" fill="#4db4e8"/>
          <g id="Group_16661" data-name="Group 16661" transform="translate(23.204 28.233)">
            <path id="Path_39513" data-name="Path 39513" d="M2793.358,2433.765a.276.276,0,0,1-.273-.251,15.105,15.105,0,0,1,.808-6.861c.828-2.59,1.542-4.826-1.154-11.927-.177-.463-.363-.936-.552-1.416-1.7-4.321-3.63-9.218-.146-12.315a13.9,13.9,0,0,1,2.08-1.525.272.272,0,0,1,.375.1.279.279,0,0,1-.1.38,13.386,13.386,0,0,0-2,1.465c-3.195,2.84-1.342,7.544.292,11.694.19.483.377.957.553,1.422,2.767,7.285,1.989,9.719,1.165,12.3a14.433,14.433,0,0,0-.784,6.637.276.276,0,0,1-.246.3Z" transform="translate(-2790.095 -2399.431)" fill="#2186c4"/>
          </g>
          <rect id="Rectangle_4181" data-name="Rectangle 4181" width="1.309" height="0.338" rx="0.169" transform="translate(29.558 19.589) rotate(180)" fill="#fff"/>
          <g id="Group_16669" data-name="Group 16669" transform="translate(22.007 6.858)">
            <g id="Group_16662" data-name="Group 16662" transform="translate(6.851 20.353)">
              <path id="Path_39514" data-name="Path 39514" d="M2805.8,2403.476q2.3-1.527,4.635-3c1-.633,1.4-1.743.869-2.43a4.081,4.081,0,0,0-3.247-1.67c-1.6-.026-4.671.74-4.622,2.395a31.287,31.287,0,0,0,.328,4.25C2803.846,2403.832,2804.908,2404.067,2805.8,2403.476Z" transform="translate(-2803.433 -2396.374)" fill="#ff9985"/>
            </g>
            <g id="Group_16668" data-name="Group 16668">
              <path id="Path_39515" data-name="Path 39515" d="M2792.466,2357.119h6.257a.514.514,0,0,0,.51-.516v-3.371a1.016,1.016,0,0,0-1.008-1.019h-5.759a2.453,2.453,0,0,0,0,4.905Z" transform="translate(-2788.866 -2350.579)" fill="#ffa27f"/>
              <path id="Path_39516" data-name="Path 39516" d="M2813.037,2368.328a6.626,6.626,0,0,1-1.257,2.267,4.6,4.6,0,0,1-1.307-3.207,2.278,2.278,0,0,0,.671-1.794c0-1.071-.5-1.936-1.105-1.931a.472.472,0,0,0-.13.047L2814,2360C2814.476,2361.888,2814.341,2364.553,2813.037,2368.328Z" transform="translate(-2800.313 -2355.063)" fill="#000543"/>
              <g id="Group_16663" data-name="Group 16663" transform="translate(0 2.044)">
                <path id="Path_39517" data-name="Path 39517" d="M2789.443,2353.178a5.739,5.739,0,0,0-2.172,4.5l.022,4.627a5.705,5.705,0,1,0,11.41-.056l-.022-4.475Z" transform="translate(-2787.271 -2353.178)" fill="#ff9985"/>
              </g>
              <g id="Group_16664" data-name="Group 16664" transform="translate(5.048 10.281)">
                <path id="Path_39518" data-name="Path 39518" d="M2808.33,2384.294l-3.4-10.788a1.118,1.118,0,0,0-1.313-.855l-3.788,1.22a1.136,1.136,0,0,0-.581,1.466l3.39,10.759Z" transform="translate(-2799.181 -2372.611)" fill="#ff9985"/>
              </g>
              <path id="Path_39519" data-name="Path 39519" d="M2787.61,2364.176h1.077a.386.386,0,0,1,0,.745h-1.077a.386.386,0,0,1,0-.745Z" transform="translate(-2787.302 -2357.471)" fill="#000543"/>
              <path id="Path_39520" data-name="Path 39520" d="M2792.38,2372.968l.045-.124a.717.717,0,0,0,.449.62l.62.2a.446.446,0,0,0,.522-.231l.013.071c.078.427-.258.8-.615.68l-.62-.2A.784.784,0,0,1,2792.38,2372.968Z" transform="translate(-2790.184 -2362.464)" fill="#fa694f"/>
              <g id="Group_16665" data-name="Group 16665" transform="translate(5.299 7.772)">
                <path id="Path_39521" data-name="Path 39521" d="M2800.458,2367.337c0,.356.185.645.414.645s.414-.288.414-.645-.186-.645-.414-.645S2800.458,2366.98,2800.458,2367.337Z" transform="translate(-2800.167 -2366.692)" fill="#000543"/>
                <path id="Path_39522" data-name="Path 39522" d="M2800.477,2366.692h-.7l.435.439Z" transform="translate(-2799.772 -2366.692)" fill="#000543"/>
              </g>
              <g id="Group_16666" data-name="Group 16666" transform="translate(0.317 7.772)">
                <path id="Path_39523" data-name="Path 39523" d="M2788.7,2367.337c0,.356.186.645.414.645s.414-.288.414-.645-.186-.645-.414-.645S2788.7,2366.98,2788.7,2367.337Z" transform="translate(-2788.413 -2366.692)" fill="#000543"/>
                <path id="Path_39524" data-name="Path 39524" d="M2788.723,2366.692h-.7l.434.439Z" transform="translate(-2788.019 -2366.692)" fill="#000543"/>
              </g>
              <g id="Group_16667" data-name="Group 16667" transform="translate(9.712 8.702)">
                <path id="Path_39525" data-name="Path 39525" d="M2811.788,2368.887a2,2,0,1,1-1.6,1.973A1.814,1.814,0,0,1,2811.788,2368.887Z" transform="translate(-2810.184 -2368.887)" fill="#ff9985"/>
              </g>
              <path id="Path_39526" data-name="Path 39526" d="M2798.686,2355.6c.677,1.038,1.039,2.267,1.74,3.288a5.731,5.731,0,0,0,1.725,1.641,2.527,2.527,0,0,0,2.95.082,2.558,2.558,0,0,0,.372-2.748c-.715-1.912-2.537-3.179-3.42-5.016-.645-1.34-.833-3.031-2.017-3.9a3.963,3.963,0,0,0-2.6-.578,20.633,20.633,0,0,0-3.218.523l-2.321.5a.564.564,0,0,0-.252.1.587.587,0,0,0-.152.263c-.137.375-.67,1.284-.569,1.675.114.438.662.453,1.025.477A8.7,8.7,0,0,1,2798.686,2355.6Z" transform="translate(-2789.37 -2348.356)" fill="#000543"/>
              <path id="Path_39527" data-name="Path 39527" d="M2799.47,2362.054h1.387a.372.372,0,0,1,0,.745h-1.387a.372.372,0,0,1,0-.745Z" transform="translate(-2794.087 -2356.248)" fill="#000543"/>
            </g>
          </g>
          <path id="Path_39528" data-name="Path 39528" d="M2772.78,2499.228a4.508,4.508,0,0,0-8.035.691l-.647,1.5a9.415,9.415,0,0,0-.691,4.944c1.534,11.711,2.535,27.529,1.242,41.141l3.584.057.942-1.287c.43-1.572.193-.126,1.137-7.982h-.046c.95-8.232,3.192-28.249,3.108-33.155C2773.337,2503.055,2773.877,2500.956,2772.78,2499.228Z" transform="translate(-2751.469 -2428.006)" fill="#ff9985"/>
          <path id="Path_39529" data-name="Path 39529" d="M2738.285,2498.625a4.535,4.535,0,0,1,8.062.69l.7,1.5a9.574,9.574,0,0,1,.881,4.944c-1.085,11.71-1.479,27.529.336,41.141l-3.581.057-.562-1.456c-2.642-11.031-6.1-36.063-6.207-40.969C2737.875,2502.451,2737.254,2500.352,2738.285,2498.625Z" transform="translate(-2736.701 -2427.658)" fill="#ff9985"/>
          <g id="Group_16670" data-name="Group 16670" transform="translate(31.578 34.806)">
            <path id="Path_39530" data-name="Path 39530" d="M2811.111,2443.276a1.23,1.23,0,0,1-1.046-1.25c-.039-.73-.095-1.319-.14-1.8-.214-2.244-.12-2.354,2.47-2.913a64.918,64.918,0,0,0,9.178-2.664,1.664,1.664,0,0,0,.838-.929,2.846,2.846,0,0,0,.139-2.077c-.906-3.2-1.883-6.3-2.744-9.034-.844-2.679-1.572-4.992-2.061-6.83a.278.278,0,0,1,.193-.34.274.274,0,0,1,.337.2c.485,1.826,1.212,4.134,2.053,6.806.862,2.739,1.841,5.843,2.74,9.024a3.414,3.414,0,0,1-.157,2.484,2.173,2.173,0,0,1-1.154,1.223,65.389,65.389,0,0,1-9.247,2.683c-2.214.478-2.214.478-2.039,2.318.045.484.1,1.08.141,1.819.021.375.262.726.5.726,5.532-.115,18.111-1.415,19.482-4.527.068-.155.135-.3.2-.434.889-1.888,1.222-2.595-4.3-18.916l-.048-.146a14.462,14.462,0,0,0-1.466-3.237.279.279,0,0,1,.084-.383.272.272,0,0,1,.379.085,14.981,14.981,0,0,1,1.524,3.36l.046.141c5.593,16.535,5.234,17.3,4.276,19.333-.062.133-.128.272-.194.422-1.889,4.287-19.788,4.852-19.968,4.855Z" transform="translate(-2809.851 -2415.036)" fill="#2186c4"/>
          </g>
        </g>
        <g id="Group_16676" data-name="Group 16676" transform="translate(25.775 58.808)">
          <path id="Path_39531" data-name="Path 39531" d="M2796.564,2475.016a.672.672,0,0,0,.5.987,8.462,8.462,0,0,0,5.585-.952l-.285-3.04C2801.334,2472.174,2797.951,2472.86,2796.564,2475.016Z" transform="translate(-2796.338 -2471.962)" fill="#ff9985"/>
          <g id="Group_16672" data-name="Group 16672" transform="translate(1.612 3.331)">
            <path id="Path_39532" data-name="Path 39532" d="M2800.146,2480.686a.185.185,0,0,1-.055-.361l1.763-.562a.181.181,0,0,1,.229.12.184.184,0,0,1-.119.232l-1.762.563A.183.183,0,0,1,2800.146,2480.686Z" transform="translate(-2799.964 -2479.754)" fill="#fa694f"/>
          </g>
          <g id="Group_16673" data-name="Group 16673" transform="translate(0.878 1.403)">
            <path id="Path_39533" data-name="Path 39533" d="M2798.416,2475.962a.185.185,0,0,1-.055-.361l1.219-.387a.181.181,0,0,1,.229.12.184.184,0,0,1-.119.232l-1.219.388A.194.194,0,0,1,2798.416,2475.962Z" transform="translate(-2798.233 -2475.206)" fill="#fa694f"/>
          </g>
          <g id="Group_16674" data-name="Group 16674" transform="translate(0.393 2.814)">
            <path id="Path_39534" data-name="Path 39534" d="M2797.271,2479.811a.183.183,0,0,1-.17-.118.186.186,0,0,1,.1-.24l2.313-.907a.184.184,0,0,1,.237.105.187.187,0,0,1-.1.24l-2.313.907A.2.2,0,0,1,2797.271,2479.811Z" transform="translate(-2797.089 -2478.534)" fill="#fa694f"/>
          </g>
          <g id="Group_16675" data-name="Group 16675" transform="translate(0 2.068)">
            <path id="Path_39535" data-name="Path 39535" d="M2796.344,2477.963a.183.183,0,0,1-.171-.12.187.187,0,0,1,.107-.238l2.166-.819a.182.182,0,0,1,.235.108.186.186,0,0,1-.107.238l-2.166.82A.184.184,0,0,1,2796.344,2477.963Z" transform="translate(-2796.161 -2476.774)" fill="#fa694f"/>
          </g>
          <path id="Path_39536" data-name="Path 39536" d="M2804.258,2471.9l-4.146.168a.368.368,0,0,0,.028.735l3.141-.122a.367.367,0,0,0,.349-.382c-.005-.142.436-.286.632-.356Z" transform="translate(-2798.236 -2471.896)" fill="#ff9985"/>
        </g>
      </g>
      <path id="Path_39537" data-name="Path 39537" d="M2793.548,2378.675c.058.342.527.61,1.1.61s1.045-.267,1.1-.61Z" transform="translate(-2768.881 -2358.966)" fill="#fff"/>
      <g id="Group_16678" data-name="Group 16678" transform="translate(0.73 116.534)">
        <path id="Path_39538" data-name="Path 39538" d="M2738.151,2612.829l2.086-.765a5.3,5.3,0,0,0,7.472-1.309l.036,4.05c.071.258-.218.5-.6.5l-8.036.1C2736.995,2615.439,2736.283,2613.514,2738.151,2612.829Z" transform="translate(-2737.072 -2610.037)" fill="#d7e1fc"/>
        <path id="Path_39539" data-name="Path 39539" d="M2744.538,2611.088l5.387-1.978a2.232,2.232,0,0,1,2.093.658A5.307,5.307,0,0,1,2744.538,2611.088Z" transform="translate(-2741.374 -2609.061)" fill="#ff9985"/>
      </g>
      <g id="Group_16679" data-name="Group 16679" transform="translate(7.432 116.441)">
        <path id="Path_39540" data-name="Path 39540" d="M2753.964,2612.611l2.086-.765a5.3,5.3,0,0,0,7.472-1.308l.036,4.049c.071.258-.217.5-.6.5l-8.036.1C2752.808,2615.221,2752.1,2613.3,2753.964,2612.611Z" transform="translate(-2752.885 -2609.819)" fill="#fff"/>
        <path id="Path_39541" data-name="Path 39541" d="M2760.351,2610.869l5.388-1.978a2.231,2.231,0,0,1,2.092.658A5.307,5.307,0,0,1,2760.351,2610.869Z" transform="translate(-2757.187 -2608.842)" fill="#ff9985"/>
      </g>
    </g>
  </g>
</svg>
