<svg xmlns="http://www.w3.org/2000/svg" width="204.182" height="323.972" viewBox="0 0 204.182 323.972">
  <g id="Group_16057" data-name="Group 16057" transform="translate(-750.867 -315.953)">
    <path id="Path_38589" data-name="Path 38589" d="M779.29,346.987s11.628,52.932,15.071,71.389c2.035,10.953,4.656,16.848,5.8,22.055s-4.788,1.192-4.305,4.6-4.074,7.25-7.2-7.043-1.821-13.286-6.989-25.3-20.88-56.711-20.88-56.711Z" transform="translate(14.27 44.621)" fill="#f09c56"/>
    <path id="Path_38590" data-name="Path 38590" d="M795.8,376.615l-26.781,26.676,6.543,5.916,26.779-26.681Z" transform="translate(26.104 87.221)" fill="#c90e00"/>
    <path id="Path_38591" data-name="Path 38591" d="M795.238,377.2l-24.723,24.634,3.126,2.836,24.729-24.641Z" transform="translate(28.25 88.058)" fill="#e3eee9"/>
    <path id="Path_38592" data-name="Path 38592" d="M773.566,392.789c.948-3.3,8.693-10.234,9.269-7.752s-1.477,9.356-7.835,9.871Z" transform="translate(32.637 98.574)" fill="#f09c56"/>
    <g id="Group_16045" data-name="Group 16045" transform="translate(855.036 366.152)">
      <rect id="Rectangle_3761" data-name="Rectangle 3761" width="100.013" height="14.237" transform="translate(0 259.278)" fill="#669fe8"/>
      <path id="Path_38593" data-name="Path 38593" d="M880.37,437.426H806.847L793.6,450.775H893.611Z" transform="translate(-793.598 -191.497)" fill="#058"/>
      <rect id="Rectangle_3762" data-name="Rectangle 3762" width="9.538" height="252.705" transform="translate(75.576)" fill="#f9f9f9"/>
      <g id="Group_16012" data-name="Group 16012" transform="translate(17.523 59.307)">
        <g id="Group_16009" data-name="Group 16009" transform="translate(20.894 117.183)">
          <path id="Path_38594" data-name="Path 38594" d="M832.306,412.977s-2.55,14.6-2.55,17.564,4.239,12.157,2.55,22.54-2.158,10.158-2.55,16.5c-.578,9.59,5.1,14.2-.31,13.969-5.4-.2-21.682,3.262-18.6-.712,1.882-2.433,9.81-2.874,10.873-7.955,1.038-5.088-3.325-35.455-3.523-39.68-.212-4.242-1.289-26.262-1.289-26.262Z" transform="translate(-807.763 -408.942)" fill="#fdb171"/>
          <path id="Path_38595" data-name="Path 38595" d="M831.488,436.146s4.5,5.2,1.336,9.171c-.817,1.024-4.817.746-4.817.746a2.168,2.168,0,0,0-1.8-.5s-11.838,5.466-15.682,3.162c-.656-.388-1.038.012-1.163-2.806-.054-1.314,2.647-2.752,5.475-4.049,0,0,.2,2.194,6.533.495S831.8,439.591,831.488,436.146Z" transform="translate(-809.357 -369.828)" fill="#669fe8"/>
          <path id="Path_38596" data-name="Path 38596" d="M816.625,440.159l-.907,1.653c-1.326-.734-3.257-3.189-3.2-3.557.331-.144.663-.3.977-.441A16.069,16.069,0,0,0,816.625,440.159Z" transform="translate(-804.811 -367.43)" fill="#669fe8"/>
        </g>
        <g id="Group_16010" data-name="Group 16010" transform="translate(0 114.409)">
          <path id="Path_38597" data-name="Path 38597" d="M823.339,411.836s-2.535,14.6-2.535,17.569c0,2.955,4.22,12.148,2.535,22.535-1.7,10.37-2.16,10.161-2.535,16.511-.6,9.583,5.1,14.178-.317,13.961-5.409-.2-21.682,3.274-18.6-.707,1.889-2.43,9.783-2.877,10.855-7.976,1.051-5.068-3.3-35.443-3.51-39.668s-1.268-26.258-1.268-26.258Z" transform="translate(-799.753 -407.804)" fill="#fdb171"/>
          <path id="Path_38598" data-name="Path 38598" d="M822.046,435.077s4.33,5,1.29,8.808c-.783.99-4.605.722-4.605.722a2.143,2.143,0,0,0-1.741-.483s-11.387,5.249-15.088,3.037c-.617-.38-1,.032-1.117-2.7-.051-1.265,2.545-2.643,5.271-3.881,0,0,.2,2.111,6.268.461C818.4,439.424,822.364,438.387,822.046,435.077Z" transform="translate(-800.786 -368.591)" fill="#669fe8"/>
          <path id="Path_38599" data-name="Path 38599" d="M807.784,438.929l-.878,1.6a9.286,9.286,0,0,1-3.084-3.415c.334-.136.646-.285.968-.432A15.056,15.056,0,0,0,807.784,438.929Z" transform="translate(-796.42 -366.287)" fill="#669fe8"/>
        </g>
        <path id="Path_38600" data-name="Path 38600" d="M835.452,387.733s.8,25.872-6.472,42.176c-7.27,16.284-14.215-13.74-14.215-13.74l14.215-32.14Z" transform="translate(-780.686 -327.577)" fill="#fdb171"/>
        <path id="Path_38601" data-name="Path 38601" d="M821.832,375.28c.907,2.314,8.437,3.871,6.992,11.623s-13.866.851-13.866.851l-2.365-11.731,4.042-3.011Z" transform="translate(-783.809 -343.418)" fill="#713c1f"/>
        <path id="Path_38602" data-name="Path 38602" d="M809.711,373.342c1.926,3.554,2.174,7.318,1.37,9.61-.785,2.277-5.134,4.9-2.843,8.454s15.607,0,15.607,0Z" transform="translate(-791.019 -342.945)" fill="#713c1f"/>
        <path id="Path_38603" data-name="Path 38603" d="M817.732,377.721c1.2,4.561,2.833,10.665-1.375,10.963s-9.848,1.516-10.263,8.518-1.906,13.737-2.481,22.581c-.578,8.805,1.175,29.573,1.175,29.573l38.4-13.525s-3.549-1.49-2.265-8.481-1.721-14.112-1.721-14.112,12.408,3.581,12.44-3.323c.049-10.6.439-20.236-6.455-23.1-6.894-2.838-14.5-1.078-14.776-2.294-.254-1.221-1.765-12.24-1.765-12.24Z" transform="translate(-796.89 -344.469)" fill="#fdb171"/>
        <g id="Group_16011" data-name="Group 16011" transform="translate(10.451)">
          <path id="Path_38604" data-name="Path 38604" d="M806.872,381.065s-3.257-4.946-1.007-9.576c1.765-3.6,5.3-10.763,11.987-10.578C825.936,361.163,806.872,381.065,806.872,381.065Z" transform="translate(-805.073 -360.821)" fill="#713c1f"/>
          <path id="Path_38605" data-name="Path 38605" d="M806.067,370.27a2,2,0,0,0,.427,2.835l1.855,1.37a1.994,1.994,0,0,0,2.813-.429h0a2.023,2.023,0,0,0-.395-2.842l-1.855-1.394a2.067,2.067,0,0,0-2.845.461Z" transform="translate(-804.228 -348.564)" fill="#c90e00"/>
          <path id="Path_38606" data-name="Path 38606" d="M806.034,372.365c2-6.355,6.209-12.63,15.292-11.316,9.59,1.392,13.6,10.141,13.076,15.461a29.184,29.184,0,0,1-2.423,9.529c-.521,1.019-5.327,3.252-6.684,6.4C823.949,395.622,806.034,372.365,806.034,372.365Z" transform="translate(-803.691 -360.873)" fill="#713c1f"/>
          <path id="Path_38607" data-name="Path 38607" d="M823.423,371.838c-.617,1.8-.51,4.549-.778,7.328-.741.346-2.048,1.06-2.979,1.421a27.369,27.369,0,0,1-11.348,2.1s.749-.865,1.909-2.145l13.113-8.752C823.347,371.8,823.376,371.8,823.423,371.838Z" transform="translate(-800.407 -345.178)" fill="#f09f5b"/>
          <path id="Path_38608" data-name="Path 38608" d="M828.165,383.56c-.927,1.772-1.648,4.281-5.041,6.268-3.415,2.021-8.788,4.512-10.349,4.288s-2.835.037-4.632-4.261-3.284-6.407-2.85-10.475.039-12.562,5.509-14.895c4.052-1.743,9.961.21,12.677,3.954,2.755,3.764,2.647,4.995,3.038,10.356,0,0,3.2-3.2,4.3-3.2,1.082,0,1.894.814.963,2.938s-1.411,1.7-1.636,2.816c-.266,1.119-.546,2.226-1.165,2.547C828.185,384.293,828.165,383.56,828.165,383.56Z" transform="translate(-804.865 -356.607)" fill="#fdb171"/>
          <path id="Path_38609" data-name="Path 38609" d="M808.287,364.915s4.832,12.6,13.632,15.814L826.99,370.6l-7.479-7.472Z" transform="translate(-800.452 -357.633)" fill="#713c1f"/>
          <path id="Path_38610" data-name="Path 38610" d="M814.23,367.283s-4.778,5.936-8.876,7.347c0,0,.5-9.2,6.346-12.686Z" transform="translate(-804.669 -359.333)" fill="#713c1f"/>
        </g>
        <path id="Path_38611" data-name="Path 38611" d="M843.6,405.317s-5.96-4.127-6.37-9.607c-.553-7.521,1.843-18.015,1.843-18.015l-5.115-.41s-1.506,8.725-6.29,14.178c-4.344,4.934-16.036,6.548-18.22,3.515-2.708-3.752,3.033-13.21,3.033-13.21s-1.731.356-2.174.48a14.433,14.433,0,0,0-1.721.79s-4.5,14.03-3.127,27.062c.517,5.151,1.389,9.122-.866,20.685,0,0,18.02,6.2,35.114,1.217A53.868,53.868,0,0,1,843.6,405.317Z" transform="translate(-795.309 -337.275)" fill="#db311c"/>
        <path id="Path_38612" data-name="Path 38612" d="M813.959,361.41c1.629.851,10.054,4.941,10.3,16.87.066,3.764-1.6,9.505-4.452,15.624l-5.273.185a47.88,47.88,0,0,1,.429-5.722,9.35,9.35,0,0,0,6.358-8.547c.49-6.9-5.085-11.524-5.085-11.524Z" transform="translate(-781.845 -360.101)" fill="#713c1f"/>
        <path id="Path_38613" data-name="Path 38613" d="M847.141,389.048s-2.155,19.537,0,28.625,4.742,46.811,4.742,46.811-33.876,9.159-49.748-3.986c0,0,.644-27.389,3.893-40.175,3.218-12.769,3.152-19.09,2.972-26.492C808.792,386.435,847.141,389.048,847.141,389.048Z" transform="translate(-798.847 -321.006)" fill="#db311c"/>
      </g>
      <g id="Group_16013" data-name="Group 16013" transform="translate(75.576 23.091)">
        <rect id="Rectangle_3763" data-name="Rectangle 3763" width="4.768" height="2.365" fill="#ababab"/>
      </g>
      <g id="Group_16014" data-name="Group 16014" transform="translate(75.576 30.963)">
        <rect id="Rectangle_3764" data-name="Rectangle 3764" width="4.768" height="2.363" fill="#ababab"/>
      </g>
      <g id="Group_16015" data-name="Group 16015" transform="translate(75.576 38.838)">
        <rect id="Rectangle_3765" data-name="Rectangle 3765" width="4.768" height="2.354" fill="#ababab"/>
      </g>
      <g id="Group_16016" data-name="Group 16016" transform="translate(75.576 7.351)">
        <rect id="Rectangle_3766" data-name="Rectangle 3766" width="4.768" height="2.361" fill="#ababab"/>
      </g>
      <g id="Group_16017" data-name="Group 16017" transform="translate(75.576 15.227)">
        <rect id="Rectangle_3767" data-name="Rectangle 3767" width="4.768" height="2.357" fill="#ababab"/>
      </g>
      <g id="Group_16018" data-name="Group 16018" transform="translate(75.576 23.091)">
        <rect id="Rectangle_3768" data-name="Rectangle 3768" width="4.768" height="2.365" fill="#ababab"/>
      </g>
      <g id="Group_16019" data-name="Group 16019" transform="translate(75.576 46.705)">
        <rect id="Rectangle_3769" data-name="Rectangle 3769" width="4.768" height="2.359" fill="#ababab"/>
      </g>
      <g id="Group_16020" data-name="Group 16020" transform="translate(75.576 54.582)">
        <rect id="Rectangle_3770" data-name="Rectangle 3770" width="4.768" height="2.355" fill="#ababab"/>
      </g>
      <g id="Group_16021" data-name="Group 16021" transform="translate(75.576 62.448)">
        <rect id="Rectangle_3771" data-name="Rectangle 3771" width="4.768" height="2.361" fill="#ababab"/>
      </g>
      <g id="Group_16022" data-name="Group 16022" transform="translate(75.576 70.323)">
        <rect id="Rectangle_3772" data-name="Rectangle 3772" width="4.768" height="2.361" fill="#ababab"/>
      </g>
      <g id="Group_16023" data-name="Group 16023" transform="translate(75.576 78.192)">
        <rect id="Rectangle_3773" data-name="Rectangle 3773" width="4.768" height="2.361" fill="#ababab"/>
      </g>
      <g id="Group_16024" data-name="Group 16024" transform="translate(75.576 86.067)">
        <rect id="Rectangle_3774" data-name="Rectangle 3774" width="4.768" height="2.363" fill="#ababab"/>
      </g>
      <g id="Group_16025" data-name="Group 16025" transform="translate(75.576 93.935)">
        <rect id="Rectangle_3775" data-name="Rectangle 3775" width="4.768" height="2.361" fill="#ababab"/>
      </g>
      <g id="Group_16026" data-name="Group 16026" transform="translate(75.576 101.807)">
        <rect id="Rectangle_3776" data-name="Rectangle 3776" width="4.768" height="2.361" fill="#ababab"/>
      </g>
      <g id="Group_16027" data-name="Group 16027" transform="translate(75.576 109.677)">
        <rect id="Rectangle_3777" data-name="Rectangle 3777" width="4.768" height="2.359" fill="#ababab"/>
      </g>
      <g id="Group_16028" data-name="Group 16028" transform="translate(75.576 117.545)">
        <rect id="Rectangle_3778" data-name="Rectangle 3778" width="4.768" height="2.365" fill="#ababab"/>
      </g>
      <g id="Group_16029" data-name="Group 16029" transform="translate(75.576 125.422)">
        <rect id="Rectangle_3779" data-name="Rectangle 3779" width="4.768" height="2.359" fill="#ababab"/>
      </g>
      <g id="Group_16030" data-name="Group 16030" transform="translate(75.576 133.29)">
        <rect id="Rectangle_3780" data-name="Rectangle 3780" width="4.768" height="2.363" fill="#ababab"/>
      </g>
      <g id="Group_16031" data-name="Group 16031" transform="translate(75.576 141.164)">
        <rect id="Rectangle_3781" data-name="Rectangle 3781" width="4.768" height="2.359" fill="#ababab"/>
      </g>
      <g id="Group_16032" data-name="Group 16032" transform="translate(75.576 149.032)">
        <rect id="Rectangle_3782" data-name="Rectangle 3782" width="4.768" height="2.363" fill="#ababab"/>
      </g>
      <g id="Group_16033" data-name="Group 16033" transform="translate(75.576 156.909)">
        <rect id="Rectangle_3783" data-name="Rectangle 3783" width="4.768" height="2.361" fill="#ababab"/>
      </g>
      <g id="Group_16034" data-name="Group 16034" transform="translate(75.576 164.775)">
        <rect id="Rectangle_3784" data-name="Rectangle 3784" width="4.768" height="2.365" fill="#ababab"/>
      </g>
      <g id="Group_16035" data-name="Group 16035" transform="translate(75.576 172.649)">
        <rect id="Rectangle_3785" data-name="Rectangle 3785" width="4.768" height="2.359" fill="#ababab"/>
      </g>
      <g id="Group_16036" data-name="Group 16036" transform="translate(75.576 180.517)">
        <rect id="Rectangle_3786" data-name="Rectangle 3786" width="4.768" height="2.361" fill="#ababab"/>
      </g>
      <g id="Group_16037" data-name="Group 16037" transform="translate(75.576 188.392)">
        <rect id="Rectangle_3787" data-name="Rectangle 3787" width="4.768" height="2.361" fill="#ababab"/>
      </g>
      <g id="Group_16038" data-name="Group 16038" transform="translate(75.576 196.262)">
        <rect id="Rectangle_3788" data-name="Rectangle 3788" width="4.768" height="2.361" fill="#ababab"/>
      </g>
      <g id="Group_16039" data-name="Group 16039" transform="translate(75.576 204.136)">
        <rect id="Rectangle_3789" data-name="Rectangle 3789" width="4.768" height="2.361" fill="#ababab"/>
      </g>
      <g id="Group_16040" data-name="Group 16040" transform="translate(75.576 212.006)">
        <rect id="Rectangle_3790" data-name="Rectangle 3790" width="4.768" height="2.359" fill="#ababab"/>
      </g>
      <g id="Group_16041" data-name="Group 16041" transform="translate(75.576 219.874)">
        <rect id="Rectangle_3791" data-name="Rectangle 3791" width="4.768" height="2.366" fill="#ababab"/>
      </g>
      <g id="Group_16042" data-name="Group 16042" transform="translate(75.576 227.747)">
        <rect id="Rectangle_3792" data-name="Rectangle 3792" width="4.768" height="2.365" fill="#ababab"/>
      </g>
      <g id="Group_16043" data-name="Group 16043" transform="translate(75.576 235.616)">
        <rect id="Rectangle_3793" data-name="Rectangle 3793" width="4.768" height="2.37" fill="#ababab"/>
      </g>
      <g id="Group_16044" data-name="Group 16044" transform="translate(75.576 243.491)">
        <rect id="Rectangle_3794" data-name="Rectangle 3794" width="4.768" height="2.355" fill="#ababab"/>
      </g>
      <path id="Path_38614" data-name="Path 38614" d="M858.786,367.363h-57.78v-6.8l57.78-4.525Z" transform="translate(-782.946 -308.517)" fill="#5d8cc7"/>
      <rect id="Rectangle_3795" data-name="Rectangle 3795" width="14.812" height="14.814" transform="translate(73.209 44.758)" fill="#5d8cc7"/>
    </g>
    <g id="Group_16055" data-name="Group 16055" transform="translate(750.867 315.953)">
      <g id="Group_16054" data-name="Group 16054" transform="translate(0.5 0.993)">
        <path id="Path_38615" data-name="Path 38615" d="M759.807,403.059c1.143,4.205,4.017,16.621,2.106,19.293-1.906,2.694-6.6,18.986-4.259,37.693s4.334,31.726,2.389,35.543-3.737,8.011-3.045,11.09c.709,3.042,16.833,13.912,27.737,11.618a138.633,138.633,0,0,0-9.439-10.675c-5.214-5.483-3.744-31.25-2.577-39.841,1.112-8.6,10.673-41.355,9.771-47.566s4.254-27.459,4.254-27.459Z" transform="translate(-742.769 -206.522)" fill="#f09c56"/>
        <path id="Path_38616" data-name="Path 38616" d="M758.609,437.4a15.083,15.083,0,0,0-2.106,11.892,51.472,51.472,0,0,1,1.7,14.627h2.889s6.156-8.6,7.735-4.861,0,4.861,14.9,4.861c7.321,0,10.47-2.718,9.025-5.575-.958-1.911-4.824-3.9-7.562-5.1C785.191,453.237,773.918,457.869,758.609,437.4Z" transform="translate(-743.902 -142.335)" fill="#004169"/>
        <path id="Path_38617" data-name="Path 38617" d="M754.058,398.777c1.151,4.205,6.96,21.506,5.056,24.166s-6.609,18.986-4.266,37.71c2.37,18.71,4.354,31.706,2.4,35.509-1.953,3.83-3.73,8.037-3.028,11.1s16.835,13.9,27.732,11.614a142.388,142.388,0,0,0-9.466-10.68c-5.2-5.478-3.723-31.235-2.582-39.819s10.653-43.056,9.749-49.248-.288-25.809-.288-25.809Z" transform="translate(-746.779 -205.709)" fill="#ffba80"/>
        <path id="Path_38618" data-name="Path 38618" d="M755.824,437.97a15.12,15.12,0,0,0-2.111,11.913,52.065,52.065,0,0,1,1.694,14.6h25.531c7.316,0,10.458-2.718,9.025-5.573-.958-1.9-4.82-3.915-7.572-5.11C782.391,453.806,771.121,458.44,755.824,437.97Z" transform="translate(-747.913 -141.51)" fill="#058"/>
        <g id="Group_16052" data-name="Group 16052" transform="translate(4.198)">
          <g id="Group_16051" data-name="Group 16051">
            <g id="Group_16049" data-name="Group 16049">
              <g id="Group_16046" data-name="Group 16046" transform="translate(42.218 25.164)">
                <path id="Path_38619" data-name="Path 38619" d="M773.247,328.416s-2.611-.044-3.135-1.733l.041,1.543A5.155,5.155,0,0,0,773.247,328.416Z" transform="translate(-770.112 -326.683)" fill="#17050a"/>
              </g>
              <g id="Group_16048" data-name="Group 16048" transform="translate(12.895 11.998)">
                <g id="Group_16047" data-name="Group 16047">
                  <path id="Path_38620" data-name="Path 38620" d="M785.734,321.282c1.819,1.521,3.513,5.575,3.569,8.857.044,3.3-.236,3.506-.853,4.529-1.014,1.709.671,3.442,1.529,4.637,1.324,1.867,3.035,3.391.719,4.276-2.606,1.012-1.914,2.072-1.19,2.816.531.556-.588,1.47-.931,1.753,0,0,1.109,1.209.268,1.853s-1.721.471-1.821,1.163c-.117.68.451,3.452-.931,4.276s-4.788-.219-6.592-.492a10.062,10.062,0,0,0-6.365,1.541c-.978.707.185,2.4-.668,3.028-4.254,3.184-9.054,3.54-13.9-4.359-1.843-2.977,2.162-9.627,2.411-9.788.215-.212,14.459-15.773,14.459-15.773Z" transform="translate(-758.084 -321.282)" fill="#fdb171"/>
                </g>
              </g>
              <path id="Path_38621" data-name="Path 38621" d="M756.742,348.614s6.533,2.6,5.933,5.453c-1,4.771-4.9,12.45-6.433,12.45-2.472-.007,29.5,18.986,25.97,11.343-2.784-6.075-2.784-6.075-4.359-12.777-.275-1.092-1.787-3.318-.851-4.934,6.57-11.126,13.193-32.957,13.193-32.957l-9.071-6.387s-26.787,9.344-26.221,9.537C755.467,330.511,756.742,348.614,756.742,348.614Z" transform="translate(-749.773 -309.969)" fill="#fdb171"/>
              <path id="Path_38622" data-name="Path 38622" d="M794.458,329.631c.1-2.716-5.885-11.063-15.929-12.8-10.01-1.738-15.936,1-22.823,13.186,0,0-3.815,6.219-2.713,12.33.956,5.253,6,11.665,9.332,15.78a14.02,14.02,0,0,1,2.628,4.968c1.858-.085,9.393-8.062,9.454-11.221.007-.6-2.525,2.006-2.491-.58a6.893,6.893,0,0,0-2.231-5.044,3.99,3.99,0,0,1,.217-4.244c1.512-2.153,4.639-1.336,5.314-.5s1.5,2.067,1.5,2.067,3.2-1.333,3.713-2.969c.5-1.614.473-4.571,2.479-5.007a21.458,21.458,0,0,0,7.518-2.879A22.371,22.371,0,0,0,794.458,329.631Z" transform="translate(-752.794 -316.36)" fill="#17050a"/>
              <path id="Path_38623" data-name="Path 38623" d="M779.489,337.923s-8.179-.712-5.736,10.96c2.46,11.665-15.66-4.325-15.66-4.325l13.6-11.436Z" transform="translate(-745.177 -292.259)" fill="#fdb171"/>
            </g>
            <g id="Group_16050" data-name="Group 16050" transform="translate(23.948 37.843)">
              <path id="Path_38624" data-name="Path 38624" d="M762.693,331.955c0-.012-.022-.046,0-.071C762.7,331.884,762.693,331.923,762.693,331.955Z" transform="translate(-762.522 -331.884)" fill="#f09c56"/>
              <path id="Path_38625" data-name="Path 38625" d="M762.789,331.913c-1.285,4.837,5.085,10.266,5.09,10.28a5.776,5.776,0,0,1,4.924-2.538,1.432,1.432,0,0,0,.178.007c.395.068.877.163,1.411.266C762.747,337.63,762.725,332.576,762.789,331.913Z" transform="translate(-762.618 -331.842)" fill="#f09c56"/>
            </g>
          </g>
        </g>
        <g id="Group_16053" data-name="Group 16053" transform="translate(0 51.193)">
          <path id="Path_38626" data-name="Path 38626" d="M766.3,337.36s-15.37,8.688-14.7,37.425c.249,10.636,4.61,22.862,3.671,43.783-.407,8.974-3.223,22.143-3.645,31.192-1.251,26.947,0,59.49,0,59.49l45.519-.648s.746-37.094.746-64.838c0-19.083,2.294-38.671,2.5-43.573,1.524-36.292-14.707-50.126-14.707-50.126Z" transform="translate(-751.072 -337.36)" fill="#eaeaea"/>
        </g>
      </g>
      <path id="Path_38627" data-name="Path 38627" d="M772.59,326.818a10.862,10.862,0,1,1-10.863-10.865A10.863,10.863,0,0,1,772.59,326.818Z" transform="translate(-750.867 -315.953)" fill="#17050a"/>
    </g>
    <path id="Path_38628" data-name="Path 38628" d="M777.792,387.413l14.741-17.031s-17.589-28.159-28.751-27.045S744.762,361.2,777.792,387.413Z" transform="translate(4.698 39.328)" fill="#e3eee9"/>
    <g id="Group_16056" data-name="Group 16056" transform="translate(780.957 377.55)">
      <path id="Path_38629" data-name="Path 38629" d="M780.2,428.82c.522-15.851,2.165-30.329,2.335-34.444,1.524-36.292-14.707-50.126-14.707-50.126l-4.342-2.847c2.735,2.235,12.989,15.351,16.494,87.473Z" transform="translate(-762.809 -340.958)" fill="#e0e0e0"/>
      <path id="Path_38630" data-name="Path 38630" d="M763.21,341.22h0l.009,0Z" transform="translate(-763.21 -341.22)" fill="#e3eee9"/>
    </g>
    <path id="Path_38631" data-name="Path 38631" d="M758.7,344.935c-5.7,4.607-3.94,12.252,3.44,20.285,8.383,9.112,30.316,37,40.936,34.29,10.853-2.767,46.967-14.719,53.178-16.667,4.025-1.265,16.558-5.151,14.9-6.848-3.22-3.318-14.941-1.85-17.313-.458-8.393,4.951-37.874,4.142-49.741,8.6C804.1,384.139,772.1,334.123,758.7,344.935Z" transform="translate(6.407 39.469)" fill="#fdb171"/>
    <path id="Path_38632" data-name="Path 38632" d="M777.792,385.435l15.641-17.957s-18.488-27.23-29.651-26.124S744.762,359.226,777.792,385.435Z" transform="translate(4.698 36.475)" fill="#e0e0e0"/>
  </g>
</svg>
