<svg xmlns="http://www.w3.org/2000/svg" xmlns:xlink="http://www.w3.org/1999/xlink" width="160.081" height="109.995" viewBox="0 0 160.081 109.995">
  <defs>
    <clipPath id="clip-path">
      <rect id="SVGID" width="89.534" height="77.169" fill="none"/>
    </clipPath>
    <linearGradient id="linear-gradient" x1="-1.25" y1="-16.087" x2="-1.25" y2="-15.159" gradientUnits="objectBoundingBox">
      <stop offset="0"/>
      <stop offset="0.104" stop-color="#040506"/>
      <stop offset="0.251" stop-color="#101518"/>
      <stop offset="0.422" stop-color="#232f36"/>
      <stop offset="0.612" stop-color="#3e5360"/>
      <stop offset="0.815" stop-color="#608195"/>
      <stop offset="1" stop-color="#84b1cc"/>
    </linearGradient>
    <linearGradient id="linear-gradient-2" x1="-1.638" y1="-16.116" x2="-1.119" y2="-16.116" gradientUnits="objectBoundingBox">
      <stop offset="0" stop-color="#0088a8"/>
      <stop offset="0.185" stop-color="#fff"/>
      <stop offset="0.282" stop-color="#00cffd"/>
      <stop offset="0.35" stop-color="#02cffd"/>
      <stop offset="0.382" stop-color="#09d0fd"/>
      <stop offset="0.407" stop-color="#16d3fd"/>
      <stop offset="0.428" stop-color="#28d6fd"/>
      <stop offset="0.446" stop-color="#40dbfd"/>
      <stop offset="0.462" stop-color="#5de0fd"/>
      <stop offset="0.478" stop-color="#80e7fe"/>
      <stop offset="0.492" stop-color="#a9eefe"/>
      <stop offset="0.505" stop-color="#d5f7fe"/>
      <stop offset="0.515" stop-color="#fff"/>
      <stop offset="0.651" stop-color="#fff"/>
      <stop offset="0.951" stop-color="#006b83"/>
      <stop offset="0.963" stop-color="#147f96"/>
      <stop offset="0.987" stop-color="#39a3bb"/>
      <stop offset="1" stop-color="#48b2c9"/>
    </linearGradient>
  </defs>
  <g id="Group_17844" data-name="Group 17844" transform="translate(-1681.555 -2899.63)">
    <g id="Group_17743" data-name="Group 17743" transform="translate(1691.841 3008.407)">
      <path id="Path_41407" data-name="Path 41407" d="M1756.975,3398.584H1883.6a.614.614,0,0,0,0-1.218H1756.975a.614.614,0,0,0,0,1.218Z" transform="translate(-1756.438 -3397.366)" fill="#97c4de"/>
    </g>
    <g id="Group_17744" data-name="Group 17744" transform="translate(1718.411 2922.417)">
      <rect id="Rectangle_4930" data-name="Rectangle 4930" width="4.349" height="1.009" transform="translate(0 1.67)" fill="#67baed"/>
      <rect id="Rectangle_4931" data-name="Rectangle 4931" width="4.349" height="1.009" transform="translate(2.679 0) rotate(90)" fill="#67baed"/>
    </g>
    <g id="Group_17745" data-name="Group 17745" transform="translate(1824.238 2999.662)">
      <rect id="Rectangle_4932" data-name="Rectangle 4932" width="4.349" height="1.009" transform="translate(0 1.67)" fill="#67baed"/>
      <rect id="Rectangle_4933" data-name="Rectangle 4933" width="4.349" height="1.009" transform="translate(2.679 0) rotate(90)" fill="#67baed"/>
    </g>
    <g id="Group_17746" data-name="Group 17746" transform="translate(1743.931 2975.799)">
      <path id="Path_41408" data-name="Path 41408" d="M1978.279,3261.4a2.532,2.532,0,1,1,2.863,2.151A2.535,2.535,0,0,1,1978.279,3261.4Zm3.671-.521a1.175,1.175,0,1,0-1,1.329A1.177,1.177,0,0,0,1981.95,3260.875Z" transform="translate(-1978.254 -3258.508)" fill="#67baed"/>
    </g>
    <g id="Group_17747" data-name="Group 17747" transform="translate(1792.528 2940.404)">
      <path id="Path_41409" data-name="Path 41409" d="M2185.228,3110.669a2.532,2.532,0,1,1,2.863,2.151A2.535,2.535,0,0,1,2185.228,3110.669Zm3.671-.521a1.175,1.175,0,1,0-1,1.329A1.177,1.177,0,0,0,2188.9,3110.148Z" transform="translate(-2185.203 -3107.781)" fill="#67baed"/>
    </g>
    <g id="Group_17781" data-name="Group 17781" transform="translate(1750.743 2899.63)">
      <g id="Group_17754" data-name="Group 17754" transform="translate(37.314 0)">
        <g id="Group_17749" data-name="Group 17749">
          <g id="Group_17748" data-name="Group 17748">
            <path id="Path_41410" data-name="Path 41410" d="M2171.939,2934.552a5.378,5.378,0,1,1-5.378,5.378,5.384,5.384,0,0,1,5.378-5.378Zm0-.4a5.78,5.78,0,1,0,5.78,5.781,5.781,5.781,0,0,0-5.78-5.781Z" transform="translate(-2166.159 -2934.15)" fill="#e6e6e6"/>
          </g>
        </g>
        <g id="Group_17753" data-name="Group 17753" transform="translate(2.228 2.037)">
          <g id="Group_17750" data-name="Group 17750">
            <path id="Path_41411" data-name="Path 41411" d="M2180.81,2943.075a.517.517,0,0,1,.353.138l1.072.988a.52.52,0,0,1,.03.735l-4.394,4.765a.521.521,0,0,1-.736.03l-1.071-.988a.521.521,0,0,1-.03-.735l4.394-4.764a.515.515,0,0,1,.383-.168Zm0-.25a.769.769,0,0,0-.566.248l-4.394,4.765a.771.771,0,0,0,.044,1.088l1.072.988a.77.77,0,0,0,1.088-.044l4.395-4.765a.771.771,0,0,0-.044-1.089l-1.071-.988a.767.767,0,0,0-.522-.2Z" transform="translate(-2175.645 -2942.825)" fill="#e6e6e6"/>
          </g>
          <g id="Group_17751" data-name="Group 17751" transform="translate(4.745 0.577)">
            <path id="Path_41412" data-name="Path 41412" d="M2196.837,2945.624a.2.2,0,1,1-.012-.289A.2.2,0,0,1,2196.837,2945.624Z" transform="translate(-2196.334 -2945.281)" fill="#e6e6e6"/>
            <path id="Path_41413" data-name="Path 41413" d="M2199.248,2947.848a.2.2,0,1,1-.011-.289A.2.2,0,0,1,2199.248,2947.848Z" transform="translate(-2198.18 -2946.983)" fill="#e6e6e6"/>
            <path id="Path_41414" data-name="Path 41414" d="M2201.659,2950.072a.2.2,0,1,1-.012-.289A.2.2,0,0,1,2201.659,2950.072Z" transform="translate(-2200.024 -2948.685)" fill="#e6e6e6"/>
            <path id="Path_41415" data-name="Path 41415" d="M2196.207,2948.661a.2.2,0,1,1-.012-.289A.2.2,0,0,1,2196.207,2948.661Z" transform="translate(-2195.852 -2947.605)" fill="#e6e6e6"/>
            <path id="Path_41416" data-name="Path 41416" d="M2198.618,2950.885a.2.2,0,1,1-.011-.289A.2.2,0,0,1,2198.618,2950.885Z" transform="translate(-2197.697 -2949.307)" fill="#e6e6e6"/>
          </g>
          <g id="Group_17752" data-name="Group 17752" transform="translate(0.574 5.069)">
            <path id="Path_41417" data-name="Path 41417" d="M2182.968,2969.736a.2.2,0,1,1,.011.289A.2.2,0,0,1,2182.968,2969.736Z" transform="translate(-2181.781 -2968.435)" fill="#e6e6e6"/>
            <path id="Path_41418" data-name="Path 41418" d="M2180.557,2967.513a.2.2,0,1,1,.012.289A.2.2,0,0,1,2180.557,2967.513Z" transform="translate(-2179.936 -2966.734)" fill="#e6e6e6"/>
            <path id="Path_41419" data-name="Path 41419" d="M2178.146,2965.289a.2.2,0,1,1,.012.289A.2.2,0,0,1,2178.146,2965.289Z" transform="translate(-2178.091 -2965.032)" fill="#e6e6e6"/>
            <path id="Path_41420" data-name="Path 41420" d="M2183.6,2966.7a.2.2,0,1,1,.012.289A.2.2,0,0,1,2183.6,2966.7Z" transform="translate(-2182.263 -2966.111)" fill="#e6e6e6"/>
            <path id="Path_41421" data-name="Path 41421" d="M2181.187,2964.476a.2.2,0,1,1,.012.289A.2.2,0,0,1,2181.187,2964.476Z" transform="translate(-2180.419 -2964.41)" fill="#e6e6e6"/>
          </g>
          <path id="Rectangle_4934" data-name="Rectangle 4934" d="M.974,0h.532a.975.975,0,0,1,.975.975v0a.975.975,0,0,1-.975.975H.974A.974.974,0,0,1,0,.975v0A.974.974,0,0,1,.974,0Z" transform="matrix(0.678, -0.735, 0.735, 0.678, 1.975, 3.866)" fill="#e6e6e6"/>
        </g>
      </g>
      <g id="Group_17780" data-name="Group 17780" transform="translate(0 2.394)">
        <g id="Group_17755" data-name="Group 17755" transform="translate(69.944 6.959)">
          <path id="Path_41422" data-name="Path 41422" d="M2305.359,3007.548a.248.248,0,0,0,.248-.248v-1.246a.248.248,0,0,0-.5,0v1.246A.248.248,0,0,0,2305.359,3007.548Z" transform="translate(-2305.11 -2998.333)" fill="#e6e6e6"/>
          <path id="Path_41423" data-name="Path 41423" d="M2305.359,2996.939a.248.248,0,0,0,.248-.248v-1.245a.248.248,0,1,0-.5,0v1.245A.248.248,0,0,0,2305.359,2996.939Z" transform="translate(-2305.11 -2990.215)" fill="#e6e6e6"/>
          <path id="Path_41424" data-name="Path 41424" d="M2305.359,2986.331a.248.248,0,0,0,.248-.248v-1.246a.248.248,0,1,0-.5,0v1.246A.248.248,0,0,0,2305.359,2986.331Z" transform="translate(-2305.11 -2982.098)" fill="#e6e6e6"/>
          <path id="Path_41425" data-name="Path 41425" d="M2305.359,2975.723a.248.248,0,0,0,.248-.248v-1.246a.248.248,0,1,0-.5,0v1.246A.248.248,0,0,0,2305.359,2975.723Z" transform="translate(-2305.11 -2973.981)" fill="#e6e6e6"/>
          <path id="Path_41426" data-name="Path 41426" d="M2305.607,3038.9v-1.023a.248.248,0,0,0-.5,0v1.023Z" transform="translate(-2305.11 -3022.683)" fill="#e6e6e6"/>
          <path id="Path_41427" data-name="Path 41427" d="M2305.359,3028.764a.248.248,0,0,0,.248-.249v-1.246a.248.248,0,0,0-.5,0v1.246A.248.248,0,0,0,2305.359,3028.764Z" transform="translate(-2305.11 -3014.566)" fill="#e6e6e6"/>
          <path id="Path_41428" data-name="Path 41428" d="M2305.359,3018.156a.248.248,0,0,0,.248-.248v-1.245a.248.248,0,1,0-.5,0v1.245A.248.248,0,0,0,2305.359,3018.156Z" transform="translate(-2305.11 -3006.45)" fill="#e6e6e6"/>
        </g>
        <g id="Group_17756" data-name="Group 17756" transform="translate(69.348 5.118)">
          <path id="Path_41429" data-name="Path 41429" d="M2303.417,2967.232a.248.248,0,0,1-.248-.248v-.348h-.348a.248.248,0,1,1,0-.5h.6a.248.248,0,0,1,.248.248v.6A.248.248,0,0,1,2303.417,2967.232Z" transform="translate(-2302.573 -2966.14)" fill="#e6e6e6"/>
        </g>
        <g id="Group_17757" data-name="Group 17757" transform="translate(51.206 5.118)">
          <path id="Path_41430" data-name="Path 41430" d="M2291.975,2966.14h-1.181a.248.248,0,1,0,0,.5h1.181a.248.248,0,0,0,0-.5Z" transform="translate(-2275.228 -2966.14)" fill="#e6e6e6"/>
          <path id="Path_41431" data-name="Path 41431" d="M2281.916,2966.14h-1.181a.248.248,0,0,0,0,.5h1.181a.248.248,0,0,0,0-.5Z" transform="translate(-2267.531 -2966.14)" fill="#e6e6e6"/>
          <path id="Path_41432" data-name="Path 41432" d="M2271.857,2966.14h-1.181a.248.248,0,1,0,0,.5h1.181a.248.248,0,1,0,0-.5Z" transform="translate(-2259.835 -2966.14)" fill="#e6e6e6"/>
          <path id="Path_41433" data-name="Path 41433" d="M2241.681,2966.14H2240.5a.248.248,0,0,0,0,.5h1.181a.248.248,0,1,0,0-.5Z" transform="translate(-2236.745 -2966.14)" fill="#e6e6e6"/>
          <path id="Path_41434" data-name="Path 41434" d="M2231.622,2966.14h-1.181a.248.248,0,0,0,0,.5h1.181a.248.248,0,1,0,0-.5Z" transform="translate(-2229.048 -2966.14)" fill="#e6e6e6"/>
          <path id="Path_41435" data-name="Path 41435" d="M2261.8,2966.14h-1.181a.248.248,0,1,0,0,.5h1.181a.248.248,0,0,0,0-.5Z" transform="translate(-2252.138 -2966.14)" fill="#e6e6e6"/>
          <path id="Path_41436" data-name="Path 41436" d="M2251.74,2966.14h-1.181a.248.248,0,0,0,0,.5h1.181a.248.248,0,1,0,0-.5Z" transform="translate(-2244.441 -2966.14)" fill="#e6e6e6"/>
          <path id="Path_41437" data-name="Path 41437" d="M2225.53,2966.14h-.212v.5h.212a.248.248,0,1,0,0-.5Z" transform="translate(-2225.318 -2966.14)" fill="#e6e6e6"/>
        </g>
        <g id="Group_17758" data-name="Group 17758" transform="translate(1.809)">
          <path id="Path_41438" data-name="Path 41438" d="M2057.75,2944.345h-1.213a.248.248,0,0,0,0,.5h1.213a.248.248,0,0,0,0-.5Z" transform="translate(-2046.584 -2944.345)" fill="#e6e6e6"/>
          <path id="Path_41439" data-name="Path 41439" d="M2047.418,2944.345h-1.213a.248.248,0,1,0,0,.5h1.213a.248.248,0,1,0,0-.5Z" transform="translate(-2038.679 -2944.345)" fill="#e6e6e6"/>
          <path id="Path_41440" data-name="Path 41440" d="M2068.079,2944.345h-1.213a.248.248,0,1,0,0,.5h1.213a.248.248,0,0,0,0-.5Z" transform="translate(-2054.488 -2944.345)" fill="#e6e6e6"/>
          <path id="Path_41441" data-name="Path 41441" d="M2016.426,2944.345h-1.213a.248.248,0,0,0,0,.5h1.213a.248.248,0,0,0,0-.5Z" transform="translate(-2014.965 -2944.345)" fill="#e6e6e6"/>
          <path id="Path_41442" data-name="Path 41442" d="M2078.41,2944.345H2077.2a.248.248,0,1,0,0,.5h1.213a.248.248,0,1,0,0-.5Z" transform="translate(-2062.393 -2944.345)" fill="#e6e6e6"/>
          <path id="Path_41443" data-name="Path 41443" d="M2037.088,2944.345h-1.213a.248.248,0,1,0,0,.5h1.213a.248.248,0,1,0,0-.5Z" transform="translate(-2030.775 -2944.345)" fill="#e6e6e6"/>
          <path id="Path_41444" data-name="Path 41444" d="M2026.757,2944.345h-1.213a.248.248,0,1,0,0,.5h1.213a.248.248,0,1,0,0-.5Z" transform="translate(-2022.87 -2944.345)" fill="#e6e6e6"/>
          <path id="Path_41445" data-name="Path 41445" d="M2140.395,2944.345h-1.213a.248.248,0,1,0,0,.5h1.213a.248.248,0,0,0,0-.5Z" transform="translate(-2109.822 -2944.345)" fill="#e6e6e6"/>
          <path id="Path_41446" data-name="Path 41446" d="M2130.063,2944.345h-1.213a.248.248,0,0,0,0,.5h1.213a.248.248,0,0,0,0-.5Z" transform="translate(-2101.917 -2944.345)" fill="#e6e6e6"/>
          <path id="Path_41447" data-name="Path 41447" d="M2150.6,2944.345h-1.085a.248.248,0,1,0,0,.5h1.085Z" transform="translate(-2117.726 -2944.345)" fill="#e6e6e6"/>
          <path id="Path_41448" data-name="Path 41448" d="M2119.733,2944.345h-1.213a.248.248,0,0,0,0,.5h1.213a.248.248,0,0,0,0-.5Z" transform="translate(-2094.012 -2944.345)" fill="#e6e6e6"/>
          <path id="Path_41449" data-name="Path 41449" d="M2088.741,2944.345h-1.213a.248.248,0,0,0,0,.5h1.213a.248.248,0,0,0,0-.5Z" transform="translate(-2070.299 -2944.345)" fill="#e6e6e6"/>
          <path id="Path_41450" data-name="Path 41450" d="M2099.071,2944.345h-1.213a.248.248,0,0,0,0,.5h1.213a.248.248,0,1,0,0-.5Z" transform="translate(-2078.202 -2944.345)" fill="#e6e6e6"/>
          <path id="Path_41451" data-name="Path 41451" d="M2109.4,2944.345h-1.213a.248.248,0,1,0,0,.5h1.213a.248.248,0,1,0,0-.5Z" transform="translate(-2086.107 -2944.345)" fill="#e6e6e6"/>
        </g>
        <g id="Group_17759" data-name="Group 17759">
          <path id="Path_41452" data-name="Path 41452" d="M2008.107,2944.842h-.6a.248.248,0,0,1,0-.5h.6a.248.248,0,1,1,0,.5Z" transform="translate(-2007.263 -2944.345)" fill="#e6e6e6"/>
        </g>
        <g id="Group_17779" data-name="Group 17779" transform="translate(63.323 24.537)">
          <g id="Group_17761" data-name="Group 17761">
            <g id="Group_17760" data-name="Group 17760">
              <path id="Path_41453" data-name="Path 41453" d="M2282.881,3049.234a5.56,5.56,0,1,1-5.56,5.56,5.567,5.567,0,0,1,5.56-5.56Zm0-.4a5.962,5.962,0,1,0,5.962,5.962,5.962,5.962,0,0,0-5.962-5.962Z" transform="translate(-2276.919 -3048.832)" fill="#e6e6e6"/>
            </g>
          </g>
          <g id="Group_17778" data-name="Group 17778" transform="translate(1.238 1.251)">
            <g id="Group_17767" data-name="Group 17767">
              <g id="Group_17762" data-name="Group 17762" transform="translate(0 6.047)">
                <path id="Path_41454" data-name="Path 41454" d="M2284.365,3080.631a.149.149,0,0,1-.062-.013c-.856-.383-1.5-.566-1.852-.212a.153.153,0,0,1-.216-.216c.531-.531,1.41-.2,2.193.149a.153.153,0,0,1-.062.292Z" transform="translate(-2282.189 -3079.911)" fill="#e6e6e6"/>
              </g>
              <g id="Group_17763" data-name="Group 17763" transform="translate(2.943 1.859)">
                <path id="Path_41455" data-name="Path 41455" d="M2296.293,3067.833a3.948,3.948,0,0,1-1.48-.434.153.153,0,0,1,.125-.279c.864.388,1.511.573,1.866.219.447-.448,0-1.4-.427-2.317-.475-1.014-.966-2.063-.366-2.663.53-.53,1.4-.2,2.183.145a.153.153,0,1,1-.125.279c-.851-.38-1.489-.561-1.842-.208-.448.447,0,1.4.427,2.317.475,1.015.965,2.064.366,2.663A.984.984,0,0,1,2296.293,3067.833Z" transform="translate(-2294.723 -3062.08)" fill="#e6e6e6"/>
              </g>
              <g id="Group_17764" data-name="Group 17764" transform="translate(7.13 2.699)">
                <path id="Path_41456" data-name="Path 41456" d="M2314.123,3066.381a3.943,3.943,0,0,1-1.48-.434.153.153,0,1,1,.125-.279c.863.388,1.511.573,1.866.219a.153.153,0,0,1,.216.216A.983.983,0,0,1,2314.123,3066.381Z" transform="translate(-2312.552 -3065.654)" fill="#e6e6e6"/>
              </g>
              <g id="Group_17765" data-name="Group 17765" transform="translate(1.861 3.953)">
                <path id="Path_41457" data-name="Path 41457" d="M2291.294,3076.513a.153.153,0,0,1-.108-.261c.448-.448,0-1.4-.427-2.317-.475-1.014-.965-2.064-.366-2.663.529-.529,1.4-.2,2.177.142a.153.153,0,1,1-.125.279c-.733-.327-1.462-.578-1.835-.2-.448.448,0,1.4.427,2.317.475,1.015.965,2.064.366,2.663A.152.152,0,0,1,2291.294,3076.513Z" transform="translate(-2290.116 -3070.993)" fill="#e6e6e6"/>
              </g>
              <g id="Group_17766" data-name="Group 17766" transform="translate(5.101)">
                <path id="Path_41458" data-name="Path 41458" d="M2305.42,3059.678a3.793,3.793,0,0,1-1.419-.4.153.153,0,1,1,.124-.28c.717.318,1.432.561,1.8.19.447-.448,0-1.4-.427-2.317-.474-1.014-.965-2.064-.366-2.663a.153.153,0,0,1,.216.216c-.448.448,0,1.4.427,2.317.475,1.015.965,2.064.366,2.663A.978.978,0,0,1,2305.42,3059.678Z" transform="translate(-2303.909 -3054.162)" fill="#e6e6e6"/>
              </g>
            </g>
            <g id="Group_17768" data-name="Group 17768" transform="translate(6.626 0.346)">
              <path id="Path_41459" data-name="Path 41459" d="M2312.785,3058.09a.077.077,0,0,1-.054-.023l-2.3-2.3a.077.077,0,1,1,.109-.11l2.3,2.3a.077.077,0,0,1-.055.132Z" transform="translate(-2310.407 -3055.635)" fill="#e6e6e6"/>
            </g>
            <g id="Group_17769" data-name="Group 17769" transform="translate(6.653 1.297)">
              <path id="Path_41460" data-name="Path 41460" d="M2311.92,3061.163a.076.076,0,0,1-.054-.023l-1.323-1.323a.077.077,0,0,1,.11-.109l1.323,1.323a.078.078,0,0,1,0,.11A.076.076,0,0,1,2311.92,3061.163Z" transform="translate(-2310.52 -3059.686)" fill="#e6e6e6"/>
            </g>
            <g id="Group_17770" data-name="Group 17770" transform="translate(5.555 2.465)">
              <path id="Path_41461" data-name="Path 41461" d="M2307.191,3066.085a.079.079,0,0,1-.055-.023l-1.27-1.27a.077.077,0,0,1,0-.109.078.078,0,0,1,.11,0l1.27,1.271a.078.078,0,0,1-.054.132Z" transform="translate(-2305.843 -3064.66)" fill="#e6e6e6"/>
            </g>
            <g id="Group_17771" data-name="Group 17771" transform="translate(4.528 2.507)">
              <path id="Path_41462" data-name="Path 41462" d="M2303.8,3067.249a.078.078,0,0,1-.054-.023l-2.255-2.255a.077.077,0,0,1,.109-.109l2.255,2.255a.078.078,0,0,1-.055.132Z" transform="translate(-2301.471 -3064.839)" fill="#e6e6e6"/>
            </g>
            <g id="Group_17772" data-name="Group 17772" transform="translate(4.486 3.534)">
              <path id="Path_41463" data-name="Path 41463" d="M2302.64,3070.637a.078.078,0,0,1-.055-.023l-1.271-1.271a.077.077,0,0,1,.11-.109l1.27,1.27a.078.078,0,0,1-.054.132Z" transform="translate(-2301.292 -3069.212)" fill="#e6e6e6"/>
            </g>
            <g id="Group_17773" data-name="Group 17773" transform="translate(3.497 4.506)">
              <path id="Path_41464" data-name="Path 41464" d="M2298.428,3074.773a.077.077,0,0,1-.055-.023l-1.27-1.271a.077.077,0,0,1,.109-.109l1.271,1.27a.077.077,0,0,1-.055.132Z" transform="translate(-2297.081 -3073.348)" fill="#e6e6e6"/>
            </g>
            <g id="Group_17774" data-name="Group 17774" transform="translate(2.47 4.548)">
              <path id="Path_41465" data-name="Path 41465" d="M2295.041,3075.938a.076.076,0,0,1-.055-.022l-2.255-2.255a.077.077,0,0,1,.109-.109l2.255,2.255a.077.077,0,0,1,0,.109A.075.075,0,0,1,2295.041,3075.938Z" transform="translate(-2292.708 -3073.528)" fill="#e6e6e6"/>
            </g>
            <g id="Group_17775" data-name="Group 17775" transform="translate(2.428 5.575)">
              <path id="Path_41466" data-name="Path 41466" d="M2293.876,3079.325a.077.077,0,0,1-.055-.022l-1.271-1.271a.077.077,0,0,1,0-.109.078.078,0,0,1,.11,0l1.271,1.271a.077.077,0,0,1-.055.132Z" transform="translate(-2292.528 -3077.901)" fill="#e6e6e6"/>
            </g>
            <g id="Group_17776" data-name="Group 17776" transform="translate(1.396 6.607)">
              <path id="Path_41467" data-name="Path 41467" d="M2289.48,3083.722a.076.076,0,0,1-.055-.023l-1.271-1.27a.077.077,0,0,1,.109-.109l1.271,1.271a.077.077,0,0,1-.055.132Z" transform="translate(-2288.132 -3082.297)" fill="#e6e6e6"/>
            </g>
            <g id="Group_17777" data-name="Group 17777" transform="translate(0.369 6.649)">
              <path id="Path_41468" data-name="Path 41468" d="M2286.092,3084.886a.076.076,0,0,1-.054-.023l-2.255-2.255a.077.077,0,1,1,.109-.11l2.255,2.255a.077.077,0,0,1-.055.132Z" transform="translate(-2283.759 -3082.476)" fill="#e6e6e6"/>
            </g>
          </g>
        </g>
      </g>
    </g>
    <g id="Group_17788" data-name="Group 17788" transform="translate(1681.555 2921.338)">
      <g id="Group_17782" data-name="Group 17782" transform="translate(14.782 0)">
        <path id="Path_41469" data-name="Path 41469" d="M1777.022,3091.441h-1.192a.248.248,0,0,0,0,.5h1.192a.248.248,0,1,0,0-.5Z" transform="translate(-1775.582 -3076.213)" fill="#e6e6e6"/>
        <path id="Path_41470" data-name="Path 41470" d="M1787.169,3091.441h-1.192a.248.248,0,1,0,0,.5h1.192a.248.248,0,0,0,0-.5Z" transform="translate(-1783.346 -3076.213)" fill="#e6e6e6"/>
        <path id="Path_41471" data-name="Path 41471" d="M1834.286,3083.938a.248.248,0,0,0-.248.248v1.191a.248.248,0,1,0,.5,0v-1.191A.248.248,0,0,0,1834.286,3083.938Z" transform="translate(-1820.311 -3070.472)" fill="#e6e6e6"/>
        <path id="Path_41472" data-name="Path 41472" d="M1834.286,3073.79a.248.248,0,0,0-.248.248v1.191a.248.248,0,1,0,.5,0v-1.191A.248.248,0,0,0,1834.286,3073.79Z" transform="translate(-1820.311 -3062.707)" fill="#e6e6e6"/>
        <path id="Path_41473" data-name="Path 41473" d="M1827.76,3091.441h-1.192a.248.248,0,1,0,0,.5h1.192a.248.248,0,0,0,0-.5Z" transform="translate(-1814.405 -3076.213)" fill="#e6e6e6"/>
        <path id="Path_41474" data-name="Path 41474" d="M1797.317,3091.441h-1.192a.248.248,0,1,0,0,.5h1.192a.248.248,0,0,0,0-.5Z" transform="translate(-1791.111 -3076.213)" fill="#e6e6e6"/>
        <path id="Path_41475" data-name="Path 41475" d="M1834.286,3053.5a.248.248,0,0,0-.248.248v1.192a.248.248,0,0,0,.5,0v-1.192A.248.248,0,0,0,1834.286,3053.5Z" transform="translate(-1820.311 -3047.178)" fill="#e6e6e6"/>
        <path id="Path_41476" data-name="Path 41476" d="M1817.612,3091.441h-1.191a.248.248,0,1,0,0,.5h1.191a.248.248,0,0,0,0-.5Z" transform="translate(-1806.64 -3076.213)" fill="#e6e6e6"/>
        <path id="Path_41477" data-name="Path 41477" d="M1807.464,3091.441h-1.192a.248.248,0,1,0,0,.5h1.192a.248.248,0,0,0,0-.5Z" transform="translate(-1798.875 -3076.213)" fill="#e6e6e6"/>
        <path id="Path_41478" data-name="Path 41478" d="M1834.286,3063.642a.248.248,0,0,0-.248.248v1.192a.248.248,0,1,0,.5,0v-1.192A.248.248,0,0,0,1834.286,3063.642Z" transform="translate(-1820.311 -3054.942)" fill="#e6e6e6"/>
        <path id="Path_41479" data-name="Path 41479" d="M1834.286,3033.2a.248.248,0,0,0-.248.248v1.191a.248.248,0,1,0,.5,0v-1.191A.248.248,0,0,0,1834.286,3033.2Z" transform="translate(-1820.311 -3031.648)" fill="#e6e6e6"/>
        <path id="Path_41480" data-name="Path 41480" d="M1834.286,3043.347a.248.248,0,0,0-.248.248v1.191a.248.248,0,1,0,.5,0V3043.6A.248.248,0,0,0,1834.286,3043.347Z" transform="translate(-1820.311 -3039.413)" fill="#e6e6e6"/>
        <path id="Path_41481" data-name="Path 41481" d="M1834.038,3026.593v.608a.248.248,0,1,0,.5,0v-.608Z" transform="translate(-1820.311 -3026.593)" fill="#e6e6e6"/>
      </g>
      <g id="Group_17787" data-name="Group 17787" transform="translate(0 9.135)">
        <g id="Group_17783" data-name="Group 17783">
          <path id="Path_41482" data-name="Path 41482" d="M1718.393,3077.009a5.759,5.759,0,1,1,5.759-5.759A5.765,5.765,0,0,1,1718.393,3077.009Zm0-11.12a5.361,5.361,0,1,0,5.361,5.361A5.367,5.367,0,0,0,1718.393,3065.889Z" transform="translate(-1712.634 -3065.492)" fill="#e6e6e6"/>
        </g>
        <g id="Group_17786" data-name="Group 17786" transform="translate(1.695 1.927)">
          <g id="Group_17784" data-name="Group 17784" transform="translate(0 0.989)">
            <path id="Path_41483" data-name="Path 41483" d="M1726.57,3083.528h-5.306a1.412,1.412,0,0,1-1.41-1.41v-2.8a1.412,1.412,0,0,1,1.41-1.41h5.306a1.412,1.412,0,0,1,1.41,1.41v2.8A1.412,1.412,0,0,1,1726.57,3083.528Zm-5.306-5.32a1.114,1.114,0,0,0-1.112,1.112v2.8a1.114,1.114,0,0,0,1.112,1.112h5.306a1.114,1.114,0,0,0,1.112-1.112v-2.8a1.114,1.114,0,0,0-1.112-1.112Z" transform="translate(-1719.854 -3077.91)" fill="#e6e6e6"/>
          </g>
          <g id="Group_17785" data-name="Group 17785" transform="translate(2.358 2.093)">
            <path id="Path_41484" data-name="Path 41484" d="M1731.6,3086.021a1.705,1.705,0,1,1,1.705-1.706A1.707,1.707,0,0,1,1731.6,3086.021Zm0-3.163a1.457,1.457,0,1,0,1.457,1.457A1.459,1.459,0,0,0,1731.6,3082.859Z" transform="translate(-1729.894 -3082.611)" fill="#e6e6e6"/>
          </g>
          <rect id="Rectangle_4935" data-name="Rectangle 4935" width="0.617" height="1.699" transform="translate(3.755 2.949)" fill="#e6e6e6"/>
          <rect id="Rectangle_4936" data-name="Rectangle 4936" width="0.617" height="1.699" transform="translate(4.913 3.49) rotate(90)" fill="#e6e6e6"/>
          <path id="Path_41485" data-name="Path 41485" d="M1733.292,3074.007a.308.308,0,0,1-.308.308h-2.8a.308.308,0,0,1,0-.617h2.8A.308.308,0,0,1,1733.292,3074.007Z" transform="translate(-1727.519 -3073.699)" fill="#e6e6e6"/>
        </g>
      </g>
    </g>
    <g id="Group_17793" data-name="Group 17793" transform="translate(1694.064 2992.031)">
      <g id="Group_17790" data-name="Group 17790" transform="translate(0 0)">
        <path id="Path_41486" data-name="Path 41486" d="M1771.181,3328.456a.831.831,0,0,0-.834-.823h-3.613a.821.821,0,0,0-.088,1.639V3341.4c0,1.46.832,2.6,1.894,2.6s1.895-1.143,1.895-2.6v-12.129A.828.828,0,0,0,1771.181,3328.456Zm-2.64,14.606c-.451,0-.953-.683-.953-1.662v-12.12h1.906v12.12C1769.494,3342.379,1768.992,3343.062,1768.541,3343.062Z" transform="translate(-1765.901 -3327.632)" fill="#cce8ff"/>
        <g id="Group_17789" data-name="Group 17789" transform="translate(2.044 4.308)">
          <path id="Path_41487" data-name="Path 41487" d="M1775.311,3356.705a.706.706,0,0,1-.706-.706v-9.317a.706.706,0,1,1,1.412,0V3356A.706.706,0,0,1,1775.311,3356.705Z" transform="translate(-1774.605 -3345.976)" fill="#d4145a"/>
        </g>
      </g>
      <g id="Group_17792" data-name="Group 17792" transform="translate(7.179 0)">
        <path id="Path_41488" data-name="Path 41488" d="M1801.752,3328.456a.831.831,0,0,0-.834-.823h-3.613a.821.821,0,0,0-.088,1.639V3341.4c0,1.46.832,2.6,1.895,2.6s1.894-1.143,1.894-2.6v-12.129A.827.827,0,0,0,1801.752,3328.456Zm-2.64,14.606c-.451,0-.953-.683-.953-1.662v-12.12h1.907v12.12C1800.066,3342.379,1799.563,3343.062,1799.112,3343.062Z" transform="translate(-1796.472 -3327.632)" fill="#cce8ff"/>
        <g id="Group_17791" data-name="Group 17791" transform="translate(2.022 4.308)">
          <path id="Path_41489" data-name="Path 41489" d="M1805.7,3356.705a.568.568,0,0,1-.6-.706v-9.317a.568.568,0,0,1,.6-.706.706.706,0,0,1,.706.706V3356A.706.706,0,0,1,1805.7,3356.705Z" transform="translate(-1805.082 -3345.976)" fill="#ff9e36"/>
        </g>
      </g>
    </g>
    <g id="Group_17795" data-name="Group 17795" transform="translate(1704.27 2995.839)">
      <g id="Group_17794" data-name="Group 17794" transform="translate(0 0.658)">
        <path id="Path_41490" data-name="Path 41490" d="M1820.765,3359h-11.176a.225.225,0,0,1-.2-.324l4.027-8.2v-3.607a.225.225,0,0,1,.225-.225h3.076a.225.225,0,0,1,.225.225v3.607l4.028,8.2a.225.225,0,0,1-.2.324Zm-5.025-.45h4.664l-3.891-7.919a.225.225,0,0,1-.023-.1V3347.1h-2.625v3.434a.225.225,0,0,1-.023.1l-3.891,7.919Z" transform="translate(-1809.364 -3346.651)" fill="#cce8ff"/>
      </g>
      <path id="Path_41491" data-name="Path 41491" d="M1821.7,3370.207h-2.775l-2.85,5.776h8.476Z" transform="translate(-1814.496 -3364.017)" fill="#d4145a"/>
      <path id="Path_41492" data-name="Path 41492" d="M1829.29,3344.514a.673.673,0,0,1-.675.667h-2.925a.667.667,0,1,1,0-1.334h2.925A.673.673,0,0,1,1829.29,3344.514Z" transform="translate(-1821.34 -3343.847)" fill="#cce8ff"/>
    </g>
    <g id="Group_17802" data-name="Group 17802" transform="translate(1802.563 2948.748)">
      <g id="Group_17797" data-name="Group 17797" transform="translate(0 21.081)">
        <g id="Group_17796" data-name="Group 17796" transform="translate(0.607 1.353)">
          <path id="Path_41493" data-name="Path 41493" d="M2245.048,3255.63h-9.688l-4.844-8.39,4.844-8.391h9.688l4.844,8.391Zm-9.412-.479h9.135l4.568-7.911-4.568-7.912h-9.135l-4.568,7.912Z" transform="translate(-2230.515 -3238.849)" fill="#a2d1eb"/>
        </g>
        <path id="Path_41494" data-name="Path 41494" d="M2286.951,3303.115a1.405,1.405,0,1,1-1.405-1.405A1.405,1.405,0,0,1,2286.951,3303.115Z" transform="translate(-2270.941 -3285.595)" fill="#a2d1eb"/>
        <circle id="Ellipse_1705" data-name="Ellipse 1705" cx="1.405" cy="1.405" r="1.405" transform="translate(4.205 16.114)" fill="#a2d1eb"/>
        <path id="Path_41495" data-name="Path 41495" d="M2230.743,3270.4a1.405,1.405,0,1,1-1.406-1.405A1.405,1.405,0,0,1,2230.743,3270.4Z" transform="translate(-2227.932 -3260.562)" fill="#a2d1eb"/>
        <path id="Path_41496" data-name="Path 41496" d="M2307.631,3268.869a1.405,1.405,0,1,1-1.405-1.405A1.405,1.405,0,0,1,2307.631,3268.869Z" transform="translate(-2286.765 -3259.392)" fill="#a2d1eb"/>
        <path id="Path_41497" data-name="Path 41497" d="M2286.951,3234.493a1.405,1.405,0,1,1-1.405-1.406A1.405,1.405,0,0,1,2286.951,3234.493Z" transform="translate(-2270.941 -3233.087)" fill="#a2d1eb"/>
        <path id="Path_41498" data-name="Path 41498" d="M2248.65,3234.493a1.405,1.405,0,1,1-1.405-1.406A1.405,1.405,0,0,1,2248.65,3234.493Z" transform="translate(-2241.634 -3233.087)" fill="#a2d1eb"/>
      </g>
      <g id="Group_17799" data-name="Group 17799" transform="translate(0.719 0)">
        <g id="Group_17798" data-name="Group 17798" transform="translate(0.607 1.353)">
          <path id="Path_41499" data-name="Path 41499" d="M2248.109,3165.859h-9.688l-4.844-8.391,4.844-8.39h9.688l4.844,8.39Zm-9.412-.479h9.135l4.568-7.911-4.568-7.911H2238.7l-4.568,7.911Z" transform="translate(-2233.576 -3149.078)" fill="#a2d1eb"/>
        </g>
        <path id="Path_41500" data-name="Path 41500" d="M2290.011,3213.343a1.405,1.405,0,1,1-1.405-1.405A1.405,1.405,0,0,1,2290.011,3213.343Z" transform="translate(-2274.001 -3195.823)" fill="#a2d1eb"/>
        <circle id="Ellipse_1706" data-name="Ellipse 1706" cx="1.405" cy="1.405" r="1.405" transform="translate(4.205 16.114)" fill="#a2d1eb"/>
        <path id="Path_41501" data-name="Path 41501" d="M2233.8,3180.628a1.405,1.405,0,1,1-1.405-1.406A1.405,1.405,0,0,1,2233.8,3180.628Z" transform="translate(-2230.992 -3170.79)" fill="#a2d1eb"/>
        <circle id="Ellipse_1707" data-name="Ellipse 1707" cx="1.405" cy="1.405" r="1.405" transform="translate(18.056 8.073)" fill="#a2d1eb"/>
        <path id="Path_41502" data-name="Path 41502" d="M2290.011,3144.721a1.405,1.405,0,1,1-1.405-1.405A1.405,1.405,0,0,1,2290.011,3144.721Z" transform="translate(-2274.001 -3143.316)" fill="#a2d1eb"/>
        <circle id="Ellipse_1708" data-name="Ellipse 1708" cx="1.405" cy="1.405" r="1.405" transform="translate(4.205 0)" fill="#a2d1eb"/>
      </g>
      <g id="Group_17801" data-name="Group 17801" transform="translate(18.206 10.061)">
        <g id="Group_17800" data-name="Group 17800" transform="translate(0.607 1.353)">
          <path id="Path_41503" data-name="Path 41503" d="M2322.578,3208.705h-9.688l-4.844-8.39,4.844-8.39h9.688l4.844,8.39Zm-9.412-.479h9.135l4.568-7.911-4.568-7.911h-9.135l-4.568,7.911Z" transform="translate(-2308.045 -3191.924)" fill="#a2d1eb"/>
        </g>
        <path id="Path_41504" data-name="Path 41504" d="M2364.481,3256.188a1.405,1.405,0,1,1-1.406-1.405A1.405,1.405,0,0,1,2364.481,3256.188Z" transform="translate(-2348.471 -3238.669)" fill="#a2d1eb"/>
        <path id="Path_41505" data-name="Path 41505" d="M2326.18,3256.188a1.405,1.405,0,1,1-1.405-1.405A1.405,1.405,0,0,1,2326.18,3256.188Z" transform="translate(-2319.164 -3238.669)" fill="#a2d1eb"/>
        <path id="Path_41506" data-name="Path 41506" d="M2308.272,3223.474a1.405,1.405,0,1,1-1.405-1.406A1.405,1.405,0,0,1,2308.272,3223.474Z" transform="translate(-2305.462 -3213.636)" fill="#a2d1eb"/>
        <path id="Path_41507" data-name="Path 41507" d="M2385.161,3221.943a1.405,1.405,0,1,1-1.406-1.405A1.406,1.406,0,0,1,2385.161,3221.943Z" transform="translate(-2364.294 -3212.466)" fill="#a2d1eb"/>
        <path id="Path_41508" data-name="Path 41508" d="M2364.481,3187.566a1.405,1.405,0,1,1-1.406-1.405A1.405,1.405,0,0,1,2364.481,3187.566Z" transform="translate(-2348.471 -3186.161)" fill="#a2d1eb"/>
        <path id="Path_41509" data-name="Path 41509" d="M2326.18,3187.566a1.405,1.405,0,1,1-1.405-1.405A1.405,1.405,0,0,1,2326.18,3187.566Z" transform="translate(-2319.164 -3186.161)" fill="#a2d1eb"/>
      </g>
    </g>
    <g id="Group_17837" data-name="Group 17837" transform="translate(1704.589 2931.366)">
      <g id="Group_17836" data-name="Group 17836" transform="translate(0)" clip-path="url(#clip-path)">
        <g id="doctor" transform="translate(7.585 3.292)">
          <path id="Path_41510" data-name="Path 41510" d="M1993.37,3206.929c-1.918,5.35-13.362,16.121-19.235,15.343-4.186-.555-18.031-9.46-23.467-17.567,0,0,9.78-1.565,12.863-.182s9.463,6.25,12.982,6.957c1.975.4,11.813-3.932,14.457-7.8Z" transform="translate(-1925.39 -3175.415)" fill="#f7b690"/>
          <g id="Group_17803" data-name="Group 17803" transform="translate(18.969 74.121)">
            <path id="Path_41511" data-name="Path 41511" d="M1945.116,3408.814s-2.178,62.564-3.132,71.771c-.172,1.666-5.392,1.677-5.785.049-1.529-6.337-9.486-19.247-9.337-25.268.067-2.683,3.94-9.958,4.133-13.02.276-4.367-10.582-23.949-6.117-42.314C1926.087,3395.065,1945.116,3408.814,1945.116,3408.814Z" transform="translate(-1923.801 -3398.95)" fill="#224f73"/>
          </g>
          <g id="Group_17804" data-name="Group 17804" transform="translate(2.575 73.336)">
            <path id="Path_41512" data-name="Path 41512" d="M1880.29,3403.47s-14.278,67.078-16.583,76.042c-.417,1.622-5.716.739-5.86-.945-.554-6.495-4.735-23.4-3.7-29.332.463-2.644,3.848-6.214,4.949-10.042,1.21-4.2-5.258-24.938,1.877-42.439C1862.907,3392.021,1880.29,3403.47,1880.29,3403.47Z" transform="translate(-1853.985 -3395.607)" fill="#224f73"/>
          </g>
          <path id="Path_41513" data-name="Path 41513" d="M1965.765,3196.449c5.954-1.374,19.574,5.466,21.9,8.66-1.863,4.511-4.5,13.781-4.5,13.781l-9.846-2.977Z" transform="translate(-1936.941 -3169.743)" fill="#c8deeb"/>
          <g id="Group_17808" data-name="Group 17808" transform="translate(66.047 21.988)">
            <path id="Path_41514" data-name="Path 41514" d="M2133.633,3178.125c-.42-.118-3.9,2.2-3.969,2.048-.153-.358,3.716-2.685,3.015-3.2-.453-.331-3.776,2.085-4.8,2.491a8.167,8.167,0,0,1-.9.291c-.588-.451.135-.918.227-1.445.062-.35-.348-.954-.595-.827s.032.4-.689,1.089a4.32,4.32,0,0,0-1.512,2.15,21.515,21.515,0,0,0-.125,3.442l1.888,2.249a33.542,33.542,0,0,1,3.3-1.108c1.564-.761,4.428-3.407,4.2-4.114-.171-.519-2.261,1.66-2.576.992-.093-.2,2.353-1.23,2.647-2.271C2133.879,3179.434,2134.141,3178.269,2133.633,3178.125Z" transform="translate(-2124.274 -3176.946)" fill="#f7b690"/>
            <g id="Group_17805" data-name="Group 17805" transform="translate(5.977 2.077)">
              <path id="Path_41515" data-name="Path 41515" d="M2153.319,3186.049a.156.156,0,0,1-.057.05,36.993,36.993,0,0,0-3.276,1.894.162.162,0,1,1-.2-.258,37.164,37.164,0,0,1,3.322-1.923.162.162,0,0,1,.207.238Z" transform="translate(-2149.726 -3185.792)" fill="#eb9078"/>
            </g>
            <g id="Group_17806" data-name="Group 17806" transform="translate(4.535 2.351)">
              <path id="Path_41516" data-name="Path 41516" d="M2145.768,3190.606a.162.162,0,0,1-.289-.051,12.99,12.99,0,0,0-1.85-3.322.162.162,0,0,1,.233-.226,13.213,13.213,0,0,1,1.93,3.462A.162.162,0,0,1,2145.768,3190.606Z" transform="translate(-2143.584 -3186.958)" fill="#eb9078"/>
            </g>
            <g id="Group_17807" data-name="Group 17807" transform="translate(2.36 2.651)">
              <path id="Path_41517" data-name="Path 41517" d="M2134.617,3192.015a.162.162,0,0,1-.274-.173c.292-.526.909-2.372.2-3.35a.162.162,0,1,1,.263-.191c.811,1.118.153,3.1-.179,3.7A.119.119,0,0,1,2134.617,3192.015Z" transform="translate(-2134.323 -3188.235)" fill="#eb9078"/>
            </g>
          </g>
          <path id="Path_41518" data-name="Path 41518" d="M1873.2,3187.25c6.068.632,14.97,5.532,17.175,12.091,1.245,3.7-.247,75.246-1.079,76.929-1.461,2.955-32.475,2.76-35.5-.195-.865-.845-6.059-77.489,1.048-82.389C1857.274,3192.011,1867.9,3186.7,1873.2,3187.25Z" transform="translate(-1849.245 -3162.811)" fill="#c8deeb"/>
          <g id="Group_17834" data-name="Group 17834" transform="translate(35.16 16.354)">
            <g id="Group_17825" data-name="Group 17825" transform="translate(2.853 3.407)">
              <g id="Group_17814" data-name="Group 17814">
                <g id="Group_17809" data-name="Group 17809" transform="translate(28.863 8.952)">
                  <path id="Path_41519" data-name="Path 41519" d="M2128.364,3208.054a.692.692,0,0,1,.3-.038c4.273.421,7.376.241,8.627-2a.693.693,0,1,1,1.2.671c-1.877,3.37-6.2,3.241-10.115,2.857a.665.665,0,0,1-.553-.83A.871.871,0,0,1,2128.364,3208.054Z" transform="translate(-2127.805 -3205.582)" fill="#93d5f6"/>
                </g>
                <g id="Group_17810" data-name="Group 17810" transform="translate(14.095 10.677)">
                  <path id="Path_41520" data-name="Path 41520" d="M2068.778,3213.479c2.081-.744,4.7-.6,7.158-.355a.665.665,0,0,1,.552.831.823.823,0,0,1-.841.692c-4.311-.429-7.44-.252-8.695,2-1.584,2.843,1.389,6.612,4.263,10.257,3.173,4.023,6.455,8.184,4.333,11.99-1.874,3.363-6.177,3.24-10.062,2.86a.666.666,0,0,1-.553-.83.822.822,0,0,1,.841-.693c4.245.415,7.327.231,8.576-2.008,1.584-2.842-1.389-6.612-4.263-10.257-3.174-4.023-6.454-8.184-4.333-11.99A5.4,5.4,0,0,1,2068.778,3213.479Z" transform="translate(-2064.918 -3212.927)" fill="#93d5f6"/>
                </g>
                <g id="Group_17811" data-name="Group 17811" transform="translate(0 37.265)">
                  <path id="Path_41521" data-name="Path 41521" d="M2008.032,3326.7c2.081-.744,4.7-.6,7.158-.354a.665.665,0,0,1,.552.831.823.823,0,0,1-.841.691c-4.312-.429-7.439-.254-8.694,2a.693.693,0,1,1-1.2-.671A5.393,5.393,0,0,1,2008.032,3326.7Z" transform="translate(-2004.896 -3326.148)" fill="#93d5f6"/>
                </g>
                <g id="Group_17812" data-name="Group 17812" transform="translate(21.539)">
                  <path id="Path_41522" data-name="Path 41522" d="M2097.863,3167.5a.644.644,0,0,1,.536.036.743.743,0,0,1,.217,1.022c-1.584,2.842,1.389,6.612,4.262,10.257,3.174,4.024,6.455,8.184,4.334,11.99-1.872,3.36-6.158,3.24-10.028,2.865a.666.666,0,0,1-.554-.829.824.824,0,0,1,.84-.694c3.657.354,7.222.357,8.542-2.013,1.584-2.842-1.388-6.612-4.262-10.257-3.174-4.024-6.455-8.184-4.333-11.99A.841.841,0,0,1,2097.863,3167.5Z" transform="translate(-2096.616 -3167.461)" fill="#93d5f6"/>
                </g>
                <g id="Group_17813" data-name="Group 17813" transform="translate(6.847 23.978)">
                  <path id="Path_41523" data-name="Path 41523" d="M2037.738,3270.13a16.566,16.566,0,0,1,6.849-.4.664.664,0,0,1,.556.827.824.824,0,0,1-.838.7c-3.578-.337-7.069-.325-8.38,2.028-1.584,2.841,1.389,6.61,4.263,10.255,3.173,4.024,6.455,8.185,4.334,11.989a.693.693,0,1,1-1.2-.671c1.584-2.842-1.389-6.61-4.263-10.255-3.173-4.024-6.454-8.184-4.334-11.989A5.368,5.368,0,0,1,2037.738,3270.13Z" transform="translate(-2034.052 -3269.571)" fill="#93d5f6"/>
                </g>
              </g>
              <g id="Group_17815" data-name="Group 17815" transform="translate(2.102 41.239)">
                <path id="Path_41524" data-name="Path 41524" d="M2014.131,3343.094a.328.328,0,0,1,.271.018l12.755,7.134a.4.4,0,0,1-.387.694l-12.755-7.133a.376.376,0,0,1-.11-.517A.43.43,0,0,1,2014.131,3343.094Z" transform="translate(-2013.849 -3343.073)" fill="#93d5f6"/>
              </g>
              <g id="Group_17816" data-name="Group 17816" transform="translate(6.448 39.819)">
                <path id="Path_41525" data-name="Path 41525" d="M2032.635,3337.046a.327.327,0,0,1,.271.018l7.336,4.1a.4.4,0,0,1-.387.694l-7.336-4.1a.376.376,0,0,1-.109-.517A.429.429,0,0,1,2032.635,3337.046Z" transform="translate(-2032.353 -3337.024)" fill="#93d5f6"/>
              </g>
              <g id="Group_17817" data-name="Group 17817" transform="translate(10.556 32.677)">
                <path id="Path_41526" data-name="Path 41526" d="M2050.129,3306.635a.328.328,0,0,1,.271.018l7.044,3.939a.4.4,0,0,1-.387.695l-7.044-3.94a.376.376,0,0,1-.11-.517A.429.429,0,0,1,2050.129,3306.635Z" transform="translate(-2049.847 -3306.614)" fill="#93d5f6"/>
              </g>
              <g id="Group_17818" data-name="Group 17818" transform="translate(9.717 27.756)">
                <path id="Path_41527" data-name="Path 41527" d="M2046.558,3285.68a.326.326,0,0,1,.271.018l12.5,6.994a.4.4,0,0,1-.387.695l-12.5-6.994a.377.377,0,0,1-.11-.517A.428.428,0,0,1,2046.558,3285.68Z" transform="translate(-2046.276 -3285.658)" fill="#93d5f6"/>
              </g>
              <g id="Group_17819" data-name="Group 17819" transform="translate(14.339 25.89)">
                <path id="Path_41528" data-name="Path 41528" d="M2066.238,3277.73a.326.326,0,0,1,.271.018l7.044,3.94a.4.4,0,0,1-.387.694l-7.045-3.94a.376.376,0,0,1-.11-.517A.427.427,0,0,1,2066.238,3277.73Z" transform="translate(-2065.956 -3277.709)" fill="#93d5f6"/>
              </g>
              <g id="Group_17820" data-name="Group 17820" transform="translate(17.857 19.692)">
                <path id="Path_41529" data-name="Path 41529" d="M2081.219,3251.337a.326.326,0,0,1,.271.018l7.044,3.94a.4.4,0,0,1-.387.694l-7.045-3.94a.376.376,0,0,1-.109-.517A.428.428,0,0,1,2081.219,3251.337Z" transform="translate(-2080.937 -3251.316)" fill="#93d5f6"/>
              </g>
              <g id="Group_17821" data-name="Group 17821" transform="translate(17.018 14.771)">
                <path id="Path_41530" data-name="Path 41530" d="M2077.648,3230.384a.328.328,0,0,1,.271.018l12.5,6.993a.4.4,0,0,1-.387.695l-12.5-6.994a.376.376,0,0,1-.11-.517A.428.428,0,0,1,2077.648,3230.384Z" transform="translate(-2077.366 -3230.363)" fill="#93d5f6"/>
              </g>
              <g id="Group_17822" data-name="Group 17822" transform="translate(21.64 12.904)">
                <path id="Path_41531" data-name="Path 41531" d="M2097.328,3222.434a.327.327,0,0,1,.271.018l7.044,3.94a.4.4,0,0,1-.387.694l-7.045-3.939a.377.377,0,0,1-.11-.517A.428.428,0,0,1,2097.328,3222.434Z" transform="translate(-2097.046 -3222.413)" fill="#93d5f6"/>
              </g>
              <g id="Group_17823" data-name="Group 17823" transform="translate(25.294 6.348)">
                <path id="Path_41532" data-name="Path 41532" d="M2112.889,3194.514a.327.327,0,0,1,.271.018l7.044,3.94a.4.4,0,0,1-.387.695l-7.045-3.94a.376.376,0,0,1-.11-.517A.429.429,0,0,1,2112.889,3194.514Z" transform="translate(-2112.607 -3194.493)" fill="#93d5f6"/>
              </g>
              <g id="Group_17824" data-name="Group 17824" transform="translate(24.455 1.427)">
                <path id="Path_41533" data-name="Path 41533" d="M2109.318,3173.561a.329.329,0,0,1,.271.018l12.5,6.994a.4.4,0,0,1-.387.695l-12.505-6.994a.376.376,0,0,1-.11-.517A.429.429,0,0,1,2109.318,3173.561Z" transform="translate(-2109.036 -3173.54)" fill="#93d5f6"/>
              </g>
            </g>
            <g id="Group_17833" data-name="Group 17833">
              <g id="Group_17832" data-name="Group 17832">
                <path id="Path_41534" data-name="Path 41534" d="M2016.858,3152.953a2.233,2.233,0,0,0-.305.422c-1.406,2.52-23.807,42.955-23.807,42.955l21.453,12.38s23.555-41.857,24.259-43.118a2.237,2.237,0,0,0,.2-.481Z" transform="translate(-1992.745 -3152.953)" fill="url(#linear-gradient)" style="mix-blend-mode: screen;isolation: isolate"/>
                <g id="Group_17828" data-name="Group 17828" transform="translate(16.729 6.801)">
                  <g id="Group_17826" data-name="Group 17826" transform="translate(7.323)">
                    <path id="Path_41535" data-name="Path 41535" d="M2147.84,3217.459a.222.222,0,1,1,.086.3A.222.222,0,0,1,2147.84,3217.459Z" transform="translate(-2135.449 -3209.025)" fill="#fff"/>
                    <path id="Path_41536" data-name="Path 41536" d="M2135.111,3185.888a.222.222,0,1,1,.086.3A.223.223,0,0,1,2135.111,3185.888Z" transform="translate(-2125.709 -3184.868)" fill="#fff"/>
                    <path id="Path_41537" data-name="Path 41537" d="M2095.2,3182.031a.222.222,0,1,1,.086.3A.223.223,0,0,1,2095.2,3182.031Z" transform="translate(-2095.167 -3181.917)" fill="#fff"/>
                    <path id="Path_41538" data-name="Path 41538" d="M2154.441,3241.163a.222.222,0,1,1,.086.3A.222.222,0,0,1,2154.441,3241.163Z" transform="translate(-2140.5 -3227.163)" fill="#fff"/>
                  </g>
                  <g id="Group_17827" data-name="Group 17827" transform="translate(0 3.595)" style="mix-blend-mode: screen;isolation: isolate">
                    <path id="Path_41539" data-name="Path 41539" d="M2079.132,3203.973a.222.222,0,1,0-.3.086A.223.223,0,0,0,2079.132,3203.973Z" transform="translate(-2075.256 -3202.136)" fill="#464646"/>
                    <path id="Path_41540" data-name="Path 41540" d="M2088.036,3234.423a.222.222,0,1,0-.3.086A.223.223,0,0,0,2088.036,3234.423Z" transform="translate(-2082.069 -3225.435)" fill="#464646"/>
                    <path id="Path_41541" data-name="Path 41541" d="M2123.195,3210.548a.222.222,0,1,0-.3.086A.223.223,0,0,0,2123.195,3210.548Z" transform="translate(-2108.971 -3207.167)" fill="#464646"/>
                    <path id="Path_41542" data-name="Path 41542" d="M2121.586,3228.663a.223.223,0,1,0-.3.086A.222.222,0,0,0,2121.586,3228.663Z" transform="translate(-2107.74 -3221.027)" fill="#464646"/>
                    <path id="Path_41543" data-name="Path 41543" d="M2145.844,3260.6a.222.222,0,1,0-.3.086A.222.222,0,0,0,2145.844,3260.6Z" transform="translate(-2126.302 -3245.462)" fill="#464646"/>
                    <path id="Path_41544" data-name="Path 41544" d="M2156.71,3235.308a.222.222,0,1,0-.3.086A.222.222,0,0,0,2156.71,3235.308Z" transform="translate(-2134.617 -3226.112)" fill="#464646"/>
                    <path id="Path_41545" data-name="Path 41545" d="M2099.9,3197.557a.222.222,0,1,0-.3.086A.223.223,0,0,0,2099.9,3197.557Z" transform="translate(-2091.147 -3197.226)" fill="#464646"/>
                    <path id="Path_41546" data-name="Path 41546" d="M2064.4,3241.263a.222.222,0,1,0-.3.086A.222.222,0,0,0,2064.4,3241.263Z" transform="translate(-2063.984 -3230.669)" fill="#464646"/>
                  </g>
                </g>
                <g id="Group_17831" data-name="Group 17831" transform="translate(10.313 12.955)">
                  <g id="Group_17829" data-name="Group 17829" transform="translate(3.798)">
                    <path id="Path_41547" data-name="Path 41547" d="M2078.076,3223.017c.088-.158.092-.323.009-.37s-.221.044-.309.2-.092.323-.009.37S2077.988,3223.175,2078.076,3223.017Z" transform="translate(-2071.866 -3219.227)" fill="#fff"/>
                    <path id="Path_41548" data-name="Path 41548" d="M2077.435,3260.119c.088-.158.092-.323.009-.369s-.222.044-.31.2-.092.323-.009.369S2077.347,3260.276,2077.435,3260.119Z" transform="translate(-2071.376 -3247.616)" fill="#fff"/>
                    <path id="Path_41549" data-name="Path 41549" d="M2117.53,3218.563c.088-.158.092-.323.009-.37s-.222.044-.31.2-.092.323-.009.369S2117.442,3218.721,2117.53,3218.563Z" transform="translate(-2102.056 -3215.818)" fill="#fff"/>
                    <path id="Path_41550" data-name="Path 41550" d="M2110.661,3242.677c.088-.158.092-.323.009-.37s-.221.044-.31.2-.092.323-.009.369S2110.573,3242.835,2110.661,3242.677Z" transform="translate(-2096.799 -3234.27)" fill="#fff"/>
                    <path id="Path_41551" data-name="Path 41551" d="M2124.006,3277.174c.088-.158.092-.323.009-.37s-.222.044-.31.2-.092.323-.009.369S2123.918,3277.331,2124.006,3277.174Z" transform="translate(-2107.01 -3260.665)" fill="#fff"/>
                    <path id="Path_41552" data-name="Path 41552" d="M2141.7,3240.96c.088-.157.092-.323.009-.369s-.222.044-.31.2-.092.323-.009.37S2141.608,3241.118,2141.7,3240.96Z" transform="translate(-2120.546 -3232.956)" fill="#fff"/>
                    <path id="Path_41553" data-name="Path 41553" d="M2099.488,3208.5c.088-.158.092-.323.009-.369s-.222.044-.31.2-.092.323-.009.37S2099.4,3208.658,2099.488,3208.5Z" transform="translate(-2088.25 -3208.119)" fill="#fff"/>
                    <path id="Path_41554" data-name="Path 41554" d="M2053.206,3276.037c.088-.158.092-.323.009-.369s-.221.044-.31.2-.092.323-.009.37S2053.118,3276.195,2053.206,3276.037Z" transform="translate(-2052.836 -3259.796)" fill="#fff"/>
                  </g>
                  <g id="Group_17830" data-name="Group 17830" transform="translate(0 14.101)" style="mix-blend-mode: screen;isolation: isolate">
                    <path id="Path_41555" data-name="Path 41555" d="M2106.943,3313.081c.088-.157.226-.248.309-.2s.079.212-.009.369-.227.248-.31.2S2106.855,3313.239,2106.943,3313.081Z" transform="translate(-2090.386 -3302.371)" fill="#464646"/>
                    <path id="Path_41556" data-name="Path 41556" d="M2075.714,3333.123c.088-.158.227-.248.31-.2s.079.212-.009.37-.227.248-.31.2S2075.626,3333.28,2075.714,3333.123Z" transform="translate(-2066.491 -3317.705)" fill="#464646"/>
                    <path id="Path_41557" data-name="Path 41557" d="M2090,3277.173c.088-.157.227-.248.31-.2s.079.212-.009.37-.227.248-.309.2S2089.912,3277.33,2090,3277.173Z" transform="translate(-2077.422 -3274.894)" fill="#464646"/>
                    <path id="Path_41558" data-name="Path 41558" d="M2073.093,3295.689c.088-.157.227-.248.31-.2s.079.211-.009.369-.227.248-.31.2S2073,3295.847,2073.093,3295.689Z" transform="translate(-2064.485 -3289.063)" fill="#464646"/>
                    <path id="Path_41559" data-name="Path 41559" d="M2036.731,3302.463c.088-.158.227-.248.31-.2s.079.212-.009.369-.227.248-.31.2S2036.643,3302.62,2036.731,3302.463Z" transform="translate(-2036.663 -3294.246)" fill="#464646"/>
                    <path id="Path_41560" data-name="Path 41560" d="M2058.246,3268.381c.088-.158.226-.248.31-.2s.079.212-.009.369-.227.248-.31.2S2058.158,3268.539,2058.246,3268.381Z" transform="translate(-2053.125 -3268.167)" fill="#464646"/>
                    <path id="Path_41561" data-name="Path 41561" d="M2108.042,3287.236c.088-.158.227-.248.31-.2s.079.212-.009.37-.227.248-.31.2S2107.954,3287.393,2108.042,3287.236Z" transform="translate(-2091.228 -3282.594)" fill="#464646"/>
                    <path id="Path_41562" data-name="Path 41562" d="M2074.9,3362.1c.088-.157.226-.248.31-.2s.079.212-.009.369-.226.248-.31.2S2074.815,3362.26,2074.9,3362.1Z" transform="translate(-2065.871 -3339.88)" fill="#464646"/>
                  </g>
                </g>
              </g>
              <path id="Path_41563" data-name="Path 41563" d="M2042.188,3167.063l-18.785-10.477a1.154,1.154,0,0,0-.406.357c-.261.433-23.7,43.317-23.7,43.317l19.077,10.64s23.175-42.451,23.7-43.317A1.062,1.062,0,0,0,2042.188,3167.063Z" transform="translate(-1997.761 -3155.733)" fill="url(#linear-gradient-2)" style="mix-blend-mode: screen;isolation: isolate"/>
            </g>
          </g>
          <path id="Path_41564" data-name="Path 41564" d="M1906.647,3266.481a.254.254,0,0,0,.2-.253c-.028-.465-.715-11.456-4.646-16.483a.314.314,0,0,0-.4-.068.236.236,0,0,0-.07.355c3.836,4.906,4.536,16.1,4.543,16.216a.283.283,0,0,0,.3.246A.334.334,0,0,0,1906.647,3266.481Z" transform="translate(-1887.9 -3210.575)" fill="#2a94c0"/>
          <path id="Path_41565" data-name="Path 41565" d="M1848.167,3288.64a.191.191,0,0,1-.222-.123c-.18-.4-4.4-9.792-4.2-15.685a.218.218,0,0,1,.208-.233.238.238,0,0,1,.191.262c-.2,5.75,4.1,15.322,4.148,15.418a.281.281,0,0,1-.075.337A.192.192,0,0,1,1848.167,3288.64Z" transform="translate(-1843.57 -3228.148)" fill="#2a94c0"/>
          <path id="Path_41566" data-name="Path 41566" d="M2017.312,3274.51a.246.246,0,0,0,.246-.235c.208-4.58,0-11.992,0-12.066a.244.244,0,0,0-.253-.24.247.247,0,0,0-.24.254c0,.074.208,7.468,0,12.03a.247.247,0,0,0,.235.258Z" transform="translate(-1976.194 -3220.015)" fill="#2a94c0"/>
          <path id="Path_41567" data-name="Path 41567" d="M1975.848,3306.386c1.183,0,8.344-.091,8.5,0a14.75,14.75,0,0,1,.122,2.549h-8.374Z" transform="translate(-1944.656 -3253.971)" fill="#265a85"/>
          <path id="Path_41568" data-name="Path 41568" d="M1962.071,3335.229a.247.247,0,0,0,.247-.25c-.01-.623-1.061-62.341-.33-70.367a.246.246,0,0,0-.223-.268.249.249,0,0,0-.268.223c-.734,8.053.317,69.8.328,70.42A.247.247,0,0,0,1962.071,3335.229Z" transform="translate(-1933.476 -3221.831)" fill="#2a94c0"/>
          <path id="Path_41569" data-name="Path 41569" d="M1953.869,3328.337c-.892-.136-.832,2.033-.088,2S1954.565,3328.443,1953.869,3328.337Z" transform="translate(-1927.335 -3270.793)" fill="#2a94c0"/>
          <path id="Path_41570" data-name="Path 41570" d="M1951.626,3384.112c-.857-.283-1.159,1.866-.421,1.96S1952.295,3384.332,1951.626,3384.112Z" transform="translate(-1925.481 -3313.455)" fill="#2a94c0"/>
          <path id="Path_41571" data-name="Path 41571" d="M1955.2,3335.656c-.023-.114.282-.137.307,0S1955.218,3335.77,1955.2,3335.656Z" transform="translate(-1928.853 -3276.326)" fill="#2e6c9e"/>
          <path id="Path_41572" data-name="Path 41572" d="M1971.229,3343.879c.031-.112.314.006.274.14S1971.2,3343.991,1971.229,3343.879Z" transform="translate(-1941.12 -3282.656)" fill="#2e6c9e"/>
          <path id="Path_41573" data-name="Path 41573" d="M2007.572,3342.93c.4,0,.757-.008,1.065-.013a.146.146,0,0,0,.1-.038c2.389-2.18,4.206-1.434,5.062-2.117.147-.117.365.575.081.95-.372.495-1.273.787-1.236,1,.065.375,6.611-1.933,7.16-1.1.384.584-3.11,1.537-3.179,1.881-.113.563,3.473-.5,3.769.138.23.5-.9,2.433-2.309,3.284a14.592,14.592,0,0,1-6.763,1.314,11.329,11.329,0,0,1-3.135-.827.146.146,0,0,0-.1-.011q-.288.077-.639.165a.133.133,0,0,1-.172-.125l.163-4.374A.14.14,0,0,1,2007.572,3342.93Z" transform="translate(-1968.697 -3280.294)" fill="#f7b690"/>
          <path id="Path_41574" data-name="Path 41574" d="M1870.564,3269.194c1.444-.057,6.229,14.183,11.45,16.487,2.247.992,16.051,2.822,18.548,2.748.939-.028,1.384,4.193.458,4.351-2.969.506-17.65,5.232-24.96,1.374C1862.959,3287.238,1862.671,3269.5,1870.564,3269.194Z" transform="translate(-1860.059 -3225.543)" fill="#f7b690"/>
          <path id="Path_41575" data-name="Path 41575" d="M1848.031,3244.112c-8.473-17.632-4.541-26.935-.281-29.115,4.283-2.193,16.985,23.971,14.844,25.1S1848.031,3244.112,1848.031,3244.112Z" transform="translate(-1843.021 -3183.974)" fill="#c8deeb"/>
          <path id="Path_41576" data-name="Path 41576" d="M1911.806,3190.157c.535,1.551,10.215,14.762,11.653,13.933.987-.573,1.382-13.222,1.28-13.812a3.148,3.148,0,0,0-.451-1.158c-2.362,2.648-8.962.872-11.614-1.49C1912.155,3189.137,1911.646,3189.693,1911.806,3190.157Z" transform="translate(-1895.63 -3163.133)" fill="#fff"/>
          <path id="Path_41577" data-name="Path 41577" d="M1922.572,3156.241a4.731,4.731,0,0,0,4.535-3.571c-.724-3.188-.309-10.028-.309-10.028s-11.384-4.24-10.857-1.99a20.1,20.1,0,0,1-.448,10.528C1915.029,3152.684,1919.476,3156.307,1922.572,3156.241Z" transform="translate(-1898.449 -3126.684)" fill="#f7b690"/>
          <g id="Group_17835" data-name="Group 17835" transform="translate(14.417)">
            <path id="Path_41578" data-name="Path 41578" d="M1922.527,3095.789c3.039-5.779-.4-5.445-.644-6.854-1.316-7.622-12.715-6.082-14.517-3.564-1.211,1.691-3.227,4.368-2.92,6.416.226,1.507.6,6.769,2.462,7.91,4.2,2.577,10.493,4.345,13.157,3.358C1920.922,3102.737,1921.54,3097.667,1922.527,3095.789Z" transform="translate(-1904.415 -3083.312)" fill="#232b59"/>
            <path id="Path_41579" data-name="Path 41579" d="M1923.451,3109.1c1.244,1.468,1.718,5.314,1.344,7.886a28.04,28.04,0,0,1-1.161,3.9c-.974,3.252-2.345,5.785-4.8,5.538-7.117-.715-7.659-9.952-7.836-9.459-.741,1.933-2.5-1.315-2.427-2.862.053-1.062,1.727-1.472,2.1.805,2.076,1.358,1.444-4.926,3.721-5.552,1.048-.288,2.634,1.033,5.321,1.033C1922.663,3110.385,1923.028,3108.6,1923.451,3109.1Z" transform="translate(-1907.591 -3102.975)" fill="#f7b690"/>
            <path id="Path_41580" data-name="Path 41580" d="M1928.427,3134.935c-.206-.044-.37-.226-.5-.556a6.619,6.619,0,0,1-.273-3.139c.357-.506,5.589-.553,6.361-.058.219.141.322.471.332,1.07.011.633-.143,2.346-.569,2.64a6.472,6.472,0,0,1-2.077.184C1930.293,3135.077,1928.661,3134.985,1928.427,3134.935Zm5.277-3.295c-.713-.423-4.853-.236-5.593-.041a6.959,6.959,0,0,0,.43,2.795,29.206,29.206,0,0,0,4.917.04A5.794,5.794,0,0,0,1933.7,3131.64Z" transform="translate(-1922.118 -3119.675)" fill="#232b59"/>
            <path id="Path_41581" data-name="Path 41581" d="M1960.69,3134.946c-.079-.067-.242-.206-.223-1.281,0-.082.041-2.01.476-2.354.7-.552,3.651-.342,4.546-.169.323.063.455.123.522.24a8.466,8.466,0,0,1-.389,3.333.65.65,0,0,1-.373.416,16.029,16.029,0,0,1-1.892.075A7.848,7.848,0,0,1,1960.69,3134.946Zm4.886-3.276c-.615-.2-3.794-.368-4.319.027a6.842,6.842,0,0,0-.233,2.866,21.363,21.363,0,0,0,4.07.092A8.833,8.833,0,0,0,1965.576,3131.671Z" transform="translate(-1947.303 -3119.767)" fill="#232b59"/>
          </g>
          <path id="Path_41582" data-name="Path 41582" d="M1930.378,3136.8c-.22.768.712,3.157-.014,3.893a6.577,6.577,0,0,1-4.622,1.546c-4.868,0-8.036-2.135-7.949-8.756a23.216,23.216,0,0,0-.466-4.14c-.391-2.179,1.424-1.485,1.385-.708-.147,2.973-.175,6.681,1,7.618,1.51,1.2,4.72-1.452,7.018-1.48C1929.635,3134.738,1930.517,3136.316,1930.378,3136.8Z" transform="translate(-1899.836 -3117.416)" fill="#232b59"/>
        </g>
      </g>
    </g>
    <g id="Group_17839" data-name="Group 17839" transform="translate(1710.164 2988.105)">
      <g id="Group_17838" data-name="Group 17838" transform="translate(0 1.073)">
        <path id="Path_41583" data-name="Path 41583" d="M1853.041,3335.613h-18.213a.367.367,0,0,1-.329-.529l6.563-13.357v-5.877a.367.367,0,0,1,.367-.367h5.011a.367.367,0,0,1,.367.367v5.877l6.563,13.357a.367.367,0,0,1-.329.529Zm-8.189-.733h7.6l-6.341-12.905a.363.363,0,0,1-.037-.162v-5.6H1841.8v5.6a.367.367,0,0,1-.037.162l-6.341,12.905Z" transform="translate(-1834.461 -3315.483)" fill="#cce8ff"/>
      </g>
      <path id="Path_41584" data-name="Path 41584" d="M1854.56,3353.87h-4.523l-4.645,9.412H1859.2Z" transform="translate(-1842.825 -3343.782)" fill="#9cb532"/>
      <path id="Path_41585" data-name="Path 41585" d="M1866.933,3312a1.1,1.1,0,0,1-1.1,1.087h-4.767a1.087,1.087,0,1,1,0-2.174h4.767A1.1,1.1,0,0,1,1866.933,3312Z" transform="translate(-1853.977 -3310.914)" fill="#cce8ff"/>
    </g>
    <g id="character1" transform="translate(1770.977 2966.922)">
      <g id="Group_17840" data-name="Group 17840" transform="translate(5.781 16.815)">
        <path id="Path_41586" data-name="Path 41586" d="M2120.924,3383.974c-.539,1.384-1.871,1.526-2.544,2.016-.586.426-.267.674-.008.674h3.992c.749,0-.214-1.169-.218-2.344C2122.145,3384,2121.039,3383.678,2120.924,3383.974Z" transform="translate(-2118.049 -3362.36)" fill="#1c2040"/>
        <path id="Path_41587" data-name="Path 41587" d="M2166.753,3383.974c-.54,1.384-.607,1.526-1.281,2.016-.586.426-.267.674-.008.674h2.981c.749,0-.214-1.169-.218-2.344C2168.227,3384,2166.868,3383.678,2166.753,3383.974Z" transform="translate(-2154.083 -3362.36)" fill="#1c2040"/>
        <path id="Path_41588" data-name="Path 41588" d="M2136.112,3293.676a15.218,15.218,0,0,0-4.265-1.358c-.945-.213-2.366,9.587-2.716,14.392a75.793,75.793,0,0,1-1.314,7.944c.1.247,3.349.94,3.6.562a30.751,30.751,0,0,0,2.267-7.9c.116-.624-.287-2.187-.174-2.82C2134.448,3299.207,2136.331,3293.968,2136.112,3293.676Z" transform="translate(-2125.517 -3292.314)" fill="#104262"/>
        <path id="Path_41589" data-name="Path 41589" d="M2159.754,3295.444a15.223,15.223,0,0,0-5.123-.584c-.836,4.147.934,10.019,1.793,14.759a72.917,72.917,0,0,1,.716,7.4c.164.213,3.227.4,3.372-.029.258-.762.584-3.345.286-7.733-.043-.633-.823-2.047-.872-2.687C2159.521,3301.216,2160.039,3295.673,2159.754,3295.444Z" transform="translate(-2145.873 -3294.254)" fill="#104262"/>
      </g>
      <path id="Path_41590" data-name="Path 41590" d="M2132.727,3246.583c-1.384.425-4.1,1.034-5.036,2.028a15,15,0,0,0-1.72,4.438c.377.838,2.146,1,2.55,1.323.166.134.351,6.135.562,6.7.083.222,7.027,1.163,8.711-.157.572-.448.094-6.123.079-6.567-.009-.259,3.082-.675,3.063-1.089a12.247,12.247,0,0,0-2.285-5.2C2137.607,3246.827,2132.727,3246.583,2132.727,3246.583Z" transform="translate(-2118.322 -3240.507)" fill="#ec3171"/>
      <path id="Path_41591" data-name="Path 41591" d="M2149.255,3244.085c.142.148.682.72.682.893s-.4,1.193-2.531,1.193c-.683,0-1.576-.595-1.576-.8a2.9,2.9,0,0,1,.672-1.086A10.274,10.274,0,0,1,2149.255,3244.085Z" transform="translate(-2133.525 -3238.559)" fill="#ec3171"/>
      <g id="Group_17841" data-name="Group 17841" transform="translate(11.933 0)">
        <path id="Path_41592" data-name="Path 41592" d="M2144.909,3224.158a4.727,4.727,0,0,1-.662-1.966c.087-.739,1.173-1.394,1.566-1.467a2.67,2.67,0,0,1,2.123.829,2.952,2.952,0,0,1-.313,2.749A4.128,4.128,0,0,1,2144.909,3224.158Z" transform="translate(-2144.245 -3220.708)" fill="#232850"/>
        <path id="Path_41593" data-name="Path 41593" d="M2148.387,3237.326a3.17,3.17,0,0,1-.055,1.656c-.048.175.554.646,1.262.612.8-.038,1.716-.6,1.672-.771a12.337,12.337,0,0,1-.4-1.976C2150.853,3236.207,2148.387,3237.326,2148.387,3237.326Z" transform="translate(-2147.371 -3232.905)" fill="#f6a087"/>
        <path id="Path_41594" data-name="Path 41594" d="M2147.342,3230.267a2.209,2.209,0,0,0,1.662-2.1c.058.07.134.09.238-.081s.185-.807-.032-.884c-.093-.033-.208.1-.208.1s-.35-1.159-.63-1.305c-.232-.12-2.5.547-2.528.891C2145.745,3228.064,2146.229,3230.349,2147.342,3230.267Z" transform="translate(-2145.458 -3224.742)" fill="#f5b58f"/>
      </g>
      <path id="Path_41595" data-name="Path 41595" d="M2173.906,3275.09c-.059-.25-2.8.35-2.721.771a21.913,21.913,0,0,1,.394,3.083,22.537,22.537,0,0,1-1.012,4.183c-.027.044-.247-.06-.545.013-.119.029-.186.435-.333.571-.246.227-.326.258-.256.335a.314.314,0,0,0,.431.066c.128-.069.157-.45.251-.478.266.435-.812,2.687-.336,2.618a4.17,4.17,0,0,0,1.465-.764c.339-.468.232-1.692.4-1.991.077-.138,1.166-1.179,1.664-1.814a6.92,6.92,0,0,0,1.075-3.184A25.093,25.093,0,0,0,2173.906,3275.09Z" transform="translate(-2151.564 -3262.274)" fill="#f5b58f"/>
      <path id="Path_41596" data-name="Path 41596" d="M2095.836,3291.406a2.776,2.776,0,0,1-.517.006c-.057-.01-.041-.286-.243-.57-.081-.114-.537-.014-.743-.112-.343-.165-.409-.236-.462-.13a.357.357,0,0,0,.112.483c.127.106.541-.024.609.064-.346.464-1.391.16-1.117.634.122.212.378,1.018.746,1.111.637.161,1.16-.369,1.546-.319C2095.944,3292.6,2097.019,3291.324,2095.836,3291.406Z" transform="translate(-2093.429 -3274.149)" fill="#f5b58f"/>
      <path id="Path_41597" data-name="Path 41597" d="M2177.727,3271.1a15.629,15.629,0,0,1,.65,5.218,6.4,6.4,0,0,1-2.769,4.2,1.581,1.581,0,0,1-1.337-.7c-.127-.418,1.072-3.173,1.022-3.886a33.519,33.519,0,0,0-.85-3.45,9.454,9.454,0,0,1,1.893-.964C2177.143,3271.252,2177.727,3271.1,2177.727,3271.1Z" transform="translate(-2155.28 -3259.27)" fill="#ec3171"/>
      <path id="Path_41598" data-name="Path 41598" d="M2110.362,3275.625a13.164,13.164,0,0,1-2.7,3.568c-.478.434-4.658,1.7-5.557,1.067-.365-.256-.259-1.495-.259-1.495a36.024,36.024,0,0,0,3.532-1.781c.4-.362,1.981-2.614,2.2-2.811S2110.462,3275.45,2110.362,3275.625Z" transform="translate(-2099.862 -3261.604)" fill="#ec3171"/>
      <path id="Path_41599" data-name="Path 41599" d="M2095.484,3296.136a.064.064,0,0,1-.012-.127.873.873,0,0,0,.256-.081,1.347,1.347,0,0,0,.053-.494c-.022-.087-.206-.147-.291-.163a.064.064,0,0,1,0-.126c.057-.01.223-.06.233-.149-.022-.033-.175-.034-.31-.034s-.312,0-.526-.015a.064.064,0,0,1,.009-.128c.209.014.379.014.517.015.231,0,.347,0,.406.067a.135.135,0,0,1,.031.109.264.264,0,0,1-.148.195.332.332,0,0,1,.2.2,1.518,1.518,0,0,1-.056.568c-.007.025-.029.1-.354.165Z" transform="translate(-2094.5 -3277.416)" fill="#d69269"/>
    </g>
    <g id="Group_17843" data-name="Group 17843" transform="translate(1795.563 2968.107)">
      <g id="character2" transform="translate(0 0)">
        <g id="Group_17842" data-name="Group 17842">
          <path id="Path_41600" data-name="Path 41600" d="M2230.765,3391.034c-.576.213-1.682.683-1.6.917a12.907,12.907,0,0,0,3.447-.131c.1-.107.059-1.286-.108-1.234A11.586,11.586,0,0,0,2230.765,3391.034Z" transform="translate(-2221.873 -3351.874)" fill="#222b54"/>
          <path id="Path_41601" data-name="Path 41601" d="M2257.953,3389.437a2.842,2.842,0,0,0-.98,1.454c-.026.417,1.6.25,1.732.15.433-.328.135-1.538.009-1.625A1.265,1.265,0,0,0,2257.953,3389.437Z" transform="translate(-2243.154 -3350.946)" fill="#222b54"/>
          <path id="Path_41602" data-name="Path 41602" d="M2234.887,3334.489c.215,2.08.667,11.211.469,11.762-.041.112-1.509.721-1.509.833,0,.189,1,.1,1.636-.1.49-.161.548-.382.583-.512.086-.317,1.894-6.828,1.853-9.126a9.8,9.8,0,0,0-1.559-4.549S2234.782,3333.468,2234.887,3334.489Z" transform="translate(-2225.458 -3307.656)" fill="#f6a087"/>
          <path id="Path_41603" data-name="Path 41603" d="M2243.729,3334.975c.848,1.982,3.3,6.845,4.014,11.16.014.084-.214.335-.348.578s-.066.5.063.54c.426.148,1.1-.519,1.006-.928-.138-.607.319-7.123-.393-9.291s-3.448-3.968-3.448-3.968A1.347,1.347,0,0,0,2243.729,3334.975Z" transform="translate(-2232.904 -3307.866)" fill="#f5b58f"/>
          <path id="Path_41604" data-name="Path 41604" d="M2204,3265.737c.055.021,2.61,0,3.042,0a41.7,41.7,0,0,0,4.352-.132c1.353-.428,2.28-5.085,2.28-5.085l-1.459-1.361a15.621,15.621,0,0,1-1.63,4.975,15.824,15.824,0,0,1-3.589.94,10.242,10.242,0,0,0-1.369-.217C2205.083,3264.843,2203.833,3265.672,2204,3265.737Z" transform="translate(-2202.611 -3251.314)" fill="#f6a087"/>
          <path id="Path_41605" data-name="Path 41605" d="M2234.443,3228a.785.785,0,0,1-.135-1.018,2.007,2.007,0,0,1,2.267-1.18c.666.128,1.649.4,1.884.788.309.51.232,1.268.494,1.65.2.293.727.606.765,1.073.041.505-.47,1.155-.13,1.638.3.424,1.188.412.652,1.763a2.693,2.693,0,0,0-.238.815,2.024,2.024,0,0,0,.233.734c.2.469-.1.753-.477,1.091a.6.6,0,0,0-.186.587c-.21,2.306-3.9-3.184-4.2-3.6-.28-.4-.008-2.035-.239-2.145-.553-.263-1.142-.809-1.123-1.406C2234.017,3228.68,2234.368,3227.907,2234.443,3228Z" transform="translate(-2225.585 -3225.755)" fill="#69402a"/>
          <path id="Path_41606" data-name="Path 41606" d="M2235.781,3262.219a21.344,21.344,0,0,1-.148-3.478c-.134-.295-1.066-.387-1.189-1.557a5.977,5.977,0,0,1,1.623-2.424,5.061,5.061,0,0,1,1.292-.433.993.993,0,0,1,.71.188,4.735,4.735,0,0,1,1.694,2.262c.256,1.085-.512,4.592-.1,5.655.149.382.841,1.839.841,1.839a5.37,5.37,0,0,1,.946,2.785,40.5,40.5,0,0,1-.473,8.144,24.561,24.561,0,0,1-5.885.1,28.048,28.048,0,0,1,.21-9.3A10.889,10.889,0,0,0,2235.781,3262.219Z" transform="translate(-2225.914 -3247.607)" fill="#222b54"/>
          <path id="Path_41607" data-name="Path 41607" d="M2241.612,3242.8a3.211,3.211,0,0,1,.066,2.325c-.219.5,2.1-.073,1.931-.3a4.95,4.95,0,0,1-.756-3.023C2242.957,3241.259,2241.612,3242.8,2241.612,3242.8Z" transform="translate(-2231.4 -3237.945)" fill="#f6a087"/>
          <path id="Path_41608" data-name="Path 41608" d="M2236.438,3230.742c-1.139,1.781-.514,3.833.329,3.951a2.386,2.386,0,0,0,2.009-1.562c.146.112.67-.152.546-.564-.115-.381-.42-.01-.53-.058C2238.705,3231.567,2236.379,3231.907,2236.438,3230.742Z" transform="translate(-2226.967 -3229.571)" fill="#f5b58f"/>
          <path id="Path_41609" data-name="Path 41609" d="M2217.975,3265.226c-1.606,1.325-4.973,3.345-5.921,2.931a36.166,36.166,0,0,1-4.057-2.985l.412-.6s3.615,1.662,3.871,1.773a19.893,19.893,0,0,0,4.077-2.018C2216.661,3264.026,2217.975,3265.226,2217.975,3265.226Z" transform="translate(-2205.678 -3255.232)" fill="#f5b58f"/>
          <path id="Path_41610" data-name="Path 41610" d="M2200.855,3261.407c-.087-.052.048-.255-.056-.374-.136-.155-.51-.266-.7-.417-.242-.2-.294-.422-.4-.473-.031-.015-.151.186-.125.334.033.188.414.326.284.376-.668.26-1.5-.433-1.716-.434a3.046,3.046,0,0,0,2.3,1.588C2201.368,3262.007,2200.855,3261.407,2200.855,3261.407Z" transform="translate(-2198.125 -3252.067)" fill="#f5b58f"/>
        </g>
        <path id="Path_41611" data-name="Path 41611" d="M2207.769,3285.322a.069.069,0,0,0,.056-.029.8.8,0,0,1,.266-.225,1.387,1.387,0,0,1,.347-.043,1.367,1.367,0,0,0,.656-.135.07.07,0,0,0-.085-.11,1.349,1.349,0,0,1-.579.107,1.345,1.345,0,0,0-.4.055.93.93,0,0,0-.321.27.07.07,0,0,0,.056.11Z" transform="translate(-2205.451 -3270.908)" fill="#d67f69"/>
      </g>
    </g>
  </g>
</svg>
