<svg xmlns="http://www.w3.org/2000/svg" width="160.76" height="167.756" viewBox="0 0 160.76 167.756">
  <g id="Group_16614" data-name="Group 16614" transform="translate(-247.258 -3296.188)">
    <g id="Group_16576" data-name="Group 16576" transform="translate(247.258 3296.188)">
      <path id="Path_39293" data-name="Path 39293" d="M344.5,3485.27s.006-.45.018-1.323c0-.218,0-.463.014-.733s.022-.567.035-.889.021-.669.046-1.041.049-.769.076-1.191c.124-1.684.319-3.761.7-6.182a73.674,73.674,0,0,1,1.779-8.224c.052-.19.1-.382.158-.574l.172-.578q.175-.581.354-1.177c.26-.789.511-1.6.81-2.42.282-.824.606-1.654.931-2.506.344-.844.687-1.709,1.078-2.576a72.552,72.552,0,0,1,5.869-10.795,73.8,73.8,0,0,1,20.645-20.79,75,75,0,0,1,7.121-4.2,72.569,72.569,0,0,1,7.845-3.475,71.464,71.464,0,0,1,8.485-2.6c.729-.185,1.468-.336,2.208-.5.369-.084.743-.148,1.116-.221s.747-.145,1.122-.21l1.131-.186.567-.093.571-.079,1.143-.159c.382-.049.767-.089,1.151-.133.768-.1,1.542-.155,2.317-.224.388-.038.777-.055,1.167-.082s.78-.052,1.172-.07l1.18-.043.591-.022.589-.007,1.179-.014c.4,0,.794.009,1.192.013.794,0,1.589.043,2.387.073.4.011.8.047,1.2.07s.8.046,1.2.083c.8.075,1.6.134,2.4.236.4.048.8.089,1.2.142l1.2.169c.4.053.8.121,1.206.189s.8.131,1.206.2c.8.158,1.608.3,2.407.483,1.607.336,3.2.756,4.8,1.206.794.238,1.592.468,2.381.734.794.25,1.578.536,2.367.813.394.141.783.3,1.175.444l.587.224c.2.076.389.158.583.237l1.167.479,1.157.508a73.222,73.222,0,0,1-.07,133.86l-1.156.5-1.165.475c-.194.078-.387.16-.582.236l-.587.222c-.392.146-.78.3-1.173.44-.787.275-1.57.559-2.363.806-.787.264-1.584.493-2.376.728-1.592.445-3.184.861-4.787,1.193-.8.183-1.6.32-2.4.476-.4.071-.8.134-1.2.2s-.8.134-1.2.185l-1.2.167c-.4.052-.8.093-1.2.14-.8.1-1.6.157-2.4.23-.4.036-.8.053-1.2.08s-.8.057-1.194.067c-.8.028-1.591.067-2.38.068-.4,0-.788.011-1.185.011l-1.181-.017-.59-.008-.588-.023-1.173-.045c-.39-.019-.779-.049-1.168-.072s-.777-.045-1.163-.084c-.773-.07-1.544-.132-2.31-.228-.383-.045-.766-.085-1.147-.135l-1.139-.161-.568-.08-.565-.094-1.127-.187c-.374-.066-.746-.142-1.118-.213s-.744-.137-1.112-.222c-.737-.163-1.473-.314-2.2-.5a71.2,71.2,0,0,1-8.447-2.607,72.352,72.352,0,0,1-7.806-3.477,74.507,74.507,0,0,1-7.082-4.193,73.452,73.452,0,0,1-20.5-20.731,72.227,72.227,0,0,1-5.816-10.748c-.387-.863-.726-1.724-1.067-2.564-.32-.847-.642-1.673-.92-2.494-.3-.813-.543-1.623-.8-2.407q-.177-.593-.349-1.171l-.17-.575c-.055-.191-.1-.382-.156-.571a73.165,73.165,0,0,1-1.752-8.178c-.372-2.407-.561-4.471-.681-6.146q-.039-.628-.074-1.183c-.024-.37-.029-.715-.043-1.035s-.023-.615-.033-.883-.008-.511-.012-.728c-.01-.868-.015-1.315-.015-1.315Zm.469,0s.006.448.018,1.315c0,.217,0,.46.014.728s.022.563.035.883.02.665.046,1.035.049.764.076,1.182c.123,1.674.317,3.738.693,6.143a73.065,73.065,0,0,0,1.768,8.171c.052.189.1.38.156.57l.172.574.352,1.17c.258.783.508,1.591.8,2.4.28.819.6,1.644.925,2.49.343.838.683,1.7,1.071,2.559a72.119,72.119,0,0,0,5.832,10.726,73.34,73.34,0,0,0,20.514,20.657,74.119,74.119,0,0,0,7.075,4.169,72.191,72.191,0,0,0,7.8,3.453,70.992,70.992,0,0,0,8.43,2.583c.724.184,1.459.334,2.194.494.367.085.739.148,1.109.221s.742.144,1.115.209l1.124.185.564.093.567.079,1.136.158c.38.049.761.088,1.143.132.763.095,1.532.154,2.3.223.385.038.773.055,1.16.081s.776.052,1.164.07l1.169.043.586.021.587.007,1.178.014c.39,0,.787-.009,1.182-.013.79,0,1.579-.043,2.371-.072.4-.01.793-.046,1.189-.069s.795-.045,1.192-.082c.794-.075,1.593-.134,2.389-.234.4-.048.8-.089,1.2-.141l1.2-.169c.4-.053.8-.119,1.2-.187s.8-.13,1.2-.2c.8-.158,1.6-.3,2.392-.479,1.6-.334,3.182-.752,4.767-1.2.789-.236,1.582-.465,2.366-.73.789-.248,1.568-.532,2.352-.808.391-.14.778-.294,1.167-.44l.584-.222c.194-.075.386-.157.58-.235l1.159-.476,1.15-.5a72.753,72.753,0,0,0-.07-133l-1.148-.5-1.157-.472c-.193-.078-.385-.159-.579-.234l-.583-.221c-.389-.145-.775-.3-1.165-.437-.783-.273-1.56-.556-2.348-.8-.783-.262-1.574-.489-2.361-.723-1.581-.442-3.164-.855-4.756-1.185-.793-.181-1.593-.318-2.386-.473-.4-.071-.8-.133-1.195-.2s-.8-.133-1.194-.184l-1.193-.166c-.4-.052-.8-.092-1.194-.138-.794-.1-1.59-.156-2.382-.228-.4-.036-.793-.053-1.189-.08s-.791-.056-1.186-.066c-.79-.027-1.578-.067-2.365-.067-.391,0-.79-.012-1.173-.011l-1.179.017-.588.008-.582.022-1.163.046c-.387.019-.774.048-1.16.072s-.772.043-1.155.083c-.768.07-1.534.13-2.294.226-.381.045-.761.085-1.14.135l-1.131.159-.565.08-.561.094-1.119.187c-.372.066-.741.141-1.111.211s-.739.137-1.1.221c-.732.162-1.464.312-2.185.5a70.707,70.707,0,0,0-8.393,2.59,71.885,71.885,0,0,0-7.756,3.455,74.1,74.1,0,0,0-7.036,4.165,72.989,72.989,0,0,0-20.373,20.6,71.674,71.674,0,0,0-5.778,10.679c-.384.857-.721,1.713-1.06,2.547-.319.841-.638,1.662-.914,2.477-.294.809-.54,1.613-.8,2.392l-.347,1.164-.169.571c-.054.19-.1.38-.154.568a72.639,72.639,0,0,0-1.741,8.125c-.369,2.392-.557,4.443-.676,6.106q-.039.625-.074,1.176c-.024.367-.029.71-.043,1.028s-.023.61-.032.877-.008.509-.013.724c-.01.862-.015,1.307-.015,1.307Z" transform="translate(-333.95 -3399.394)" fill="#ceecfd"/>
      <path id="Path_39294" data-name="Path 39294" d="M1469.079,3632.617a12.986,12.986,0,1,0,12.986-12.987A12.986,12.986,0,0,0,1469.079,3632.617Z" transform="translate(-1337.481 -3584.785)" fill="#ceecfd"/>
      <circle id="Ellipse_1618" data-name="Ellipse 1618" cx="14.29" cy="14.29" r="14.29" transform="translate(98.97 28.58) rotate(-89.514)" fill="#ceecfd"/>
      <path id="Path_39295" data-name="Path 39295" d="M608.5,3330.17a14.8,14.8,0,1,0,14.8-14.8A14.8,14.8,0,0,0,608.5,3330.17Z" transform="translate(-569.596 -3313.29)" fill="#ceecfd"/>
      <path id="Path_39296" data-name="Path 39296" d="M309.141,3659.031a13.4,13.4,0,1,1-13.395-13.4A13.395,13.395,0,0,1,309.141,3659.031Z" transform="translate(-278.543 -3607.991)" fill="#ceecfd"/>
      <circle id="Ellipse_1619" data-name="Ellipse 1619" cx="10" cy="10" r="10" transform="translate(140.76 82.563)" fill="#008796"/>
      <path id="Path_39297" data-name="Path 39297" d="M740.626,4650.848a11.517,11.517,0,1,0,11.517-11.517A11.517,11.517,0,0,0,740.626,4650.848Z" transform="translate(-687.469 -4494.61)" fill="#ceecfd"/>
      <path id="Path_39298" data-name="Path 39298" d="M1483.57,4410.079a12.986,12.986,0,1,0,12.986-12.987A12.986,12.986,0,0,0,1483.57,4410.079Z" transform="translate(-1350.399 -4278.659)" fill="#ceecfd"/>
      <circle id="Ellipse_1620" data-name="Ellipse 1620" cx="14.29" cy="14.29" r="14.29" transform="translate(0 132.467) rotate(-45)" fill="#008796"/>
      <path id="Path_39299" data-name="Path 39299" d="M250.842,4057.476a12.986,12.986,0,1,0,12.986-12.987A12.986,12.986,0,0,0,250.842,4057.476Z" transform="translate(-250.453 -3963.873)" fill="#ceecfd"/>
      <g id="Group_16529" data-name="Group 16529" transform="translate(56.157 148.107)">
        <g id="Group_16526" data-name="Group 16526" transform="translate(5.112 5.244)">
          <g id="Group_16525" data-name="Group 16525">
            <g id="Group_16524" data-name="Group 16524">
              <path id="Path_39300" data-name="Path 39300" d="M819.994,4726.274h-2.283v-2.284h-2.284v-2.854h2.283v-2.282h2.283v2.282h2.283v2.854h-2.283Z" transform="translate(-815.427 -4718.854)" fill="#fff"/>
            </g>
          </g>
        </g>
        <g id="Group_16527" data-name="Group 16527" transform="translate(5.112 5.244)">
          <path id="Path_39301" data-name="Path 39301" d="M817.71,4718.854h2.283v2.282h2.283v2.854h-2.283v2.284h-2.283v-2.284h-2.284v-2.854h2.283Z" transform="translate(-815.427 -4718.854)" fill="none"/>
        </g>
        <g id="Group_16528" data-name="Group 16528">
          <path id="Path_39302" data-name="Path 39302" d="M817.71,4718.854h2.283v2.282h2.283v2.854h-2.283v2.284h-2.283v-2.284h-2.284v-2.854h2.283Z" transform="translate(-810.314 -4713.61)" fill="none"/>
          <path id="Path_39303" data-name="Path 39303" d="M768.32,4699.757v7.872a2.136,2.136,0,0,0,2.13,2.13h12.815a2.136,2.136,0,0,0,2.132-2.13v-7.872a2.015,2.015,0,0,0-2.132-1.983h-2.411v0h-1.143v0H770.45A2.014,2.014,0,0,0,768.32,4699.757Zm5.112,2.583h2.283v-2.282H778v2.282h2.283v2.854H778v2.284h-2.282v-2.284h-2.284Z" transform="translate(-768.32 -4694.813)" fill="#cd252a"/>
          <path id="Path_39304" data-name="Path 39304" d="M817.024,4672.665a1.022,1.022,0,0,0-.99-.99h-3.729a1.022,1.022,0,0,0-.989.99v.83h-1.142v-.83a2.136,2.136,0,0,1,2.13-2.131h3.729a2.138,2.138,0,0,1,2.132,2.131v.825h-1.143Z" transform="translate(-805.633 -4670.533)" fill="#cd252a"/>
        </g>
      </g>
      <g id="Group_16540" data-name="Group 16540" transform="translate(41.754 8.092)">
        <path id="Path_39305" data-name="Path 39305" d="M646.762,3412.833l-.67,5.115-3.471,1.035s-.183,2.5-.731,2.8a2.681,2.681,0,0,1-1.644-.061v-2.436l2.375-2.253,1.035-3.836Z" transform="translate(-639.654 -3408.266)" fill="#fff"/>
        <rect id="Rectangle_4125" data-name="Rectangle 4125" width="7.46" height="6.227" transform="translate(11.481 4.322)" fill="#fff"/>
        <g id="Group_16539" data-name="Group 16539">
          <g id="Group_16538" data-name="Group 16538">
            <g id="Group_16536" data-name="Group 16536" transform="translate(3.055 3.668)">
              <g id="Group_16535" data-name="Group 16535">
                <g id="Group_16531" data-name="Group 16531" transform="translate(0 8.451)">
                  <g id="Group_16530" data-name="Group 16530">
                    <path id="Path_39306" data-name="Path 39306" d="M662.946,3484.806a2.385,2.385,0,1,0,2.385-2.385A2.386,2.386,0,0,0,662.946,3484.806Zm2.867.524a.712.712,0,0,1-1.194-.524.712.712,0,0,1,1.412-.129.727.727,0,0,1,.012.129A.709.709,0,0,1,665.813,3485.33Z" transform="translate(-662.946 -3482.421)" fill="#cd252a"/>
                  </g>
                </g>
                <path id="Path_39307" data-name="Path 39307" d="M796.76,3484.806a2.386,2.386,0,1,0,2.386-2.385A2.386,2.386,0,0,0,796.76,3484.806Zm1.673,0a.722.722,0,0,1,.012-.129.711.711,0,0,1,1.4,0,.722.722,0,0,1,.012.129.712.712,0,0,1-1.424,0Z" transform="translate(-782.238 -3473.97)" fill="#cd252a"/>
                <g id="Group_16534" data-name="Group 16534" transform="translate(7.308)">
                  <g id="Group_16533" data-name="Group 16533">
                    <g id="Group_16532" data-name="Group 16532">
                      <path id="Path_39308" data-name="Path 39308" d="M730.287,3404.549v7.791h8.853v-7.791Zm2.086,3.092H734.1v-1.725h1.725v1.725h1.725v1.725h-1.725v1.725H734.1v-1.725h-1.725Z" transform="translate(-730.287 -3404.549)" fill="#cd252a"/>
                    </g>
                  </g>
                </g>
              </g>
            </g>
            <g id="Group_16537" data-name="Group 16537">
              <path id="Path_39309" data-name="Path 39309" d="M634.794,3406.138c0,.379.01.769.01,1.149.909,0,1.818,0,2.727-.01a2.763,2.763,0,0,1,2.957-2.178,2.929,2.929,0,0,1,2.436,2.151v.1h9.2a2.672,2.672,0,0,1,5.184-.414,2.647,2.647,0,0,1,.1.414h.488v-11.323H646.65v-.037h-2.637c0,.014,0,.026,0,.037h-1.089v.613c-1.4-.01-2.8-.019-4.2,0,.11,1.379-.55,2.627-.869,3.936-.2.5-.17,1.219-.759,1.448-.59.29-1.189.559-1.778.829-.04,1.089-.01,2.168-.02,3.257Zm11.548-5.268a3.49,3.49,0,1,1,3.489,3.489A3.49,3.49,0,0,1,646.342,3400.87Zm-8.281.952c.28-1.059.619-2.1.9-3.146.709-.03,1.429-.02,2.138-.02.04,1.059.02,2.118.01,3.176C640.089,3401.832,639.08,3401.842,638.06,3401.822Zm-2.641,3.269q.926-.016,1.851,0c.011.372.011.734,0,1.107-.617.01-1.245.01-1.862-.011C635.4,3405.825,635.4,3405.464,635.419,3405.091Z" transform="translate(-634.794 -3393.248)" fill="#323640"/>
              <path id="Path_39310" data-name="Path 39310" d="M719.729,3372.069a1.32,1.32,0,0,1,2.64,0c0,.246,0,1.136,0,1.419H719.73C719.729,3373.2,719.729,3372.315,719.729,3372.069Z" transform="translate(-710.512 -3370.749)" fill="#cd252a"/>
            </g>
          </g>
          <path id="Path_39311" data-name="Path 39311" d="M717.857,3393.514a.239.239,0,0,0,.24.24h2.651a.24.24,0,0,0,.24-.24h0a.24.24,0,0,0-.24-.24H718.1a.24.24,0,0,0-.24.24Z" transform="translate(-708.843 -3390.829)" fill="#323640"/>
        </g>
      </g>
      <g id="Group_16541" data-name="Group 16541" transform="translate(103.316 7.695)">
        <path id="Path_39312" data-name="Path 39312" d="M1205.986,3372.448a5.4,5.4,0,0,0,.147,1.248c0,.014.007.027.01.042s.012.048.017.071a7.69,7.69,0,0,0,.916,2.135,13.762,13.762,0,0,0,1.937,2.439h5.54a.431.431,0,0,1,.4.275l.9,2.342,3.178-7.881a.432.432,0,0,1,.385-.269.442.442,0,0,1,.4.241l1.461,3h2.749a.366.366,0,0,1,.066.007,9.066,9.066,0,0,0,.6-1.106,6.862,6.862,0,0,0,.416-1.188c.005-.024.012-.048.017-.071s.007-.028.01-.042a5.405,5.405,0,0,0,.147-1.248c0-.024,0-.047,0-.071a5.351,5.351,0,0,0-3.213-4.835c-.075-.026-.15-.051-.226-.072a5.276,5.276,0,0,0-6.1,1.654c-.068.051-.1.08-.1.08l-.006,0h0a5.341,5.341,0,0,0-4.25-2.1h-.047a5.336,5.336,0,0,0-2.137.444,4.768,4.768,0,0,0-2.524,2.236,5.84,5.84,0,0,0-.336.692,4.812,4.812,0,0,0-.353,1.907C1205.987,3372.4,1205.986,3372.424,1205.986,3372.448Zm17.721-.005a.2.2,0,0,1-.02-.078,3.925,3.925,0,0,0-3.631-3.629c-.151-.009-.277-.193-.28-.412a.345.345,0,0,1,.337-.379,4.721,4.721,0,0,1,4.364,4.365.286.286,0,0,1-.025.133.374.374,0,0,1-.354.2A.435.435,0,0,1,1223.707,3372.442Z" transform="translate(-1205.986 -3367.098)" fill="#cd252a"/>
        <path id="Path_39313" data-name="Path 39313" d="M1247.653,3441.819a.43.43,0,0,0,.4.276h0a.43.43,0,0,0,.4-.27l3.224-8,1.155,2.375a.43.43,0,0,0,.387.241h2.488a23.136,23.136,0,0,1-5.154,4.63c-.568.4-1.29.853-1.847,1.194-.536.347-.856.523-.856.523l-.007,0-.007,0s-.32-.176-.856-.523c-.557-.341-1.279-.8-1.847-1.194a28.367,28.367,0,0,1-3.018-2.345h4.351Z" transform="translate(-1238.196 -3426.588)" fill="#cd252a"/>
      </g>
      <g id="Group_16549" data-name="Group 16549" transform="translate(8.415 126.349)">
        <path id="Path_39314" data-name="Path 39314" d="M385.084,4496.208l-10.546-6.071-.873.5-.776,1.644.5.874,10.227,5.709Z" transform="translate(-367.669 -4487.776)" fill="#fff"/>
        <g id="Group_16544" data-name="Group 16544" transform="translate(5.751 2.897)">
          <g id="Group_16543" data-name="Group 16543">
            <rect id="Rectangle_4126" data-name="Rectangle 4126" width="1.598" height="0.357" transform="translate(6.85 5.828) rotate(-60.171)" fill="#323640"/>
            <rect id="Rectangle_4127" data-name="Rectangle 4127" width="1.598" height="0.357" transform="translate(8.47 6.756) rotate(-60.171)" fill="#323640"/>
            <rect id="Rectangle_4128" data-name="Rectangle 4128" width="1.183" height="0.357" transform="translate(7.66 6.292) rotate(-60.177)" fill="#323640"/>
            <rect id="Rectangle_4129" data-name="Rectangle 4129" width="1.183" height="0.357" transform="translate(9.28 7.221) rotate(-60.178)" fill="#323640"/>
            <g id="Group_16542" data-name="Group 16542">
              <path id="Path_39315" data-name="Path 39315" d="M378.06,4495.771s.447-1.041,1.278-.564l6.018,3.45-1.148,2-6.152-3.527S377.466,4496.793,378.06,4495.771Z" transform="translate(-377.795 -4495.082)" fill="#cd252a"/>
            </g>
          </g>
        </g>
        <g id="Group_16545" data-name="Group 16545" transform="translate(5.105 2.527)">
          <path id="Path_39316" data-name="Path 39316" d="M377.6,4493.1l9.884,5.667-.173.3-.006.011-1.018,1.775-.006.011-.174.3-9.951-5.706s-.605-.558.032-1.668C376.185,4493.795,376.745,4492.61,377.6,4493.1Z" transform="translate(-375.453 -4492.838)" fill="none"/>
          <path id="Path_39317" data-name="Path 39317" d="M371.836,4504.517l0-.012h0Z" transform="translate(-371.836 -4503.112)" fill="#323640"/>
          <path id="Path_39318" data-name="Path 39318" d="M377.927,4491.892a2.349,2.349,0,0,1,.232-.224,2.314,2.314,0,0,0-.224.23Z" transform="translate(-377.266 -4491.668)" fill="#323640"/>
        </g>
        <g id="Group_16546" data-name="Group 16546">
          <path id="Path_39319" data-name="Path 39319" d="M364.9,4495.477l.008-.014h0Z" transform="translate(-360.551 -4492.524)" fill="none"/>
          <path id="Path_39320" data-name="Path 39320" d="M366.721,4492.306l.008-.014-.008.014Z" transform="translate(-362.172 -4489.697)" fill="none"/>
          <path id="Path_39321" data-name="Path 39321" d="M364.879,4491.341l.008-.014c.084-.146.338-.158.567-.026l.372.213a.181.181,0,0,1,.239-.055.194.194,0,0,1,.03.023,3.072,3.072,0,0,0-.657,1.169.19.19,0,0,1-.047-.018.181.181,0,0,1-.073-.233l-.372-.213c-.23-.132-.348-.357-.264-.5l.008-.014h0l.189-.331Z" transform="translate(-360.33 -4488.732)" fill="#0d8f8e"/>
          <path id="Path_39322" data-name="Path 39322" d="M324.8,4468.384l4.55,2.608-.19.331-3.991-2.288Z" transform="translate(-324.799 -4468.384)" fill="#fff"/>
        </g>
        <g id="Group_16547" data-name="Group 16547" transform="translate(4.994 2.197)">
          <path id="Path_39323" data-name="Path 39323" d="M377.6,4493.1l9.884,5.667-.173.3-.006.011-1.018,1.775-.006.011-.174.3-9.951-5.706s-.605-.558.032-1.668C376.185,4493.795,376.745,4492.61,377.6,4493.1Z" transform="translate(-375.343 -4492.508)" fill="none"/>
          <path id="Path_39324" data-name="Path 39324" d="M371.305,4491.813h0l10.052,5.763-.2.351.625.358.169-.3.334-.583,1.2-2.111.013-.007.43-.749-.626-.358-.2.343-10.051-5.763a1,1,0,0,0-1.233.194,2.267,2.267,0,0,0-.224.231l-.008-.007a3.077,3.077,0,0,0-.657,1.169h0l0,.012A1.12,1.12,0,0,0,371.305,4491.813Zm.355-1.9s.56-1.185,1.413-.7l9.884,5.667-.173.3-.006.01-1.018,1.776-.006.011-.174.3-9.951-5.706S371.024,4491.023,371.66,4489.912Z" transform="translate(-370.818 -4488.625)" fill="#323640"/>
        </g>
        <g id="Group_16548" data-name="Group 16548" transform="translate(16.461 8.86)">
          <path id="Path_39325" data-name="Path 39325" d="M476.479,4552.143l1.2-2.11.013-.007-.087.151,4.329,2.482-1.128,1.967Z" transform="translate(-476.479 -4550.025)" fill="#424d5a"/>
          <path id="Path_39326" data-name="Path 39326" d="M512.092,4564.789l.663-1.156.812.466-2.448,4.27-.812-.466.658-1.147Z" transform="translate(-506.635 -4562.156)" fill="#323640"/>
        </g>
      </g>
      <g id="Group_16551" data-name="Group 16551" transform="translate(11.408 41.154)">
        <rect id="Rectangle_4130" data-name="Rectangle 4130" width="6.13" height="1.903" transform="translate(3.377 2.526)" fill="#292b2e"/>
        <path id="Path_39327" data-name="Path 39327" d="M352.375,3714.693a4.19,4.19,0,0,1,3.869-4.449h5.145a4.19,4.19,0,0,1,3.869,4.449v9.969c0,.137-.008.271-.019.4a.636.636,0,0,1,.006.068.615.615,0,0,1-.039.216c0,.016,0,.033-.006.049h-.018a.468.468,0,0,1-.413.281H352.863a.468.468,0,0,1-.413-.281h-.018c0-.017,0-.034-.006-.05a.624.624,0,0,1-.038-.215.565.565,0,0,1,.006-.066c-.012-.134-.02-.269-.02-.406Z" transform="translate(-352.375 -3706.75)" fill="#383c44"/>
        <path id="Path_39328" data-name="Path 39328" d="M361.495,3761.4a2.386,2.386,0,0,0,2.2,2.533h6.5a2.385,2.385,0,0,0,2.2-2.533v-1.717a2.386,2.386,0,0,0-2.2-2.533h-6.5a2.386,2.386,0,0,0-2.2,2.533Z" transform="translate(-360.505 -3748.566)" fill="#ecf7f8"/>
        <rect id="Rectangle_4131" data-name="Rectangle 4131" width="7.757" height="1.025" transform="translate(2.563 9.67)" fill="#ffbe50"/>
        <rect id="Rectangle_4132" data-name="Rectangle 4132" width="7.757" height="1.025" transform="translate(2.563 11.546)" fill="#ffbe50"/>
        <rect id="Rectangle_4133" data-name="Rectangle 4133" width="6.075" height="1.025" transform="translate(3.404 13.423)" fill="#ffbe50"/>
        <g id="Group_16550" data-name="Group 16550" transform="translate(2.116)">
          <rect id="Rectangle_4134" data-name="Rectangle 4134" width="0.307" height="2.526" transform="translate(2.773)" fill="#ef7b00"/>
          <rect id="Rectangle_4135" data-name="Rectangle 4135" width="0.307" height="2.526" transform="translate(3.476)" fill="#ef7b00"/>
          <rect id="Rectangle_4136" data-name="Rectangle 4136" width="0.307" height="2.526" transform="translate(7.692)" fill="#ef7b00"/>
          <rect id="Rectangle_4137" data-name="Rectangle 4137" width="0.307" height="2.526" transform="translate(6.989)" fill="#ef7b00"/>
          <rect id="Rectangle_4138" data-name="Rectangle 4138" width="0.307" height="2.526" transform="translate(4.179)" fill="#ef7b00"/>
          <rect id="Rectangle_4139" data-name="Rectangle 4139" width="0.307" height="2.526" transform="translate(4.881)" fill="#ef7b00"/>
          <rect id="Rectangle_4140" data-name="Rectangle 4140" width="0.307" height="2.526" transform="translate(2.071)" fill="#ef7b00"/>
          <rect id="Rectangle_4141" data-name="Rectangle 4141" width="0.307" height="2.526" transform="translate(6.286)" fill="#ef7b00"/>
          <rect id="Rectangle_4142" data-name="Rectangle 4142" width="0.307" height="2.526" transform="translate(1.368)" fill="#ef7b00"/>
          <rect id="Rectangle_4143" data-name="Rectangle 4143" width="0.307" height="2.526" transform="translate(0.665)" fill="#ef7b00"/>
          <rect id="Rectangle_4144" data-name="Rectangle 4144" width="0.307" height="2.526" transform="translate(5.584)" fill="#ef7b00"/>
          <rect id="Rectangle_4145" data-name="Rectangle 4145" width="0.27" height="2.526" fill="#ef7b00"/>
          <rect id="Rectangle_4146" data-name="Rectangle 4146" width="0.258" height="2.526" transform="translate(8.394)" fill="#ef7b00"/>
          <line id="Line_215" data-name="Line 215" x1="0.395" transform="translate(7.999)" fill="#b81374"/>
          <rect id="Rectangle_4147" data-name="Rectangle 4147" width="0.395" height="2.526" transform="translate(7.999)" fill="#e3a249"/>
          <line id="Line_216" data-name="Line 216" x1="0.396" transform="translate(7.296)" fill="#b81374"/>
          <rect id="Rectangle_4148" data-name="Rectangle 4148" width="0.396" height="2.526" transform="translate(7.296)" fill="#e3a249"/>
          <line id="Line_217" data-name="Line 217" x1="0.396" transform="translate(6.593)" fill="#b81374"/>
          <rect id="Rectangle_4149" data-name="Rectangle 4149" width="0.396" height="2.526" transform="translate(6.593)" fill="#e3a249"/>
          <line id="Line_218" data-name="Line 218" x1="0.396" transform="translate(5.891)" fill="#b81374"/>
          <rect id="Rectangle_4150" data-name="Rectangle 4150" width="0.396" height="2.526" transform="translate(5.891)" fill="#e3a249"/>
          <line id="Line_219" data-name="Line 219" x1="0.396" transform="translate(5.188)" fill="#b81374"/>
          <rect id="Rectangle_4151" data-name="Rectangle 4151" width="0.396" height="2.526" transform="translate(5.188)" fill="#e3a249"/>
          <line id="Line_220" data-name="Line 220" x1="0.395" transform="translate(4.486)" fill="#b81374"/>
          <rect id="Rectangle_4152" data-name="Rectangle 4152" width="0.395" height="2.526" transform="translate(4.486)" fill="#e3a249"/>
          <line id="Line_221" data-name="Line 221" x1="0.396" transform="translate(3.783)" fill="#b81374"/>
          <rect id="Rectangle_4153" data-name="Rectangle 4153" width="0.396" height="2.526" transform="translate(3.783)" fill="#e3a249"/>
          <line id="Line_222" data-name="Line 222" x1="0.395" transform="translate(3.08)" fill="#b81374"/>
          <rect id="Rectangle_4154" data-name="Rectangle 4154" width="0.395" height="2.526" transform="translate(3.08)" fill="#e3a249"/>
          <line id="Line_223" data-name="Line 223" x1="0.396" transform="translate(2.378)" fill="#b81374"/>
          <rect id="Rectangle_4155" data-name="Rectangle 4155" width="0.396" height="2.526" transform="translate(2.378)" fill="#e3a249"/>
          <line id="Line_224" data-name="Line 224" x1="0.396" transform="translate(1.675)" fill="#b81374"/>
          <rect id="Rectangle_4156" data-name="Rectangle 4156" width="0.396" height="2.526" transform="translate(1.675)" fill="#e3a249"/>
          <line id="Line_225" data-name="Line 225" x1="0.395" transform="translate(0.973)" fill="#b81374"/>
          <rect id="Rectangle_4157" data-name="Rectangle 4157" width="0.395" height="2.526" transform="translate(0.973)" fill="#e3a249"/>
          <line id="Line_226" data-name="Line 226" x1="0.395" transform="translate(0.27)" fill="#b81374"/>
          <rect id="Rectangle_4158" data-name="Rectangle 4158" width="0.395" height="2.526" transform="translate(0.27)" fill="#e3a249"/>
        </g>
      </g>
      <g id="Group_16553" data-name="Group 16553" transform="translate(11.305 56.461)">
        <g id="Group_16552" data-name="Group 16552">
          <path id="Path_39329" data-name="Path 39329" d="M357.5,3820.03a1.691,1.691,0,0,1,.58,2.153l-2.79-1.858A1.692,1.692,0,0,1,357.5,3820.03Z" transform="translate(-354.871 -3819.746)" fill="#fff"/>
          <path id="Path_39330" data-name="Path 39330" d="M352.187,3830.619a1.691,1.691,0,0,1-.58-2.153l2.79,1.858A1.691,1.691,0,0,1,352.187,3830.619Z" transform="translate(-351.434 -3827.52)" fill="#fff"/>
        </g>
      </g>
      <g id="Group_16555" data-name="Group 16555" transform="translate(145.167 84.909)">
        <g id="Group_16554" data-name="Group 16554">
          <path id="Path_39331" data-name="Path 39331" d="M1594.146,4094.132c.021-2.656,1.892-4.39,4.388-4.937v-4.188h-.365a.537.537,0,1,1,0-1.073h1.566v10.2Z" transform="translate(-1594.142 -4083.933)" fill="#ece8e6"/>
          <path id="Path_39332" data-name="Path 39332" d="M1645.649,4083.933h1.567a.537.537,0,1,1,0,1.073h-.366v4.188c2.5.547,4.367,2.282,4.388,4.938h-5.589Z" transform="translate(-1640.056 -4083.933)" fill="#fffbf9"/>
          <path id="Path_39333" data-name="Path 39333" d="M1651.238,4177.912c0,.016,0,.03,0,.045,0,3.089-2.449,5.067-5.538,5.067l-.054,0v-5.11Z" transform="translate(-1640.056 -4167.713)" fill="#d43a40"/>
          <path id="Path_39334" data-name="Path 39334" d="M1594.112,4177.957c0-.015,0-.029,0-.045h5.589v5.11C1596.641,4183,1594.112,4181.027,1594.112,4177.957Z" transform="translate(-1594.112 -4167.713)" fill="#cd252a"/>
        </g>
      </g>
      <g id="Group_16558" data-name="Group 16558" transform="translate(8.308 83.295)">
        <g id="Group_16556" data-name="Group 16556" transform="translate(4.886 3.371)">
          <path id="Path_39335" data-name="Path 39335" d="M370.907,4115.741h-1.8a.27.27,0,1,1,0-.541h1.8a.27.27,0,1,1,0,.541Z" transform="translate(-368.834 -4113.578)" fill="#323640"/>
          <path id="Path_39336" data-name="Path 39336" d="M370.907,4100.791h-1.8a.271.271,0,1,1,0-.541h1.8a.271.271,0,1,1,0,.541Z" transform="translate(-368.834 -4100.25)" fill="#323640"/>
        </g>
        <g id="Group_16557" data-name="Group 16557">
          <path id="Path_39337" data-name="Path 39337" d="M332.813,4124.843a13.309,13.309,0,0,0-2.508.333v4.042s.99,2,4.322,2,3.773-2.147,3.773-2.147v-3.9a6.044,6.044,0,0,0-3.027.054A11.6,11.6,0,0,0,332.813,4124.843Zm1.673,4.092a.27.27,0,0,1,.271-.27h1.8a.27.27,0,1,1,0,.541h-1.8A.271.271,0,0,1,334.486,4128.935Zm0-1.487a.27.27,0,0,1,.271-.27h1.8a.27.27,0,1,1,0,.541h-1.8A.27.27,0,0,1,334.486,4127.447Zm0-1.487a.271.271,0,0,1,.271-.271h1.8a.271.271,0,1,1,0,.542h-1.8A.271.271,0,0,1,334.486,4125.96Z" transform="translate(-329.6 -4118.803)" fill="#cd252a"/>
          <path id="Path_39338" data-name="Path 39338" d="M323.813,4069.909v9.409a3.076,3.076,0,0,0,3.067,3.067h.542c.011.3.361.542.838.627v1.746h-.016a.513.513,0,0,0-.512.51v1.773a.513.513,0,0,0,.512.511h.016v3.229h.722v-3.229H329a.513.513,0,0,0,.511-.511v-1.773a.513.513,0,0,0-.511-.51h-.017v-1.746c.478-.086.827-.332.838-.627h.543a3.075,3.075,0,0,0,3.067-3.067v-9.409a.721.721,0,0,0-.721-.721h-8.175A.721.721,0,0,0,323.813,4069.909Zm.7,1.206h8.094v8.339s-.441,2.146-3.773,2.146-4.322-2-4.322-2v-8.487Z" transform="translate(-323.813 -4069.188)" fill="#323640"/>
        </g>
      </g>
      <g id="Group_16562" data-name="Group 16562" transform="translate(139.969 37.527)">
        <path id="Path_39339" data-name="Path 39339" d="M1564.265,3685.737l4.314,11.721-1.13,2.112-2.231-.6-4.522-12.019Z" transform="translate(-1559.123 -3681.255)" fill="#fafbfc"/>
        <g id="Group_16561" data-name="Group 16561">
          <path id="Path_39340" data-name="Path 39340" d="M1558.253,3685.786l4.384,11.762,1.622.657.54-.2.8-1.559-4.384-11.762.59-.255,4.45,11.94-1.119,2.193.832,2.232-.37.138-.019.007-.37.138-.832-2.232-2.281-.925-4.45-11.94Z" transform="translate(-1556.4 -3680.088)" fill="#353f41"/>
          <g id="Group_16559" data-name="Group 16559" transform="translate(4.236 10.512)">
            <path id="Path_39341" data-name="Path 39341" d="M1587.793,3741.3l2.083,5.59-.65,1.434-.465.173-1.43-.658-2.083-5.59Z" transform="translate(-1585.248 -3741.297)" fill="#cd252a"/>
          </g>
          <g id="Group_16560" data-name="Group 16560">
            <path id="Path_39342" data-name="Path 39342" d="M1548.892,3650.145l-.773-2.075a1.945,1.945,0,0,1,1.144-2.5l1.452,3.9Z" transform="translate(-1547.802 -3645.445)" fill="#cd252a"/>
            <path id="Path_39343" data-name="Path 39343" d="M1559.666,3644.557a1.945,1.945,0,0,1,2.5,1.143l.773,2.074-1.823.679Z" transform="translate(-1558.206 -3644.434)" fill="#b72328"/>
            <path id="Path_39344" data-name="Path 39344" d="M1574.872,3672.9l.649-.242a.778.778,0,0,1,.541,1.451l-2.472.921-.2-.533-.342-.918Z" transform="translate(-1570.137 -3669.558)" fill="#2a2e2e"/>
            <path id="Path_39345" data-name="Path 39345" d="M1546.655,3682.4l.649-.242,1.823-.679.342.918.2.533-2.472.921a.778.778,0,0,1-.541-1.451Z" transform="translate(-1546.215 -3677.458)" fill="#353f41"/>
          </g>
        </g>
      </g>
      <g id="Group_16568" data-name="Group 16568" transform="translate(137.566 119.359)">
        <g id="Group_16565" data-name="Group 16565" transform="translate(3.776)">
          <path id="Path_39346" data-name="Path 39346" d="M1567.346,4409.7c.028.024.055.051.082.078l1.795-1.387a5.2,5.2,0,0,0-5.178-4.536,5.258,5.258,0,0,0-5.187,4.528l1.837,1.419c.069-.074.111-.112.111-.112v.005a4.169,4.169,0,0,1,3.723-1.191,4.8,4.8,0,0,1,2.808,1.186h0Zm-1.69-2.989h-1.125v1.126h-.98v-1.126h-1.127v-.979h1.127V4404.6h.98v1.125h1.125Z" transform="translate(-1558.858 -4403.853)" fill="#cd252a"/>
          <g id="Group_16564" data-name="Group 16564" transform="translate(0.454 4.957)">
            <g id="Group_16563" data-name="Group 16563">
              <path id="Path_39347" data-name="Path 39347" d="M1567.871,4462.066l.107.209v0l.106-.212,1.473-2.892.046-.083.045-.1-.026-.112-.14-.6a3.887,3.887,0,0,0,.552-.316c.555.874,2.376.792,2.376.792-.522-1.033-.058-1.144.138-3.814h0a3.873,3.873,0,0,0,.026-1.1,4.928,4.928,0,0,0-1.412-2.991l-.082-.078-.01-.009h0a4.8,4.8,0,0,0-2.808-1.186,4.168,4.168,0,0,0-3.724,1.191v0s-.042.037-.111.111a5.385,5.385,0,0,0-1.367,4.065c.2,2.67.66,2.781.138,3.814,0,0,1.7.077,2.315-.707a2.53,2.53,0,0,0,.394.084,4,4,0,0,0,.468.229l-.111.47-.009.04.131.274Zm1.574-3.947a.542.542,0,0,0-.05.024,3.7,3.7,0,0,1-4.269-.83,4.331,4.331,0,0,1-.571-2.855,7.868,7.868,0,0,0,3.706-2.78c1.016,2.78,3.4,2.261,2.693,4.608a2.844,2.844,0,0,1-.765,1.363A3.748,3.748,0,0,1,1569.445,4458.12Zm-1.467,3.737-1.523-2.991,0-.012.1-.417a3.857,3.857,0,0,0,2.749-.071l.142.606Z" transform="translate(-1563.044 -4449.534)" fill="#2a2e2e"/>
              <path id="Path_39348" data-name="Path 39348" d="M1618.567,4494.145a.333.333,0,1,1,.333.333A.333.333,0,0,1,1618.567,4494.145Z" transform="translate(-1612.541 -4489.007)" fill="#353f41"/>
              <path id="Path_39349" data-name="Path 39349" d="M1591.007,4494.438a.313.313,0,1,1,.313-.313A.313.313,0,0,1,1591.007,4494.438Z" transform="translate(-1587.693 -4489.007)" fill="#353f41"/>
              <path id="Path_39350" data-name="Path 39350" d="M1612.608,4536.683a6.858,6.858,0,0,1,3.78,2.367,4.935,4.935,0,0,1,1.072,3.037h-6.355v-2.256h1.763Z" transform="translate(-1605.89 -4527.226)" fill="#2a2e2e"/>
            </g>
          </g>
        </g>
        <g id="Group_16566" data-name="Group 16566" transform="translate(0.045 15.199)">
          <path id="Path_39351" data-name="Path 39351" d="M1524.482,4546.788l.264-.12a2.245,2.245,0,0,1,1.821.048l.143.061.091.039.016-.343.065-1.353a1.158,1.158,0,1,0-2.314-.112Zm.38-.541.059-1.221a.805.805,0,0,1,1.609.078l-.058,1.2A2.621,2.621,0,0,0,1524.862,4546.247Z" transform="translate(-1524.482 -4543.906)" fill="#2a2e2e"/>
          <path id="Path_39352" data-name="Path 39352" d="M1548.185,4569.329l.021.01.017.009-.047.006Z" transform="translate(-1545.605 -4566.57)" fill="#d20011"/>
        </g>
        <g id="Group_16567" data-name="Group 16567" transform="translate(0 15.719)">
          <path id="Path_39353" data-name="Path 39353" d="M1547.736,4551.125l.021.01.017.009.24-.033a2.246,2.246,0,0,1,1.731.568l.2.162.564-1.6a1.158,1.158,0,1,0-2.185-.77l-.043.123-.4,1.15-.107.3Zm.51-.384.406-1.153a.809.809,0,0,1,.25-.356.805.805,0,0,1,1.269.891l-.4,1.132A2.62,2.62,0,0,0,1548.246,4550.74Z" transform="translate(-1545.167 -4548.695)" fill="#2a2e2e"/>
          <path id="Path_39354" data-name="Path 39354" d="M1524.067,4570.362a1.108,1.108,0,0,0,1.794.922,1.081,1.081,0,0,0,.129-.121c.017-.018.033-.037.049-.057s.035-.045.052-.07a1.108,1.108,0,0,0,.174-.43,1.121,1.121,0,0,0,.016-.138l.028-.577.027-.564.023-.473,0-.083-.013-.007-.047.006.009-.025c-.032-.016-.068-.034-.107-.051a2.349,2.349,0,0,0-1.406-.195c.01.017-.194.051-.194.051a1.865,1.865,0,0,0-.437.2l-.023.015Zm.311-1.5.525-.158a.553.553,0,0,0-.285.321c-.527,1.624.033,2.164.033,2.164C1523.865,4570.721,1524.378,4568.861,1524.378,4568.861Z" transform="translate(-1524.066 -4566.317)" fill="#cd252a"/>
          <path id="Path_39355" data-name="Path 39355" d="M1543.647,4573.884c.023-.021.13-.143.136-.151s.021-.028.031-.043.021-.032.031-.048a1.1,1.1,0,0,0,.143-.382,1.087,1.087,0,0,0,.015-.138l.028-.577.05-1.037a1.662,1.662,0,0,1,.76-.045h0a2.458,2.458,0,0,1,1.29.672l.024.023-.388,1.1-.176.5a1.106,1.106,0,0,1-2.007.177C1543.606,4573.92,1543.627,4573.9,1543.647,4573.884Z" transform="translate(-1541.467 -4568.969)" fill="#cd252a"/>
        </g>
        <path id="Path_39356" data-name="Path 39356" d="M1566.07,4540.4c.018-.038.035-.077.051-.116l0,0c.014-.025.026-.049.038-.075l0-.01.016.014.564-1.6a1.161,1.161,0,0,0-1.217-1.538,7.436,7.436,0,0,1,2.864-1.209l-.269,3.237h1.8v2.256h-4.214l.3-.854A.7.7,0,0,0,1566.07,4540.4Z" transform="translate(-1561.029 -4521.532)" fill="#2a2e2e"/>
      </g>
      <g id="Group_16570" data-name="Group 16570" transform="translate(105.57 143.261)">
        <g id="Group_16569" data-name="Group 16569">
          <path id="Path_39357" data-name="Path 39357" d="M1227.108,4637.6a11.729,11.729,0,1,0,11.728-11.729A11.728,11.728,0,0,0,1227.108,4637.6Z" transform="translate(-1227.108 -4625.871)" fill="#008796"/>
        </g>
      </g>
      <g id="Group_16575" data-name="Group 16575" transform="translate(111.705 146.488)">
        <g id="Group_16574" data-name="Group 16574">
          <g id="Group_16573" data-name="Group 16573">
            <g id="Group_16571" data-name="Group 16571" transform="translate(3.164)">
              <path id="Path_39358" data-name="Path 39358" d="M1318.455,4658.512a2.9,2.9,0,1,0-2.9,2.9A2.906,2.906,0,0,0,1318.455,4658.512Z" transform="translate(-1312.655 -4655.609)" fill="#fff"/>
            </g>
            <g id="Group_16572" data-name="Group 16572" transform="translate(0 5.803)">
              <path id="Path_39359" data-name="Path 39359" d="M1294.034,4709.405c1.8.691,1.786,1.955,1.792,2.017l.009,4.484a1.038,1.038,0,0,1-.241.667.755.755,0,0,1-.565.207h-.171Zm-10.538,9.053V4711.8c.23-2.729,3.35-2.721,3.486-2.721h4.852l-1.492,5.61h-.854a1.234,1.234,0,1,0,0,2.468h3.463v2.089l-7.12,0,0-6.815-.454.586v5.224l0,.2a.941.941,0,1,1-1.882.01Zm6.368-1.693h-.377a.837.837,0,0,1,0-1.674h.712A3.606,3.606,0,0,0,1289.864,4716.765Z" transform="translate(-1283.496 -4709.083)" fill="#fff"/>
            </g>
          </g>
        </g>
        <path id="Path_39360" data-name="Path 39360" d="M1350.063,4716.846l-.742-7.359a3.622,3.622,0,0,0-1.476-.312s-2.1,7.451-1.972,7.652c.006.009.012.019.05.019h4.14Z" transform="translate(-1339.099 -4703.362)" fill="#cd252a"/>
      </g>
    </g>
    <g id="Group_16613" data-name="Group 16613" transform="translate(274.401 3329.351)">
      <g id="Group_16578" data-name="Group 16578" transform="translate(5.307)">
        <g id="Group_16577" data-name="Group 16577">
          <path id="Path_39361" data-name="Path 39361" d="M714.028,4267.274l0-.575c.034-.613.068-1.273.1-1.967l-5.408,10.378a4.909,4.909,0,0,1-3.5,2.566l-13.142.249-2.867.516-4.476,1.191a50.645,50.645,0,0,0,28.765,14.674l.109-13.037Z" transform="translate(-670.214 -4193.308)" fill="#3e97cc"/>
          <path id="Path_39362" data-name="Path 39362" d="M652.451,3657.351a50.774,50.774,0,1,0-98.261,18.011,4.908,4.908,0,0,1,8.627-3.465q.587,2.3,1.371,4.515l.96,8.222,2.517-.443,14.159-2.495,7.319-14.044a5.841,5.841,0,0,1,5.676-7.225l.094,0c0-.01,0-.02,0-.03h4.92v0a9.756,9.756,0,0,0,3.917-1.033l.023.031-.577.341-2.339,9.594,3.21.8-2.14,4.012L610.9,3691.9l1.668,2.452,2.118,4.209.009-.222.932-2.662,10.886-21.534-2.14-4.012,3.21-.8-2.339-9.594-.577-.341c.007-.011.015-.021.023-.031a9.754,9.754,0,0,0,3.917,1.033v0h5.557s2.861-.049,3.758.854l-3.689,13.68-.008,0v.033l0,.016,0,.012c.015,4.62.134,9.785.443,15.144l-.112-.492.1,6.317A50.66,50.66,0,0,0,652.451,3657.351Z" transform="translate(-550.903 -3606.577)" fill="#3e97cc"/>
          <path id="Path_39363" data-name="Path 39363" d="M1157.022,4123.774c-.309-5.358-.428-10.523-.443-15.143l0-.012,0-.016v-.034l.008,0,3.689-13.68c-.9-.9-3.758-.854-3.758-.854h-5.557v0a9.754,9.754,0,0,1-3.917-1.033l-.023.03.577.341,2.339,9.594-3.21.8,2.14,4.011-10.886,21.534-.932,2.662-.009.222.638,1.269-.835,6.662a50.636,50.636,0,0,0,20.163-10.535l-.1-6.317Z" transform="translate(-1073.255 -4040.217)" fill="#fbfcfd"/>
          <path id="Path_39364" data-name="Path 39364" d="M581.22,4240.707l1.784,15.28a4.908,4.908,0,0,0,1.944,3.368c.853.636,2.089-.4,3.138-.4a4.92,4.92,0,0,0,.852-.074l3.493-.93a50.807,50.807,0,0,1-11.237-17.54C581.2,4240.507,581.208,4240.606,581.22,4240.707Z" transform="translate(-577.908 -4171.622)" fill="#fbfcfd"/>
          <path id="Path_39365" data-name="Path 39365" d="M641.316,4140.165l.313-7.961-2.119-4.209-1.668-2.452-8.977-17.757,2.14-4.011-3.21-.8,2.339-9.594.577-.341-.023-.03a9.757,9.757,0,0,1-3.917,1.033v0h-4.92c0,.01,0,.02,0,.03l-.094,0a5.841,5.841,0,0,0-5.676,7.225l-7.319,14.044-14.159,2.5-2.517.443-.96-8.223q-.782-2.214-1.371-4.515a4.913,4.913,0,0,0-3.407-1.7,4.976,4.976,0,0,0-.888.022,4.909,4.909,0,0,0-4.332,5.147,50.811,50.811,0,0,0,11.237,17.54l4.475-1.191,2.867-.516,13.142-.25a4.909,4.909,0,0,0,3.5-2.566l5.408-10.378c-.034.694-.068,1.354-.1,1.967l0,.575-.417,14-.109,13.036a51.2,51.2,0,0,0,20.183-1.052Z" transform="translate(-577.844 -4040.217)" fill="#fbfcfd"/>
          <path id="Path_39366" data-name="Path 39366" d="M1135.888,4462.125l.835-6.663-.638-1.268-.313,7.961Z" transform="translate(-1072.3 -4362.209)" fill="#fbfcfd"/>
        </g>
        <path id="Path_39367" data-name="Path 39367" d="M1133.3,4473.077Z" transform="translate(-1070.091 -4379.042)" fill="none"/>
      </g>
      <g id="Group_16612" data-name="Group 16612" transform="translate(0 8.711)">
        <path id="Path_39368" data-name="Path 39368" d="M1044.5,4058.929c-2.282-3.137-6.2-4.728-11.633-4.728-6.159,0-10.5,1.638-12.894,4.867l0,.006a12.649,12.649,0,0,0,2.535-1.04c2.336-1.82,5.808-2.741,10.363-2.741,3.972,0,7.052.885,9.193,2.634.755.376,1.879.836,2.5,1.082Z" transform="translate(-963.761 -4014.334)" fill="#100f0c"/>
        <g id="Group_16581" data-name="Group 16581" transform="translate(17.222 56.609)">
          <g id="Group_16579" data-name="Group 16579">
            <path id="Path_39369" data-name="Path 39369" d="M676.8,4257.858a52.875,52.875,0,0,1-3.477-7.779l.96,8.222Z" transform="translate(-671.953 -4245.564)" fill="none"/>
            <path id="Path_39370" data-name="Path 39370" d="M1133.294,4473.077h0Z" transform="translate(-1082.006 -4444.362)" fill="#e4400f"/>
            <path id="Path_39371" data-name="Path 39371" d="M661.844,4211.1a4.883,4.883,0,0,0-1.15-2.625q.587,2.3,1.371,4.515Z" transform="translate(-660.694 -4208.476)" fill="#fbfcfd"/>
          </g>
          <path id="Path_39372" data-name="Path 39372" d="M1133.294,4473.077h0Z" transform="translate(-1082.006 -4444.362)" fill="none"/>
          <path id="Path_39373" data-name="Path 39373" d="M1135.065,4451.018v-.137h-.447v.2l.229.554Z" transform="translate(-1083.186 -4424.574)" fill="#e8e8e8"/>
          <g id="Group_16580" data-name="Group 16580" transform="translate(51.432 26.444)">
            <path id="Path_39374" data-name="Path 39374" d="M1134.848,4452.767l-.229-.553v.337h.086l.36,0v-.4Z" transform="translate(-1134.618 -4452.147)" fill="#e8e8e8"/>
          </g>
        </g>
        <g id="Group_16582" data-name="Group 16582" transform="translate(68.51 59.641)">
          <path id="Path_39375" data-name="Path 39375" d="M1318.7,4236.447l.008-.028-.008,0Z" transform="translate(-1298.579 -4236.414)" fill="none"/>
          <path id="Path_39376" data-name="Path 39376" d="M1133.3,4473.077Z" transform="translate(-1133.294 -4447.394)" fill="none"/>
          <path id="Path_39377" data-name="Path 39377" d="M1318.665,4236.75c0-.009,0-.019,0-.028l0,.016Z" transform="translate(-1298.544 -4236.688)" fill="#003554"/>
          <path id="Path_39378" data-name="Path 39378" d="M1133.3,4473.077Z" transform="translate(-1133.294 -4447.394)" fill="#47b5c9"/>
        </g>
        <g id="Group_16583" data-name="Group 16583" transform="translate(58.265 36.481)">
          <path id="Path_39379" data-name="Path 39379" d="M1075.734,4024.976l.005,0v-1.972h-12.049v2.849h-.04a9.849,9.849,0,0,1-2.088,2.985C1070.968,4029.742,1075.734,4024.976,1075.734,4024.976Z" transform="translate(-1059.1 -4023.008)" fill="#d6a687"/>
          <path id="Path_39380" data-name="Path 39380" d="M1055.526,4042.979v-1.836l-.005,0s-4.766,4.766-14.173,3.865a9.851,9.851,0,0,1-2.461,1.763,12.749,12.749,0,0,0,4.589,4.01v2.65h.015v.18h11.453v-.18h.581v-2.9a12.768,12.768,0,0,0,4.146-3.793A9.875,9.875,0,0,1,1055.526,4042.979Z" transform="translate(-1038.888 -4039.171)" fill="#f6c39c"/>
        </g>
        <path id="Path_39381" data-name="Path 39381" d="M1075.985,4111.539a12.628,12.628,0,0,1-16.674.5l8.4,37.093Z" transform="translate(-998.83 -4065.45)" fill="#d1d4dd"/>
        <path id="Path_39382" data-name="Path 39382" d="M1103.834,4185.947l1.9-4.641-2.256-21.093-1.782-.52v-.022l-.039.011-.039-.011v.022l-1.783.52-2.411,22.49,2.87,5.44,1.373,3.843.449-.8,1.123-3.169Z" transform="translate(-1032.805 -4108.357)" fill="#304766"/>
        <path id="Path_39383" data-name="Path 39383" d="M1111.266,4129.609l-2.79-.382-2.79.382-.542,1.55,1.317,2.092,2.015.078,2.015-.078,1.317-2.092Z" transform="translate(-1039.689 -4081.219)" fill="#304766"/>
        <path id="Path_39384" data-name="Path 39384" d="M1034.854,4084.906l8.947,4.81-6.349,6.349-4.714-9.909Z" transform="translate(-975.141 -4041.707)" fill="#bec7c2"/>
        <path id="Path_39385" data-name="Path 39385" d="M1143.824,4084.906l-8.947,4.81,6.349,6.349,4.6-9.807Z" transform="translate(-1066.195 -4041.707)" fill="#bec7c2"/>
        <g id="Group_16584" data-name="Group 16584" transform="translate(53.483 3.171)">
          <path id="Path_39386" data-name="Path 39386" d="M1152.044,3730.346c0-10.859-6.529-14.278-15.015-14.278l-.312,0v37.258C1145.185,3753.3,1152.044,3741.19,1152.044,3730.346Z" transform="translate(-1121.319 -3716.069)" fill="#f6c39c"/>
          <path id="Path_39387" data-name="Path 39387" d="M1009.837,3716.105c-8.177.266-15.011,3.706-15.011,14.265,0,10.709,6.691,22.734,15.011,22.973.118,0,.234.012.351.012h.036V3716.1C1010.1,3716.1,1009.966,3716.1,1009.837,3716.105Z" transform="translate(-994.826 -3716.093)" fill="#e3b28e"/>
        </g>
        <g id="Group_16588" data-name="Group 16588" transform="translate(51.203)">
          <g id="Group_16587" data-name="Group 16587">
            <g id="Group_16586" data-name="Group 16586">
              <g id="Group_16585" data-name="Group 16585">
                <path id="Path_39388" data-name="Path 39388" d="M1012.477,3702.922a22.085,22.085,0,0,0-2.347-8.369c1.324-5.909-4.2-7.554-10.023-7.7a47.544,47.544,0,0,0-11.752,1.289,9.866,9.866,0,0,1-2.779.417c-.807.027-1.423,0-1.423,0a6.408,6.408,0,0,0,.29.73c.132.3.261.578.261.578a2.184,2.184,0,0,1-.775-.186,31.046,31.046,0,0,1-3.084-1.466,7.774,7.774,0,0,0,.6,4.014,7.971,7.971,0,0,0,.912,1.636,3.856,3.856,0,0,1-1.31-.344,10.706,10.706,0,0,0,.553,1.93c-2.073,1.513-2.553,5.88-2.592,9.3l3.553,4.149,1.229-2.978c.026,0,.051,0,.078.008.867-3.135,1.59-7.858,1.59-7.858a18.127,18.127,0,0,0,19.274.283c.28-.307.428-.491.428-.491a17.651,17.651,0,0,0,4.552,9.983c-.336-2.529,2.565-4.512,2.781-4.656l.02-.014C1012.506,3703.087,1012.491,3703.007,1012.477,3702.922Z" transform="translate(-978.449 -3686.846)" fill="#342014"/>
                <path id="Path_39389" data-name="Path 39389" d="M1257.247,3842c-.58,2.216-.168,4.245.918,4.531s2.44-1.276,3.022-3.493.167-4.244-.919-4.531S1257.829,3839.784,1257.247,3842Z" transform="translate(-1226.254 -3822.018)" fill="#f6c39c"/>
                <path id="Path_39390" data-name="Path 39390" d="M977.7,3843.119c.6,2.165.286,4.145-.7,4.419s-2.275-1.257-2.876-3.423-.286-4.145.7-4.421S977.1,3840.952,977.7,3843.119Z" transform="translate(-973.814 -3823.079)" fill="#e3b28e"/>
              </g>
            </g>
          </g>
        </g>
        <path id="Path_39391" data-name="Path 39391" d="M1119.186,4427.93l1.409-2.788c-1.046-1.1-3.254,1.172-3.254,1.172v.546l1.2-.208Z" transform="translate(-1050.563 -4344.751)" fill="none"/>
        <path id="Path_39392" data-name="Path 39392" d="M1024.8,4125.39l-8.4-37.093-.767-3.391-1.539.909-.577.341-2.339,9.594,3.21.8-2.14,4.012Z" transform="translate(-955.925 -4041.707)" fill="#e8e8e8"/>
        <path id="Path_39393" data-name="Path 39393" d="M1150.055,4096.465l-2.339-9.594-.026-.015-2.146-1.148-.581,2.8-8.277,37.594,12.3-24.825-2.14-4.012Z" transform="translate(-1067.808 -4042.421)" fill="#e8e8e8"/>
        <rect id="Rectangle_4159" data-name="Rectangle 4159" width="39.455" height="49.975" transform="translate(1.217 31.159) rotate(-11.414)" fill="#154e5a"/>
        <rect id="Rectangle_4160" data-name="Rectangle 4160" width="35.302" height="44.715" transform="translate(3.773 33.327) rotate(-11.414)" fill="#fff"/>
        <g id="Group_16589" data-name="Group 16589" transform="translate(8.98 38.72)">
          <rect id="Rectangle_4161" data-name="Rectangle 4161" width="2.631" height="2.63" transform="matrix(0.98, -0.198, 0.198, 0.98, 0, 5.363)" fill="#243a44"/>
          <rect id="Rectangle_4162" data-name="Rectangle 4162" width="21.842" height="2.63" transform="translate(5.152 4.322) rotate(-11.414)" fill="#243a44"/>
        </g>
        <g id="Group_16590" data-name="Group 16590" transform="translate(9.968 44.163)">
          <rect id="Rectangle_4163" data-name="Rectangle 4163" width="2.63" height="2.63" transform="translate(0 4.818) rotate(-11.423)" fill="#243a44"/>
          <rect id="Rectangle_4164" data-name="Rectangle 4164" width="19.088" height="2.63" transform="matrix(0.98, -0.198, 0.198, 0.98, 5.152, 3.778)" fill="#243a44"/>
        </g>
        <g id="Group_16591" data-name="Group 16591" transform="translate(10.957 49.419)">
          <rect id="Rectangle_4165" data-name="Rectangle 4165" width="2.63" height="2.63" transform="translate(0 4.458) rotate(-11.416)" fill="#243a44"/>
          <rect id="Rectangle_4166" data-name="Rectangle 4166" width="17.273" height="2.63" transform="translate(5.152 3.418) rotate(-11.414)" fill="#243a44"/>
        </g>
        <g id="Group_16592" data-name="Group 16592" transform="translate(11.946 53.302)">
          <rect id="Rectangle_4167" data-name="Rectangle 4167" width="2.631" height="2.63" transform="translate(0 5.473) rotate(-11.415)" fill="#243a44"/>
          <rect id="Rectangle_4168" data-name="Rectangle 4168" width="22.401" height="2.63" transform="translate(5.152 4.433) rotate(-11.414)" fill="#243a44"/>
        </g>
        <g id="Group_16593" data-name="Group 16593" transform="translate(12.935 58.2)">
          <rect id="Rectangle_4169" data-name="Rectangle 4169" width="2.631" height="2.63" transform="matrix(0.98, -0.198, 0.198, 0.98, 0, 5.473)" fill="#243a44"/>
          <rect id="Rectangle_4170" data-name="Rectangle 4170" width="22.401" height="2.63" transform="translate(5.152 4.433) rotate(-11.414)" fill="#243a44"/>
        </g>
        <g id="Group_16594" data-name="Group 16594" transform="translate(0.544 49.041)">
          <path id="Path_39394" data-name="Path 39394" d="M509.051,4143.616a2.024,2.024,0,0,0,.29-.021l5.643-.806a2.036,2.036,0,1,0-.576-4.03l-5.643.806a2.036,2.036,0,0,0,.285,4.051Z" transform="translate(-507.018 -4138.738)" fill="#e3b28e"/>
        </g>
        <g id="Group_16595" data-name="Group 16595" transform="translate(0 53.586)">
          <path id="Path_39395" data-name="Path 39395" d="M504.29,4185.372l5.528-.69a2.036,2.036,0,0,0-.5-4.04l-5.528.691a2.035,2.035,0,1,0,.5,4.039Z" transform="translate(-502.001 -4180.626)" fill="#e3b28e"/>
        </g>
        <g id="Group_16596" data-name="Group 16596" transform="translate(1.057 57.628)">
          <path id="Path_39396" data-name="Path 39396" d="M519.677,4221.9a2.036,2.036,0,0,0-.75-4l-5.528,1.036a2.036,2.036,0,1,0,.75,4Z" transform="translate(-511.738 -4217.867)" fill="#e3b28e"/>
        </g>
        <g id="Group_16597" data-name="Group 16597" transform="translate(3.088 61.754)">
          <path id="Path_39397" data-name="Path 39397" d="M539.026,4257.415a1.822,1.822,0,0,0-2.1-1.5l-4.951.825a1.823,1.823,0,1,0,.6,3.6l4.95-.825A1.822,1.822,0,0,0,539.026,4257.415Z" transform="translate(-530.454 -4255.891)" fill="#e3b28e"/>
        </g>
        <path id="Path_39398" data-name="Path 39398" d="M1297.971,4106.457c1.383,2.93.532,6.236-1.9,7.385s-5.528-.294-6.912-3.224-.532-6.236,1.9-7.385S1296.587,4103.527,1297.971,4106.457Z" transform="translate(-1203.141 -4057.693)" fill="#fbfcfd"/>
        <path id="Path_39399" data-name="Path 39399" d="M1123.317,4368.395a.677.677,0,1,1-.677-.677A.677.677,0,0,1,1123.317,4368.395Z" transform="translate(-1054.683 -4293.828)" fill="#2d292c"/>
        <path id="Path_39400" data-name="Path 39400" d="M1142.3,4370.267a.677.677,0,1,1-.677-.677A.677.677,0,0,1,1142.3,4370.267Z" transform="translate(-1071.609 -4295.497)" fill="#2d292c"/>
        <g id="Group_16598" data-name="Group 16598" transform="translate(71.85 72.33)">
          <path id="Path_39401" data-name="Path 39401" d="M1181.025,4356.681c-2.912-2.03-8.9-3.053-14.318-3.342l-2.637,5.383,17.141.807Z" transform="translate(-1164.07 -4353.339)" fill="#e8e8e8"/>
        </g>
        <g id="Group_16599" data-name="Group 16599" transform="translate(54.16 43.699)">
          <path id="Path_39402" data-name="Path 39402" d="M1001.065,4097.638a14.641,14.641,0,0,0,.506,3.625l1.045-.316c-.017-.056-1.654-5.666,1.384-9.751a8.714,8.714,0,0,1,1.65-1.678,12.65,12.65,0,0,1-2.535,1.04A11.383,11.383,0,0,0,1001.065,4097.638Z" transform="translate(-1001.062 -4089.517)" fill="#100f0c"/>
          <path id="Path_39403" data-name="Path 39403" d="M1248.464,4228.693l.519.167-.519-.168Z" transform="translate(-1221.615 -4213.589)" fill="#100f0c"/>
        </g>
        <path id="Path_39404" data-name="Path 39404" d="M1226.032,4089.611c-.618-.246-1.741-.706-2.5-1.082a8.806,8.806,0,0,1,1.555,1.641c1.965,2.7,2.179,6.223,2.012,8.705a22.683,22.683,0,0,1-.862,4.865l.519.168.519.168a23.291,23.291,0,0,0,.911-5.1C1228.449,4095.191,1227.7,4091.956,1226.032,4089.611Z" transform="translate(-1145.233 -4044.937)" fill="#100f0c"/>
        <g id="Group_16600" data-name="Group 16600" transform="translate(78.061 55.403)">
          <path id="Path_39405" data-name="Path 39405" d="M1230.157,4202.895a3.326,3.326,0,1,1-3.326-3.326A3.326,3.326,0,0,1,1230.157,4202.895Z" transform="translate(-1223.266 -4199.33)" fill="#e8e8e8"/>
          <path id="Path_39406" data-name="Path 39406" d="M1224.869,4204.5a3.565,3.565,0,1,1,3.565-3.565A3.569,3.569,0,0,1,1224.869,4204.5Zm0-6.652a3.087,3.087,0,1,0,3.087,3.087A3.091,3.091,0,0,0,1224.869,4197.846Z" transform="translate(-1221.304 -4197.368)" fill="#100f0c"/>
        </g>
        <circle id="Ellipse_1621" data-name="Ellipse 1621" cx="2.405" cy="2.405" r="2.405" transform="translate(78.225 58.968) rotate(-45)" fill="#b0adac"/>
        <g id="Group_16601" data-name="Group 16601" transform="translate(50.203 54.125)">
          <path id="Path_39407" data-name="Path 39407" d="M973.269,4291.559c-2.651-.141-2.966-1.844-2.978-1.917l-1.781-10.651.809-.135,1.781,10.651c.008.04.249,1.128,2.213,1.232Z" transform="translate(-968.086 -4268.734)" fill="#b0adac"/>
          <path id="Path_39408" data-name="Path 39408" d="M1065.685,4271.332c2.461-1,2.2-2.708,2.193-2.781L1066.1,4257.9l-.809.135,1.781,10.651c.005.041.132,1.148-1.691,1.885Z" transform="translate(-1054.361 -4250.051)" fill="#b0adac"/>
          <path id="Path_39409" data-name="Path 39409" d="M1005.6,4383.519c.779.155,1.329.689,1.229,1.193s-.813.787-1.592.632-1.329-.688-1.229-1.192S1004.818,4383.364,1005.6,4383.519Z" transform="translate(-999.718 -4362.001)" fill="#252120"/>
          <path id="Path_39410" data-name="Path 39410" d="M1051.856,4374.871c-.686.4-1.033,1.084-.774,1.528s1.025.48,1.711.08,1.033-1.084.774-1.528S1052.542,4374.471,1051.856,4374.871Z" transform="translate(-1041.62 -4354.082)" fill="#252120"/>
          <path id="Path_39411" data-name="Path 39411" d="M964.8,4196.14a18.337,18.337,0,0,1-.085-4.731c.417-3.349,1.938-5.337,4.4-5.749,5.834-.976,7.413,8.059,7.478,8.443l-1.213.2c-.014-.082-1.436-8.208-6.062-7.434-1.9.317-3.033,1.894-3.38,4.687a17.322,17.322,0,0,0,.077,4.376Z" transform="translate(-964.6 -4185.586)" fill="#252120"/>
        </g>
        <path id="Path_39412" data-name="Path 39412" d="M669.234,3989.256a3.908,3.908,0,1,0,4.561,3.121A3.908,3.908,0,0,0,669.234,3989.256Zm3.415,4.135-1.778.333.333,1.777-1.547.29-.333-1.777-1.776.333-.29-1.547,1.777-.333-.333-1.776,1.547-.29.333,1.776,1.778-.333Z" transform="translate(-648.243 -3956.378)" fill="#cd252a"/>
        <g id="Group_16604" data-name="Group 16604" transform="translate(12.925 20.624)">
          <g id="Group_16602" data-name="Group 16602" transform="translate(0 3.319)">
            <path id="Path_39413" data-name="Path 39413" d="M637.918,3912.9l-7.049,1.645-7.136,1.219a8.174,8.174,0,0,1,.086,4.654l7.635-1.542.553-.112,7.76-1.567A8.945,8.945,0,0,1,637.918,3912.9Z" transform="translate(-623.448 -3912.307)" fill="#274045"/>
            <path id="Path_39414" data-name="Path 39414" d="M638.071,3945.312a.845.845,0,0,1-.66,1l-14.66,2.96a.846.846,0,0,1-1-.661h0a.846.846,0,0,1,.662-1l14.66-2.96a.845.845,0,0,1,.995.661Z" transform="translate(-621.669 -3940.601)" fill="#243a44"/>
            <path id="Path_39415" data-name="Path 39415" d="M635.858,3908.085a.762.762,0,0,1-.6.9l-13.243,2.674a.764.764,0,0,1-.9-.6h0a.764.764,0,0,1,.6-.9l13.243-2.674a.763.763,0,0,1,.9.6Z" transform="translate(-621.103 -3907.473)" fill="#243a44"/>
          </g>
          <g id="Group_16603" data-name="Group 16603" transform="translate(2.768)">
            <path id="Path_39416" data-name="Path 39416" d="M655.225,3880.376a4.349,4.349,0,0,0-8.527,1.721l.254,1.257,8.527-1.722Zm-4.207,1.135a1.689,1.689,0,1,1,1.321-1.99A1.69,1.69,0,0,1,651.018,3881.511Z" transform="translate(-646.612 -3876.886)" fill="#243a44"/>
          </g>
        </g>
        <path id="Path_39417" data-name="Path 39417" d="M1060.706,4283.567a4.878,4.878,0,0,0,2.271,1.136l-.5,9.122a5.493,5.493,0,0,0-2.973.36Z" transform="translate(-998.999 -4218.809)" fill="#e3b28e"/>
        <g id="Group_16611" data-name="Group 16611" transform="translate(41.932 59.588)">
          <g id="Group_16610" data-name="Group 16610">
            <g id="Group_16609" data-name="Group 16609">
              <g id="Group_16608" data-name="Group 16608">
                <path id="Path_39418" data-name="Path 39418" d="M1082.123,4281.129l-3.526-.171a.885.885,0,0,0-.927.841l-.225,4.636-.225,4.635a.884.884,0,0,0,.841.927l3.526.172a.885.885,0,0,0,.926-.841l.225-4.635.225-4.635A.885.885,0,0,0,1082.123,4281.129Z" transform="translate(-1056.726 -4276.07)" fill="#fff"/>
                <g id="Group_16607" data-name="Group 16607">
                  <g id="Group_16606" data-name="Group 16606">
                    <g id="Group_16605" data-name="Group 16605">
                      <path id="Path_39419" data-name="Path 39419" d="M896.537,4250.148a1.423,1.423,0,0,1,1.4-1.343.17.17,0,0,0-.005-.02l-1.329-.064a1.429,1.429,0,0,1,.139-2.854l-1.427-.069a1.428,1.428,0,1,1,.139-2.854l-5.707-.277a1.428,1.428,0,1,1,.139-2.853l.911.044,7.649.372,1.031.05a.441.441,0,0,0,.394-.309.427.427,0,0,0-.137-.473c-1.318-1.117-2.674-1.116-2.6-2.629a.99.99,0,0,1,1.513-.8l9.4,4.938a.715.715,0,0,1,.336.642c-.061,1.248-.275,5.65-.405,8.334a2.142,2.142,0,0,1-2.244,2.036l-7.847-.381A1.431,1.431,0,0,1,896.537,4250.148Z" transform="translate(-888.39 -4235.927)" fill="#e3b28e"/>
                    </g>
                  </g>
                </g>
              </g>
            </g>
          </g>
        </g>
        <path id="Path_39420" data-name="Path 39420" d="M1126.046,4169.568c-.086,0-.172,0-.259-.005l-33.24-1.385.515-12.368,25.267,1.992-5.438-12.88,10.622-4.047,8.03,19.664a6.19,6.19,0,0,1-5.5,9.029Z" transform="translate(-1028.46 -4091.603)" fill="#fbfcfd"/>
      </g>
    </g>
  </g>
</svg>
