<svg xmlns="http://www.w3.org/2000/svg" xmlns:xlink="http://www.w3.org/1999/xlink" width="160" height="101.603" viewBox="0 0 160 101.603">
  <defs>
    <radialGradient id="radial-gradient" cx="0.134" cy="0.45" r="0.255" gradientTransform="translate(-145.561 6.402) scale(3.554 1.513)" gradientUnits="objectBoundingBox">
      <stop offset="0" stop-color="#44787c"/>
      <stop offset="0.985" stop-color="#50868b"/>
    </radialGradient>
    <radialGradient id="radial-gradient-2" cx="0.525" cy="0.076" r="0.227" gradientTransform="translate(-76.483) scale(2.617 1)" xlink:href="#radial-gradient"/>
  </defs>
  <g id="Group_17618" data-name="Group 17618" transform="translate(-5644.662 -2530.386)">
    <g id="Group_17579" data-name="Group 17579" transform="translate(5781.855 2630.393)">
      <path id="Path_40793" data-name="Path 40793" d="M6294.4,2989.739h-21.918c-.245,0-.444-.357-.444-.8s.2-.8.444-.8H6294.4c.246,0,.445.357.445.8S6294.645,2989.739,6294.4,2989.739Z" transform="translate(-6272.037 -2988.143)" fill="#c9d5dc"/>
    </g>
    <g id="Group_17580" data-name="Group 17580" transform="translate(5743.846 2630.393)">
      <path id="Path_40794" data-name="Path 40794" d="M6129.328,2989.739h-30.549a.8.8,0,0,1,0-1.6h30.549a.8.8,0,0,1,0,1.6Z" transform="translate(-6097.981 -2988.143)" fill="#c9d5dc"/>
    </g>
    <g id="Group_17581" data-name="Group 17581" transform="translate(5671.945 2624.214)">
      <path id="Path_40795" data-name="Path 40795" d="M5857.708,2961.278h-88.359a.8.8,0,0,1,0-1.6h88.359a.8.8,0,1,1,0,1.6Z" transform="translate(-5768.551 -2959.682)" fill="#c9d5dc"/>
    </g>
    <g id="Group_17582" data-name="Group 17582" transform="translate(5646.29 2624.214)">
      <path id="Path_40796" data-name="Path 40796" d="M5673.761,2961.278h-21.156c-.247,0-.447-.357-.447-.8s.2-.8.447-.8h21.156c.247,0,.447.357.447.8S5674.008,2961.278,5673.761,2961.278Z" transform="translate(-5652.159 -2959.682)" fill="#c9d5dc"/>
    </g>
    <g id="plant" transform="translate(5644.662 2569.311)">
      <path id="Path_40797" data-name="Path 40797" d="M5680.557,2910.394h-15.52a.42.42,0,0,0-.416.425l.519,1s.351,10.528,2.941,10.528h9.43c2.559,0,2.941-10.395,2.941-10.395l.519-1.133A.42.42,0,0,0,5680.557,2910.394Z" transform="translate(-5660.289 -2866.191)" fill="#ccddeb"/>
      <g id="Group_17598" data-name="Group 17598" transform="translate(0 0)">
        <g id="Group_17583" data-name="Group 17583" transform="translate(18.572 23.57)">
          <path id="Path_40798" data-name="Path 40798" d="M5731.119,2836.707c3.992-2.823,8.75-13.087,9.1-20.432C5730.958,2820.543,5731.119,2836.707,5731.119,2836.707Z" transform="translate(-5730.923 -2816.073)" fill="#f5f5f0"/>
          <path id="Path_40799" data-name="Path 40799" d="M5730.411,2836.182a.2.2,0,0,1-.09-.022.2.2,0,0,1-.106-.177,39.61,39.61,0,0,1,1.083-8.666c1.477-6.047,4.287-10.18,8.129-11.951a.192.192,0,0,1,.191.017.2.2,0,0,1,.085.176c-.34,7.222-4.973,17.612-9.18,20.587A.192.192,0,0,1,5730.411,2836.182Zm8.88-20.308c-7.951,3.98-8.623,17.23-8.679,19.706C5734.52,2832.47,5738.845,2822.676,5739.291,2815.875Z" transform="translate(-5730.214 -2815.348)" fill="#a3c2db"/>
        </g>
        <g id="Group_17584" data-name="Group 17584" transform="translate(0 13.837)">
          <path id="Path_40800" data-name="Path 40800" d="M5652.474,2801.6c-1.961-2.836-10-18.81-5.615-30.166,8.268,10.358,6.884,30.166,6.884,30.166Z" transform="translate(-5645.372 -2771.235)" fill="#f5f5f0"/>
          <path id="Path_40801" data-name="Path 40801" d="M5653.032,2801.079h-1.269a.2.2,0,0,1-.161-.085c-1.731-2.5-10.124-18.734-5.638-30.355a.2.2,0,0,1,.153-.125.2.2,0,0,1,.182.072c4.3,5.388,5.956,13.345,6.586,19.072a70.491,70.491,0,0,1,.342,11.236A.2.2,0,0,1,5653.032,2801.079Zm-1.167-.4h.981c.109-2.023.833-19.856-6.638-29.565C5642.11,2782.419,5650.051,2797.966,5651.866,2800.676Z" transform="translate(-5644.661 -2770.511)" fill="#a3c2db"/>
        </g>
        <g id="Group_17585" data-name="Group 17585" transform="translate(5.402)">
          <path id="Path_40802" data-name="Path 40802" d="M5677.344,2751.7c1.687-7.159,2.112-31.965-1.579-44-10.266,21.3-2.559,44-2.559,44Z" transform="translate(-5670.238 -2707.498)" fill="#f5f5f0"/>
          <path id="Path_40803" data-name="Path 40803" d="M5676.653,2751.177h-4.139a.2.2,0,0,1-.186-.135,63.909,63.909,0,0,1-2.58-14.063c-.589-7.632-.174-19.049,5.149-30.094a.2.2,0,0,1,.191-.112.2.2,0,0,1,.172.14c2.223,7.248,2.718,18.077,2.815,23.887.14,8.371-.355,16.5-1.233,20.222A.2.2,0,0,1,5676.653,2751.177Zm-4-.4h3.841c1.647-7.308,1.975-31.348-1.466-43.253-5.074,10.815-5.468,21.94-4.892,29.413A64.586,64.586,0,0,0,5672.656,2750.775Z" transform="translate(-5669.546 -2706.772)" fill="#a3c2db"/>
        </g>
        <g id="Group_17586" data-name="Group 17586" transform="translate(15.959 4.386)">
          <path id="Path_40804" data-name="Path 40804" d="M5721.721,2767.521s8.1-22.621,3.831-39.615c-6.194,13.21-6.847,33.855-6.271,39.615Z" transform="translate(-5718.911 -2727.704)" fill="#f5f5f0"/>
          <path id="Path_40805" data-name="Path 40805" d="M5720.986,2767h-2.439a.2.2,0,0,1-.2-.181c-.639-6.381.264-26.874,6.289-39.723a.2.2,0,0,1,.2-.113.2.2,0,0,1,.171.15c2.214,8.815,1.052,19.151-.312,26.269a101.21,101.21,0,0,1-3.524,13.466A.2.2,0,0,1,5720.986,2767Zm-2.261-.4h2.123c.643-1.862,7.653-22.813,3.912-38.817C5719.035,2740.459,5718.132,2760.136,5718.726,2766.594Z" transform="translate(-5718.177 -2726.978)" fill="#a3c2db"/>
        </g>
        <g id="Group_17587" data-name="Group 17587" transform="translate(11.817 10.326)">
          <path id="Path_40806" data-name="Path 40806" d="M5700.507,2788.942h3.821s6.344-16.48,2.191-33.676C5702.367,2761.782,5698.647,2774.864,5700.507,2788.942Z" transform="translate(-5699.815 -2755.065)" fill="#f5f5f0"/>
          <path id="Path_40807" data-name="Path 40807" d="M5703.608,2788.418h-3.82a.2.2,0,0,1-.2-.174c-1.839-13.922,1.71-27.014,6.042-33.813a.2.2,0,0,1,.2-.088.2.2,0,0,1,.158.15,59.34,59.34,0,0,1,.464,23.369,60.5,60.5,0,0,1-2.664,10.429A.2.2,0,0,1,5703.608,2788.418Zm-3.649-.4h3.514c.566-1.556,5.932-16.986,2.245-32.969C5701.556,2761.859,5698.221,2774.528,5699.959,2788.016Z" transform="translate(-5699.096 -2754.34)" fill="#a3c2db"/>
        </g>
        <g id="Group_17588" data-name="Group 17588" transform="translate(8.261)">
          <path id="Path_40808" data-name="Path 40808" d="M5684.784,2751.177a.2.2,0,0,1-.194-.173,205.255,205.255,0,0,1-1.876-22.11c-.028-8.882,2.451-21.83,2.476-21.96a.2.2,0,0,1,.231-.158.2.2,0,0,1,.154.236c-.024.13-2.5,13.039-2.468,21.881a205.069,205.069,0,0,0,1.872,22.054.2.2,0,0,1-.167.228Z" transform="translate(-5682.713 -2706.773)" fill="#a3c2db"/>
        </g>
        <g id="Group_17589" data-name="Group 17589" transform="translate(8.03 6.837)">
          <path id="Path_40809" data-name="Path 40809" d="M5683.075,2741.091a.2.2,0,0,1-.174-.108l-1.229-2.42a.2.2,0,0,1,.084-.271.194.194,0,0,1,.265.086l1.228,2.42a.2.2,0,0,1-.084.271A.2.2,0,0,1,5683.075,2741.091Z" transform="translate(-5681.65 -2738.268)" fill="#a3c2db"/>
        </g>
        <g id="Group_17590" data-name="Group 17590" transform="translate(5.839 17.12)">
          <path id="Path_40810" data-name="Path 40810" d="M5674.176,2791.191a.2.2,0,0,1-.177-.113l-2.422-5.152a.2.2,0,0,1,.092-.268.194.194,0,0,1,.262.094l2.422,5.152a.2.2,0,0,1-.092.268A.191.191,0,0,1,5674.176,2791.191Z" transform="translate(-5671.558 -2785.637)" fill="#a3c2db"/>
        </g>
        <g id="Group_17591" data-name="Group 17591" transform="translate(5.839 31.879)">
          <path id="Path_40811" data-name="Path 40811" d="M5674.79,2855.091a.187.187,0,0,1-.063-.011l-3.037-1.064a.2.2,0,0,1-.122-.255.2.2,0,0,1,.25-.125l3.037,1.064a.2.2,0,0,1,.122.256A.2.2,0,0,1,5674.79,2855.091Z" transform="translate(-5671.557 -2853.625)" fill="#a3c2db"/>
        </g>
        <g id="Group_17592" data-name="Group 17592" transform="translate(13.987 10.326)">
          <path id="Path_40812" data-name="Path 40812" d="M5709.3,2788.417a.2.2,0,0,1-.2-.185c-.227-2.79,2.774-29.053,4.335-33.757a.194.194,0,0,1,.249-.126.2.2,0,0,1,.124.255c-1.554,4.682-4.541,30.819-4.316,33.595a.2.2,0,0,1-.18.217Z" transform="translate(-5709.095 -2754.339)" fill="#a3c2db"/>
        </g>
        <g id="Group_17593" data-name="Group 17593" transform="translate(17.106 14.984)">
          <path id="Path_40813" data-name="Path 40813" d="M5723.658,2777.424a.2.2,0,0,1-.171-.1.2.2,0,0,1,.073-.274l2.1-1.226a.194.194,0,0,1,.268.075.2.2,0,0,1-.074.274l-2.1,1.226A.2.2,0,0,1,5723.658,2777.424Z" transform="translate(-5723.461 -2775.796)" fill="#a3c2db"/>
        </g>
        <g id="Group_17594" data-name="Group 17594" transform="translate(15.868 23.57)">
          <path id="Path_40814" data-name="Path 40814" d="M5717.952,2817.028a.2.2,0,0,1-.187-.139.2.2,0,0,1,.127-.253l3.866-1.279a.2.2,0,0,1,.248.13.2.2,0,0,1-.127.253l-3.866,1.278A.187.187,0,0,1,5717.952,2817.028Z" transform="translate(-5717.755 -2815.347)" fill="#a3c2db"/>
        </g>
        <g id="Group_17595" data-name="Group 17595" transform="translate(14.962 32.167)">
          <path id="Path_40815" data-name="Path 40815" d="M5713.779,2855.6a.2.2,0,0,1-.011-.4l4.054-.245a.2.2,0,0,1,.023.4l-4.054.244Z" transform="translate(-5713.583 -2854.949)" fill="#a3c2db"/>
        </g>
        <g id="Group_17596" data-name="Group 17596" transform="translate(14.168 40.464)">
          <path id="Path_40816" data-name="Path 40816" d="M5713.017,2894.254a.2.2,0,0,1-.044-.005l-2.9-.683a.2.2,0,0,1-.147-.241.2.2,0,0,1,.236-.151l2.895.682a.2.2,0,0,1,.148.241A.2.2,0,0,1,5713.017,2894.254Z" transform="translate(-5709.926 -2893.169)" fill="#a3c2db"/>
        </g>
        <g id="Group_17597" data-name="Group 17597" transform="translate(20.174 23.57)">
          <path id="Path_40817" data-name="Path 40817" d="M5737.79,2830.955a.192.192,0,0,1-.056-.009.2.2,0,0,1-.133-.25c.834-2.875,5.625-12.8,7.528-15.272a.194.194,0,0,1,.276-.034.2.2,0,0,1,.033.282c-1.885,2.454-6.632,12.287-7.459,15.138A.2.2,0,0,1,5737.79,2830.955Z" transform="translate(-5737.593 -2815.348)" fill="#a3c2db"/>
        </g>
      </g>
    </g>
    <g id="doctor2" transform="translate(5684.278 2530.386)">
      <g id="Group_17599" data-name="Group 17599" transform="translate(1.462 36.746)">
        <path id="Path_40818" data-name="Path 40818" d="M5943.651,2957.348c-.4-.065-.345.909-.2.987.977.518,3.38.586,5.271.721,2.209.157,4.48.04,4.67-.293a.808.808,0,0,0-.394-1.265,54.743,54.743,0,0,0-5.488-.455C5947.4,2957.073,5943.651,2957.348,5943.651,2957.348Z" transform="translate(-5919.241 -2900.531)" fill="#1d2f46"/>
        <path id="Path_40819" data-name="Path 40819" d="M5945.037,2925.043a20.293,20.293,0,0,0,1.154,4.751c.1.213,1.183,1.442.591,2.071a2.22,2.22,0,0,1-3.775-1.182c.6-2.424-1.038-4.572-1.038-5.293S5944.993,2924.272,5945.037,2925.043Z" transform="translate(-5918.165 -2875.151)" fill="#e5b48f"/>
        <path id="Path_40820" data-name="Path 40820" d="M5838.562,2928.123a6.753,6.753,0,0,0-.243,4.148c.1.255,1.022,3.147-1.541,2.352-1.668-.518-2-1.088-1.788-1.437,1.027-1.7.457-4.228.457-4.916S5838.816,2927.457,5838.562,2928.123Z" transform="translate(-5834.364 -2877.547)" fill="#e5b48f"/>
        <path id="Path_40821" data-name="Path 40821" d="M5832.531,2957.835c-.325-.073-.207,1.064-.118,1.182a10.731,10.731,0,0,0,3.711.46c1.7-.043,2.773-.135,2.911-.449a1.3,1.3,0,0,0-.367-1.107,18.13,18.13,0,0,0-3.186-.334C5835.387,2957.613,5832.531,2957.835,5832.531,2957.835Z" transform="translate(-5832.317 -2900.957)" fill="#1d2f46"/>
        <path id="Path_40822" data-name="Path 40822" d="M5907.152,2751.419c-.142,1.018-3.872,1.57-4.071,1.022-1.381-3.807-5.427-10.252-6.384-16.62a14.965,14.965,0,0,1,.322-5.826,27.721,27.721,0,0,1-3.9-8.331v0a45.954,45.954,0,0,1-1.32-5.886c-.3-1.94-.381-3.207-.381-3.207l2.778-9.713.064-.23,1.687-5.9,5.537,3.166s.023.476.067,1.312c.137,2.656.469,8.941.861,15.149.334,5.29.714,10.523,1.051,13.4C5903.96,2734.008,5905.952,2745.918,5907.152,2751.419Z" transform="translate(-5878.588 -2696.73)" fill="url(#radial-gradient)"/>
        <path id="Path_40823" data-name="Path 40823" d="M5853.563,2721.171s-1.55,5.614-3.841,12.789c-.561,1.758-1.168,3.608-1.809,5.494-.875,2.585-1.813,5.237-2.783,7.8-.579,1.53-.711,4.581-2,8.075-1.2,3.256-3.543,6.763-4.585,13.426.03,1.134-3.557.9-3.914.227,0-.5-.739-12.3.583-16.583a18.962,18.962,0,0,1,3.645-6.288c0-3.121-.341-9.542-.618-14.386a73.034,73.034,0,0,1-.066-9.186,23.96,23.96,0,0,1,.4-3.084l9.71,1.114.7.08Z" transform="translate(-5833.967 -2714.52)" fill="url(#radial-gradient-2)"/>
        <path id="Path_40824" data-name="Path 40824" d="M5836.543,2944.886c.371.013.91.839,1.208,1.708.347.367.979.5,1.31.989.229.341.519.94.4,1.1-.433.565-5.943.469-6.141-.039-.258-.662.281-1.267.358-1.919a3.68,3.68,0,0,1,.155-1.118,1.711,1.711,0,0,0,.274.153c-.015.42-.028,1.051.523,1.128C5835.139,2945.374,5835.933,2944.865,5836.543,2944.886Z" transform="translate(-5833.044 -2891.015)" fill="#263e5e"/>
        <path id="Path_40825" data-name="Path 40825" d="M5944.572,2948.372c.158.559,8.18,1.463,9.331.717.611-.4.067-.85-.624-1.14-.805-.337-2.755-1.143-3.5-1.476a1.637,1.637,0,0,1-.989-.975c-.094-.193-.234-.349-.316-.29-.247.177-.3.787-.192,1.269s.215.923.021,1.027c-.35.188-.93-.086-1.5-.481a3.79,3.79,0,0,1-2.085.044A1.729,1.729,0,0,0,5944.572,2948.372Z" transform="translate(-5920.147 -2891.257)" fill="#263e5e"/>
      </g>
      <path id="Path_40826" data-name="Path 40826" d="M5933.752,2664.858c-2.006,5.924-4.988,9.264-6.775,9.379-3.717.238-8.932-4.8-8.932-4.8Z" transform="translate(-5897.973 -2635.449)" fill="#e5b48f"/>
      <path id="Path_40827" data-name="Path 40827" d="M5854.558,2591.92c-2.116.393-9.393.973-12,5.7-1.1,1.992-.087,31.188.572,32.06,1.055,1.4,19.405,2.994,21.58-.286.616-.93,3.809-29.221-.429-33.509C5862.134,2593.719,5854.558,2591.92,5854.558,2591.92Z" transform="translate(-5838.487 -2578.562)" fill="#51888c"/>
      <path id="Path_40828" data-name="Path 40828" d="M5894.109,2530.427c.586.256,1.644,5.573-.615,7.027-1.165.75-5.606.522-6.4.024s-1.151-2.827-.311-4.587a2.512,2.512,0,0,1,1.625-1.332c.9-.272,2.132-.069,3.418-.274C5892.816,2531.126,5893.538,2530.177,5894.109,2530.427Z" transform="translate(-5873.116 -2530.385)" fill="#2a2f58"/>
      <path id="Path_40829" data-name="Path 40829" d="M5885.119,2551.866c-.354,3.2-1.214,9.225-1.453,9.8s2.09,1.85,3.773,1.863c2.32.017,3.677-.86,3.677-1.385s-.764-5.834-.764-5.834l-1.816-4.02Z" transform="translate(-5871.043 -2547.203)" fill="#de9e87"/>
      <path id="Path_40830" data-name="Path 40830" d="M5893.81,2542.466c.63.187,1.221-.663,1.607-.215.541.627.79,1.186.715,2.787-.137,2.9-1.675,6.195-2.68,6.252-3.108.179-4.381-3.9-4.413-4.091-.214-1.34.052-1.146-.159-1.7s-.708-1.469-.411-1.861.854.266.854.266a3.385,3.385,0,0,1,1.2-1.653C5891.186,2541.667,5892.108,2541.962,5893.81,2542.466Z" transform="translate(-5874.745 -2539.423)" fill="#e5b48f"/>
      <path id="Path_40831" data-name="Path 40831" d="M5833.739,2601.135c-8.083,1.971-8.617,15.451-7.949,16.893s12.986-.35,13.425-1.205S5839.438,2599.745,5833.739,2601.135Z" transform="translate(-5825.583 -2585.584)" fill="#51888c"/>
      <path id="Path_40832" data-name="Path 40832" d="M5949.432,2614.492H5935.2a.3.3,0,0,0-.273.179l-7,16.211a.189.189,0,0,0,.174.264h9.768a.3.3,0,0,0,.241-.124l11.56-16.061A.3.3,0,0,0,5949.432,2614.492Z" transform="translate(-5905.7 -2596.085)" fill="#dfe7ee"/>
      <path id="Path_40833" data-name="Path 40833" d="M5831.545,2671.661c-.316.72.631,6.638,1.627,7.252,1.511.931,16.883-1.011,18.675-1.668a14.878,14.878,0,0,0,3.894-2.457,3.2,3.2,0,0,0,1-2.715c0-.325-.348.123-.367-.214-.025-.473.258-1.687.062-1.684-.725.011-1.867,2.836-1.867,2.836s.523-3.081.063-3.082c-.679,0-1.27,4.3-2.072,4.127-.911-.2.26-2.117-.714-2.435-.267-.087-.216.527-.312.961s-.653.706-.85,1.3c-.185.556,0,1.036-.215,1.133-.526.239-9.719-2.21-12.539-2.21.018-.351-.015-.842-.015-.842S5832.187,2670.2,5831.545,2671.661Z" transform="translate(-5830.203 -2639.412)" fill="#e5b48f"/>
      <path id="Path_40834" data-name="Path 40834" d="M6002.906,2636.915c-.377-.65-2.942-.943-3.539-1s-.633.553-.194.864a10.7,10.7,0,0,0,.974.6s-1.771.086-1.891.348a4.518,4.518,0,0,0-.536,1.532c.069.319,1.073.8,1.38.847S6003.126,2637.292,6002.906,2636.915Z" transform="translate(-5960.347 -2612.845)" fill="#e5b48f"/>
      <path id="Path_40835" data-name="Path 40835" d="M5869.591,2728.945c.319.277.643,1.572,0,1.687a57.169,57.169,0,0,1-7.5,0c-.286-.214-.429-1.358,0-1.534A51,51,0,0,1,5869.591,2728.945Z" transform="translate(-5853.952 -2685.478)" fill="#45777c"/>
      <path id="Path_40836" data-name="Path 40836" d="M5882.452,2650.187c.26.225.523,1.277,0,1.371a46.33,46.33,0,0,1-6.1,0c-.232-.174-.349-1.1,0-1.247A41.545,41.545,0,0,1,5882.452,2650.187Z" transform="translate(-5865.162 -2623.948)" fill="#45777c"/>
    </g>
    <path id="Path_40837" data-name="Path 40837" d="M6055.17,2616.639c-1.874.744-12.6,24.34-12.6,24.34l5.518,4.131s14.124-21.381,14.153-21.93S6056.816,2615.985,6055.17,2616.639Z" transform="translate(-310.908 -67.33)" fill="#92adba"/>
    <g id="mom" transform="translate(5666.313 2544.508)">
      <g id="Group_17600" data-name="Group 17600" transform="translate(11.847 68.364)">
        <path id="Path_40838" data-name="Path 40838" d="M5801.557,2939.507l.132-.325h-.919c-1.03-.006-1.926.93-1.78,2.57a1.9,1.9,0,0,0,1.4,1.867l-.014.008h1.067v-.51C5802.2,2942.193,5802.32,2940.271,5801.557,2939.507Z" transform="translate(-5798.975 -2932.289)" fill="#303c46"/>
        <path id="Path_40839" data-name="Path 40839" d="M5805.005,2939.182c-1.03-.006-1.926.93-1.78,2.57.1,1.17.914,2.076,1.78,1.836C5806.592,2943.146,5806.889,2939.193,5805.005,2939.182Z" transform="translate(-5802.29 -2932.289)" fill="#779ab6"/>
        <path id="Path_40840" data-name="Path 40840" d="M5808.528,2915.976c-.479.444-.842,1.469,0,1.542a3.5,3.5,0,0,0,2.54-.771c.283-.477,1-9.1,1-9.1l-2.258-.216s.94,7.957.552,8.141S5809.242,2915.316,5808.528,2915.976Z" transform="translate(-5806.059 -2907.432)" fill="#a3c2db"/>
      </g>
      <g id="Group_17601" data-name="Group 17601" transform="translate(24.69 68.828)">
        <path id="Path_40841" data-name="Path 40841" d="M5860.719,2940.982l.132-.325h-.92c-1.029-.006-1.925.93-1.779,2.57a1.9,1.9,0,0,0,1.4,1.866l-.013.008h1.067v-.51C5861.358,2943.668,5861.482,2941.746,5860.719,2940.982Z" transform="translate(-5858.136 -2933.908)" fill="#303c46"/>
        <path id="Path_40842" data-name="Path 40842" d="M5864.167,2940.656c-1.03-.006-1.926.93-1.78,2.57.1,1.17.914,2.076,1.78,1.835C5865.754,2944.621,5866.051,2940.668,5864.167,2940.656Z" transform="translate(-5861.452 -2933.908)" fill="#779ab6"/>
        <path id="Path_40843" data-name="Path 40843" d="M5867.689,2917.971c-.48.444-.843,1.468,0,1.542a3.5,3.5,0,0,0,2.54-.771c.283-.477.98-9.171.98-9.171h-2.491s1.192,7.813.8,8S5868.4,2917.31,5867.689,2917.971Z" transform="translate(-5865.22 -2909.571)" fill="#a3c2db"/>
      </g>
      <g id="Group_17602" data-name="Group 17602" transform="translate(64.96 68.828)">
        <path id="Path_40844" data-name="Path 40844" d="M6046.222,2940.982l.132-.325h-.919c-1.03-.006-1.926.93-1.78,2.57a1.9,1.9,0,0,0,1.4,1.866l-.014.008h1.067v-.51C6046.862,2943.668,6046.985,2941.746,6046.222,2940.982Z" transform="translate(-6043.64 -2933.908)" fill="#303c46"/>
        <path id="Path_40845" data-name="Path 40845" d="M6049.671,2940.656c-1.03-.006-1.926.93-1.78,2.57.1,1.17.914,2.076,1.78,1.835C6051.258,2944.621,6051.555,2940.668,6049.671,2940.656Z" transform="translate(-6046.956 -2933.908)" fill="#779ab6"/>
        <path id="Path_40846" data-name="Path 40846" d="M6053.193,2917.971c-.48.444-.843,1.468,0,1.542a3.5,3.5,0,0,0,2.54-.771c.283-.477.891-9.171.891-9.171h-2.289s1.08,7.813.69,8S6053.906,2917.31,6053.193,2917.971Z" transform="translate(-6050.724 -2909.571)" fill="#a3c2db"/>
      </g>
      <g id="Group_17603" data-name="Group 17603" transform="translate(77.788 68.455)">
        <path id="Path_40847" data-name="Path 40847" d="M6105.312,2939.263l.132-.325h-.92c-1.029-.006-1.925.93-1.779,2.57a1.9,1.9,0,0,0,1.4,1.866l-.014.008h1.067v-.51C6105.951,2941.949,6106.075,2940.028,6105.312,2939.263Z" transform="translate(-6102.729 -2932.19)" fill="#303c46"/>
        <path id="Path_40848" data-name="Path 40848" d="M6108.76,2938.938c-1.029-.006-1.926.93-1.78,2.57.1,1.17.914,2.076,1.78,1.835C6110.347,2942.9,6110.644,2938.949,6108.76,2938.938Z" transform="translate(-6106.045 -2932.19)" fill="#779ab6"/>
        <path id="Path_40849" data-name="Path 40849" d="M6112.283,2916.253c-.479.444-.843,1.469,0,1.542a3.5,3.5,0,0,0,2.54-.771c.283-.477.627-9.171.627-9.171h-1.868s.922,7.813.533,8S6113,2915.592,6112.283,2916.253Z" transform="translate(-6109.813 -2907.853)" fill="#a3c2db"/>
      </g>
      <g id="Group_17604" data-name="Group 17604" transform="translate(6.441 47.498)">
        <path id="Path_40850" data-name="Path 40850" d="M6133.068,2832.57c-.15.649-1.215.478-1.119-.178l2.994-20a1.347,1.347,0,0,1,1.536-1.066,1.27,1.27,0,0,1,1.166,1.4C6137.634,2812.795,6133.084,2832.5,6133.068,2832.57Z" transform="translate(-6054.254 -2811.31)" fill="#7d9dad"/>
        <path id="Path_40851" data-name="Path 40851" d="M6054.195,2833.11a.573.573,0,0,1-1.134-.046l.15-19.741a1.369,1.369,0,0,1,2.728.017C6055.938,2813.412,6054.2,2833.039,6054.195,2833.11Z" transform="translate(-5992.496 -2811.917)" fill="#7d9dad"/>
        <path id="Path_40852" data-name="Path 40852" d="M5779.778,2834.821c.1.658-.967.824-1.119.177l-4.56-19.755a1.253,1.253,0,0,1,1.053-1.477,1.367,1.367,0,0,1,1.615.962C5776.784,2814.8,5779.768,2834.751,5779.778,2834.821Z" transform="translate(-5774.07 -2813.212)" fill="#7d9dad"/>
        <path id="Path_40853" data-name="Path 40853" d="M5868.9,2835.494a.573.573,0,0,1-1.134.045l-1.738-19.678a1.286,1.286,0,0,1,1.25-1.343,1.332,1.332,0,0,1,1.468,1.142C5868.749,2815.732,5868.9,2835.423,5868.9,2835.494Z" transform="translate(-5846.06 -2813.819)" fill="#7d9dad"/>
      </g>
      <path id="Path_40854" data-name="Path 40854" d="M6077.941,2655.641c-1.514-2.888-19.852-3.33-20.968-4.066s-14.344,23.809-14.344,23.809l24.185,1.729,11.127-21.471Z" transform="translate(-5977.888 -2639.232)" fill="#7996a6"/>
      <path id="Path_40855" data-name="Path 40855" d="M5761.566,2797.836c-.266.26-.3,5.126.611,6.688s83.627-.953,85.445-2.053.908-6.915,0-7.386S5762.772,2796.659,5761.566,2797.836Z" transform="translate(-5757.712 -2751.293)" fill="#c4d9e4"/>
      <path id="Path_40856" data-name="Path 40856" d="M5845.059,2787.753c-7.948.55-84.612,2.436-84.763,1.336s-1.968-6.381,0-6.57,82.776-.755,83.732,0S5845.059,2787.753,5845.059,2787.753Z" transform="translate(-5756.133 -2741.252)" fill="#92adba"/>
      <g id="Group_17605" data-name="Group 17605" transform="translate(63.308 28.782)">
        <path id="Path_40857" data-name="Path 40857" d="M6057.044,2727.839c1.8,2.241,3.8,5.82,2.872,8.17-1.684,4.283-14.76,2.512-14.76,2.512l-8.63-7.493,8.13-3.743,7.69,2.279Z" transform="translate(-6036.418 -2727.177)" fill="#fff"/>
        <path id="Path_40858" data-name="Path 40858" d="M6050.564,2738.613a47.57,47.57,0,0,1-5.812-.374.106.106,0,0,1-.056-.025l-8.629-7.493a.108.108,0,0,1-.036-.1.107.107,0,0,1,.062-.083l8.13-3.743a.107.107,0,0,1,.076-.005l7.657,2.268,4.665-1.712a.108.108,0,0,1,.121.034c1.993,2.484,3.8,5.962,2.888,8.277C6058.682,2738.067,6054.323,2738.613,6050.564,2738.613Zm-5.751-.583c.717.092,13.021,1.606,14.614-2.449.87-2.212-.958-5.678-2.807-8l-4.625,1.7a.106.106,0,0,1-.067,0l-7.652-2.267-7.942,3.657Z" transform="translate(-6036.03 -2726.788)"/>
      </g>
      <path id="Path_40859" data-name="Path 40859" d="M6082.533,2605.834a2.4,2.4,0,0,1-2.93-2.444,23.131,23.131,0,0,1,.986-3.857,6.2,6.2,0,0,1,2.651-3.477,3.412,3.412,0,0,1,3.917,0c1.675-1,4.009.159,4.542.825,1.249,1.562.681,5.613,2.044,6.689,1.059.836,4.033-2.378,6.273,1.4.753,1.269,1.022,4.3-.2,5.333s-3.558.756-4.049,2.289.265,3.025-1.06,3.811-5.372-3.812-7.895-5.076c-2.275-1.139-4.18-1.543-4.975-2.04S6082.533,2605.834,6082.533,2605.834Z" transform="translate(-6006.829 -2595.437)" fill="#ae376e"/>
      <path id="Path_40860" data-name="Path 40860" d="M6050.707,2674.375a11.385,11.385,0,0,1-2.441-1.445c-.057-.295,3.031-4.053,4.058-5.392a5.861,5.861,0,0,0,.753-4.1c-4.665,1.5-10.205,7-10.46,10.177-.168,2.092,5.8,2.742,8.09,2.125Z" transform="translate(-5977.876 -2648.539)" fill="#de9e87"/>
      <path id="Path_40861" data-name="Path 40861" d="M6074.991,2660.86c-2.087.089-4.246.294-4.586.648s-.114,2.063-.341,2.829-1.533.538-1.93,1.742,1.362,3.326,1.305,4.446-3.463,4.125-4.428,4.184,5.11,4.126,8.914,4.3a7.182,7.182,0,0,0,6.075-2.3c.34-.471.511-2.42.625-4.247s.908-7.728-.445-9.712C6079.671,2662.009,6076.048,2660.814,6074.991,2660.86Z" transform="translate(-5995.331 -2646.509)" fill="#756bfa"/>
      <path id="Path_40862" data-name="Path 40862" d="M6103.535,2629.517a4.227,4.227,0,0,1-1.477,4.6c-1.079.589.625,1.414,1.667,1.414,1.191,0,1.834-.53,1.948-1.021.1-.444-.791-.665-.734-1.843s1.219-6.476,1.275-6.771C6105.953,2625.521,6103.535,2629.517,6103.535,2629.517Z" transform="translate(-6024.146 -2619.262)" fill="#de9e87"/>
      <path id="Path_40863" data-name="Path 40863" d="M6093.62,2616.725c.4,3.851,2.348,5.8,3.446,5.934s3.114-1.983,2.76-5.073c1.42-.048.522-1.906.292-1.994s-.727.6-.727.6-3.214.5-4.654-1.428A4.363,4.363,0,0,1,6093.62,2616.725Z" transform="translate(-6017.81 -2610.571)" fill="#e5b48f"/>
      <path id="Path_40864" data-name="Path 40864" d="M5854.134,2715.8c-2.3-1.121-8.039-.158-10.571-.048-18.257.788-52.1,12.369-50.963,14.286.816,1.378,73.672,1.805,76.17.124s4.622-11.167,2.649-11.791-7.232.323-9.168-.5S5857.469,2717.426,5854.134,2715.8Z" transform="translate(-5782.114 -2688.988)" fill="#afcbd8"/>
      <path id="Path_40865" data-name="Path 40865" d="M6077.327,2694.347c1.149-.477,4.378-1.635,6.582-1.316,1.714.247,5.755,2.927,4.95,6.06-.455,1.772-9.667,1.084-10.51.437s-2.922-2.612-2.922-2.612Z" transform="translate(-6003.566 -2671.615)" fill="#efc5cc"/>
      <path id="Path_40866" data-name="Path 40866" d="M6060.521,2683.346c-1.647-.26-2.956,1.789-3.1,3.175a3,3,0,0,0,2.827,3.2c1.746-.061,2.972-2.927,2.972-2.927S6061.628,2683.52,6060.521,2683.346Z" transform="translate(-5989.462 -2664.079)" fill="#c63d7c"/>
      <path id="Path_40867" data-name="Path 40867" d="M6067.3,2684.619c-.3.651.621,1.485.8,2.191a2.013,2.013,0,0,0,1.105,1.642c.97.4,1.779-.672,1.941-1.071a2.88,2.88,0,0,0-.506-1.973.933.933,0,0,0-.728-.357C6069.715,2685,6067.971,2683.182,6067.3,2684.619Z" transform="translate(-5997.157 -2664.664)" fill="#edba94"/>
      <path id="Path_40868" data-name="Path 40868" d="M6042.609,2704.354c-.2,2.535,5.435,1.605,8.536,2.241a10.251,10.251,0,0,0,1.952.283c1.463.016,2.933-.681,2.862-.892-.078-.231-1.012.213-1.05.037-.035-.16,1.154-.538,1.072-.822-.048-.162-1.218.389-1.253.306-.086-.205,1.4-.7,1.253-.995-.114-.223-1.561.722-1.615.577-.063-.167,1.068-.923.856-1.107s-.946.58-1.492.814c-.129.055-.624.307-.673.176-.087-.23.689-.357.78-.6.052-.138.033-.7-.1-.768s-.214.414-.408.568c-.266.212-1.038.562-1.313.761-.139.1-.22.575-.22.575s-3.076-1.62-3.538-1.845C6047.988,2703.533,6042.864,2701.172,6042.609,2704.354Z" transform="translate(-5977.869 -2679.217)" fill="#de9e87"/>
      <path id="Path_40869" data-name="Path 40869" d="M6093.578,2669.583c2.192.169,4.478,10.424,3.446,11.368-2.776,2.538-9.954,1.589-12.2,1a4.22,4.22,0,0,1-2.5-1.714c-.208-.245-.424-.846-.224-.919.111-.04.3.574.586.762.151.1-.1-.532-.149-.75a2.219,2.219,0,0,1-.016-.965c.16-.127.36-.225.562-.02s.253,1.207.743,1.56c.084.061-.312-1.7.034-1.542.254.119.345,1.164.481,1.457.083.177.5.346.5.346a.443.443,0,0,0,.268-.527c-.04-.3-.4-.555-.147-.979.109-.183.259.184.32.318.083.185.341.525.405.682.13.315.006.821.106.924s7.449-.836,7.715-1.14c.3-.342-.96-5.422-1.081-6.21C6092.154,2671.417,6092.785,2669.521,6093.578,2669.583Z" transform="translate(-6008.73 -2653.332)" fill="#e5b48f"/>
      <path id="Path_40870" data-name="Path 40870" d="M6147.162,2632.459c0-3.592-1.968-10.511-4.012-10.51s-12.178,29.939-12.107,32.611,4.066,7.628,4.991,7.779C6140.442,2663.056,6147.162,2634.738,6147.162,2632.459Z" transform="translate(-6047.108 -2616.193)" fill="#92adba"/>
      <path id="Path_40871" data-name="Path 40871" d="M5780.128,2742.664c-1.175-1.449-20.076-1.692-29.66-.942-2.888.226-4.931.542-5.387.942-1.968,1.729.684,9.538,3.482,14.458a6.9,6.9,0,0,0,2.365.333c-1.924-4.319-3.453-10.01-2.06-11.384,1.56-1.538,26.206-1.678,27.417,0,.965,1.336,1.38,8.262.346,11.377a10.074,10.074,0,0,0,2.6-.326C5780.384,2756.336,5781.657,2744.55,5780.128,2742.664Z" transform="translate(-5744.4 -2709.324)" fill="#c4d9e4"/>
      <path id="Path_40872" data-name="Path 40872" d="M5783.429,2894.512c-2.026.856.227,3.777.984,4.11s75.214.333,75.938-.444,1.495-3.333.883-3.666S5784.564,2894.032,5783.429,2894.512Z" transform="translate(-5774.311 -2828.712)" fill="#c4d9e4"/>
    </g>
    <g id="baby_cot" data-name="baby cot" transform="translate(5720.932 2582.05)">
      <g id="Group_17606" data-name="Group 17606" transform="translate(9.282 7.853)">
        <path id="Path_40873" data-name="Path 40873" d="M6038.412,2969.291l.131-.323h-.914c-1.024-.007-1.915.925-1.77,2.555a1.89,1.89,0,0,0,1.392,1.856l-.013.008h1.061v-.507C6039.048,2971.962,6039.171,2970.052,6038.412,2969.291Z" transform="translate(-6035.844 -2932.64)" fill="#303c46"/>
        <path id="Path_40874" data-name="Path 40874" d="M6041.84,2968.968c-1.024-.007-1.915.925-1.77,2.555.1,1.163.909,2.064,1.77,1.825C6043.418,2972.91,6043.714,2968.979,6041.84,2968.968Z" transform="translate(-6039.141 -2932.64)" fill="#779ab6"/>
        <path id="Path_40875" data-name="Path 40875" d="M6045.343,2839.594c-.477.442-.837,1.46,0,1.533a3.48,3.48,0,0,0,2.526-.767c.281-.474.153-38.737.153-38.737h-2.276s1.807,37.386,1.42,37.569S6046.052,2838.937,6045.343,2839.594Z" transform="translate(-6042.888 -2801.624)" fill="#a3c2db"/>
      </g>
      <g id="Group_17607" data-name="Group 17607" transform="translate(1.59 7.853)">
        <path id="Path_40876" data-name="Path 40876" d="M6002.981,2969.291l.132-.323h-.915c-1.024-.007-1.915.925-1.77,2.555a1.89,1.89,0,0,0,1.392,1.856l-.013.008h1.061v-.507C6003.618,2971.962,6003.74,2970.052,6002.981,2969.291Z" transform="translate(-6000.413 -2932.64)" fill="#303c46"/>
        <path id="Path_40877" data-name="Path 40877" d="M6006.41,2968.968c-1.024-.007-1.915.925-1.77,2.555.1,1.163.909,2.064,1.77,1.825C6007.988,2972.91,6008.282,2968.979,6006.41,2968.968Z" transform="translate(-6003.709 -2932.64)" fill="#779ab6"/>
        <path id="Path_40878" data-name="Path 40878" d="M6009.912,2839.594c-.477.442-.838,1.46,0,1.533a3.481,3.481,0,0,0,2.526-.767c.281-.474.153-38.737.153-38.737h-2.276s1.806,37.386,1.42,37.569S6010.622,2838.937,6009.912,2839.594Z" transform="translate(-6007.457 -2801.624)" fill="#a3c2db"/>
      </g>
      <g id="Group_17608" data-name="Group 17608" transform="translate(29.793 7.853)">
        <path id="Path_40879" data-name="Path 40879" d="M6132.9,2969.291l.132-.323h-.915c-1.024-.007-1.915.925-1.77,2.555a1.89,1.89,0,0,0,1.392,1.856l-.013.008h1.061v-.507C6133.532,2971.962,6133.655,2970.052,6132.9,2969.291Z" transform="translate(-6130.328 -2932.64)" fill="#303c46"/>
        <path id="Path_40880" data-name="Path 40880" d="M6136.324,2968.968c-1.024-.007-1.915.925-1.77,2.555.1,1.163.909,2.064,1.77,1.825C6137.9,2972.91,6138.2,2968.979,6136.324,2968.968Z" transform="translate(-6133.625 -2932.64)" fill="#779ab6"/>
        <path id="Path_40881" data-name="Path 40881" d="M6139.827,2839.594c-.477.442-.838,1.46,0,1.533a3.479,3.479,0,0,0,2.525-.767c.281-.474.153-38.737.153-38.737h-2.275s1.806,37.386,1.419,37.569S6140.536,2838.937,6139.827,2839.594Z" transform="translate(-6137.372 -2801.624)" fill="#a3c2db"/>
      </g>
      <g id="Group_17609" data-name="Group 17609" transform="translate(22.101 7.853)">
        <path id="Path_40882" data-name="Path 40882" d="M6097.465,2969.291l.132-.323h-.914c-1.024-.007-1.915.925-1.77,2.555a1.89,1.89,0,0,0,1.391,1.856l-.013.008h1.061v-.507C6098.1,2971.962,6098.225,2970.052,6097.465,2969.291Z" transform="translate(-6094.897 -2932.64)" fill="#303c46"/>
        <path id="Path_40883" data-name="Path 40883" d="M6100.894,2968.968c-1.024-.007-1.915.925-1.77,2.555.1,1.163.908,2.064,1.77,1.825C6102.471,2972.91,6102.767,2968.979,6100.894,2968.968Z" transform="translate(-6098.194 -2932.64)" fill="#779ab6"/>
        <path id="Path_40884" data-name="Path 40884" d="M6104.4,2839.594c-.477.442-.837,1.46,0,1.533a3.479,3.479,0,0,0,2.525-.767c.282-.474.153-38.737.153-38.737H6104.8s1.806,37.386,1.419,37.569S6105.1,2838.937,6104.4,2839.594Z" transform="translate(-6101.941 -2801.624)" fill="#a3c2db"/>
      </g>
      <path id="Path_40885" data-name="Path 40885" d="M6022.133,2765.455c-.665-.074-27.645.961-28.828,2.4l4.4,5.448s29.75-.383,30.508-.624,4.453-6.608,4.453-6.608S6022.8,2765.529,6022.133,2765.455Zm-3.216,5.766c-.48.222-19.181.961-19.625.37s-1.7-2.661-.886-2.809,22.116-1.552,22.116-1.552C6021.326,2767.9,6019.4,2771,6018.917,2771.22Z" transform="translate(-5993.258 -2765.451)" fill="#a3c2db"/>
      <path id="Path_40886" data-name="Path 40886" d="M6011.5,2889.011c-.389.68,1.2,3.262,1.415,3.449s29.283.316,29.493.011,1.536-2.747,1.05-3.164S6011.5,2889.011,6011.5,2889.011Z" transform="translate(-6007.456 -2862.175)" fill="#c3dcf0"/>
      <path id="Path_40887" data-name="Path 40887" d="M6032.5,2768.106c-.328-.443-28.3,1.865-29.575,1.841-3.081-.056-9.343-.487-9.786-.056s2.359,5.656,3.1,6.1,31.354.652,32.6.32S6032.824,2768.549,6032.5,2768.106Zm-5.886,6.366c-.5.391-19.143.245-19.731,0s-1.158-3.045-.644-3.456c.948-.757,22.542-1.591,22.83-.815S6027.114,2774.082,6026.61,2774.472Z" transform="translate(-5993.087 -2767.485)" fill="#c3dcf0"/>
    </g>
    <g id="doctor" transform="translate(5755.532 2538.038)">
      <path id="Path_40888" data-name="Path 40888" d="M6159.689,2705.309a62.808,62.808,0,0,1-3.447,10.446c-.177.259-2.4-.158-3.461.717a9.021,9.021,0,0,0-2,3.023c-.043.664,1.778-.613,2.172-.751s2.749-.751,2.627-.264-1.8.731-1.478,1.6c.049.13.556-.05,1.148-.157a4.98,4.98,0,0,0,1.148-.17,3.667,3.667,0,0,0,1.434-2.505c-.058-.405,6.061-7.783,5.744-9.032S6159.689,2705.309,6159.689,2705.309Z" transform="translate(-6150.779 -2674.741)" fill="#e5b48f"/>
      <path id="Path_40889" data-name="Path 40889" d="M6181.776,2634.725c-7.631,1.011-18.457,25.063-18.457,25.063l6.09,3.384s4.36-10.173,7.2-15.522c1.061-2-2.115,9.237-5.118,15.335-1.62,3.29-5.83,13.463-4.991,14.716,4.25,6.347,22.771,6.347,22.771,3.163,0-4.653-1.749-34.739-2.147-38.339S6181.776,2634.725,6181.776,2634.725Z" transform="translate(-6160.597 -2619.513)" fill="#f5f5f0"/>
      <g id="Group_17610" data-name="Group 17610" transform="translate(10.352 61.236)">
        <path id="Path_40890" data-name="Path 40890" d="M6201.828,2844.795c-.764,5.779-2.79,25.451-3.068,28.168-1.4,1.977,2.672-.4,2.715-.577,1.99-8.07,6.784-13.676,7.313-17.183.374-2.474-.793-6.791-2.652-7.788C6204.075,2846.31,6201.828,2844.795,6201.828,2844.795Z" transform="translate(-6198.468 -2844.795)" fill="#e5b48f"/>
      </g>
      <g id="Group_17613" data-name="Group 17613" transform="translate(2.862 58.876)">
        <path id="Path_40891" data-name="Path 40891" d="M6254.295,2836.282c.718,4.009,3.211,3.565,6.43,6.712,4.083,3.992,10.292,9.991,14.347,15.684.151,2.416,1.966-1.736,1.858-1.88-2.02-2.687-5.7-14.4-9.482-18.63-1.758-1.963-7.284-3.188-8.953-3.99C6256.043,2833,6254.295,2836.282,6254.295,2836.282Z" transform="translate(-6234.686 -2833.922)" fill="#e5b48f"/>
        <g id="Group_17611" data-name="Group 17611" transform="translate(0 29.741)">
          <path id="Path_40892" data-name="Path 40892" d="M6163.965,2975.665a50.667,50.667,0,0,0,6.082.113c.344-.006,1.313-.56,1.649-.567s.029.531.343.521a12.017,12.017,0,0,0,3.512-.338,9.457,9.457,0,0,0-1.089-4.258,5.252,5.252,0,0,1-2.634-.21,26.855,26.855,0,0,1-3.391,2.675C6167.4,2974.138,6164.185,2974.432,6163.965,2975.665Z" transform="translate(-6163.965 -2970.925)" fill="#263e5f"/>
        </g>
        <g id="Group_17612" data-name="Group 17612" transform="translate(38.747 22.876)">
          <path id="Path_40893" data-name="Path 40893" d="M6342.655,2950.248a56.684,56.684,0,0,0,4.354-5.01c.263-.325.22-1.068.466-1.38.118-.149.535.126.646-.018a10.308,10.308,0,0,0,1.789-2.629,9.471,9.471,0,0,0-3.959-1.91c-.322.661-1.65,1.956-1.858,1.88a26.99,26.99,0,0,1-.138,4.317C6343.7,2946.634,6341.853,2949.286,6342.655,2950.248Z" transform="translate(-6342.455 -2939.301)" fill="#263e5f"/>
        </g>
      </g>
      <path id="Path_40894" data-name="Path 40894" d="M6242.212,2573.685c-.32-.458-.932-.646-1.238-1.223a4.23,4.23,0,0,1-.443-2.076c.1-3.925,3.344-5.654,6.443-4.289a12.846,12.846,0,0,0,2.4.99c4.519.989,2.385,3.066,3.163,4.109.2.262.471.453.684.7,1.269,1.471-.167,4.116-2.758,3.623.217.041-.489,1.805-.59,1.955-.43.639-1.1.69-1.847.736C6244.45,2578.429,6244.318,2576.316,6242.212,2573.685Z" transform="translate(-6221.046 -2565.635)" fill="#2a2f58"/>
      <path id="Path_40895" data-name="Path 40895" d="M6227.33,2740.286c-.281-1.369-2.846-1.207-2.815-3.471.066-4.858,3.675-12.46,2.537-16.647s-6.113-7.946-6.013-9.437c.162-2.4-9.476.688-11.133,2.673-4.815,5.767-5.859,18.785-5.77,29.084C6204.154,2744.543,6228.031,2743.708,6227.33,2740.286Z" transform="translate(-6192.548 -2678.21)" fill="#263e5f"/>
      <path id="Path_40896" data-name="Path 40896" d="M6239.671,2632.969a7.327,7.327,0,0,1,2.785,3.316c.3.754-2.041,8.034-.622,14.343.611,2.717-11.38,2.146-11.366,1.706.144-4.5-.222-10.731,0-12.967.144-1.448,2.947-5.781,3.822-6.892C6235.1,2631.447,6236.949,2631.744,6239.671,2632.969Z" transform="translate(-6213.111 -2617.35)" fill="#5478a3"/>
      <path id="Path_40897" data-name="Path 40897" d="M6251.789,2598.387a35.655,35.655,0,0,0,1.455,7.642c.569,1.064-2.512,2.077-3.8,1.735s-1.671-1.026-1.709-1.482,1.085-3.935,1.358-7.139C6249.306,2596.589,6251.727,2597.411,6251.789,2598.387Z" transform="translate(-6226.684 -2590.536)" fill="#de9e87"/>
      <path id="Path_40898" data-name="Path 40898" d="M6241.688,2578.1c-2.143,3.524-1.2,8.866.92,9.365,1.228.289,4.54-1.647,4.342-4.439a1.254,1.254,0,0,0,1.159-1.646c-.472-.917-1.216.014-1.216.014a8.072,8.072,0,0,1-.227-2.087C6242.37,2580.09,6241.688,2578.1,6241.688,2578.1Z" transform="translate(-6221.003 -2575.394)" fill="#e5b48f"/>
      <path id="Path_40899" data-name="Path 40899" d="M6318.8,2705.393c1.6.689,3.219,11.458,3.855,11.753a11.219,11.219,0,0,1,2.92,1.536,4.6,4.6,0,0,1,1.415,3.383c.055.737-1.9-1.227-2.309-1.447a4.37,4.37,0,0,0-2.289-.586c-.874.26-.538,1.9-1.485,2.124-.33.078-.095-.418-.087-.991.009-.716-.353-.915-.293-1.463a10.33,10.33,0,0,1,.282-1.4c.06-.451-5.969-8.516-5.628-9.907S6317.561,2704.86,6318.8,2705.393Z" transform="translate(-6279.482 -2674.735)" fill="#e5b48f"/>
      <path id="Path_40900" data-name="Path 40900" d="M6245.949,2637c8.247,1.8,18.348,24.939,18.348,24.939l-6.091,3.384s-8.232-19.213-9.429-18.715c-.454.189-1.8,3.521-.2,8.011.555,1.559,4.551,4.418,7.553,10.517,1.62,3.29,7.292,12.473,5.842,12.887-4.774,1.364-21.063,9.894-22.923,5.629s.922-34.135,1.32-37.735S6245.949,2637,6245.949,2637Z" transform="translate(-6219.389 -2621.288)" fill="#f5f5f0"/>
      <g id="Group_17614" data-name="Group 17614" transform="translate(20.814 16.798)">
        <path id="Path_40901" data-name="Path 40901" d="M6246.842,2656.72a.232.232,0,0,1-.176-.277c.083-.373.833-3.661,1.479-4.379a11.533,11.533,0,0,1,2.023-1.459,10.177,10.177,0,0,0,.911-.608,6.037,6.037,0,0,0-.185-1.168c-.229-1.078-.334-1.65-.033-1.85.244-.163.745-.049,1.608.168a6.258,6.258,0,0,0,1.206.235,30.971,30.971,0,0,0,.778-4.783.232.232,0,0,1,.461.052c-.36,3.2-.684,4.92-.961,5.111-.24.165-.738.051-1.6-.164a6.564,6.564,0,0,0-1.212-.237,6.341,6.341,0,0,0,.2,1.374c.2.959.266,1.341.106,1.539a5.652,5.652,0,0,1-1.041.726,11.438,11.438,0,0,0-1.925,1.376c-.478.531-1.151,3.19-1.371,4.17a.231.231,0,0,1-.226.181A.228.228,0,0,1,6246.842,2656.72Zm4.234-6.708h0Z" transform="translate(-6246.661 -2642.392)" fill="#a3c2db"/>
      </g>
      <g id="Group_17615" data-name="Group 17615" transform="translate(14.733 17.199)">
        <path id="Path_40902" data-name="Path 40902" d="M6220.988,2657.724H6221a.231.231,0,0,0,.218-.245c-.054-.928-.233-3.973-.291-4.2a5.9,5.9,0,0,0-.52-.929,14.818,14.818,0,0,1-1.3-2.429,9.347,9.347,0,0,1,1.024-1.1c.878-.869,1.266-1.277,1.292-1.543a.324.324,0,0,0-.11-.286c-.183-.153-.483-.07-.863.037-.114.032-.28.078-.4.1a16.783,16.783,0,0,1,1.34-2.539.232.232,0,0,0-.4-.236c-1.437,2.432-1.437,2.785-1.437,2.9a.329.329,0,0,0,.129.269c.194.147.5.062.89-.047.077-.021.18-.05.273-.072-.219.271-.7.747-1.043,1.087-.75.743-1.086,1.092-1.149,1.315-.082.288.208.886,1.349,2.785.208.345.443.736.472.813.037.184.188,2.619.274,4.107A.231.231,0,0,0,6220.988,2657.724Z" transform="translate(-6218.648 -2644.234)" fill="#a3c2db"/>
      </g>
      <g id="Group_17616" data-name="Group 17616" transform="translate(24.621 39.753)">
        <path id="Path_40903" data-name="Path 40903" d="M6265.017,2752.833c-.123-.023-.273-.1-.508-.776-.058-.167-.556-1.639-.168-2.086a34.018,34.018,0,0,1,6.733-2.528h0a3.077,3.077,0,0,1,1.575,1.666,1.051,1.051,0,0,1,.121.814c-.165.337-2,2.635-2.7,2.848a13.959,13.959,0,0,1-2.411.122C6266.4,2752.892,6265.119,2752.852,6265.017,2752.833Zm-.324-2.559a4.082,4.082,0,0,0,.46,2.108,38.107,38.107,0,0,0,4.784-.056,11.61,11.61,0,0,0,2.411-2.593,2.734,2.734,0,0,0-1.373-1.836A47.811,47.811,0,0,0,6264.692,2750.274Zm.485,2.137Zm5.766-4.524h0Zm.063-.223h0Z" transform="translate(-6264.194 -2747.438)" fill="#a3c2db"/>
      </g>
      <g id="Group_17617" data-name="Group 17617" transform="translate(25.746 43.149)">
        <path id="Path_40904" data-name="Path 40904" d="M6269.39,2765.959a.232.232,0,1,1,.441-.143,21.918,21.918,0,0,0,1.8,4.454c.794-.181,6.131-2.086,6.554-2.57a16.858,16.858,0,0,0-1.315-3.453c-.169-.377-.324-.722-.441-1a.232.232,0,1,1,.427-.182c.117.273.27.615.438.99.865,1.926,1.466,3.325,1.334,3.788-.218.763-6.916,2.884-6.979,2.894a.329.329,0,0,1-.056.006C6271.366,2770.745,6270.83,2770.423,6269.39,2765.959Zm8.787,1.76h0Z" transform="translate(-6269.378 -2762.927)" fill="#a3c2db"/>
      </g>
    </g>
  </g>
</svg>
