<svg xmlns="http://www.w3.org/2000/svg" width="115.897" height="100.624" viewBox="0 0 115.897 100.624">
  <g id="Group_17578" data-name="Group 17578" transform="translate(-2301.431 -1670.778)">
    <g id="Group_17574" data-name="Group 17574" transform="translate(2301.431 1670.778)">
      <g id="Group_17541" data-name="Group 17541">
        <rect id="Rectangle_4744" data-name="Rectangle 4744" width="50.475" height="102.726" rx="13.651" transform="translate(109.312 25.188) rotate(90)" fill="#f2f2f2"/>
        <rect id="Rectangle_4745" data-name="Rectangle 4745" width="100.256" height="49.324" rx="9.797" transform="translate(7.82 25.805)" fill="#fff"/>
        <g id="Group_17539" data-name="Group 17539" transform="translate(11.031 32.511)">
          <rect id="Rectangle_4746" data-name="Rectangle 4746" width="4.939" height="2.609" fill="#ccc"/>
          <rect id="Rectangle_4747" data-name="Rectangle 4747" width="5.186" height="3.653" transform="translate(0 3.131)" fill="#ccc"/>
          <rect id="Rectangle_4748" data-name="Rectangle 4748" width="6.791" height="3.653" transform="translate(0 7.306)" fill="#ccc"/>
          <rect id="Rectangle_4749" data-name="Rectangle 4749" width="8.89" height="3.653" transform="translate(0 11.481)" fill="#ccc"/>
          <rect id="Rectangle_4750" data-name="Rectangle 4750" width="11.359" height="3.653" transform="translate(0 15.656)" fill="#ccc"/>
          <rect id="Rectangle_4751" data-name="Rectangle 4751" width="6.76" height="3.653" transform="translate(0 19.831)" fill="#ccc"/>
          <rect id="Rectangle_4752" data-name="Rectangle 4752" width="5.186" height="3.653" transform="translate(5.803 3.131)" fill="#ccc"/>
          <rect id="Rectangle_4753" data-name="Rectangle 4753" width="5.186" height="3.653" transform="translate(7.408 7.306)" fill="#ccc"/>
          <rect id="Rectangle_4754" data-name="Rectangle 4754" width="5.186" height="3.653" transform="translate(9.507 11.481)" fill="#ccc"/>
          <rect id="Rectangle_4755" data-name="Rectangle 4755" width="5.186" height="3.653" transform="translate(7.377 19.831)" fill="#ccc"/>
          <rect id="Rectangle_4756" data-name="Rectangle 4756" width="5.186" height="3.653" transform="translate(13.18 19.831)" fill="#ccc"/>
          <rect id="Rectangle_4757" data-name="Rectangle 4757" width="5.186" height="3.653" transform="translate(18.983 19.831)" fill="#ccc"/>
          <rect id="Rectangle_4758" data-name="Rectangle 4758" width="34.201" height="3.653" transform="translate(24.786 19.831)" fill="#ccc"/>
          <rect id="Rectangle_4759" data-name="Rectangle 4759" width="5.186" height="3.653" transform="translate(59.604 19.831)" fill="#ccc"/>
          <rect id="Rectangle_4760" data-name="Rectangle 4760" width="5.186" height="3.653" transform="translate(65.407 19.831)" fill="#ccc"/>
          <rect id="Rectangle_4761" data-name="Rectangle 4761" width="5.186" height="3.653" transform="translate(71.211 19.831)" fill="#ccc"/>
          <rect id="Rectangle_4762" data-name="Rectangle 4762" width="5.186" height="3.653" transform="translate(77.014 19.831)" fill="#ccc"/>
          <rect id="Rectangle_4763" data-name="Rectangle 4763" width="5.186" height="3.653" transform="translate(82.817 19.831)" fill="#ccc"/>
          <rect id="Rectangle_4764" data-name="Rectangle 4764" width="5.186" height="7.828" transform="translate(88.62 15.656)" fill="#ccc"/>
          <rect id="Rectangle_4765" data-name="Rectangle 4765" width="5.186" height="3.653" transform="translate(11.976 15.656)" fill="#ccc"/>
          <rect id="Rectangle_4766" data-name="Rectangle 4766" width="5.186" height="3.653" transform="translate(17.78 15.656)" fill="#ccc"/>
          <rect id="Rectangle_4767" data-name="Rectangle 4767" width="5.186" height="3.653" transform="translate(23.583 15.656)" fill="#ccc"/>
          <rect id="Rectangle_4768" data-name="Rectangle 4768" width="5.186" height="3.653" transform="translate(29.386 15.656)" fill="#ccc"/>
          <rect id="Rectangle_4769" data-name="Rectangle 4769" width="5.186" height="3.653" transform="translate(35.189 15.656)" fill="#ccc"/>
          <rect id="Rectangle_4770" data-name="Rectangle 4770" width="5.186" height="3.653" transform="translate(40.992 15.656)" fill="#ccc"/>
          <rect id="Rectangle_4771" data-name="Rectangle 4771" width="5.186" height="3.653" transform="translate(46.795 15.656)" fill="#ccc"/>
          <rect id="Rectangle_4772" data-name="Rectangle 4772" width="5.186" height="3.653" transform="translate(52.598 15.656)" fill="#ccc"/>
          <rect id="Rectangle_4773" data-name="Rectangle 4773" width="5.186" height="3.653" transform="translate(58.401 15.656)" fill="#ccc"/>
          <rect id="Rectangle_4774" data-name="Rectangle 4774" width="6.42" height="3.653" transform="translate(64.204 15.656)" fill="#ccc"/>
          <rect id="Rectangle_4775" data-name="Rectangle 4775" width="5.186" height="3.653" transform="translate(71.241 15.656)" fill="#ccc"/>
          <rect id="Rectangle_4776" data-name="Rectangle 4776" width="5.186" height="3.653" transform="translate(77.044 15.656)" fill="#ccc"/>
          <rect id="Rectangle_4777" data-name="Rectangle 4777" width="5.186" height="3.653" transform="translate(82.847 15.656)" fill="#ccc"/>
          <rect id="Rectangle_4778" data-name="Rectangle 4778" width="5.186" height="3.653" transform="translate(15.31 11.481)" fill="#ccc"/>
          <rect id="Rectangle_4779" data-name="Rectangle 4779" width="5.186" height="3.653" transform="translate(21.113 11.481)" fill="#ccc"/>
          <rect id="Rectangle_4780" data-name="Rectangle 4780" width="5.186" height="3.653" transform="translate(26.916 11.481)" fill="#ccc"/>
          <rect id="Rectangle_4781" data-name="Rectangle 4781" width="5.186" height="3.653" transform="translate(32.719 11.481)" fill="#ccc"/>
          <rect id="Rectangle_4782" data-name="Rectangle 4782" width="5.186" height="3.653" transform="translate(38.522 11.481)" fill="#ccc"/>
          <rect id="Rectangle_4783" data-name="Rectangle 4783" width="5.186" height="3.653" transform="translate(44.325 11.481)" fill="#ccc"/>
          <rect id="Rectangle_4784" data-name="Rectangle 4784" width="5.186" height="3.653" transform="translate(50.128 11.481)" fill="#ccc"/>
          <rect id="Rectangle_4785" data-name="Rectangle 4785" width="5.186" height="3.653" transform="translate(55.931 11.481)" fill="#ccc"/>
          <rect id="Rectangle_4786" data-name="Rectangle 4786" width="5.186" height="3.653" transform="translate(61.734 11.481)" fill="#ccc"/>
          <rect id="Rectangle_4787" data-name="Rectangle 4787" width="8.89" height="3.653" transform="translate(67.537 11.481)" fill="#ccc"/>
          <rect id="Rectangle_4788" data-name="Rectangle 4788" width="5.186" height="3.653" transform="translate(77.044 11.481)" fill="#ccc"/>
          <rect id="Rectangle_4789" data-name="Rectangle 4789" width="5.186" height="3.653" transform="translate(82.847 11.481)" fill="#ccc"/>
          <rect id="Rectangle_4790" data-name="Rectangle 4790" width="5.186" height="3.653" transform="translate(13.211 7.306)" fill="#ccc"/>
          <rect id="Rectangle_4791" data-name="Rectangle 4791" width="5.186" height="3.653" transform="translate(19.014 7.306)" fill="#ccc"/>
          <rect id="Rectangle_4792" data-name="Rectangle 4792" width="5.186" height="3.653" transform="translate(24.817 7.306)" fill="#ccc"/>
          <rect id="Rectangle_4793" data-name="Rectangle 4793" width="5.186" height="3.653" transform="translate(30.62 7.306)" fill="#ccc"/>
          <rect id="Rectangle_4794" data-name="Rectangle 4794" width="5.186" height="3.653" transform="translate(36.423 7.306)" fill="#ccc"/>
          <rect id="Rectangle_4795" data-name="Rectangle 4795" width="5.186" height="3.653" transform="translate(42.226 7.306)" fill="#ccc"/>
          <rect id="Rectangle_4796" data-name="Rectangle 4796" width="5.186" height="3.653" transform="translate(48.029 7.306)" fill="#ccc"/>
          <rect id="Rectangle_4797" data-name="Rectangle 4797" width="5.186" height="3.653" transform="translate(53.832 7.306)" fill="#ccc"/>
          <rect id="Rectangle_4798" data-name="Rectangle 4798" width="5.186" height="3.653" transform="translate(59.635 7.306)" fill="#ccc"/>
          <rect id="Rectangle_4799" data-name="Rectangle 4799" width="5.186" height="3.653" transform="translate(65.438 7.306)" fill="#ccc"/>
          <rect id="Rectangle_4800" data-name="Rectangle 4800" width="5.186" height="3.653" transform="translate(71.241 7.306)" fill="#ccc"/>
          <rect id="Rectangle_4801" data-name="Rectangle 4801" width="5.186" height="3.653" transform="translate(77.044 7.306)" fill="#ccc"/>
          <rect id="Rectangle_4802" data-name="Rectangle 4802" width="5.186" height="3.653" transform="translate(82.847 7.306)" fill="#ccc"/>
          <rect id="Rectangle_4803" data-name="Rectangle 4803" width="5.186" height="7.828" transform="translate(88.65 7.306)" fill="#ccc"/>
          <rect id="Rectangle_4804" data-name="Rectangle 4804" width="5.186" height="3.653" transform="translate(11.606 3.131)" fill="#ccc"/>
          <rect id="Rectangle_4805" data-name="Rectangle 4805" width="5.186" height="3.653" transform="translate(17.409 3.131)" fill="#ccc"/>
          <rect id="Rectangle_4806" data-name="Rectangle 4806" width="5.186" height="3.653" transform="translate(23.212 3.131)" fill="#ccc"/>
          <rect id="Rectangle_4807" data-name="Rectangle 4807" width="5.186" height="3.653" transform="translate(29.015 3.131)" fill="#ccc"/>
          <rect id="Rectangle_4808" data-name="Rectangle 4808" width="5.186" height="3.653" transform="translate(34.818 3.131)" fill="#ccc"/>
          <rect id="Rectangle_4809" data-name="Rectangle 4809" width="5.186" height="3.653" transform="translate(40.621 3.131)" fill="#ccc"/>
          <rect id="Rectangle_4810" data-name="Rectangle 4810" width="5.186" height="3.653" transform="translate(46.424 3.131)" fill="#ccc"/>
          <rect id="Rectangle_4811" data-name="Rectangle 4811" width="5.186" height="3.653" transform="translate(52.227 3.131)" fill="#ccc"/>
          <rect id="Rectangle_4812" data-name="Rectangle 4812" width="5.186" height="3.653" transform="translate(58.03 3.131)" fill="#ccc"/>
          <rect id="Rectangle_4813" data-name="Rectangle 4813" width="5.186" height="3.653" transform="translate(63.833 3.131)" fill="#ccc"/>
          <rect id="Rectangle_4814" data-name="Rectangle 4814" width="6.791" height="3.653" transform="translate(69.636 3.131)" fill="#ccc"/>
          <g id="Group_17538" data-name="Group 17538" transform="translate(77.044 3.131)">
            <rect id="Rectangle_4815" data-name="Rectangle 4815" width="5.186" height="3.653" fill="#ccc"/>
            <rect id="Rectangle_4816" data-name="Rectangle 4816" width="5.186" height="3.653" transform="translate(5.803)" fill="#ccc"/>
            <rect id="Rectangle_4817" data-name="Rectangle 4817" width="5.186" height="3.653" transform="translate(11.606)" fill="#ccc"/>
          </g>
          <rect id="Rectangle_4818" data-name="Rectangle 4818" width="4.939" height="2.609" transform="translate(5.556)" fill="#ccc"/>
          <rect id="Rectangle_4819" data-name="Rectangle 4819" width="4.939" height="2.609" transform="translate(11.112)" fill="#ccc"/>
          <rect id="Rectangle_4820" data-name="Rectangle 4820" width="4.939" height="2.609" transform="translate(16.668)" fill="#ccc"/>
          <rect id="Rectangle_4821" data-name="Rectangle 4821" width="4.939" height="2.609" transform="translate(22.224)" fill="#ccc"/>
          <rect id="Rectangle_4822" data-name="Rectangle 4822" width="4.939" height="2.609" transform="translate(27.78)" fill="#ccc"/>
          <rect id="Rectangle_4823" data-name="Rectangle 4823" width="4.939" height="2.609" transform="translate(33.337)" fill="#ccc"/>
          <rect id="Rectangle_4824" data-name="Rectangle 4824" width="4.939" height="2.609" transform="translate(38.893)" fill="#ccc"/>
          <rect id="Rectangle_4825" data-name="Rectangle 4825" width="4.939" height="2.609" transform="translate(44.449)" fill="#ccc"/>
          <rect id="Rectangle_4826" data-name="Rectangle 4826" width="4.939" height="2.609" transform="translate(50.005)" fill="#ccc"/>
          <rect id="Rectangle_4827" data-name="Rectangle 4827" width="4.939" height="2.609" transform="translate(55.561)" fill="#ccc"/>
          <rect id="Rectangle_4828" data-name="Rectangle 4828" width="4.939" height="2.609" transform="translate(61.117)" fill="#ccc"/>
          <rect id="Rectangle_4829" data-name="Rectangle 4829" width="4.939" height="2.609" transform="translate(66.673)" fill="#ccc"/>
          <rect id="Rectangle_4830" data-name="Rectangle 4830" width="4.939" height="2.609" transform="translate(72.229)" fill="#ccc"/>
          <rect id="Rectangle_4831" data-name="Rectangle 4831" width="4.939" height="2.609" transform="translate(77.785)" fill="#ccc"/>
          <rect id="Rectangle_4832" data-name="Rectangle 4832" width="4.939" height="2.609" transform="translate(83.341)" fill="#ccc"/>
          <rect id="Rectangle_4833" data-name="Rectangle 4833" width="4.939" height="2.609" transform="translate(88.897)" fill="#ccc"/>
        </g>
        <rect id="Rectangle_4834" data-name="Rectangle 4834" width="24.827" height="13.577" rx="2.229" transform="translate(45.535 58.578)" fill="#e6e6e6"/>
        <rect id="Rectangle_4835" data-name="Rectangle 4835" width="10.433" height="1.983" rx="0.992" transform="translate(94.434 29.093)" fill="#ccc"/>
        <g id="Group_17540" data-name="Group 17540" transform="translate(14.071 25.188)">
          <rect id="Rectangle_4836" data-name="Rectangle 4836" width="5.638" height="2.346" fill="#ccc"/>
          <rect id="Rectangle_4837" data-name="Rectangle 4837" width="5.638" height="2.346" transform="translate(82.117)" fill="#ccc"/>
        </g>
        <path id="Path_40698" data-name="Path 40698" d="M2417.153,1674.727c-1.065,3.689-1.441-.441-1.441-.441l-2.517-1.074.246-.661H2305.068l.246.661-2.517,1.074s-.187,2.053-.67,1.97l-.594-2.061a2.545,2.545,0,0,1,1.42-3.059,5.039,5.039,0,0,1,1.456-.359H2414.1S2418.215,1671.039,2417.153,1674.727Z" transform="translate(-2301.431 -1670.778)" fill="#fff"/>
        <path id="Path_40699" data-name="Path 40699" d="M2414.865,1676.567H2304.856c-1.745,0-3.059,1.046-2.732,2.176l5.7,19.748a2.729,2.729,0,0,0,2.732,1.491h98.614a2.729,2.729,0,0,0,2.732-1.491l5.7-19.748C2417.924,1677.614,2416.61,1676.567,2414.865,1676.567Z" transform="translate(-2301.877 -1674.794)" fill="#ccc"/>
        <path id="Path_40700" data-name="Path 40700" d="M2421,1683.994l-4.782,16.567-.917,3.179a.123.123,0,0,1-.124.069h-98.613a.127.127,0,0,1-.126-.069l-.917-3.179-4.778-16.567c0-.015-.012-.037.025-.069a.157.157,0,0,1,.1-.028h110.009a.159.159,0,0,1,.1.028A.06.06,0,0,1,2421,1683.994Z" transform="translate(-2307.891 -1679.879)" fill="#e6e6e6"/>
      </g>
      <g id="Group_17573" data-name="Group 17573" transform="translate(14.761 4.92)">
        <g id="Group_17542" data-name="Group 17542" transform="translate(68.5 8.01)">
          <path id="Path_40701" data-name="Path 40701" d="M2606.488,1723.667l5.488-10.669-.746,10.669Z" transform="translate(-2596.322 -1712.997)" fill="#fbc02d"/>
          <path id="Path_40702" data-name="Path 40702" d="M2597.99,1730.044l4.5-7.854.237,7.854Z" transform="translate(-2590.427 -1719.375)" fill="#f8786b"/>
          <path id="Path_40703" data-name="Path 40703" d="M2586.7,1738.442l3.947-4.147,1.883,4.147Z" transform="translate(-2582.592 -1727.772)" fill="#3497da"/>
          <path id="Path_40704" data-name="Path 40704" d="M2579.012,1734.732l3.678-5.785,1.063,5.785Z" transform="translate(-2577.262 -1724.062)" fill="#fbc02d"/>
          <path id="Path_40705" data-name="Path 40705" d="M2573.3,1739.413l3.16-3.718,1.582,3.718Z" transform="translate(-2573.296 -1728.744)" fill="#16a086"/>
        </g>
        <g id="Group_17544" data-name="Group 17544" transform="translate(55.799 3.52)">
          <path id="Path_40706" data-name="Path 40706" d="M2537.407,1727.386h-1.772l.185-1.872h1.8Z" transform="translate(-2534.468 -1717.191)" fill="#16a086"/>
          <path id="Path_40707" data-name="Path 40707" d="M2545.33,1722.71h-1.772l.462-3.936h1.825Z" transform="translate(-2539.964 -1712.515)" fill="#3497da"/>
          <path id="Path_40708" data-name="Path 40708" d="M2553.253,1720.251h-1.772l.682-5.021H2554Z" transform="translate(-2545.461 -1710.056)" fill="#f8786b"/>
          <path id="Path_40709" data-name="Path 40709" d="M2561.176,1717.107H2559.4l.988-6.409h1.858Z" transform="translate(-2550.958 -1706.912)" fill="#fbc02d"/>
          <g id="Group_17543" data-name="Group 17543" transform="translate(1.309 0.984)">
            <path id="Path_40710" data-name="Path 40710" d="M2536.48,1707.631l-.381-.474,3.817-2.769,2.6-.332,3.826-2.508.33.534-3.974,2.592-2.571.327Z" transform="translate(-2536.1 -1701.549)" fill="#32526e"/>
          </g>
          <path id="Path_40711" data-name="Path 40711" d="M2542.35,1735.855h-9.608l.091-.97h9.679Z" transform="translate(-2532.461 -1723.692)" fill="#b3b3b3"/>
          <path id="Path_40712" data-name="Path 40712" d="M2541.011,1699.478h-4.9l.107-1.142h4.937Z" transform="translate(-2534.8 -1698.337)" fill="#f8786b"/>
          <path id="Path_40713" data-name="Path 40713" d="M2541.774,1740.855h-9.5l.089-.947h9.566Z" transform="translate(-2532.139 -1727.176)" fill="#b3b3b3"/>
          <path id="Path_40714" data-name="Path 40714" d="M2541.212,1745.738h-9.387l.087-.926h9.455Z" transform="translate(-2531.825 -1730.579)" fill="#b3b3b3"/>
        </g>
        <g id="Group_17572" data-name="Group 17572">
          <g id="Group_17547" data-name="Group 17547" transform="translate(34.341 0.703)">
            <g id="Group_17545" data-name="Group 17545" transform="translate(3.967 11.845)">
              <path id="Path_40715" data-name="Path 40715" d="M2474.764,1729.063l-.052-1.246h2.259l.031,1.246Z" transform="translate(-2474.711 -1727.816)" fill="#16a086"/>
              <path id="Path_40716" data-name="Path 40716" d="M2474.994,1734.584l-.051-1.215h5.2l0,1.215Z" transform="translate(-2474.872 -1731.669)" fill="#3497da"/>
              <path id="Path_40717" data-name="Path 40717" d="M2475.22,1739.968l-.05-1.185h5.771l0,1.185Z" transform="translate(-2475.03 -1735.424)" fill="#f8786b"/>
              <path id="Path_40718" data-name="Path 40718" d="M2475.439,1745.217l-.048-1.156h7.2l-.017,1.156Z" transform="translate(-2475.183 -1739.086)" fill="#fbc02d"/>
            </g>
            <g id="Group_17546" data-name="Group 17546" transform="translate(0 0.771)">
              <path id="Path_40719" data-name="Path 40719" d="M2466.07,1701.828l-1.692,3.623a4.479,4.479,0,0,1-1.836-1.491,4.04,4.04,0,0,1-.533-3.782Z" transform="translate(-2461.759 -1697.569)" fill="#f8786b"/>
              <path id="Path_40720" data-name="Path 40720" d="M2465.51,1692.007l1.127,4.153-4.061-1.65a3.943,3.943,0,0,1,1.615-1.96A4.235,4.235,0,0,1,2465.51,1692.007Z" transform="translate(-2462.326 -1691.9)" fill="#d4a477"/>
              <path id="Path_40721" data-name="Path 40721" d="M2476.921,1693.718a4.4,4.4,0,0,1,.282.513l-3.921,1.686-1.127-4.153A4.523,4.523,0,0,1,2476.921,1693.718Z" transform="translate(-2468.971 -1691.658)" fill="#16a086"/>
              <path id="Path_40722" data-name="Path 40722" d="M2479.757,1700.061a4.018,4.018,0,0,1,.334,2.319l-4.255-.633Z" transform="translate(-2471.525 -1697.488)" fill="#ff856d"/>
              <path id="Path_40723" data-name="Path 40723" d="M2480.091,1706.2a3.9,3.9,0,0,1-1.142,2.2l-3.113-2.838Z" transform="translate(-2471.525 -1701.307)" fill="#32526e"/>
              <path id="Path_40724" data-name="Path 40724" d="M2475.116,1708.4a4.058,4.058,0,0,1-.786.595,4.433,4.433,0,0,1-4.019.191l1.692-3.623Z" transform="translate(-2467.692 -1701.307)" fill="#fbc02d"/>
            </g>
            <path id="Path_40725" data-name="Path 40725" d="M2493.14,1689.139l5.043.073-.048.953-5.01-.072Z" transform="translate(-2483.52 -1689.139)" fill="#b3b3b3"/>
            <path id="Path_40726" data-name="Path 40726" d="M2493.366,1694.936l4.981.071-.047.93-4.949-.07Z" transform="translate(-2483.676 -1693.161)" fill="#b3b3b3"/>
            <path id="Path_40727" data-name="Path 40727" d="M2493.587,1700.593l4.921.069-.046.908-4.889-.068Z" transform="translate(-2483.829 -1697.085)" fill="#b3b3b3"/>
            <path id="Path_40728" data-name="Path 40728" d="M2493.8,1706.114l4.862.068-.046.886-4.831-.067Z" transform="translate(-2483.979 -1700.916)" fill="#b3b3b3"/>
            <path id="Path_40729" data-name="Path 40729" d="M2494.012,1711.505l4.8.066-.045.865-4.775-.065Z" transform="translate(-2484.124 -1704.656)" fill="#b3b3b3"/>
            <path id="Path_40730" data-name="Path 40730" d="M2494.218,1716.771l4.749.064-.045.846-4.719-.064Z" transform="translate(-2484.266 -1708.309)" fill="#b3b3b3"/>
          </g>
          <g id="Group_17571" data-name="Group 17571">
            <g id="Group_17548" data-name="Group 17548" transform="translate(22.679 2.327)">
              <path id="Path_40731" data-name="Path 40731" d="M2428.985,1725.218h5.586a.966.966,0,0,1,.973.819h0a.76.76,0,0,1-.809.809h-5.519a1.018,1.018,0,0,1-1.005-.809h0A.723.723,0,0,1,2428.985,1725.218Z" transform="translate(-2426.818 -1715.792)" fill="#fbc02d"/>
              <path id="Path_40732" data-name="Path 40732" d="M2427.56,1715.419h5.711a1,1,0,0,1,1,.856h0a.784.784,0,0,1-.826.845h-5.64a1.051,1.051,0,0,1-1.03-.845h0A.747.747,0,0,1,2427.56,1715.419Z" transform="translate(-2425.818 -1708.994)" fill="#ff856d"/>
              <path id="Path_40733" data-name="Path 40733" d="M2426.07,1705.17h5.842a1.029,1.029,0,0,1,1.021.9h0a.809.809,0,0,1-.842.884h-5.768a1.086,1.086,0,0,1-1.057-.884h0A.772.772,0,0,1,2426.07,1705.17Z" transform="translate(-2424.773 -1701.884)" fill="#3497da"/>
              <path id="Path_40734" data-name="Path 40734" d="M2424.51,1694.441h5.979a1.066,1.066,0,0,1,1.047.938h0a.838.838,0,0,1-.86.926h-5.9a1.124,1.124,0,0,1-1.084-.926h0A.8.8,0,0,1,2424.51,1694.441Z" transform="translate(-2423.68 -1694.441)" fill="#74b4a3"/>
              <path id="Path_40735" data-name="Path 40735" d="M2430.151,1695.77a.659.659,0,0,1-.678.757.907.907,0,0,1-.878-.757.659.659,0,0,1,.677-.765A.906.906,0,0,1,2430.151,1695.77Z" transform="translate(-2427.084 -1694.832)" fill="#f2f2f2"/>
              <path id="Path_40736" data-name="Path 40736" d="M2435.2,1706.439a.643.643,0,0,1-.67.723.868.868,0,0,1-.851-.723.642.642,0,0,1,.669-.73A.866.866,0,0,1,2435.2,1706.439Z" transform="translate(-2430.615 -1702.258)" fill="#f2f2f2"/>
              <path id="Path_40737" data-name="Path 40737" d="M2440.453,1716.631a.629.629,0,0,1-.664.691.831.831,0,0,1-.823-.691.628.628,0,0,1,.663-.7A.829.829,0,0,1,2440.453,1716.631Z" transform="translate(-2434.281 -1709.351)" fill="#f2f2f2"/>
              <path id="Path_40738" data-name="Path 40738" d="M2448.541,1726.378a.621.621,0,0,1-.662.661.789.789,0,0,1-.793-.661.62.62,0,0,1,.661-.668A.789.789,0,0,1,2448.541,1726.378Z" transform="translate(-2439.915 -1716.134)" fill="#f2f2f2"/>
            </g>
            <path id="Path_40739" data-name="Path 40739" d="M2389.741,1688.591h-10.183a1.177,1.177,0,0,1-1.083-.869h0a.672.672,0,0,1,.672-.879h10.306a1.075,1.075,0,0,1,1.024.879h0A.724.724,0,0,1,2389.741,1688.591Z" transform="translate(-2369.623 -1686.843)" fill="#ff856d"/>
            <g id="Group_17570" data-name="Group 17570" transform="translate(0 2.327)">
              <g id="Group_17565" data-name="Group 17565" transform="translate(1.937 2.239)">
                <g id="Group_17556" data-name="Group 17556" transform="translate(0.864)">
                  <g id="Group_17549" data-name="Group 17549">
                    <path id="Path_40740" data-name="Path 40740" d="M2362.571,1714.577h-.069l-3.729-12.827h.076Z" transform="translate(-2358.773 -1701.75)" fill="#b3b3b3"/>
                  </g>
                  <g id="Group_17550" data-name="Group 17550" transform="translate(2.01)">
                    <path id="Path_40741" data-name="Path 40741" d="M2368.954,1714.577h-.069l-3.547-12.827h.076Z" transform="translate(-2365.338 -1701.75)" fill="#b3b3b3"/>
                  </g>
                  <g id="Group_17551" data-name="Group 17551" transform="translate(4.021)">
                    <path id="Path_40742" data-name="Path 40742" d="M2375.336,1714.577h-.069l-3.364-12.827h.076Z" transform="translate(-2371.903 -1701.75)" fill="#b3b3b3"/>
                  </g>
                  <g id="Group_17552" data-name="Group 17552" transform="translate(6.032)">
                    <path id="Path_40743" data-name="Path 40743" d="M2381.718,1714.577h-.069l-3.182-12.827h.076Z" transform="translate(-2378.467 -1701.75)" fill="#b3b3b3"/>
                  </g>
                  <g id="Group_17553" data-name="Group 17553" transform="translate(8.042)">
                    <path id="Path_40744" data-name="Path 40744" d="M2388.1,1714.577h-.069l-3-12.827h.076Z" transform="translate(-2385.032 -1701.75)" fill="#b3b3b3"/>
                  </g>
                  <g id="Group_17554" data-name="Group 17554" transform="translate(10.053)">
                    <path id="Path_40745" data-name="Path 40745" d="M2394.482,1714.577h-.069l-2.817-12.827h.076Z" transform="translate(-2391.597 -1701.75)" fill="#b3b3b3"/>
                  </g>
                  <g id="Group_17555" data-name="Group 17555" transform="translate(12.063)">
                    <path id="Path_40746" data-name="Path 40746" d="M2400.865,1714.577h-.069l-2.634-12.827h.076Z" transform="translate(-2398.162 -1701.75)" fill="#b3b3b3"/>
                  </g>
                </g>
                <g id="Group_17564" data-name="Group 17564" transform="translate(0 1.165)">
                  <g id="Group_17557" data-name="Group 17557">
                    <path id="Path_40747" data-name="Path 40747" d="M2370.411,1705.625h-14.436l-.022-.072H2370.4Z" transform="translate(-2355.953 -1705.553)" fill="#b3b3b3"/>
                  </g>
                  <g id="Group_17558" data-name="Group 17558" transform="translate(0.566 1.89)">
                    <path id="Path_40748" data-name="Path 40748" d="M2372.063,1711.794h-14.241l-.021-.07h14.249Z" transform="translate(-2357.8 -1711.724)" fill="#b3b3b3"/>
                  </g>
                  <g id="Group_17559" data-name="Group 17559" transform="translate(1.116 3.729)">
                    <path id="Path_40749" data-name="Path 40749" d="M2373.671,1717.8h-14.052l-.021-.068h14.059Z" transform="translate(-2359.598 -1717.73)" fill="#b3b3b3"/>
                  </g>
                  <g id="Group_17560" data-name="Group 17560" transform="translate(1.652 5.52)">
                    <path id="Path_40750" data-name="Path 40750" d="M2375.236,1723.645h-13.867l-.02-.067h13.875Z" transform="translate(-2361.349 -1723.579)" fill="#b3b3b3"/>
                  </g>
                  <g id="Group_17561" data-name="Group 17561" transform="translate(2.175 7.265)">
                    <path id="Path_40751" data-name="Path 40751" d="M2376.761,1729.34h-13.688l-.019-.065h13.695Z" transform="translate(-2363.054 -1729.276)" fill="#b3b3b3"/>
                  </g>
                  <g id="Group_17562" data-name="Group 17562" transform="translate(2.684 8.965)">
                    <path id="Path_40752" data-name="Path 40752" d="M2378.247,1734.89h-13.513l-.019-.063h13.519Z" transform="translate(-2364.716 -1734.827)" fill="#b3b3b3"/>
                  </g>
                  <g id="Group_17563" data-name="Group 17563" transform="translate(3.18 10.622)">
                    <path id="Path_40753" data-name="Path 40753" d="M2379.7,1740.3h-13.342l-.019-.062h13.349Z" transform="translate(-2366.335 -1740.238)" fill="#b3b3b3"/>
                  </g>
                </g>
              </g>
              <g id="Group_17567" data-name="Group 17567" transform="translate(0.844 1.455)">
                <g id="Group_17566" data-name="Group 17566">
                  <path id="Path_40754" data-name="Path 40754" d="M2370.941,1713.214h-14.311l-4.248-14.022h.518l4.073,13.61h13.888Z" transform="translate(-2352.383 -1699.192)" fill="#32526e"/>
                </g>
              </g>
              <path id="Path_40755" data-name="Path 40755" d="M2349.629,1696.767l.665-2.326,2.065,2.326Z" transform="translate(-2349.629 -1694.441)" fill="#32526e"/>
              <path id="Path_40756" data-name="Path 40756" d="M2410.84,1740.715l2.361,1.1-1.937,1.081Z" transform="translate(-2392.094 -1726.543)" fill="#32526e"/>
              <g id="Group_17568" data-name="Group 17568" transform="translate(6.18 3.165)">
                <path id="Path_40757" data-name="Path 40757" d="M2377.416,1715.23l-4.786-6.061-2.534,3.2-.289-.206,2.777-3.523,4.6,5.842,1.264-9.707.345.1Z" transform="translate(-2369.807 -1704.776)" fill="#c0382a"/>
              </g>
              <g id="Group_17569" data-name="Group 17569" transform="translate(6.88 7.184)">
                <path id="Path_40758" data-name="Path 40758" d="M2372.333,1723.879l-.239-.239,2.958-2.041,3.073-.578,2.781-3.124.277.221-2.837,3.175-3.1.582Z" transform="translate(-2372.094 -1717.897)" fill="#f9a825"/>
              </g>
              <path id="Path_40759" data-name="Path 40759" d="M2371.646,1735.765a.433.433,0,0,1-.468.557.847.847,0,0,1-.783-.557.433.433,0,0,1,.467-.562A.844.844,0,0,1,2371.646,1735.765Z" transform="translate(-2364.021 -1722.719)" fill="#74b4a3"/>
              <path id="Path_40760" data-name="Path 40760" d="M2381.225,1729.123a.456.456,0,0,1-.488.575.836.836,0,0,1-.783-.575.455.455,0,0,1,.487-.58A.836.836,0,0,1,2381.225,1729.123Z" transform="translate(-2370.654 -1718.099)" fill="#3497da"/>
              <path id="Path_40761" data-name="Path 40761" d="M2391.3,1727.218a.47.47,0,0,1-.5.58.817.817,0,0,1-.773-.58.47.47,0,0,1,.5-.585A.815.815,0,0,1,2391.3,1727.218Z" transform="translate(-2377.645 -1716.774)" fill="#ff856d"/>
              <path id="Path_40762" data-name="Path 40762" d="M2400.462,1716.87a.5.5,0,0,1-.529.608.817.817,0,0,1-.778-.608.5.5,0,0,1,.527-.613A.816.816,0,0,1,2400.462,1716.87Z" transform="translate(-2383.979 -1709.576)" fill="#fbc02d"/>
              <path id="Path_40763" data-name="Path 40763" d="M2369.424,1727.916a.445.445,0,0,1-.474.578.869.869,0,0,1-.8-.578.445.445,0,0,1,.472-.583A.867.867,0,0,1,2369.424,1727.916Z" transform="translate(-2362.462 -1717.26)" fill="#74b4a3"/>
              <path id="Path_40764" data-name="Path 40764" d="M2378.079,1716.87a.474.474,0,0,1-.5.608.871.871,0,0,1-.809-.608.474.474,0,0,1,.5-.613A.869.869,0,0,1,2378.079,1716.87Z" transform="translate(-2368.446 -1709.576)" fill="#3497da"/>
              <path id="Path_40765" data-name="Path 40765" d="M2393.445,1736.424a.456.456,0,0,1-.5.556.793.793,0,0,1-.754-.556.456.456,0,0,1,.5-.561A.791.791,0,0,1,2393.445,1736.424Z" transform="translate(-2379.149 -1723.177)" fill="#ff856d"/>
              <path id="Path_40766" data-name="Path 40766" d="M2397.693,1703.469a.522.522,0,0,1-.54.644.853.853,0,0,1-.806-.644.522.522,0,0,1,.539-.651A.853.853,0,0,1,2397.693,1703.469Z" transform="translate(-2382.029 -1700.252)" fill="#fbc02d"/>
            </g>
          </g>
        </g>
      </g>
    </g>
    <g id="Group_17577" data-name="Group 17577" transform="translate(2313.866 1704.105)">
      <g id="Group_17575" data-name="Group 17575" transform="translate(0 0)">
        <path id="Path_40767" data-name="Path 40767" d="M2384.35,1800.982l-.013-.083c-.289-1.933-.272-3.679-.791-4.359a.728.728,0,0,0-.735-.291c-2.13.3-1.963,1.8-2.641,3.917-.648,2.025-1.031,4.828-1.119,4.975-.465.775-1.5,4.061-1.927,4.572a8.28,8.28,0,0,1-2.029-3.153,19.753,19.753,0,0,1-.427-4.244,52.9,52.9,0,0,1,.854-7.974,36.624,36.624,0,0,1,2.536-7.354,3.241,3.241,0,0,0-.247-3.212,2.139,2.139,0,0,0-.236-.252c-.8-.725-2.1-.73-3.355.556a5.768,5.768,0,0,0-.491.573,7.936,7.936,0,0,0-.581.892c-2,3.523-2.485,4.373-2.6,4.579a.175.175,0,0,0-.012.025s0,0,0,0l0,0a.065.065,0,0,1-.006.013,9.3,9.3,0,0,0-1.834,3.358c-.1.657-.117-.3.339-2.623a36.536,36.536,0,0,1,2.536-7.354,3.246,3.246,0,0,0-.247-3.213,2.055,2.055,0,0,0-.236-.252c-.8-.725-2.1-.729-3.356.556a5.81,5.81,0,0,0-.49.574,7.909,7.909,0,0,0-.582.891c-2.032,3.578-2.5,4.4-2.608,4.589a.253.253,0,0,1,.015-.031,6.377,6.377,0,0,0,.763-2.566c-.024-.7-.4-1.229-1.579-1.069-.093.012-.19.028-.293.05-.851.176-1.887,1.491-2.57,2.5-.4.59-.68,1.075-.733,1.167l-.02.031-3.256,4.589h0l0,0a.02.02,0,0,0,0,.007c-.036.051-.083.134-.136.233l0,.006c-.075.138-.164.3-.251.44l0,.006c-.13.209-.256.359-.324.274a3.678,3.678,0,0,1,.027-.524,3.817,3.817,0,0,0,.019-.549c-.1-.744-.693-1.663-1.466-1.668-.545,0-1.248.465-2.139,1.824a22.026,22.026,0,0,0-1.535,2.868l-.008.019c-.093.233-1.273,5.175-1.092,6.385.361,2.4,3.236,18.694,3.436,19.631a38.393,38.393,0,0,1-.208,5.171c0,.024-2.973,13.55-2.754,13.577l18.3,2.329a.385.385,0,0,0,.424-.294c.2-.867,3.621-10.742,4.926-12.227,1.18-1.343,4.927-5.264,6.2-6.818,1.794-2.185,3.69-4.372,4.317-8.511.623-4.111,1.16-5.375,1.546-8C2385.794,1804.5,2384.6,1802.6,2384.35,1800.982Z" transform="translate(-2347.165 -1779.598)" fill="#ecb98c"/>
        <path id="Path_40768" data-name="Path 40768" d="M2456.372,1835.879a4.459,4.459,0,0,0,2.151,3.4c-.289-1.933-.271-3.68-.791-4.359C2456.849,1834.914,2456.3,1835.177,2456.372,1835.879Z" transform="translate(-2421.351 -1817.976)" fill="#f6e2ca"/>
        <path id="Path_40769" data-name="Path 40769" d="M2385.958,1811.387l.159-.312a15.711,15.711,0,0,0,.5-2.223c.05-.329.688-7.128.9-8.553a9.305,9.305,0,0,1,1.835-3.359l.006-.011,0-.006,0,0c.005-.011.013-.028.024-.047a6.379,6.379,0,0,0,.764-2.565c-.467.955-1.439,2.733-1.439,2.733s-1.251,2.158-1.465,2.461S2385.958,1811.387,2385.958,1811.387Z" transform="translate(-2372.506 -1789.802)" fill="#d4a477"/>
        <path id="Path_40770" data-name="Path 40770" d="M2366.088,1822.366c-.021.28-.034,3.67.027,4.262.036.348.031,4.742.147,4.536a9.325,9.325,0,0,0,.5-2c.069-.635-.288-7.164-.162-7.622a14.526,14.526,0,0,1,.913-1.8c-.13.209-.256.359-.324.274a3.7,3.7,0,0,1,.027-.524,9.607,9.607,0,0,0-.64.851A4.852,4.852,0,0,0,2366.088,1822.366Z" transform="translate(-2358.709 -1807.277)" fill="#d4a477"/>
        <path id="Path_40771" data-name="Path 40771" d="M2385.173,1793.363c2.783-.45,3.525-1.235,3.455-1.9a.93.93,0,0,0-.591-.646c-.093.012-.19.029-.293.05C2386.893,1791.04,2385.856,1792.355,2385.173,1793.363Z" transform="translate(-2371.962 -1787.379)" fill="#f6e2ca"/>
        <path id="Path_40772" data-name="Path 40772" d="M2407.553,1781.218a19.074,19.074,0,0,0,2.245-.005c1.267-.039,1.656-.38,1.792-.59.068-.1-.035-.28-.191-.535-.8-.725-2.1-.729-3.356.556A5.809,5.809,0,0,0,2407.553,1781.218Z" transform="translate(-2387.488 -1779.598)" fill="#f6e2ca"/>
        <path id="Path_40773" data-name="Path 40773" d="M2358.094,1814.081a4.958,4.958,0,0,0,1.65-.339c.559-.147.936-.552.872-.961a.868.868,0,0,0-.383-.523C2359.688,1812.253,2358.985,1812.722,2358.094,1814.081Z" transform="translate(-2353.176 -1802.255)" fill="#f6e2ca"/>
        <path id="Path_40774" data-name="Path 40774" d="M2438.814,1839.653c-.648,2.026-1.031,4.828-1.118,4.975-.465.775-1.5,4.061-1.927,4.572a7.587,7.587,0,0,1-1.806-2.6,6.949,6.949,0,0,0,1.586,3.642s2.71-4.691,3.241-7.091a58.1,58.1,0,0,0,1.1-6.631C2439.334,1837.214,2439.244,1838.309,2438.814,1839.653Z" transform="translate(-2405.809 -1819.085)" fill="#d4a477"/>
        <path id="Path_40775" data-name="Path 40775" d="M2428.775,1792.435a19.045,19.045,0,0,0,2.245-.005c1.267-.039,1.656-.38,1.793-.59.068-.1-.035-.28-.191-.534-.8-.725-2.1-.73-3.356.556A5.817,5.817,0,0,0,2428.775,1792.435Z" transform="translate(-2402.21 -1787.379)" fill="#f6e2ca"/>
        <path id="Path_40776" data-name="Path 40776" d="M2409.348,1821.81c-.051.337-.08.25-.036-.227l-.1.3c-.549,3.376-1.171,7.515-1.171,7.515l.176-.3a15.513,15.513,0,0,0,.629-2.19c.052-.241.627-4.035,1.041-6.545A4.774,4.774,0,0,0,2409.348,1821.81Z" transform="translate(-2387.828 -1807.878)" fill="#d4a477"/>
        <rect id="Rectangle_4838" data-name="Rectangle 4838" width="3.929" height="23.193" transform="translate(2.762 52.724) rotate(-81.328)" fill="#e6e6e6"/>
        <path id="Path_40777" data-name="Path 40777" d="M2363.423,1940.866l-.6,3.882-11.766-1.795.592-3.884Z" transform="translate(-2348.292 -1890.23)" fill="#fff"/>
        <path id="Path_40778" data-name="Path 40778" d="M2396.659,1959.4l-1.715,11h-11.938l1.988-12.777Z" transform="translate(-2370.458 -1903.099)" fill="#b55249"/>
        <path id="Path_40779" data-name="Path 40779" d="M2356.571,1953.381l-1.988,12.777h-12.547l2.285-14.648Z" transform="translate(-2342.035 -1898.86)" fill="#f16d61"/>
      </g>
      <g id="Group_17576" data-name="Group 17576" transform="translate(52.536 0)">
        <path id="Path_40780" data-name="Path 40780" d="M2514.88,1800.982c0-.028.009-.056.012-.083.289-1.933.272-3.679.791-4.359a.728.728,0,0,1,.735-.291c2.13.3,1.963,1.8,2.641,3.917.648,2.025,1.031,4.828,1.119,4.975.465.775,1.5,4.061,1.927,4.572a8.28,8.28,0,0,0,2.029-3.153,19.737,19.737,0,0,0,.427-4.244,52.9,52.9,0,0,0-.854-7.974,36.639,36.639,0,0,0-2.536-7.354,3.241,3.241,0,0,1,.247-3.212,2.1,2.1,0,0,1,.236-.252c.8-.725,2.1-.73,3.355.556a5.768,5.768,0,0,1,.491.573,7.9,7.9,0,0,1,.581.892c2,3.523,2.485,4.373,2.6,4.579a.247.247,0,0,1,.012.025s0,0,0,0l0,0a.065.065,0,0,0,.006.013,9.3,9.3,0,0,1,1.834,3.358c.1.657.117-.3-.339-2.623a36.536,36.536,0,0,0-2.536-7.354,3.246,3.246,0,0,1,.247-3.213,2.058,2.058,0,0,1,.236-.252c.8-.725,2.1-.729,3.356.556a5.808,5.808,0,0,1,.49.574,7.909,7.909,0,0,1,.582.891c2.032,3.578,2.5,4.4,2.607,4.589a.193.193,0,0,0-.015-.031,6.376,6.376,0,0,1-.763-2.566c.024-.7.4-1.229,1.579-1.069.093.012.19.028.293.05.851.176,1.887,1.491,2.571,2.5.4.59.68,1.075.733,1.167l.02.031,3.255,4.589h0l0,0a.021.021,0,0,1,0,.007c.036.051.083.134.136.233l0,.006c.075.138.164.3.251.44l0,.006c.13.209.256.359.324.274a3.739,3.739,0,0,0-.027-.524,3.853,3.853,0,0,1-.019-.549c.1-.744.693-1.663,1.466-1.668.545,0,1.248.465,2.139,1.824a22.053,22.053,0,0,1,1.535,2.868l.008.019c.093.233,1.273,5.175,1.092,6.385-.361,2.4-3.236,18.694-3.436,19.631a38.393,38.393,0,0,0,.208,5.171c0,.024,2.973,13.55,2.754,13.577l-18.3,2.329a.385.385,0,0,1-.424-.294c-.2-.867-3.621-10.742-4.926-12.227-1.18-1.343-4.927-5.264-6.2-6.818-1.795-2.185-3.69-4.372-4.317-8.511-.623-4.111-1.16-5.375-1.545-8C2513.436,1804.5,2514.63,1802.6,2514.88,1800.982Z" transform="translate(-2513.577 -1779.598)" fill="#ecb98c"/>
        <path id="Path_40781" data-name="Path 40781" d="M2520.024,1835.879a4.459,4.459,0,0,1-2.151,3.4c.289-1.933.272-3.68.791-4.359C2519.547,1834.914,2520.1,1835.177,2520.024,1835.879Z" transform="translate(-2516.557 -1817.976)" fill="#f6e2ca"/>
        <path id="Path_40782" data-name="Path 40782" d="M2585.806,1811.387l-.159-.312a15.746,15.746,0,0,1-.505-2.223c-.05-.329-.688-7.128-.9-8.553a9.309,9.309,0,0,0-1.835-3.359l-.006-.011,0-.006,0,0c0-.011-.013-.028-.024-.047a6.38,6.38,0,0,1-.763-2.565c.467.955,1.439,2.733,1.439,2.733s1.251,2.158,1.465,2.461S2585.806,1811.387,2585.806,1811.387Z" transform="translate(-2560.769 -1789.802)" fill="#d4a477"/>
        <path id="Path_40783" data-name="Path 40783" d="M2611.934,1822.366c.022.28.034,3.67-.027,4.262-.036.348-.031,4.742-.146,4.536a9.308,9.308,0,0,1-.5-2c-.069-.635.288-7.164.162-7.622a14.6,14.6,0,0,0-.913-1.8c.13.209.256.359.324.274a3.72,3.72,0,0,0-.027-.524,9.7,9.7,0,0,1,.64.851A4.854,4.854,0,0,1,2611.934,1822.366Z" transform="translate(-2580.824 -1807.277)" fill="#d4a477"/>
        <path id="Path_40784" data-name="Path 40784" d="M2588.275,1793.363c-2.783-.45-3.525-1.235-3.455-1.9a.93.93,0,0,1,.592-.646c.093.012.19.029.293.05C2586.555,1791.04,2587.591,1792.355,2588.275,1793.363Z" transform="translate(-2562.998 -1787.379)" fill="#f6e2ca"/>
        <path id="Path_40785" data-name="Path 40785" d="M2564.537,1781.218a19.07,19.07,0,0,1-2.245-.005c-1.267-.039-1.655-.38-1.793-.59-.068-.1.035-.28.192-.535.8-.725,2.1-.729,3.356.556A5.776,5.776,0,0,1,2564.537,1781.218Z" transform="translate(-2546.114 -1779.598)" fill="#f6e2ca"/>
        <path id="Path_40786" data-name="Path 40786" d="M2617.462,1814.081a4.96,4.96,0,0,1-1.65-.339c-.559-.147-.936-.552-.872-.961a.869.869,0,0,1,.383-.523C2615.868,1812.253,2616.571,1812.722,2617.462,1814.081Z" transform="translate(-2583.892 -1802.255)" fill="#f6e2ca"/>
        <path id="Path_40787" data-name="Path 40787" d="M2529.053,1839.653c.647,2.026,1.03,4.828,1.118,4.975.465.775,1.5,4.061,1.927,4.572a7.59,7.59,0,0,0,1.806-2.6,6.951,6.951,0,0,1-1.586,3.642s-2.71-4.691-3.242-7.091a58.048,58.048,0,0,1-1.1-6.631C2528.532,1837.214,2528.623,1838.309,2529.053,1839.653Z" transform="translate(-2523.57 -1819.085)" fill="#d4a477"/>
        <path id="Path_40788" data-name="Path 40788" d="M2543.315,1792.435a19.046,19.046,0,0,1-2.245-.005c-1.267-.039-1.655-.38-1.792-.59-.068-.1.035-.28.192-.534.8-.725,2.1-.73,3.356.556A5.782,5.782,0,0,1,2543.315,1792.435Z" transform="translate(-2531.392 -1787.379)" fill="#f6e2ca"/>
        <path id="Path_40789" data-name="Path 40789" d="M2567.756,1821.81c.051.337.081.25.036-.227l.1.3c.549,3.376,1.171,7.515,1.171,7.515l-.175-.3a15.449,15.449,0,0,1-.629-2.19c-.053-.241-.628-4.035-1.041-6.545A4.772,4.772,0,0,1,2567.756,1821.81Z" transform="translate(-2550.788 -1807.878)" fill="#d4a477"/>
        <rect id="Rectangle_4839" data-name="Rectangle 4839" width="23.193" height="3.929" transform="translate(12.206 52.337) rotate(-8.672)" fill="#fff"/>
        <path id="Path_40790" data-name="Path 40790" d="M2589.842,1940.866l.6,3.882,11.766-1.795-.592-3.884Z" transform="translate(-2566.485 -1890.23)" fill="#e6e6e6"/>
        <path id="Path_40791" data-name="Path 40791" d="M2567.352,1970.4h-11.941l-1.715-11,11.668-1.776Z" transform="translate(-2541.409 -1903.099)" fill="#f16d61"/>
        <path id="Path_40792" data-name="Path 40792" d="M2606.331,1966.158h-12.547l-1.988-12.777,12.25-1.871Z" transform="translate(-2567.84 -1898.86)" fill="#b55249"/>
      </g>
    </g>
  </g>
</svg>
