<svg xmlns="http://www.w3.org/2000/svg" width="96" height="96" viewBox="0 0 96 96">
  <g id="Group_16378" data-name="Group 16378" transform="translate(0)">
    <g id="Group_16351" data-name="Group 16351" transform="translate(1.548 1.548)">
      <g id="Group_16341" data-name="Group 16341" transform="translate(0 80.516)">
        <path id="Path_38942" data-name="Path 38942" d="M903.617,1071.429v6.193a6.192,6.192,0,0,1-6.194,6.194H816.908a6.192,6.192,0,0,1-6.194-6.194v-6.193h34.065l3.1,6.193h18.581l3.1-6.193h34.064Z" transform="translate(-810.714 -1071.429)" fill="#969faa"/>
      </g>
      <g id="Group_16342" data-name="Group 16342" transform="translate(34.065 80.516)">
        <path id="Path_38943" data-name="Path 38943" d="M914.06,1071.429l-3.1,6.193H892.383l-3.1-6.193Z" transform="translate(-889.286 -1071.429)" fill="#fcd770"/>
      </g>
      <g id="Group_16343" data-name="Group 16343" transform="translate(6.194 40.258)">
        <path id="Path_38944" data-name="Path 38944" d="M905.516,1006.442v12.387H825V978.571h6.194v32.516a1.553,1.553,0,0,0,1.548,1.549h65.032a1.553,1.553,0,0,0,1.549-1.549v-4.645Z" transform="translate(-825 -978.571)" fill="#ccd1d9"/>
      </g>
      <g id="Group_16344" data-name="Group 16344" transform="translate(12.387 40.258)">
        <path id="Path_38945" data-name="Path 38945" d="M867.157,1006.442a3.106,3.106,0,0,1-3.1-3.1V978.571H839.286v32.516a1.553,1.553,0,0,0,1.548,1.549h65.032a1.553,1.553,0,0,0,1.549-1.549v-4.645Z" transform="translate(-839.286 -978.571)" fill="#69d6f4"/>
      </g>
      <g id="Group_16345" data-name="Group 16345" transform="translate(37.162 40.258)">
        <path id="Path_38946" data-name="Path 38946" d="M952.171,978.571v24.774a3.106,3.106,0,0,1-3.1,3.1H899.525a3.106,3.106,0,0,1-3.1-3.1V978.571h55.742Z" transform="translate(-896.429 -978.571)" fill="#e6e9ed"/>
      </g>
      <g id="Group_16346" data-name="Group 16346" transform="translate(43.355 46.452)">
        <rect id="Rectangle_4091" data-name="Rectangle 4091" width="18.581" height="15.484" fill="#fcd770"/>
      </g>
      <g id="Group_16347" data-name="Group 16347" transform="translate(52.645 27.871)">
        <path id="Path_38947" data-name="Path 38947" d="M972.4,953.1v9.29H932.143a3.106,3.106,0,0,0,3.1-3.1V950H969.3A3.106,3.106,0,0,1,972.4,953.1Z" transform="translate(-932.143 -950)" fill="#b4dd7f"/>
      </g>
      <g id="Group_16348" data-name="Group 16348" transform="translate(0 12.387)">
        <path id="Path_38948" data-name="Path 38948" d="M866.456,929.77v9.291a3.106,3.106,0,0,1-3.1,3.1H813.811a3.106,3.106,0,0,1-3.1-3.1V914.286h55.742Z" transform="translate(-810.714 -914.286)" fill="#e6e9ed"/>
      </g>
      <g id="Group_16349" data-name="Group 16349" transform="translate(6.194 18.581)">
        <rect id="Rectangle_4092" data-name="Rectangle 4092" width="18.581" height="15.484" fill="#ff826e"/>
      </g>
      <g id="Group_16350" data-name="Group 16350">
        <path id="Path_38949" data-name="Path 38949" d="M810.714,898.1v-9.291a3.106,3.106,0,0,1,3.1-3.1h49.549a3.106,3.106,0,0,1,3.1,3.1V898.1Z" transform="translate(-810.714 -885.714)" fill="#b4dd7f"/>
      </g>
    </g>
    <g id="Group_16377" data-name="Group 16377" transform="translate(0 0)">
      <g id="Group_16352" data-name="Group 16352" transform="translate(0 80.516)">
        <path id="Path_38950" data-name="Path 38950" d="M895.4,1083.341H814.885a7.751,7.751,0,0,1-7.742-7.742v-7.742h96v7.742A7.751,7.751,0,0,1,895.4,1083.341Zm-85.161-12.387v4.645a4.651,4.651,0,0,0,4.645,4.646H895.4a4.651,4.651,0,0,0,4.646-4.646v-4.645Z" transform="translate(-807.143 -1067.857)"/>
      </g>
      <g id="Group_16353" data-name="Group 16353" transform="translate(34.228 81.373)">
        <path id="Path_38951" data-name="Path 38951" d="M910.111,1078.269H889.616l-3.525-7.05,2.77-1.385,2.669,5.338H908.2l2.669-5.338,2.77,1.385Z" transform="translate(-886.091 -1069.835)"/>
      </g>
      <g id="Group_16354" data-name="Group 16354" transform="translate(12.387 41.806)">
        <path id="Path_38952" data-name="Path 38952" d="M903.843,1014.184H838.811a3.1,3.1,0,0,1-3.1-3.1V978.571h3.1v32.516h65.032v-4.645h3.1v4.645A3.1,3.1,0,0,1,903.843,1014.184Z" transform="translate(-835.714 -978.571)"/>
      </g>
      <g id="Group_16355" data-name="Group 16355" transform="translate(71.226 86.71)">
        <path id="Path_38953" data-name="Path 38953" d="M986.913,1085.24h-3.1v-3.1h3.1Zm-6.194,0h-3.1v-3.1h3.1Zm-6.194,0h-3.1v-3.1h3.1Z" transform="translate(-971.429 -1082.143)"/>
      </g>
      <g id="Group_16356" data-name="Group 16356" transform="translate(6.193 41.806)">
        <rect id="Rectangle_4093" data-name="Rectangle 4093" width="3.097" height="40.258"/>
      </g>
      <g id="Group_16357" data-name="Group 16357" transform="translate(86.71 69.677)">
        <rect id="Rectangle_4094" data-name="Rectangle 4094" width="3.097" height="12.387"/>
      </g>
      <g id="Group_16358" data-name="Group 16358">
        <path id="Path_38954" data-name="Path 38954" d="M861.337,925.5H811.788a4.65,4.65,0,0,1-4.645-4.645V886.788a4.65,4.65,0,0,1,4.645-4.645h49.548a4.65,4.65,0,0,1,4.645,4.645v34.065A4.65,4.65,0,0,1,861.337,925.5ZM811.788,885.24a1.549,1.549,0,0,0-1.548,1.548v34.065a1.549,1.549,0,0,0,1.548,1.548h49.548a1.549,1.549,0,0,0,1.548-1.548V886.788a1.549,1.549,0,0,0-1.548-1.548Z" transform="translate(-807.143 -882.143)"/>
      </g>
      <g id="Group_16359" data-name="Group 16359" transform="translate(6.194 6.194)">
        <path id="Path_38955" data-name="Path 38955" d="M836.913,899.525h-3.1v-3.1h3.1Zm-6.194,0h-3.1v-3.1h3.1Zm-6.194,0h-3.1v-3.1h3.1Z" transform="translate(-821.429 -896.429)"/>
      </g>
      <g id="Group_16360" data-name="Group 16360" transform="translate(1.548 12.387)">
        <rect id="Rectangle_4095" data-name="Rectangle 4095" width="55.742" height="3.097"/>
      </g>
      <g id="Group_16361" data-name="Group 16361" transform="translate(6.194 18.581)">
        <path id="Path_38956" data-name="Path 38956" d="M843.106,943.581H821.429V925h21.677Zm-18.581-3.1H840.01V928.1H824.525Z" transform="translate(-821.429 -925)"/>
      </g>
      <g id="Group_16362" data-name="Group 16362" transform="translate(30.968 18.581)">
        <rect id="Rectangle_4096" data-name="Rectangle 4096" width="21.677" height="3.097"/>
      </g>
      <g id="Group_16363" data-name="Group 16363" transform="translate(49.548 24.774)">
        <rect id="Rectangle_4097" data-name="Rectangle 4097" width="3.097" height="3.097"/>
      </g>
      <g id="Group_16364" data-name="Group 16364" transform="translate(30.968 24.774)">
        <rect id="Rectangle_4098" data-name="Rectangle 4098" width="15.484" height="3.097"/>
      </g>
      <g id="Group_16365" data-name="Group 16365" transform="translate(30.968 30.968)">
        <rect id="Rectangle_4099" data-name="Rectangle 4099" width="21.677" height="3.097"/>
      </g>
      <g id="Group_16366" data-name="Group 16366" transform="translate(37.161 27.871)">
        <path id="Path_38957" data-name="Path 38957" d="M947.051,989.784H897.5a4.651,4.651,0,0,1-4.645-4.645V960.364h3.1v24.774a1.549,1.549,0,0,0,1.548,1.549h49.548a1.55,1.55,0,0,0,1.549-1.549V951.074a1.55,1.55,0,0,0-1.549-1.549H912.986v-3.1h34.064a4.65,4.65,0,0,1,4.645,4.645v34.064A4.65,4.65,0,0,1,947.051,989.784Z" transform="translate(-892.857 -946.429)"/>
      </g>
      <g id="Group_16367" data-name="Group 16367" transform="translate(38.71 40.258)">
        <rect id="Rectangle_4100" data-name="Rectangle 4100" width="55.742" height="3.097"/>
      </g>
      <g id="Group_16368" data-name="Group 16368" transform="translate(43.355 46.452)">
        <path id="Path_38958" data-name="Path 38958" d="M928.82,1007.867H907.143V989.286H928.82Zm-18.581-3.1h15.484V992.383H910.24Z" transform="translate(-907.143 -989.286)"/>
      </g>
      <g id="Group_16369" data-name="Group 16369" transform="translate(68.129 46.452)">
        <rect id="Rectangle_4101" data-name="Rectangle 4101" width="21.677" height="3.097"/>
      </g>
      <g id="Group_16370" data-name="Group 16370" transform="translate(86.71 52.645)">
        <rect id="Rectangle_4102" data-name="Rectangle 4102" width="3.097" height="3.097"/>
      </g>
      <g id="Group_16371" data-name="Group 16371" transform="translate(68.129 52.645)">
        <rect id="Rectangle_4103" data-name="Rectangle 4103" width="15.484" height="3.097"/>
      </g>
      <g id="Group_16372" data-name="Group 16372" transform="translate(68.129 58.839)">
        <rect id="Rectangle_4104" data-name="Rectangle 4104" width="21.677" height="3.097"/>
      </g>
      <g id="Group_16373" data-name="Group 16373" transform="translate(18.581 46.452)">
        <rect id="Rectangle_4105" data-name="Rectangle 4105" width="15.484" height="3.097"/>
      </g>
      <g id="Group_16374" data-name="Group 16374" transform="translate(18.581 52.645)">
        <rect id="Rectangle_4106" data-name="Rectangle 4106" width="15.484" height="3.097"/>
      </g>
      <g id="Group_16375" data-name="Group 16375" transform="translate(18.581 58.839)">
        <rect id="Rectangle_4107" data-name="Rectangle 4107" width="15.484" height="3.097"/>
      </g>
      <g id="Group_16376" data-name="Group 16376" transform="translate(18.581 65.032)">
        <rect id="Rectangle_4108" data-name="Rectangle 4108" width="15.484" height="3.097"/>
      </g>
    </g>
  </g>
</svg>
