<svg xmlns="http://www.w3.org/2000/svg" width="77.42" height="96" viewBox="0 0 77.42 96">
  <g id="Group_16280" data-name="Group 16280" transform="translate(0)">
    <g id="Group_16267" data-name="Group 16267" transform="translate(1.548 1.548)">
      <g id="Group_16256" data-name="Group 16256" transform="translate(0)">
        <path id="Path_38880" data-name="Path 38880" d="M1596.608,1579.668v9.291h-74.322v-9.291a3.106,3.106,0,0,1,3.1-3.1h68.129A3.106,3.106,0,0,1,1596.608,1579.668Z" transform="translate(-1522.286 -1576.571)" fill="#dfb28b"/>
      </g>
      <g id="Group_16257" data-name="Group 16257" transform="translate(0 12.387)">
        <rect id="Rectangle_4074" data-name="Rectangle 4074" width="74.323" height="6.194" fill="#e6e9ed"/>
      </g>
      <g id="Group_16258" data-name="Group 16258" transform="translate(0 18.581)">
        <path id="Path_38881" data-name="Path 38881" d="M1522.286,1619.429v71.225a3.106,3.106,0,0,0,3.1,3.1h68.129a3.106,3.106,0,0,0,3.1-3.1v-71.225Z" transform="translate(-1522.286 -1619.429)" fill="#f0d0b4"/>
      </g>
      <g id="Group_16259" data-name="Group 16259" transform="translate(13.936 58.839)">
        <path id="Path_38882" data-name="Path 38882" d="M1571.461,1718.851a6.388,6.388,0,0,1-1.92,4.6l-5.838,5.853-9.274-9.275,5.822-5.822a6.565,6.565,0,0,1,11.21,4.645Z" transform="translate(-1554.429 -1712.286)" fill="#fcd770"/>
      </g>
      <g id="Group_16260" data-name="Group 16260" transform="translate(17.063 32.516)">
        <path id="Path_38883" data-name="Path 38883" d="M1576.724,1657.393a6.565,6.565,0,0,1-4.646,11.21,6.429,6.429,0,0,1-4.645-1.967l-5.791-5.791,9.26-9.275Z" transform="translate(-1561.643 -1651.571)" fill="#fcd770"/>
      </g>
      <g id="Group_16261" data-name="Group 16261" transform="translate(44.903 34.065)">
        <path id="Path_38884" data-name="Path 38884" d="M1642.889,1661.708a6.385,6.385,0,0,1-1.92,4.6l-5.837,5.853-9.275-9.275,5.822-5.822a6.565,6.565,0,0,1,11.21,4.646Z" transform="translate(-1625.857 -1655.143)" fill="#fcd770"/>
      </g>
      <g id="Group_16262" data-name="Group 16262" transform="translate(6.193 66.581)">
        <path id="Path_38885" data-name="Path 38885" d="M1553.588,1739.418l-5.806,5.791a6.43,6.43,0,0,1-4.646,1.967,6.569,6.569,0,0,1-4.645-11.211l5.822-5.822Z" transform="translate(-1536.571 -1730.143)" fill="#b4dd7f"/>
      </g>
      <g id="Group_16263" data-name="Group 16263" transform="translate(9.29 24.774)">
        <path id="Path_38886" data-name="Path 38886" d="M1560.746,1641.456l-9.259,9.275-5.853-5.853a6.385,6.385,0,0,1-1.92-4.6,6.569,6.569,0,0,1,11.21-4.645Z" transform="translate(-1543.714 -1633.714)" fill="#b4dd7f"/>
      </g>
      <g id="Group_16264" data-name="Group 16264" transform="translate(37.161 41.807)">
        <path id="Path_38887" data-name="Path 38887" d="M1625.017,1682.275l-1.579,1.564h-10.792a1.553,1.553,0,0,0-1.548,1.548v3.654a6.571,6.571,0,0,1-1.177-10.219l5.822-5.822Z" transform="translate(-1608 -1673)" fill="#b4dd7f"/>
      </g>
      <g id="Group_16265" data-name="Group 16265" transform="translate(40.258 52.645)">
        <path id="Path_38888" data-name="Path 38888" d="M1649.207,1698v34.064h-32.516a1.553,1.553,0,0,1-1.548-1.548v-30.968a1.553,1.553,0,0,1,1.548-1.548h32.516Z" transform="translate(-1615.143 -1698)" fill="#ff826e"/>
      </g>
      <g id="Group_16266" data-name="Group 16266" transform="translate(46.452 58.839)">
        <path id="Path_38889" data-name="Path 38889" d="M1651.106,1720.028v6.194a1.553,1.553,0,0,1-1.549,1.548h-4.645v4.645a1.553,1.553,0,0,1-1.548,1.549h-6.193a1.553,1.553,0,0,1-1.548-1.549v-4.645h-4.645a1.553,1.553,0,0,1-1.548-1.548v-6.194a1.553,1.553,0,0,1,1.548-1.549h4.645v-4.645a1.553,1.553,0,0,1,1.548-1.548h6.193a1.553,1.553,0,0,1,1.548,1.548v4.645h4.645A1.553,1.553,0,0,1,1651.106,1720.028Z" transform="translate(-1629.429 -1712.286)" fill="#e6e9ed"/>
      </g>
    </g>
    <g id="Group_16279" data-name="Group 16279" transform="translate(0)">
      <g id="Group_16268" data-name="Group 16268" transform="translate(46.452 58.839)">
        <path id="Path_38890" data-name="Path 38890" d="M1641.341,1733.488h-6.193a3.1,3.1,0,0,1-3.1-3.1v-3.1h-3.1a3.1,3.1,0,0,1-3.1-3.1V1718a3.1,3.1,0,0,1,3.1-3.1h3.1v-3.1a3.1,3.1,0,0,1,3.1-3.1h6.193a3.1,3.1,0,0,1,3.1,3.1v3.1h3.1a3.1,3.1,0,0,1,3.1,3.1v6.194a3.1,3.1,0,0,1-3.1,3.1h-3.1v3.1A3.1,3.1,0,0,1,1641.341,1733.488ZM1628.954,1718v6.194h6.194v6.193h6.193V1724.2h6.194V1718h-6.194v-6.194h-6.193V1718Z" transform="translate(-1625.857 -1708.714)"/>
      </g>
      <g id="Group_16269" data-name="Group 16269" transform="translate(40.258 52.645)">
        <path id="Path_38891" data-name="Path 38891" d="M1647.184,1731.59h-32.516a3.1,3.1,0,0,1-3.1-3.1v-30.968a3.1,3.1,0,0,1,3.1-3.1h32.516v3.1h-32.516v30.968h32.516Z" transform="translate(-1611.571 -1694.429)"/>
      </g>
      <g id="Group_16270" data-name="Group 16270">
        <path id="Path_38892" data-name="Path 38892" d="M1591.488,1669h-68.129a4.651,4.651,0,0,1-4.645-4.646v-86.71a4.65,4.65,0,0,1,4.645-4.645h68.129a4.65,4.65,0,0,1,4.646,4.645v86.71A4.651,4.651,0,0,1,1591.488,1669Zm-68.129-92.9a1.55,1.55,0,0,0-1.549,1.548v86.71a1.55,1.55,0,0,0,1.549,1.549h68.129a1.55,1.55,0,0,0,1.549-1.549v-86.71a1.549,1.549,0,0,0-1.549-1.548Z" transform="translate(-1518.714 -1573)"/>
      </g>
      <g id="Group_16271" data-name="Group 16271" transform="translate(1.548 12.387)">
        <rect id="Rectangle_4075" data-name="Rectangle 4075" width="74.323" height="3.097"/>
      </g>
      <g id="Group_16272" data-name="Group 16272" transform="translate(1.548 18.581)">
        <rect id="Rectangle_4076" data-name="Rectangle 4076" width="74.323" height="3.097"/>
      </g>
      <g id="Group_16273" data-name="Group 16273" transform="translate(6.194 58.839)">
        <path id="Path_38893" data-name="Path 38893" d="M1541.117,1736.585a8.117,8.117,0,0,1-5.74-13.857l11.637-11.637a8.118,8.118,0,0,1,13.857,5.74,7.938,7.938,0,0,1-2.4,5.713l-11.615,11.614A7.9,7.9,0,0,1,1541.117,1736.585Zm11.637-24.774a4.988,4.988,0,0,0-3.55,1.47l-11.637,11.637a5.021,5.021,0,0,0,3.55,8.571,4.849,4.849,0,0,0,3.529-1.5l11.658-11.658a4.846,4.846,0,0,0,1.47-3.5A5.025,5.025,0,0,0,1552.754,1711.811Z" transform="translate(-1533 -1708.714)"/>
      </g>
      <g id="Group_16274" data-name="Group 16274" transform="translate(14.389 67.034)">
        <rect id="Rectangle_4077" data-name="Rectangle 4077" width="3.096" height="13.139" transform="translate(0 2.189) rotate(-45)"/>
      </g>
      <g id="Group_16275" data-name="Group 16275" transform="translate(37.162 34.064)">
        <path id="Path_38894" data-name="Path 38894" d="M1608.254,1678.216a8.119,8.119,0,0,1-1.448-12.631l11.637-11.637a8.117,8.117,0,0,1,13.857,5.74,7.937,7.937,0,0,1-2.4,5.712l-7.394,7.394-2.189-2.189,7.417-7.417a4.848,4.848,0,0,0,1.47-3.5,5.021,5.021,0,0,0-8.571-3.551L1609,1667.775a5.022,5.022,0,0,0,.9,7.813Z" transform="translate(-1604.429 -1651.571)"/>
      </g>
      <g id="Group_16276" data-name="Group 16276" transform="translate(45.357 42.26)">
        <rect id="Rectangle_4078" data-name="Rectangle 4078" width="3.096" height="13.138" transform="translate(0 2.189) rotate(-45)"/>
      </g>
      <g id="Group_16277" data-name="Group 16277" transform="translate(9.29 24.774)">
        <path id="Path_38895" data-name="Path 38895" d="M1559.9,1658.014a7.92,7.92,0,0,1-5.761-2.448l-11.616-11.616a7.917,7.917,0,0,1-2.377-5.69,8.117,8.117,0,0,1,13.857-5.74l11.637,11.637a8.118,8.118,0,0,1-5.74,13.857Zm-11.637-24.774a5.025,5.025,0,0,0-5.02,5.02,4.828,4.828,0,0,0,1.447,3.478l11.66,11.66a4.872,4.872,0,0,0,3.55,1.52,5.021,5.021,0,0,0,3.551-8.571l-11.637-11.637A4.988,4.988,0,0,0,1548.26,1633.24Z" transform="translate(-1540.143 -1630.143)"/>
      </g>
      <g id="Group_16278" data-name="Group 16278" transform="translate(17.486 32.97)">
        <rect id="Rectangle_4079" data-name="Rectangle 4079" width="13.139" height="3.096" transform="translate(0 9.29) rotate(-45)"/>
      </g>
    </g>
  </g>
</svg>
