<svg xmlns="http://www.w3.org/2000/svg" width="284.6" height="340.782" viewBox="0 0 284.6 340.782">
  <g id="Group_25058" data-name="Group 25058" transform="translate(-558 -11547)">
    <g id="Group_25057" data-name="Group 25057">
      <g id="Group_17892" data-name="Group 17892" transform="translate(-598.354 11397)">
        <g id="Group_17864" data-name="Group 17864" transform="translate(1156.354 187.052)">
          <g id="Group_17862" data-name="Group 17862" transform="translate(0 0)">
            <g id="Group_17860" data-name="Group 17860" transform="translate(1.289 2.177)">
              <path id="Path_41749" data-name="Path 41749" d="M1175.251,261.937s45.751,1.2,50.456,1.557,46.522,5.364,54.3,5.882,81.462-.566,86.159-2.235,65.344-3.253,65.344-3.253l5.569,1.11s.771,126.276,1.108,131.047,5.433,106.187,3.676,110.791c-1.47,3.852-18.068,15.295-17.522,25.15.748,13.491,4.715,20.663-2.58,21.791-14.095,2.178-106.689,8.234-140.622,7.215-25.817-.775-100-5.849-105.267-5.536s-7.189-1.869-7.189-1.869l2.039-7.482c-4.769-9.6-11.691-3.912-10.57-4.32,2.367-.861,9.6-97.982,10.111-102.723s6.071-94.883,5.237-101.916S1171.8,263.7,1175.251,261.937Z" transform="translate(-1160.032 -261.937)" fill="#fffdf0"/>
            </g>
            <g id="Group_17861" data-name="Group 17861">
              <path id="Path_41750" data-name="Path 41750" d="M1440.516,496.4q-.417-7.567-.726-15.14-.584-14.347-.766-28.707c-.252-19.489-.159-38.833-1.455-58.294-2.992-44.925-1.087-90.227-.75-135.221a1.421,1.421,0,0,0-1.409-1.409l-101.515,5.765c-16.92.961-33.876,2.314-50.8.787-16.753-1.511-33.334-4.539-50.089-6.114a544.454,544.454,0,0,0-57.612-2.3,1.4,1.4,0,0,0-.554.124,7.182,7.182,0,0,0-2.074.159,1.51,1.51,0,0,0-1.077,1.229,1.461,1.461,0,0,0-.232.622c-4.271,36.21,1.618,72.763.315,109.1-1.309,36.491-6.542,72.672-10.585,108.92-2.293,20.553-4.176,41.155-4.828,61.831a1.442,1.442,0,0,0,1.409,1.41l9.481.961c.053.005.1,0,.149,0-.886,3.3-1.911,6.576-3.128,9.816a1.411,1.411,0,0,0,.984,1.733c42.969,6.419,86.486,5.846,129.8,7.091,11.184.322,22.344.982,33.536.55,10.6-.41,21.17-1.481,31.708-2.7,10.863-1.258,21.709-2.674,32.6-3.69,8.4-.784,16.894-.746,25.276-1.628,2.063-.217,4.845-.271,6.136-2.154,1.506-2.2.191-5.861-.2-8.193-1.071-6.354-1.479-13.57-.11-19.911.6-.622,1.206-1.244,1.807-1.86q4.956-5.066,9.824-10.216c1.417-1.5,3.838-3.27,4.806-5.116C1441.488,501.823,1440.638,498.641,1440.516,496.4Zm-273.271,40.9-8.023-.814c1.228-36.1,6.232-71.888,10.294-107.739,4.125-36.4,6.226-72.482,4.42-109.1-.8-16.217-1.626-32.461-.76-48.663,2.741,35.825,4.709,71.716,5.077,107.65.388,37.929-1.481,75.668-4.486,113.465-1.217,15.308-2.084,30.666-5.734,45.522A1.451,1.451,0,0,0,1167.245,537.3Zm254.144,10.607c-.944.927-4.1.655-5.381.743-18.66,1.266-37.126,2.988-55.715,5.14a417.665,417.665,0,0,1-61.761,2.255c-20.376-.638-40.764-.8-61.14-1.438-23.357-.729-46.724-2.08-69.864-5.445,5.43-15.2,6.99-31.068,8.262-47.07,1.537-19.335,3.168-38.66,4.1-58.036,1.833-38.219,1.518-76.507-.237-114.722-.979-21.324-2.411-42.623-4.086-63.9,6.145,33.842,6.417,68.325,6.885,102.647.43,31.486,1.675,62.947,2.546,94.422q.753,27.193.868,54.4c-.269,6-.174,11.989.122,17.99.15,3.057.957,6.98.041,9.966a1.422,1.422,0,0,0,1.359,1.784c39.218-.209,78.432.363,117.646.769,19.816.205,39.634.355,59.451.328,14.123-.019,28.289.176,40.215-8.679a135.795,135.795,0,0,0,15.953-14.577,61.509,61.509,0,0,0,.172,9.222,80.273,80.273,0,0,0,.776,9.075C1421.878,544.332,1422.7,546.616,1421.389,547.909Zm8.358-36.865q-3.87,4.038-7.79,8.046a1.162,1.162,0,0,0-.477.486c-4.428,4.51-8.929,8.951-13.625,13.168a46.519,46.519,0,0,1-7.033,5.216,45.3,45.3,0,0,0,7.809-28.355c5.717,1.112,12.287,2.425,17.648.252a62.336,62.336,0,0,0,9.006-4.659Q1432.525,508.128,1429.747,511.044Zm-2.411-4.746c-6.275,3.011-13.231,1.453-19.87.222-.808-.15-1.885.373-1.784,1.359,1.266,12.386-2.646,23.337-10.383,32.915a54.732,54.732,0,0,1-21.583,4.1c-19.338.08-38.675-.021-58.012-.2-42.2-.388-84.4-1.079-126.607-.879a46.372,46.372,0,0,0-.232-7.687c-.282-5.691-.417-11.364-.248-17.054a1.448,1.448,0,0,0,.074-.455c0-.569-.009-1.137-.011-1.705,0-.059,0-.117.005-.176s-.005-.088-.007-.134c-.126-31.354-1.122-62.68-2.113-94.016-1.1-34.788-.77-69.654-2.474-104.416a394.525,394.525,0,0,0-6.995-59.6c16.49-.152,32.978.4,49.416,1.743,16.841,1.377,33.48,4.095,50.252,6.029,16.933,1.952,33.7,1.2,50.667.235l50.757-2.883,55.794-3.169c-.318,38.513-1.733,77.227-.25,115.715.73,18.963,2.441,37.78,2.38,56.775-.059,18.443.291,36.884,1.167,55.307q.17,3.585.365,7.169c.064,1.19.043,2.463.2,3.634.015.108.1.5.206.945A90.507,90.507,0,0,1,1427.336,506.3Z" transform="translate(-1156.354 -255.724)" fill="#4c4c4d"/>
            </g>
          </g>
          <g id="Group_17863" data-name="Group 17863" transform="translate(114.322 19.559)" opacity="0.15" style="mix-blend-mode: multiply;isolation: isolate">
            <path id="Path_41751" data-name="Path 41751" d="M1570.635,313.855c-1.136-3.979-8.347-1.994-13.355-.289-2.82.046-5.64.1-8.46.172q-10.036.265-20.063.773-20.055,1.013-40.042,2.995a2.856,2.856,0,0,0-1.93.982c-.507-.044-1.013-.082-1.52-.128-3.612-.325-3.59,5.314,0,5.637,19.928,1.793,39.929,2.206,59.927,2.434,6.891.078,17.551,2.044,23.573-2.279C1572.083,321.769,1573.033,316.885,1570.635,313.855Z" transform="translate(-1482.563 -311.534)" fill="#6e6a5f"/>
          </g>
        </g>
        <g id="Group_17891" data-name="Group 17891" transform="translate(1262.925 150)">
          <g id="Group_17865" data-name="Group 17865" transform="translate(0.224 22.837)">
            <path id="Path_41752" data-name="Path 41752" d="M1552.437,247.351c-.617-.015-1.241-1.928-2-2.307.088-.426.2-.864.237-1.139.162-1.122.337-2.242.514-3.362.354-2.239.724-4.475,1.041-6.72a73.849,73.849,0,0,0,.917-13.933c-.1-2.08-1.867-4.511-4.233-4.233a6.928,6.928,0,0,1-3.042-.21,4.058,4.058,0,0,0-3.039.333l-32.878-.616a3.873,3.873,0,0,0-2.589.88q-6.2-.182-12.408-.312c-2.144-.4-3.31.11-5.51.752-.713.208-2.038-.487-2.666-.108-2.269.125-4.722-.2-7,.122-4.36.614-8.934,1.615-13.343.9a4.322,4.322,0,0,0-4.449,1.517,4.209,4.209,0,0,0-.331,4.7,14.541,14.541,0,0,1,1.624,3.163,13.217,13.217,0,0,0,.8,3.3c0,.007,0,.013,0,.02l0,0q.192.5.423,1.013c.014.03.032.057.047.087a116.585,116.585,0,0,1,.9,22.663c-.128,2.285,1.365,3.335,3.561,3.335a8.911,8.911,0,0,0,1.411.18,9.375,9.375,0,0,0,2.469,0c13.352-1.1,26.028-.715,39.422-.431,6.551.139,13,.386,19.518-.44,6.6-.836,13.185-1.8,19.775-2.707C1555.278,253.292,1556.616,247.449,1552.437,247.351ZM1476.7,226.523c-.195-.417.313-.367.012.029,0-.017,0-.035,0-.052Q1476.743,226.045,1476.7,226.523Z" transform="translate(-1461.085 -215.163)" fill="#49b0bb"/>
          </g>
          <g id="Group_17867" data-name="Group 17867" transform="translate(71.248 59.97)">
            <g id="Group_17866" data-name="Group 17866">
              <path id="Path_41753" data-name="Path 41753" d="M1663.944,322.336a1.583,1.583,0,0,1,.371,1.353.709.709,0,0,0,.705.705.723.723,0,0,0,.705-.705,2.9,2.9,0,0,0-.784-2.351c-.625-.662-1.621.337-1,1Z" transform="translate(-1663.747 -321.121)" fill="#4c4c4d"/>
            </g>
          </g>
          <g id="Group_17869" data-name="Group 17869" transform="translate(25.124 61.654)">
            <g id="Group_17868" data-name="Group 17868">
              <path id="Path_41754" data-name="Path 41754" d="M1532.27,326.419a2.191,2.191,0,0,0,.49,2.366,1.389,1.389,0,0,0,2.065-.306c.485-.771-.735-1.479-1.218-.712.029-.047.079-.038.115-.066-.02.016-.073.03-.079.007q.109.012-.018-.018l.038.013c-.133-.177.037.114-.038-.029a1.163,1.163,0,0,1,.006-.88.706.706,0,0,0-1.36-.375Z" transform="translate(-1532.136 -325.924)" fill="#4c4c4d"/>
            </g>
          </g>
          <g id="Group_17871" data-name="Group 17871" transform="translate(6.992 60.31)">
            <g id="Group_17870" data-name="Group 17870">
              <path id="Path_41755" data-name="Path 41755" d="M1481.076,327.3c27.948-1.188,56.156,1.187,83.837-3.842.892-.162.514-1.522-.375-1.36-27.549,5-55.648,2.609-83.462,3.792-.9.039-.909,1.449,0,1.411Z" transform="translate(-1480.396 -322.089)" fill="#4c4c4d"/>
            </g>
          </g>
          <g id="Group_17873" data-name="Group 17873" transform="translate(3.475 54.821)">
            <g id="Group_17872" data-name="Group 17872">
              <path id="Path_41756" data-name="Path 41756" d="M1474.862,315.794c-1.589.522-2.686-.887-2.939-2.3-.173-.964-.293-3.206.652-3.809.763-.487,2.554-.172,3.432-.16a29.832,29.832,0,0,0,3.508-.148c4.7-.486,9.234-1.7,14-1.52.908.034.907-1.377,0-1.411a52.2,52.2,0,0,0-10.664,1.043,38.123,38.123,0,0,1-5.913.632,17.524,17.524,0,0,0-4.738.2c-2.108.621-2,3.98-1.621,5.725.457,2.112,2.454,3.828,4.659,3.1.859-.282.491-1.645-.375-1.36Z" transform="translate(-1470.363 -306.428)" fill="#4c4c4d"/>
            </g>
          </g>
          <g id="Group_17875" data-name="Group 17875" transform="translate(31.933 54.422)">
            <g id="Group_17874" data-name="Group 17874">
              <path id="Path_41757" data-name="Path 41757" d="M1552.24,307.69q15.58-1.192,31.217-.948a.706.706,0,0,0,0-1.411q-15.623-.244-31.217.948c-.9.069-.907,1.48,0,1.411Z" transform="translate(-1551.563 -305.289)" fill="#4c4c4d"/>
            </g>
          </g>
          <g id="Group_17877" data-name="Group 17877" transform="translate(68.623 54.221)">
            <g id="Group_17876" data-name="Group 17876">
              <path id="Path_41758" data-name="Path 41758" d="M1656.937,306.137l15.659.062,3.828.015c1.275.005,2.875-.32,3.881.5a2.238,2.238,0,0,1-.812,3.744,12.892,12.892,0,0,0-2.084.545c-.8.432-.087,1.65.712,1.218.981-.531,2.22-.2,3.144-.875a3.364,3.364,0,0,0,1.091-2.642c.175-2.139-.607-3.755-2.894-3.887-3.657-.211-7.379-.034-11.043-.049l-11.484-.046a.706.706,0,0,0,0,1.411Z" transform="translate(-1656.256 -304.716)" fill="#4c4c4d"/>
            </g>
          </g>
          <g id="Group_17879" data-name="Group 17879" transform="translate(3.693 57.209)">
            <g id="Group_17878" data-name="Group 17878">
              <path id="Path_41759" data-name="Path 41759" d="M1471.362,313.444l-.176.176a.705.705,0,0,0,1,1l.177-.176a.706.706,0,1,0-1-1Z" transform="translate(-1470.983 -313.242)" fill="#4c4c4d"/>
            </g>
          </g>
          <g id="Group_17881" data-name="Group 17881" transform="translate(0 23.339)">
            <g id="Group_17880" data-name="Group 17880">
              <path id="Path_41760" data-name="Path 41760" d="M1466.544,250.81c-.334-9.477-2.191-18.784-4.278-28.008a6.957,6.957,0,0,1-.4-1.911,2.189,2.189,0,0,1,2.225-1.21q1.907-.038,3.814-.1,3.64-.119,7.276-.33,7.445-.43,14.861-1.238c.893-.1.9-1.508,0-1.411q-8.277.892-16.592,1.333-4.157.216-8.318.313c-1.62.038-3.614-.212-4.425,1.556-.785,1.714.417,4.323.793,6.03.586,2.657,1.144,5.321,1.641,8a115.09,115.09,0,0,1,1.992,16.981c.032.906,1.443.91,1.411,0Z" transform="translate(-1460.446 -216.596)" fill="#4c4c4d"/>
            </g>
          </g>
          <g id="Group_17883" data-name="Group 17883" transform="translate(34.577 22.123)">
            <g id="Group_17882" data-name="Group 17882">
              <path id="Path_41761" data-name="Path 41761" d="M1559.789,214.865q12.7.133,25.4-.328c.905-.033.91-1.444,0-1.411q-12.693.461-25.4.328a.706.706,0,0,0,0,1.411Z" transform="translate(-1559.107 -213.125)" fill="#4c4c4d"/>
            </g>
          </g>
          <g id="Group_17885" data-name="Group 17885" transform="translate(64.721 21.876)">
            <g id="Group_17884" data-name="Group 17884">
              <path id="Path_41762" data-name="Path 41762" d="M1645.8,214.3a105.051,105.051,0,0,1,13.668-.4q3.419.128,6.823.483c1.287.134,2.617.231,3.886.483,1.42.282,1.667.84,1.623,2.22-.292,9.208-1.373,18.467-2.125,27.648-.074.9,1.337.9,1.411,0q.651-7.946,1.257-15.895.289-3.8.568-7.6c.135-1.847.892-4.572.027-6.315-.7-1.412-2.471-1.435-3.834-1.615q-3.777-.5-7.585-.719a104.514,104.514,0,0,0-15.718.305c-.9.083-.905,1.5,0,1.411Z" transform="translate(-1645.123 -212.421)" fill="#4c4c4d"/>
            </g>
          </g>
          <g id="Group_17886" data-name="Group 17886" transform="translate(25.92 0.822)">
            <path id="Path_41763" data-name="Path 41763" d="M1578.828,208.709a49.286,49.286,0,0,1-3.875-8.635c-1.593-4.216-3.888-8.614-4.9-13.035-1.023-4.463,1.975-8.513,3.552-12.465,2.021-5.067,1.269-9.966-.958-14.832a9.416,9.416,0,0,0-3.982-4.805,22.031,22.031,0,0,0-7.309-2.319,24.374,24.374,0,0,0-14.382,2.179,17.791,17.791,0,0,0-8.578,8.929c-1.854,4.556-.5,8.809,1.431,13.069,1.007,2.217,2.043,4.454,1.877,6.95-.21,3.167-1.435,6.4-2.233,9.461l-4.974,19.065c-.8,3.077,3.959,4.39,4.762,1.312q2.132-8.17,4.263-16.341.977-3.745,1.954-7.49a22.663,22.663,0,0,0,1.117-7.913c-.437-4.388-3.475-7.891-4.135-12.177-.579-3.76,1.847-7.195,4.788-9.284a19.283,19.283,0,0,1,18.406-1.434c2.182,1.022,2.976,3.535,3.658,5.723.674,2.163,1.625,4.5,1.012,6.7a51.657,51.657,0,0,1-2.568,6.767c-1.857,4.155-3.523,7.624-1.925,12.021,1.628,4.481,4.561,8.3,5.906,12.9,1.27,4.344,2.322,8.5,6.083,11.373a1.81,1.81,0,0,0,2.8-.689C1581.375,212.48,1579.668,210.171,1578.828,208.709Z" transform="translate(-1534.406 -152.346)" fill="#fff"/>
          </g>
          <g id="Group_17888" data-name="Group 17888" transform="translate(25.096 0)">
            <g id="Group_17887" data-name="Group 17887">
              <path id="Path_41764" data-name="Path 41764" d="M1533.437,213.5c2.338-10.187,5.728-20.134,7.693-30.408a6.472,6.472,0,0,0-.7-4.565,30.989,30.989,0,0,1-3.3-6.943,14.686,14.686,0,0,1,2.985-14.286c3.3-3.759,8.572-5.235,13.432-5.742,5.1-.531,10.377.14,14.056,3.971a16.509,16.509,0,0,1,4.72,12.705c-.23,4.827-4.029,8.557-4.346,13.288-.173,2.582.735,4.955,1.585,7.341.957,2.686,1.736,5.43,2.612,8.143a87.807,87.807,0,0,0,6.314,14.7c.431.8,1.649.088,1.218-.712A87.075,87.075,0,0,1,1573.33,196c-.8-2.508-1.529-5.037-2.412-7.517-.995-2.792-2.079-5.589-1.248-8.586.63-2.274,1.985-4.359,2.855-6.551a16.388,16.388,0,0,0,1.184-7.118,17.452,17.452,0,0,0-4.729-11.289c-3.268-3.564-7.417-4.892-12.206-4.938a31.187,31.187,0,0,0-14.1,3.193c-3.765,1.914-6.737,6.75-7.473,10.794-.832,4.575.592,9.14,2.764,13.14.746,1.374,1.75,2.6,1.886,4.209a16.3,16.3,0,0,1-.783,4.657c-.682,3.036-1.457,6.051-2.263,9.056-1.613,6.016-3.34,12-4.734,18.073-.2.884,1.157,1.261,1.36.375Z" transform="translate(-1532.056 -150)" fill="#4c4c4d"/>
            </g>
          </g>
          <g id="Group_17890" data-name="Group 17890" transform="translate(25.165 4.786)">
            <g id="Group_17889" data-name="Group 17889">
              <path id="Path_41765" data-name="Path 41765" d="M1532.295,221.869c.575,1.663,1.717,1.891,3.444,1.387,1.879-.548,2.6-2.381,3.307-4.046a72.725,72.725,0,0,0,2.388-8.052q1.21-4.18,2.411-8.363c.822-2.844,1.738-5.671,2.5-8.529a8.544,8.544,0,0,0-.24-6.162c-2.312-4.551-5.5-8.606-4.19-14.033.709-2.932,1.76-5.031,4.453-6.557a18.9,18.9,0,0,1,7.377-2.353c5.061-.518,10.686.908,13.275,5.592,1.478,2.674,2.227,5.334,1.48,8.365a23.3,23.3,0,0,1-3.539,7.214c-2.741,4.1-1.122,9.842.387,14.139a123.956,123.956,0,0,0,6.719,15.915c1.3,2.5,5.056,9.662,8.36,5.211.541-.73-.683-1.434-1.219-.712-1.965,2.647-4.771-3.078-5.518-4.445a77.639,77.639,0,0,1-3.374-7.349c-1.9-4.548-4.126-9.142-5.048-14.019-.539-2.854-.569-5.784,1.069-8.264a25.877,25.877,0,0,0,3.287-6.464c1.326-4.258.2-8.35-2.388-11.9-2.377-3.264-6.669-4.524-10.55-4.754a20.15,20.15,0,0,0-11.748,3.029c-3.386,2.114-4.859,6.4-4.77,10.3.1,4.575,2.86,7.854,4.719,11.791,1.354,2.868-.26,6.254-1.083,9.055q-1.327,4.52-2.621,9.05T1538.549,216a23.571,23.571,0,0,1-1.59,4.293c-.412.791-.641,1.3-1.595,1.6-.8.253-1.438.381-1.709-.4-.295-.853-1.658-.486-1.36.375Z" transform="translate(-1532.252 -163.658)" fill="#4c4c4d"/>
            </g>
          </g>
        </g>
      </g>
      <g id="Group_17893" data-name="Group 17893" transform="translate(67 10839)">
        <text id="Para_el_caso_de_las_prescripciones_de_producto_de_soporte_nutricional_el_artículo_12_en_las_Resoluciones_1885_y_2438_de_2018_es_modificado_por_el_artículo_1_de_la_Resolución_1343_de_2019." data-name="Para el caso de las prescripciones de producto de soporte nutricional, el artículo 12 en las Resoluciones 1885 y 2438 de 2018, es modificado por el artículo 1 de la Resolución 1343 de 2019." transform="translate(541 861.5)" fill="#00223d" font-size="15" font-family="SegoeUI, Segoe UI"><tspan x="47.35" y="16">Para el caso de las </tspan><tspan x="6.744" y="34">prescripciones de producto de </tspan><tspan x="8.813" y="52">soporte nutricional, el artículo </tspan><tspan x="9.509" y="70">12 en las Resoluciones 1885 y </tspan><tspan x="12.527" y="88">2438 de 2018, es modificado </tspan><tspan x="37.363" y="106">por el artículo 1 de la </tspan><tspan x="23.282" y="124">Resolución 1343 de 2019.</tspan></text>
        <text id="_1.2.5_Prescripciones_de_producto_de_soporte_nutricional" data-name="1.2.5 Prescripciones de producto de soporte nutricional" transform="translate(536 783.5)" fill="#ed8730" font-size="18" font-family="SegoeUI-Bold, Segoe UI" font-weight="700"><tspan x="15.553" y="19">1.2.5 Prescripciones de </tspan><tspan x="24.936" y="42">producto de soporte </tspan><tspan x="66.209" y="65">nutricional</tspan></text>
      </g>
    </g>
  </g>
</svg>
