<svg id="Group_16196" data-name="Group 16196" xmlns="http://www.w3.org/2000/svg" width="96" height="96" viewBox="0 0 96 96">
  <g id="Group_16171" data-name="Group 16171" transform="translate(1.549 13.935)">
    <g id="Group_16151" data-name="Group 16151" transform="translate(86.71 3.097)">
      <path id="Path_38804" data-name="Path 38804" d="M2885.479,1021.406v3.1a1.553,1.553,0,0,1-1.548,1.548h-4.645v-6.194h4.645A1.553,1.553,0,0,1,2885.479,1021.406Z" transform="translate(-2879.286 -1019.857)" fill="#aab2bd"/>
    </g>
    <g id="Group_16152" data-name="Group 16152" transform="translate(37.239)">
      <path id="Path_38805" data-name="Path 38805" d="M2814.65,1015.811V1022h-49.471a1.8,1.8,0,0,1,.186-.387l5.017-7.525a3.066,3.066,0,0,1,2.57-1.378h40.15a1.553,1.553,0,0,1,1.549,1.549Z" transform="translate(-2765.179 -1012.714)" fill="#ccd1d9"/>
    </g>
    <g id="Group_16153" data-name="Group 16153" transform="translate(37.161 9.29)">
      <path id="Path_38806" data-name="Path 38806" d="M2814.548,1034.143v6.194H2765v-5.729a1.607,1.607,0,0,1,.078-.464Z" transform="translate(-2765 -1034.143)" fill="#aab2bd"/>
    </g>
    <g id="Group_16154" data-name="Group 16154" transform="translate(15.484 12.387)">
      <path id="Path_38807" data-name="Path 38807" d="M2726.133,1042.463l1.254,5.017H2715l1.254-5.017a1.54,1.54,0,0,1,1.5-1.177h6.875A1.541,1.541,0,0,1,2726.133,1042.463Z" transform="translate(-2715 -1041.286)" fill="#ff826e"/>
    </g>
    <g id="Group_16155" data-name="Group 16155" transform="translate(0 18.581)">
      <path id="Path_38808" data-name="Path 38808" d="M2716.447,1077.249v21.677h-30.968v-7.742a1.553,1.553,0,0,0-1.548-1.548h-4.645v-3.1a9.3,9.3,0,0,1,9.29-9.29h21.678v-15.484h-21.678v-3.1a3.106,3.106,0,0,1,3.1-3.1h24.774v21.677Z" transform="translate(-2679.286 -1055.572)" fill="#e6e9ed"/>
    </g>
    <g id="Group_16156" data-name="Group 16156" transform="translate(37.161 40.258)">
      <path id="Path_38809" data-name="Path 38809" d="M2814.548,1105.572v21.677H2765v-21.677h15.035l1.966,3.453,4.676-2.725v5.466h6.194V1106.3l4.676,2.725,1.967-3.453h15.035Z" transform="translate(-2765 -1105.572)" fill="#ccd1d9"/>
    </g>
    <g id="Group_16157" data-name="Group 16157" transform="translate(37.161 15.484)">
      <path id="Path_38810" data-name="Path 38810" d="M2814.548,1048.429v15.484h-15.035l-1.967-3.453-4.676,2.725v-5.466h-6.194v5.466l-4.676-2.725-1.966,3.453H2765v-15.484Z" transform="translate(-2765 -1048.429)" fill="#ccd1d9"/>
    </g>
    <g id="Group_16158" data-name="Group 16158" transform="translate(68.067 30.968)">
      <path id="Path_38811" data-name="Path 38811" d="M2839.909,1084.143h15.019v9.29h-15.019l1.084-1.9-4.707-2.741,4.707-2.741Z" transform="translate(-2836.286 -1084.143)" fill="#e6e9ed"/>
    </g>
    <g id="Group_16159" data-name="Group 16159" transform="translate(37.161 30.968)">
      <path id="Path_38812" data-name="Path 38812" d="M2783.643,1088.788l-4.708,2.741,1.084,1.9H2765v-9.29h15.02l-1.084,1.9Z" transform="translate(-2765 -1084.143)" fill="#e6e9ed"/>
    </g>
    <g id="Group_16160" data-name="Group 16160" transform="translate(9.29 24.774)">
      <path id="Path_38813" data-name="Path 38813" d="M2722.392,1069.857v15.484H2710V1080.7a1.553,1.553,0,0,0-1.549-1.548h-7.742v-9.29Z" transform="translate(-2700.714 -1069.857)" fill="#69d6f4"/>
    </g>
    <g id="Group_16161" data-name="Group 16161" transform="translate(9.29 34.065)">
      <path id="Path_38814" data-name="Path 38814" d="M2710,1092.834v4.645h-9.291v-6.194h7.742A1.553,1.553,0,0,1,2710,1092.834Z" transform="translate(-2700.714 -1091.286)" fill="#aab2bd"/>
    </g>
    <g id="Group_16162" data-name="Group 16162" transform="translate(0 52.645)">
      <path id="Path_38815" data-name="Path 38815" d="M2685.479,1135.691v7.742h-6.193v-9.291h4.645A1.553,1.553,0,0,1,2685.479,1135.691Z" transform="translate(-2679.286 -1134.143)" fill="#ff826e"/>
    </g>
    <g id="Group_16163" data-name="Group 16163" transform="translate(58.839 61.936)">
      <path id="Path_38816" data-name="Path 38816" d="M2833.054,1161.765a9.3,9.3,0,1,1-8.764-6.193A9.352,9.352,0,0,1,2833.054,1161.765Z" transform="translate(-2815 -1155.572)" fill="#969faa"/>
    </g>
    <g id="Group_16164" data-name="Group 16164" transform="translate(9.29 61.936)">
      <path id="Path_38817" data-name="Path 38817" d="M2718.768,1161.765a9.3,9.3,0,1,1-8.764-6.193A9.358,9.358,0,0,1,2718.768,1161.765Z" transform="translate(-2700.714 -1155.572)" fill="#969faa"/>
    </g>
    <g id="Group_16165" data-name="Group 16165" transform="translate(0 61.936)">
      <path id="Path_38818" data-name="Path 38818" d="M2685.479,1155.572h12.387a9.3,9.3,0,0,0-8.764,6.193h-8.269a1.553,1.553,0,0,1-1.548-1.548v-4.645Z" transform="translate(-2679.286 -1155.572)" fill="#fcd770"/>
    </g>
    <g id="Group_16166" data-name="Group 16166" transform="translate(18.581 61.936)">
      <path id="Path_38819" data-name="Path 38819" d="M2740.723,1155.572h30.968a9.3,9.3,0,0,0-8.764,6.193h-32.021a9.3,9.3,0,0,0-8.764-6.193Z" transform="translate(-2722.143 -1155.572)" fill="#fcd770"/>
    </g>
    <g id="Group_16167" data-name="Group 16167" transform="translate(68.129 61.936)">
      <path id="Path_38820" data-name="Path 38820" d="M2855.01,1155.572v4.645a1.553,1.553,0,0,1-1.549,1.548h-8.268a9.3,9.3,0,0,0-8.764-6.193Z" transform="translate(-2836.429 -1155.572)" fill="#fcd770"/>
    </g>
    <g id="Group_16168" data-name="Group 16168" transform="translate(65.032 68.129)">
      <path id="Path_38821" data-name="Path 38821" d="M2832.383,1169.857a3.1,3.1,0,1,1-3.1,3.1A3.106,3.106,0,0,1,2832.383,1169.857Z" transform="translate(-2829.286 -1169.857)" fill="#ccd1d9"/>
    </g>
    <g id="Group_16169" data-name="Group 16169" transform="translate(14.871 67.516)">
      <circle id="Ellipse_1617" data-name="Ellipse 1617" cx="3.097" cy="3.097" r="3.097" transform="translate(0 6.038) rotate(-77.112)" fill="#ccd1d9"/>
    </g>
    <g id="Group_16170" data-name="Group 16170" transform="translate(51.097 24.774)">
      <path id="Path_38822" data-name="Path 38822" d="M2817.736,1076.051l1.084,1.9-4.707,2.741,4.707,2.741-1.084,1.9h-.015l-1.967,3.453-4.676-2.725v5.466h-6.193v-5.466l-4.676,2.725-1.966-3.453h-.016l-1.084-1.9,4.707-2.741-4.707-2.741,1.084-1.9h.016l1.966-3.453,4.676,2.725v-5.466h6.193v5.466l4.676-2.725,1.967,3.453Z" transform="translate(-2797.143 -1069.857)" fill="#5cd6b3"/>
    </g>
  </g>
  <g id="Group_16195" data-name="Group 16195" transform="translate(0 0)">
    <g id="Group_16172" data-name="Group 16172" transform="translate(15.484 80.516)">
      <path id="Path_38823" data-name="Path 38823" d="M2716.074,1175.576a4.645,4.645,0,1,1,4.645-4.645A4.65,4.65,0,0,1,2716.074,1175.576Zm0-6.193a1.548,1.548,0,1,0,1.548,1.548A1.549,1.549,0,0,0,2716.074,1169.383Z" transform="translate(-2711.429 -1166.286)"/>
    </g>
    <g id="Group_16173" data-name="Group 16173" transform="translate(9.29 74.323)">
      <path id="Path_38824" data-name="Path 38824" d="M2707.982,1173.677a10.839,10.839,0,1,1,10.839-10.839A10.852,10.852,0,0,1,2707.982,1173.677Zm0-18.581a7.742,7.742,0,1,0,7.742,7.742A7.751,7.751,0,0,0,2707.982,1155.1Z" transform="translate(-2697.143 -1152)"/>
    </g>
    <g id="Group_16174" data-name="Group 16174" transform="translate(65.032 80.516)">
      <path id="Path_38825" data-name="Path 38825" d="M2830.359,1175.576a4.645,4.645,0,1,1,4.645-4.645A4.65,4.65,0,0,1,2830.359,1175.576Zm0-6.193a1.548,1.548,0,1,0,1.548,1.548A1.549,1.549,0,0,0,2830.359,1169.383Z" transform="translate(-2825.714 -1166.286)"/>
    </g>
    <g id="Group_16175" data-name="Group 16175" transform="translate(58.839 74.323)">
      <path id="Path_38826" data-name="Path 38826" d="M2822.268,1173.677a10.839,10.839,0,1,1,10.839-10.839A10.852,10.852,0,0,1,2822.268,1173.677Zm0-18.581a7.742,7.742,0,1,0,7.742,7.742A7.751,7.751,0,0,0,2822.268,1155.1Z" transform="translate(-2811.429 -1152)"/>
    </g>
    <g id="Group_16176" data-name="Group 16176" transform="translate(1.548 74.323)">
      <rect id="Rectangle_4053" data-name="Rectangle 4053" width="86.71" height="3.097"/>
    </g>
    <g id="Group_16177" data-name="Group 16177" transform="translate(28.89 80.516)">
      <rect id="Rectangle_4054" data-name="Rectangle 4054" width="32.026" height="3.097"/>
    </g>
    <g id="Group_16178" data-name="Group 16178" transform="translate(0 37.161)">
      <path id="Path_38827" data-name="Path 38827" d="M2687.082,1112.738h-8.271a3.1,3.1,0,0,1-3.1-3.1v-17.032a10.852,10.852,0,0,1,10.839-10.839h20.129v-12.387h-20.129v-3.1h23.226v18.58h-23.226a7.751,7.751,0,0,0-7.742,7.742v17.032h8.271Z" transform="translate(-2675.714 -1066.286)"/>
    </g>
    <g id="Group_16179" data-name="Group 16179" transform="translate(10.839 46.451)">
      <path id="Path_38828" data-name="Path 38828" d="M2711.553,1095.456h-3.1v-4.646h-7.742v-3.1h7.742a3.1,3.1,0,0,1,3.1,3.1Z" transform="translate(-2700.714 -1087.714)"/>
    </g>
    <g id="Group_16180" data-name="Group 16180" transform="translate(1.549 65.032)">
      <path id="Path_38829" data-name="Path 38829" d="M2687.028,1141.411h-3.1v-7.742h-4.645v-3.1h4.645a3.1,3.1,0,0,1,3.1,3.1Z" transform="translate(-2679.286 -1130.572)"/>
    </g>
    <g id="Group_16181" data-name="Group 16181" transform="translate(9.29 30.968)">
      <path id="Path_38830" data-name="Path 38830" d="M2700.24,1075.226h-3.1v-18.581a4.65,4.65,0,0,1,4.645-4.645h24.774v3.1h-24.774a1.549,1.549,0,0,0-1.548,1.548Z" transform="translate(-2697.143 -1052)"/>
    </g>
    <g id="Group_16182" data-name="Group 16182" transform="translate(37.162 12.387)">
      <path id="Path_38831" data-name="Path 38831" d="M2810.977,1080.369h-8.271v-3.1h8.271V1012.24h-40.149a1.543,1.543,0,0,0-1.288.689l-5.014,7.521v52.177h-3.1V1020.45a3.09,3.09,0,0,1,.52-1.718l5.015-7.521a4.634,4.634,0,0,1,3.865-2.068h40.149a3.1,3.1,0,0,1,3.1,3.1v65.032A3.1,3.1,0,0,1,2810.977,1080.369Z" transform="translate(-2761.429 -1009.143)"/>
    </g>
    <g id="Group_16183" data-name="Group 16183" transform="translate(27.871 58.839)">
      <rect id="Rectangle_4055" data-name="Rectangle 4055" width="6.194" height="3.097"/>
    </g>
    <g id="Group_16184" data-name="Group 16184" transform="translate(15.531 24.774)">
      <path id="Path_38832" data-name="Path 38832" d="M2723.924,1045.831l-1.255-5.021H2715.8l-1.257,5.021-3-.75,1.255-5.021a3.092,3.092,0,0,1,3-2.347h6.871a3.091,3.091,0,0,1,3,2.347l1.255,5.021Z" transform="translate(-2711.537 -1037.714)"/>
    </g>
    <g id="Group_16185" data-name="Group 16185" transform="translate(38.783 15.484)">
      <path id="Path_38833" data-name="Path 38833" d="M2819.289,1025.576h-54.121v-3.1h54.121v-3.1h-4.645v-3.1h4.645a3.1,3.1,0,0,1,3.1,3.1v3.1A3.1,3.1,0,0,1,2819.289,1025.576Z" transform="translate(-2765.168 -1016.286)"/>
    </g>
    <g id="Group_16186" data-name="Group 16186" transform="translate(50.539 37.161)">
      <path id="Path_38834" data-name="Path 38834" d="M2809.874,1091.06h-9.29v-4.313l-3.693,2.15-4.607-8.052,3.729-2.173-3.729-2.173,4.607-8.052,3.693,2.151v-4.312h9.29v4.313l3.693-2.151,4.607,8.052-3.729,2.173,3.729,2.173-4.607,8.052-3.693-2.15Zm-6.193-3.1h3.1v-6.6l5.652,3.293,1.531-2.678-5.67-3.3,5.67-3.3-1.531-2.678-5.652,3.293v-6.6h-3.1v6.6l-5.652-3.293-1.532,2.678,5.67,3.3-5.67,3.3,1.532,2.678,5.652-3.293Z" transform="translate(-2792.284 -1066.286)"/>
    </g>
    <g id="Group_16187" data-name="Group 16187" transform="translate(38.71 27.871)">
      <rect id="Rectangle_4056" data-name="Rectangle 4056" width="49.548" height="3.097"/>
    </g>
    <g id="Group_16188" data-name="Group 16188" transform="translate(38.71 43.355)">
      <rect id="Rectangle_4057" data-name="Rectangle 4057" width="15.027" height="3.097"/>
    </g>
    <g id="Group_16189" data-name="Group 16189" transform="translate(38.71 52.645)">
      <rect id="Rectangle_4058" data-name="Rectangle 4058" width="15.027" height="3.097"/>
    </g>
    <g id="Group_16190" data-name="Group 16190" transform="translate(73.231 43.355)">
      <rect id="Rectangle_4059" data-name="Rectangle 4059" width="15.027" height="3.097"/>
    </g>
    <g id="Group_16191" data-name="Group 16191" transform="translate(73.231 52.645)">
      <rect id="Rectangle_4060" data-name="Rectangle 4060" width="15.027" height="3.097"/>
    </g>
    <g id="Group_16192" data-name="Group 16192" transform="translate(21.678)">
      <rect id="Rectangle_4061" data-name="Rectangle 4061" width="3.097" height="12.387"/>
    </g>
    <g id="Group_16193" data-name="Group 16193" transform="translate(6.647 5.099)">
      <rect id="Rectangle_4062" data-name="Rectangle 4062" width="3.096" height="13.139" transform="translate(0 2.189) rotate(-45)"/>
    </g>
    <g id="Group_16194" data-name="Group 16194" transform="translate(28.325 5.099)">
      <rect id="Rectangle_4063" data-name="Rectangle 4063" width="13.139" height="3.096" transform="translate(0 9.29) rotate(-45)"/>
    </g>
  </g>
</svg>
