<svg xmlns="http://www.w3.org/2000/svg" width="121" height="121" viewBox="0 0 121 121">
  <g id="Group_25056" data-name="Group 25056" transform="translate(-215 -2998)">
    <g id="Group_1010" data-name="Group 1010" transform="translate(2476 6905)">
      <circle id="Ellipse_497" data-name="Ellipse 497" cx="60.5" cy="60.5" r="60.5" transform="translate(-2261 -3907)" fill="#92934e"/>
      <path id="Path_1178" data-name="Path 1178" d="M53.993,0A53.993,53.993,0,1,1,0,53.993,53.993,53.993,0,0,1,53.993,0Z" transform="translate(-2254 -3900)" fill="#fff"/>
    </g>
    <g id="Group_17911" data-name="Group 17911" transform="translate(243 3031.5)">
      <g id="Group_17910" data-name="Group 17910" transform="translate(0 0)">
        <path id="Path_41815" data-name="Path 41815" d="M925.534-72.767c0,5.524-3.313,10-7.4,10s-7.4-4.477-7.4-10,3.313-10,7.4-10S925.534-78.291,925.534-72.767Z" transform="translate(-902.957 82.77)" fill="#ed8730"/>
        <path id="Path_41816" data-name="Path 41816" d="M942.91-72.767c0,5.524-3.313,10-7.4,10s-7.4-4.477-7.4-10,3.313-10,7.4-10S942.91-78.291,942.91-72.767Z" transform="translate(-885.184 82.77)" fill="#ed8730"/>
        <path id="Path_41817" data-name="Path 41817" d="M934.214-72.767c0,5.524-3.313,10-7.4,10s-7.4-4.479-7.4-10,3.313-10,7.4-10S934.214-78.291,934.214-72.767Z" transform="translate(-894.079 82.77)" fill="#ed8730"/>
        <path id="Path_41818" data-name="Path 41818" d="M934.214-61.412c0,5.524-3.313,10-7.4,10s-7.4-4.479-7.4-10,3.313-10,7.4-10S934.214-66.936,934.214-61.412Z" transform="translate(-894.079 94.384)" fill="#ed8730"/>
        <path id="Path_41819" data-name="Path 41819" d="M922.165-71.419a6.244,6.244,0,0,0-4.118,1.628c-3.421,3.044-4.27,8.87-2.292,13.486a9.794,9.794,0,0,0,1.622,2.624c-2.1,1.078-4.667,2.132-6.983,3.368l-.024.012v0c-2.516,1.285-3.479,4.543-3.479,7.667a1.049,1.049,0,0,0,.623.955c4.175,1.865,11.383,2.021,14.552,2.021s10.381-.156,14.556-2.021a1.046,1.046,0,0,0,.619-.955,12.035,12.035,0,0,0-1.139-4.905,7.022,7.022,0,0,0-2.959-3.512c-1.744-.878-4.1-1.7-6.172-2.755,2.769-3.186,3.346-8.458,1.525-12.708a7.9,7.9,0,0,0-4.533-4.614,5.581,5.581,0,0,0-1.507-.287c-.1-.006-.2-.008-.291-.008Z" transform="translate(-906.89 94.38)" fill="#ed8730"/>
        <path id="Path_41820" data-name="Path 41820" d="M939.388-71.417a5.574,5.574,0,0,0-1.982.344,8.043,8.043,0,0,0-4.46,4.721c-1.74,4.238-1.139,9.414,1.592,12.55-2.074,1.058-4.426,1.877-6.17,2.753h0a7.038,7.038,0,0,0-2.959,3.512,12.033,12.033,0,0,0-1.139,4.907,1.047,1.047,0,0,0,.621.955c4.175,1.865,11.385,2.019,14.554,2.019S949.824-39.81,954-41.675a1.053,1.053,0,0,0,.619-.955c0-3.125-.959-6.384-3.475-7.669v0l-.024-.012c-2.32-1.238-4.893-2.292-6.993-3.372a9.8,9.8,0,0,0,1.693-2.779c1.916-4.661,1-10.464-2.472-13.43a6.214,6.214,0,0,0-3.667-1.511c-.1-.006-.194-.008-.291-.008Z" transform="translate(-889.116 94.382)" fill="#ed8730"/>
      </g>
    </g>
  </g>
</svg>
