<svg xmlns="http://www.w3.org/2000/svg" width="121" height="121" viewBox="0 0 121 121">
  <g id="Group_25058" data-name="Group 25058" transform="translate(-215 -3358)">
    <g id="Group_9934" data-name="Group 9934" transform="translate(2476 7265)">
      <circle id="Ellipse_497" data-name="Ellipse 497" cx="60.5" cy="60.5" r="60.5" transform="translate(-2261 -3907)" fill="#92934e"/>
      <path id="Path_1178" data-name="Path 1178" d="M53.993,0A53.993,53.993,0,1,1,0,53.993,53.993,53.993,0,0,1,53.993,0Z" transform="translate(-2254 -3900)" fill="#fff"/>
    </g>
    <g id="Group_17906" data-name="Group 17906" transform="translate(244 3382.88)">
      <g id="Group_17905" data-name="Group 17905" transform="translate(0 0)">
        <path id="Path_41809" data-name="Path 41809" d="M1045.518-61.525a3.986,3.986,0,0,0-3.164,1.7,5.486,5.486,0,0,0-1.007,3.259v26.9h-11.6a2.078,2.078,0,0,0-2.083,2.084V-2.879q6.842-.046,13.679-.053,2.084,0,4.171,0V-32.815h17.718v29.9h4.171q6.839,0,13.681-.02V-27.584A2.082,2.082,0,0,0,1079-29.667h-11.593v-26.9a5.485,5.485,0,0,0-1.007-3.259,3.989,3.989,0,0,0-3.164-1.7Zm7.286,7.135h3.148a.784.784,0,0,1,.787.787v4.234h4.23a.783.783,0,0,1,.785.785v3.148a.783.783,0,0,1-.785.787h-4.23v4.228a.784.784,0,0,1-.787.787H1052.8a.787.787,0,0,1-.789-.787V-44.65h-4.23a.784.784,0,0,1-.785-.787v-3.148a.783.783,0,0,1,.785-.785h4.23V-53.6A.787.787,0,0,1,1052.8-54.39Zm-20.645,28.407h5.733a1.044,1.044,0,0,1,1.044,1.044v5.733a1.044,1.044,0,0,1-1.044,1.044h-5.733a1.044,1.044,0,0,1-1.044-1.044V-24.94A1.044,1.044,0,0,1,1032.159-25.984Zm38.707,0h5.735a1.039,1.039,0,0,1,1.04,1.044v5.733a1.039,1.039,0,0,1-1.04,1.044h-5.735a1.04,1.04,0,0,1-1.039-1.044V-24.94A1.04,1.04,0,0,1,1070.866-25.984Zm-38.707,11.749h5.733a1.044,1.044,0,0,1,1.044,1.046v5.731a1.044,1.044,0,0,1-1.044,1.044h-5.733a1.044,1.044,0,0,1-1.044-1.044v-5.731A1.044,1.044,0,0,1,1032.159-14.235Zm38.707,0h5.735a1.039,1.039,0,0,1,1.04,1.046v5.731a1.039,1.039,0,0,1-1.04,1.044h-5.735a1.04,1.04,0,0,1-1.039-1.044v-5.731A1.041,1.041,0,0,1,1070.866-14.235Z" transform="translate(-1022.67 61.525)" fill="#ed8730"/>
        <rect id="Rectangle_4962" data-name="Rectangle 4962" width="63.417" height="5.073" rx="0.502" transform="translate(0 60.428)" fill="#ed8730"/>
      </g>
    </g>
  </g>
</svg>
