<svg xmlns="http://www.w3.org/2000/svg" xmlns:xlink="http://www.w3.org/1999/xlink" width="161.7" height="136.057" viewBox="0 0 161.7 136.057">
  <defs>
    <linearGradient id="linear-gradient" x1="-0.154" y1="0.5" x2="0.846" y2="0.5" gradientUnits="objectBoundingBox">
      <stop offset="0.396" stop-color="#3d4663"/>
      <stop offset="0.433" stop-color="#3d4663"/>
      <stop offset="0.619" stop-color="#616b8c"/>
    </linearGradient>
    <linearGradient id="linear-gradient-2" x1="-0.105" y1="0.531" x2="-0.125" y2="0.472" gradientUnits="objectBoundingBox">
      <stop offset="0" stop-color="#bfccd9"/>
      <stop offset="0.006" stop-color="#c0cdd9"/>
      <stop offset="0.116" stop-color="#d5deea"/>
      <stop offset="0.225" stop-color="#e1e9f3"/>
      <stop offset="0.328" stop-color="#e6edf7"/>
      <stop offset="0.686" stop-color="#e4ebf5"/>
      <stop offset="0.82" stop-color="#dde5f0"/>
      <stop offset="0.917" stop-color="#d1dbe7"/>
      <stop offset="0.995" stop-color="#c0cdda"/>
      <stop offset="1" stop-color="#bfccd9"/>
    </linearGradient>
    <linearGradient id="linear-gradient-3" x1="0.337" y1="0.767" x2="0.854" y2="-0.355" gradientUnits="objectBoundingBox">
      <stop offset="0" stop-color="#d6deeb"/>
      <stop offset="0.034" stop-color="#d3dce8"/>
      <stop offset="0.173" stop-color="#d1dbe6"/>
      <stop offset="0.303" stop-color="#e5ebf1"/>
      <stop offset="0.433" stop-color="#f2f5f9"/>
      <stop offset="0.553" stop-color="#f7f9fc"/>
    </linearGradient>
    <linearGradient id="linear-gradient-4" x1="0.391" y1="0.823" x2="0.746" y2="-0.475" gradientUnits="objectBoundingBox">
      <stop offset="0" stop-color="#d6deeb"/>
      <stop offset="0.034" stop-color="#d3dce8"/>
      <stop offset="0.173" stop-color="#d1dbe6"/>
      <stop offset="0.276" stop-color="#e5ebf1"/>
      <stop offset="0.378" stop-color="#f2f5f9"/>
      <stop offset="0.473" stop-color="#f7f9fc"/>
    </linearGradient>
    <linearGradient id="linear-gradient-5" x1="0.323" y1="0.695" x2="0.817" y2="-0.227" gradientUnits="objectBoundingBox">
      <stop offset="0" stop-color="#d6deeb"/>
      <stop offset="0.034" stop-color="#d3dce8"/>
      <stop offset="0.173" stop-color="#d1dbe6"/>
      <stop offset="0.337" stop-color="#e5ebf1"/>
      <stop offset="0.501" stop-color="#f2f5f9"/>
      <stop offset="0.653" stop-color="#f7f9fc"/>
    </linearGradient>
    <linearGradient id="linear-gradient-6" x1="0.323" y1="0.695" x2="0.817" y2="-0.227" xlink:href="#linear-gradient-5"/>
    <linearGradient id="linear-gradient-7" x1="-105.761" y1="18.933" x2="-104.836" y2="17.785" gradientUnits="objectBoundingBox">
      <stop offset="0.084" stop-color="#616b8c"/>
      <stop offset="0.152" stop-color="#6c7697"/>
      <stop offset="0.262" stop-color="#7982a3"/>
      <stop offset="0.365" stop-color="#7e87a8"/>
    </linearGradient>
    <linearGradient id="linear-gradient-8" x1="-96.38" y1="-21.091" x2="-95.395" y2="-22.508" xlink:href="#linear-gradient-7"/>
    <linearGradient id="linear-gradient-9" y1="0.5" x2="1" y2="0.5" gradientUnits="objectBoundingBox">
      <stop offset="0" stop-color="#bfccd9"/>
      <stop offset="0.77" stop-color="#e6edf7"/>
    </linearGradient>
    <linearGradient id="linear-gradient-10" y1="0.5" x2="1" y2="0.5" gradientUnits="objectBoundingBox">
      <stop offset="0" stop-color="#d6deeb"/>
      <stop offset="0.034" stop-color="#d3dce8"/>
      <stop offset="0.173" stop-color="#d1dbe6"/>
      <stop offset="0.397" stop-color="#e5ebf1"/>
      <stop offset="0.622" stop-color="#f2f5f9"/>
      <stop offset="0.83" stop-color="#f7f9fc"/>
    </linearGradient>
    <linearGradient id="linear-gradient-14" x1="0.118" y1="1.324" x2="0.742" y2="0.15" gradientUnits="objectBoundingBox">
      <stop offset="0.306" stop-color="#edb79a"/>
      <stop offset="0.358" stop-color="#e4ac8e"/>
      <stop offset="0.543" stop-color="#c78c6b"/>
      <stop offset="0.643" stop-color="#bd805e"/>
      <stop offset="0.75" stop-color="#edb79a"/>
    </linearGradient>
    <linearGradient id="linear-gradient-15" x1="-17.318" y1="17.287" x2="-17.431" y2="17.051" gradientUnits="objectBoundingBox">
      <stop offset="0.515" stop-color="#3d4663"/>
      <stop offset="0.635" stop-color="#48516e"/>
      <stop offset="0.851" stop-color="#666f8e"/>
      <stop offset="1" stop-color="#7e87a8"/>
    </linearGradient>
    <linearGradient id="linear-gradient-16" x1="-24.186" y1="22.757" x2="-24.312" y2="22.503" xlink:href="#linear-gradient-15"/>
    <linearGradient id="linear-gradient-17" x1="-90.714" y1="62.774" x2="-89.792" y2="62.774" gradientUnits="objectBoundingBox">
      <stop offset="0.606" stop-color="#f7f9fc"/>
      <stop offset="0.939" stop-color="#e6edf7"/>
    </linearGradient>
    <linearGradient id="linear-gradient-18" x1="-92.37" y1="69.579" x2="-92.812" y2="68.839" xlink:href="#linear-gradient-15"/>
    <linearGradient id="linear-gradient-19" x1="-6.161" y1="-21.125" x2="-6.035" y2="-20.915" gradientUnits="objectBoundingBox">
      <stop offset="0" stop-color="#bfccd9"/>
      <stop offset="0.139" stop-color="#c8d3e0"/>
      <stop offset="0.415" stop-color="#d4dde9"/>
      <stop offset="0.692" stop-color="#d8e1ed"/>
    </linearGradient>
    <linearGradient id="linear-gradient-20" x1="-49.687" y1="37.164" x2="-48.37" y2="37.164" xlink:href="#linear-gradient-17"/>
    <linearGradient id="linear-gradient-21" x1="0.697" y1="-0.03" x2="0.328" y2="0.894" gradientUnits="objectBoundingBox">
      <stop offset="0.34" stop-color="#f2e6df"/>
      <stop offset="0.987" stop-color="#f2d8c9"/>
    </linearGradient>
    <linearGradient id="linear-gradient-22" x1="0.793" y1="-0.095" x2="0.325" y2="0.989" xlink:href="#linear-gradient-21"/>
    <linearGradient id="linear-gradient-24" y1="0.5" x2="1" y2="0.5" gradientUnits="objectBoundingBox">
      <stop offset="0.774" stop-color="#fff"/>
      <stop offset="1" stop-color="#e6edf7"/>
    </linearGradient>
    <linearGradient id="linear-gradient-25" y1="0.5" x2="1" y2="0.5" gradientUnits="objectBoundingBox">
      <stop offset="0.774" stop-color="#f7f9fc"/>
      <stop offset="1" stop-color="#e6edf7"/>
    </linearGradient>
    <linearGradient id="linear-gradient-26" y1="0.5" x2="1" y2="0.5" gradientUnits="objectBoundingBox">
      <stop offset="0.12" stop-color="#bfccd9"/>
      <stop offset="0.561" stop-color="#e6edf7"/>
    </linearGradient>
  </defs>
  <g id="Group_17700" data-name="Group 17700" transform="translate(-2425.612 672.43)">
    <g id="tablet" transform="translate(2434.333 -616.71)">
      <path id="Path_38984" data-name="Path 38984" d="M2648.7,228.81c1.591.923,1.584,2.429-.014,3.348l-33.227,20.311c-1.6.918-6.785,1.178-8.376.255l-49.458-28.692c-1.591-.923-1.585-2.429.014-3.348l35.805-20.574a6.432,6.432,0,0,1,5.8.008Z" transform="translate(-2556.43 -197.022)" fill="#191919" opacity="0.2" style="mix-blend-mode: multiply;isolation: isolate"/>
      <path id="Path_38985" data-name="Path 38985" d="M2708.649,217.211l.069,1.625a2.417,2.417,0,0,1-1.269,1.662l-35.8,20.575a6.433,6.433,0,0,1-5.8-.008l-49.458-28.692c-.81-.47-1.1-.924-1.132-1.427l-.057-1.835,37.008-20.659a6.431,6.431,0,0,1,5.8.008Z" transform="translate(-2611.281 -186.14)" fill="url(#linear-gradient)"/>
      <path id="Path_38986" data-name="Path 38986" d="M2707.463,192.888c1.591.923,1.585,2.429-.014,3.348l-35.805,20.575a6.433,6.433,0,0,1-5.8-.008l-49.458-28.692c-1.591-.923-1.585-2.429.014-3.348l35.805-20.574a5.73,5.73,0,0,1,5.8.008Z" transform="translate(-2611.28 -163.404)" fill="#97a2c9"/>
      <path id="Path_38987" data-name="Path 38987" d="M2675.311,220.815a6,6,0,0,1-2.458-.512l-49.459-28.692a1.988,1.988,0,0,1-1.168-1.674c0-.684.458-1.144,1.181-1.559l35.805-20.575a5.385,5.385,0,0,1,4.9.007l49.459,28.692a2.018,2.018,0,0,1,1.216,1.583,2.116,2.116,0,0,1-1.228,1.65l-35.805,20.574A6.626,6.626,0,0,1,2675.311,220.815Z" transform="translate(-2617.839 -166.962)" fill="#7e87a8"/>
      <path id="Path_38988" data-name="Path 38988" d="M2774.317,252.045l-1.483-.86a3.728,3.728,0,0,0-2.789-.23.584.584,0,0,0-.2.017s-.544-.314-.544-.314a.425.425,0,0,0-.423,0l-22.194,12.611a.2.2,0,0,0,0,.341l.567.328a1.032,1.032,0,0,0,.009,1.942l1.483.861a3.674,3.674,0,0,0,3.313,0l22.251-12.786A1.011,1.011,0,0,0,2774.317,252.045Zm-.834,1.434-22.251,12.786a1.833,1.833,0,0,1-1.657,0l-1.484-.861a.505.505,0,0,1,0-.957l.018-.01.051.029.122.071,1.02.592,22.578-12.974-1.244-.721.125.073a1.839,1.839,0,0,1,1.238.157l1.483.86A.505.505,0,0,1,2773.483,253.478Z" transform="translate(-2733.898 -244.787)" fill="#97a2c9" style="mix-blend-mode: multiply;isolation: isolate"/>
      <path id="Path_38989" data-name="Path 38989" d="M2782.74,247.422l-22.578,13.116-2.572-1.493a.285.285,0,0,1-.142-.256l.016-.5,22.361-12.562Z" transform="translate(-2744.047 -240.243)" fill="#bfccd9"/>
      <g id="Group_16384" data-name="Group 16384" transform="translate(9.576 3.22)">
        <path id="Path_38990" data-name="Path 38990" d="M2781.98,256l-35.311,20.29-46.594-27.031,35.311-20.29Z" transform="translate(-2700.074 -227.821)" fill="#d5d9eb"/>
        <path id="Path_38991" data-name="Path 38991" d="M2781.979,247.373l-35.311,20.29-46.594-27.031,35.31-20.29Z" transform="translate(-2700.073 -219.766)" fill="#eaecf5"/>
        <path id="Path_38992" data-name="Path 38992" d="M2781.977,238.743l-35.311,20.29L2700.071,232l35.311-20.29Z" transform="translate(-2700.071 -211.712)" fill="#fff"/>
      </g>
      <path id="Path_38993" data-name="Path 38993" d="M2840.994,284.086c-6.1,3.506-16.99,9.831-22.251,12.786a3.343,3.343,0,0,1-1.59.171l24.352-13.756A.853.853,0,0,1,2840.994,284.086Z" transform="translate(-2799.772 -275.295)" fill="#979797" style="mix-blend-mode: darken;isolation: isolate"/>
      <path id="Path_38994" data-name="Path 38994" d="M2787.15,263.877,2764.9,276.663a3.67,3.67,0,0,1-3.313,0l-1.44-.835.831-.476,1.439.835a1.838,1.838,0,0,0,1.658,0l22.25-12.786a.5.5,0,0,0,0-.957l-1.438-.835.829-.478,1.44.835A1.011,1.011,0,0,1,2787.15,263.877Z" transform="translate(-2746.565 -254.614)" fill="#d5d9eb" style="mix-blend-mode: multiply;isolation: isolate"/>
      <path id="Path_38995" data-name="Path 38995" d="M2780.777,250.383l.865.5a1.839,1.839,0,0,1,1.238.157l1.483.86a.505.505,0,0,1,0,.957l-22.251,12.786a1.834,1.834,0,0,1-1.657,0l-1.484-.861c-.456-.264-.467-.681-.009-.944a.487.487,0,0,0,.086-.26c0-.174-.014-.173-.014-.173l-.868-.07-.7.485a1.775,1.775,0,0,0-.006.475,1.218,1.218,0,0,0,.679.963l1.484.86a3.674,3.674,0,0,0,3.313,0l22.251-12.786a1.176,1.176,0,0,0,.687-.993c0-.334,0-.455,0-.455l-2.162-1.325A3.733,3.733,0,0,0,2780.777,250.383Z" transform="translate(-2744.048 -244.383)" fill="#bfccd9"/>
      <path id="Path_38996" data-name="Path 38996" d="M2780.8,244.657l.865.5a1.839,1.839,0,0,1,1.238.157l1.483.86a.505.505,0,0,1,0,.957l-22.251,12.786a1.834,1.834,0,0,1-1.657,0l-1.483-.861a.505.505,0,0,1,0-.957l.018-.01.616-.368a7.515,7.515,0,0,0-.649-.657l-.827.525a1.032,1.032,0,0,0,.008,1.943l1.484.86a3.674,3.674,0,0,0,3.313,0l22.251-12.786a1.011,1.011,0,0,0,.007-1.913l-1.482-.86A3.733,3.733,0,0,0,2780.8,244.657Z" transform="translate(-2744.069 -239.039)" fill="#f7f9fc"/>
      <path id="Path_38997" data-name="Path 38997" d="M2782.984,243.174l-22.578,12.974-1.02-.592-.122-.071a1.047,1.047,0,0,0-.094-.311,1.086,1.086,0,0,0-.068-.112.668.668,0,0,0-.205-.192c-.021-.011-.042-.022-.065-.032a.363.363,0,0,0-.253-.011.631.631,0,0,0-.226.129l-.566-.328a.2.2,0,0,1,0-.341l22.194-12.611a.424.424,0,0,1,.423,0l.542.315a.6.6,0,0,1,.344.01.035.035,0,0,1,.011,0,.587.587,0,0,1,.119.053l.016.009c.007,0,.019.012.031.021a.48.48,0,0,1,.072.058l.013.012a.8.8,0,0,1,.089.1l.008.011a.976.976,0,0,1,.077.139c.009.021.015.041.015.041Z" transform="translate(-2744.271 -236.406)" fill="#f7f9fc"/>
      <path id="Path_38998" data-name="Path 38998" d="M2816.195,262.408l.29.168-22.578,12.974-.325-.188Z" transform="translate(-2777.772 -255.808)" fill="#e6edf7"/>
      <path id="Path_38999" data-name="Path 38999" d="M2790.845,248.322l-22.367,13.014a.841.841,0,0,0-.064-.288.651.651,0,0,0-.325-.322.578.578,0,0,0-.429.056l22.543-12.9a.673.673,0,0,1,.344.01.036.036,0,0,1,.011,0,.584.584,0,0,1,.119.053l.016.009a.279.279,0,0,1,.031.021.493.493,0,0,1,.073.058l.013.012a.793.793,0,0,1,.088.1l.008.011C2790.942,248.215,2790.845,248.322,2790.845,248.322Z" transform="translate(-2753.578 -242.231)" fill="#bfccd9"/>
      <path id="Path_39000" data-name="Path 39000" d="M2790.9,246.289l-22.529,13a1.775,1.775,0,0,0-.086-.307.633.633,0,0,0-.346-.339c-.263-.071-.317.046-.479.118l-.014-.008,22.607-12.956a.439.439,0,0,1,.477-.047.858.858,0,0,1,.319.408C2790.859,246.179,2790.9,246.289,2790.9,246.289Z" transform="translate(-2753.38 -240.211)" fill="url(#linear-gradient-2)"/>
      <g id="Group_16445" data-name="Group 16445" transform="translate(22.696 10.948)">
        <g id="Group_16385" data-name="Group 16385" transform="translate(6.754 19.055)">
          <path id="Path_39001" data-name="Path 39001" d="M2998.465,616.149a.272.272,0,0,1-.136-.508l3.707-2.14a.272.272,0,1,1,.272.471l-3.706,2.14A.27.27,0,0,1,2998.465,616.149Z" transform="translate(-2998.193 -613.465)" fill="#bfccd9"/>
        </g>
        <g id="Group_16386" data-name="Group 16386" transform="translate(5.527 16.684)">
          <path id="Path_39002" data-name="Path 39002" d="M2980.058,582.212a.272.272,0,0,1-.136-.508l6.537-3.774a.272.272,0,0,1,.272.471l-6.537,3.774A.27.27,0,0,1,2980.058,582.212Z" transform="translate(-2979.785 -577.893)" fill="#bfccd9"/>
        </g>
        <g id="Group_16389" data-name="Group 16389" transform="translate(8.5 4.831)">
          <g id="Group_16387" data-name="Group 16387" transform="translate(0 3.817)">
            <path id="Path_39003" data-name="Path 39003" d="M3024.666,461.544a.272.272,0,0,1-.136-.508l6.311-3.644a.272.272,0,0,1,.272.471l-6.311,3.644A.269.269,0,0,1,3024.666,461.544Z" transform="translate(-3024.393 -457.356)" fill="#e6edf7"/>
          </g>
          <g id="Group_16388" data-name="Group 16388" transform="translate(7.647)">
            <path id="Path_39004" data-name="Path 39004" d="M3139.371,403.686a.272.272,0,0,1-.136-.508l5.276-3.046a.272.272,0,1,1,.272.471l-5.276,3.046A.271.271,0,0,1,3139.371,403.686Z" transform="translate(-3139.099 -400.096)" fill="#e6edf7"/>
          </g>
        </g>
        <g id="Group_16390" data-name="Group 16390" transform="translate(21.429 9.792)">
          <path id="Path_39005" data-name="Path 39005" d="M3218.61,478.1a.272.272,0,0,1-.136-.508l5.276-3.046a.272.272,0,0,1,.272.471l-5.276,3.046A.27.27,0,0,1,3218.61,478.1Z" transform="translate(-3218.337 -474.507)" fill="#e6edf7"/>
        </g>
        <g id="Group_16395" data-name="Group 16395" transform="translate(4.577 2.566)">
          <g id="Group_16391" data-name="Group 16391" transform="translate(0 8.232)">
            <path id="Path_39006" data-name="Path 39006" d="M2965.81,492.286a.272.272,0,0,1-.136-.508l3.707-2.14a.272.272,0,0,1,.272.471l-3.707,2.14A.271.271,0,0,1,2965.81,492.286Z" transform="translate(-2965.538 -489.602)" fill="#bfccd9"/>
          </g>
          <g id="Group_16392" data-name="Group 16392" transform="translate(5.017 3.702)">
            <path id="Path_39007" data-name="Path 39007" d="M3041.07,425.959a.272.272,0,0,1-.136-.508l6.536-3.774a.272.272,0,1,1,.272.471l-6.536,3.774A.272.272,0,0,1,3041.07,425.959Z" transform="translate(-3040.797 -421.641)" fill="#bfccd9"/>
          </g>
          <g id="Group_16393" data-name="Group 16393" transform="translate(12.856 2.178)">
            <path id="Path_39008" data-name="Path 39008" d="M3158.656,400.11a.272.272,0,0,1-.136-.508l1.336-.771a.272.272,0,0,1,.272.471l-1.336.771A.272.272,0,0,1,3158.656,400.11Z" transform="translate(-3158.383 -398.795)" fill="#bfccd9"/>
          </g>
          <g id="Group_16394" data-name="Group 16394" transform="translate(15.46)">
            <path id="Path_39009" data-name="Path 39009" d="M3197.725,368.106a.272.272,0,0,1-.136-.508l2.5-1.446a.272.272,0,1,1,.272.471l-2.5,1.446A.273.273,0,0,1,3197.725,368.106Z" transform="translate(-3197.453 -366.116)" fill="#bfccd9"/>
          </g>
        </g>
        <g id="Group_16396" data-name="Group 16396" transform="translate(26.571 18.221)">
          <path id="Path_39010" data-name="Path 39010" d="M3295.735,605.267a.272.272,0,0,1-.136-.508l6.536-3.774a.272.272,0,0,1,.272.471l-6.536,3.774A.273.273,0,0,1,3295.735,605.267Z" transform="translate(-3295.463 -600.949)" fill="#bfccd9"/>
        </g>
        <g id="Group_16397" data-name="Group 16397" transform="translate(34.41 16.698)">
          <path id="Path_39011" data-name="Path 39011" d="M3413.321,579.419a.272.272,0,0,1-.136-.508l1.336-.771a.272.272,0,0,1,.272.471l-1.336.771A.272.272,0,0,1,3413.321,579.419Z" transform="translate(-3413.049 -578.104)" fill="#bfccd9"/>
        </g>
        <g id="Group_16398" data-name="Group 16398" transform="translate(37.014 14.519)">
          <path id="Path_39012" data-name="Path 39012" d="M3452.392,547.415a.272.272,0,0,1-.136-.508l2.5-1.446a.272.272,0,1,1,.272.471l-2.5,1.446A.271.271,0,0,1,3452.392,547.415Z" transform="translate(-3452.12 -545.425)" fill="#bfccd9"/>
        </g>
        <g id="Group_16399" data-name="Group 16399" transform="translate(28.341 21.743)">
          <path id="Path_39013" data-name="Path 39013" d="M3322.283,655.609a.272.272,0,0,1-.136-.508l2.2-1.273a.272.272,0,0,1,.272.471l-2.2,1.273A.27.27,0,0,1,3322.283,655.609Z" transform="translate(-3322.011 -653.792)" fill="#bfccd9"/>
        </g>
        <g id="Group_16400" data-name="Group 16400" transform="translate(32.048 18.476)">
          <path id="Path_39014" data-name="Path 39014" d="M3377.9,607.717a.272.272,0,0,1-.136-.508l4.157-2.4a.272.272,0,1,1,.272.471l-4.157,2.4A.27.27,0,0,1,3377.9,607.717Z" transform="translate(-3377.624 -604.773)" fill="#bfccd9"/>
        </g>
        <g id="Group_16401" data-name="Group 16401" transform="translate(37.641 15.541)">
          <path id="Path_39015" data-name="Path 39015" d="M3461.8,563.4a.272.272,0,0,1-.136-.508l3.647-2.106a.272.272,0,0,1,.272.471l-3.647,2.106A.273.273,0,0,1,3461.8,563.4Z" transform="translate(-3461.523 -560.752)" fill="#bfccd9"/>
        </g>
        <g id="Group_16402" data-name="Group 16402" transform="translate(30.11 21.04)">
          <path id="Path_39016" data-name="Path 39016" d="M3348.831,646.779a.272.272,0,0,1-.136-.508l5.193-3a.272.272,0,1,1,.272.471l-5.193,3A.269.269,0,0,1,3348.831,646.779Z" transform="translate(-3348.558 -643.236)" fill="#bfccd9"/>
        </g>
        <g id="Group_16403" data-name="Group 16403" transform="translate(36.673 17.974)">
          <path id="Path_39017" data-name="Path 39017" d="M3447.271,600.074a.272.272,0,0,1-.137-.508l3.94-2.275a.272.272,0,0,1,.272.471l-3.94,2.275A.27.27,0,0,1,3447.271,600.074Z" transform="translate(-3446.998 -597.255)" fill="#bfccd9"/>
        </g>
        <g id="Group_16404" data-name="Group 16404" transform="translate(41.915 16.563)">
          <path id="Path_39018" data-name="Path 39018" d="M3525.911,577.283a.272.272,0,0,1-.136-.508l1.143-.66a.272.272,0,1,1,.272.471l-1.143.66A.269.269,0,0,1,3525.911,577.283Z" transform="translate(-3525.639 -576.079)" fill="#bfccd9"/>
        </g>
        <g id="Group_16405" data-name="Group 16405" transform="translate(9.158 21.754)">
          <path id="Path_39019" data-name="Path 39019" d="M3034.53,655.267a.272.272,0,0,1-.136-.508l1.335-.771a.272.272,0,1,1,.272.471l-1.335.771A.271.271,0,0,1,3034.53,655.267Z" transform="translate(-3034.258 -653.952)" fill="#bfccd9"/>
        </g>
        <g id="Group_16406" data-name="Group 16406" transform="translate(11.763 19.575)">
          <path id="Path_39020" data-name="Path 39020" d="M3073.6,623.263a.272.272,0,0,1-.136-.508l2.5-1.446a.272.272,0,1,1,.272.471l-2.5,1.446A.273.273,0,0,1,3073.6,623.263Z" transform="translate(-3073.328 -621.272)" fill="#bfccd9"/>
        </g>
        <g id="Group_16407" data-name="Group 16407" transform="translate(1.98 15.973)">
          <path id="Path_39021" data-name="Path 39021" d="M2926.85,570.088a.272.272,0,0,1-.136-.508l4.014-2.31a.272.272,0,0,1,.271.472l-4.014,2.31A.271.271,0,0,1,2926.85,570.088Z" transform="translate(-2926.578 -567.234)" fill="#bfccd9"/>
        </g>
        <g id="Group_16408" data-name="Group 16408" transform="translate(7.163 13.101)">
          <path id="Path_39022" data-name="Path 39022" d="M3004.6,526.887a.272.272,0,0,1-.136-.508l3.807-2.2a.272.272,0,1,1,.272.471l-3.807,2.2A.27.27,0,0,1,3004.6,526.887Z" transform="translate(-3004.33 -524.145)" fill="#bfccd9"/>
        </g>
        <g id="Group_16409" data-name="Group 16409" transform="translate(21.464 3.958)">
          <path id="Path_39023" data-name="Path 39023" d="M3219.124,390.622a.272.272,0,0,1-.136-.508l5.341-3.076a.272.272,0,1,1,.271.472l-5.341,3.076A.271.271,0,0,1,3219.124,390.622Z" transform="translate(-3218.852 -387.001)" fill="#bfccd9"/>
        </g>
        <g id="Group_16410" data-name="Group 16410" transform="translate(22.589 3.986)">
          <path id="Path_39024" data-name="Path 39024" d="M3236,391.662a.272.272,0,0,1-.136-.508l6.418-3.7a.272.272,0,0,1,.272.472l-6.418,3.7A.271.271,0,0,1,3236,391.662Z" transform="translate(-3235.731 -387.42)" fill="#bfccd9"/>
        </g>
        <g id="Group_16411" data-name="Group 16411" transform="translate(28.157 1.851)">
          <path id="Path_39025" data-name="Path 39025" d="M3319.526,357.269a.272.272,0,0,1-.136-.508l2.3-1.326a.272.272,0,0,1,.272.471l-2.3,1.326A.27.27,0,0,1,3319.526,357.269Z" transform="translate(-3319.254 -355.399)" fill="#bfccd9"/>
        </g>
        <g id="Group_16412" data-name="Group 16412" transform="translate(3.072 17.486)">
          <path id="Path_39026" data-name="Path 39026" d="M2943.242,591.926a.272.272,0,0,1-.136-.508l2.5-1.446a.272.272,0,1,1,.272.471l-2.5,1.446A.27.27,0,0,1,2943.242,591.926Z" transform="translate(-2942.97 -589.936)" fill="#bfccd9"/>
        </g>
        <g id="Group_16413" data-name="Group 16413">
          <path id="Path_39027" data-name="Path 39027" d="M2896.972,346.373a.091.091,0,0,1-.045-.169l32.156-18.565a.091.091,0,1,1,.091.157l-32.156,18.565A.091.091,0,0,1,2896.972,346.373Z" transform="translate(-2896.881 -327.626)" fill="#bfccd9"/>
        </g>
        <g id="Group_16414" data-name="Group 16414" transform="translate(3.164 1.827)">
          <path id="Path_39028" data-name="Path 39028" d="M2944.432,373.775a.091.091,0,0,1-.045-.169l32.156-18.565a.091.091,0,0,1,.091.157l-32.156,18.565A.091.091,0,0,1,2944.432,373.775Z" transform="translate(-2944.341 -355.028)" fill="#bfccd9"/>
        </g>
        <g id="Group_16418" data-name="Group 16418" transform="translate(14.341 5.441)">
          <g id="Group_16415" data-name="Group 16415" transform="translate(0 10.555)">
            <path id="Path_39029" data-name="Path 39029" d="M3112.183,567.938a.183.183,0,0,1-.129-.053.181.181,0,0,1,.257-.257.182.182,0,0,1-.128.31Z" transform="translate(-3112.001 -567.578)" fill="#bfccd9"/>
          </g>
          <g id="Group_16416" data-name="Group 16416" transform="translate(0.631 0.361)">
            <path id="Path_39030" data-name="Path 39030" d="M3121.486,424.766a.181.181,0,1,1,.248.066.181.181,0,0,1-.248-.066Zm.63-.365a.181.181,0,1,1,.157.091A.181.181,0,0,1,3122.116,424.4Zm.631-.363a.181.181,0,1,1,.157.091A.182.182,0,0,1,3122.747,424.038Zm.63-.365a.18.18,0,1,1,.157.091A.181.181,0,0,1,3123.377,423.673Zm.63-.363a.181.181,0,1,1,.157.091A.182.182,0,0,1,3124.007,423.31Zm.631-.365a.181.181,0,1,1,.157.091A.181.181,0,0,1,3124.638,422.945Zm.63-.363a.182.182,0,1,1,.248.066.178.178,0,0,1-.09.025A.183.183,0,0,1,3125.268,422.582Zm.631-.364a.181.181,0,1,1,.157.091A.181.181,0,0,1,3125.9,422.218Zm.63-.364a.181.181,0,1,1,.157.091A.182.182,0,0,1,3126.529,421.854Zm.631-.364a.182.182,0,1,1,.247.066.177.177,0,0,1-.091.025A.181.181,0,0,1,3127.159,421.49Zm.63-.364a.181.181,0,1,1,.157.091A.182.182,0,0,1,3127.79,421.126Zm.631-.364a.181.181,0,1,1,.248.066.179.179,0,0,1-.091.025A.182.182,0,0,1,3128.42,420.762Zm.63-.364a.181.181,0,1,1,.157.091A.182.182,0,0,1,3129.05,420.4Zm.63-.364a.181.181,0,1,1,.157.091A.182.182,0,0,1,3129.681,420.034Zm.631-.364a.181.181,0,1,1,.157.091A.181.181,0,0,1,3130.312,419.67Zm.63-.364a.181.181,0,1,1,.157.091A.182.182,0,0,1,3130.941,419.306Zm.631-.364a.181.181,0,1,1,.157.091A.181.181,0,0,1,3131.572,418.942Zm.63-.364a.181.181,0,1,1,.157.091A.182.182,0,0,1,3132.2,418.578Zm.63-.364a.182.182,0,1,1,.248.066.178.178,0,0,1-.09.025A.183.183,0,0,1,3132.833,418.214Zm.631-.364a.182.182,0,1,1,.248.066.179.179,0,0,1-.091.025A.182.182,0,0,1,3133.463,417.85Zm.63-.364a.181.181,0,1,1,.158.091A.182.182,0,0,1,3134.094,417.486Zm.63-.364a.181.181,0,1,1,.157.091A.182.182,0,0,1,3134.724,417.122Zm.631-.364a.181.181,0,1,1,.248.067.187.187,0,0,1-.091.024A.182.182,0,0,1,3135.354,416.758Zm.631-.364a.181.181,0,1,1,.248.067.186.186,0,0,1-.091.024A.181.181,0,0,1,3135.985,416.394Zm.63-.364a.182.182,0,1,1,.157.091A.182.182,0,0,1,3136.615,416.03Zm.631-.364a.181.181,0,1,1,.248.067.186.186,0,0,1-.091.024A.181.181,0,0,1,3137.246,415.666Zm.631-.364a.182.182,0,1,1,.157.091A.182.182,0,0,1,3137.876,415.3Zm.63-.364a.182.182,0,1,1,.248.067.187.187,0,0,1-.091.024A.183.183,0,0,1,3138.506,414.938Z" transform="translate(-3121.461 -414.666)" fill="#bfccd9"/>
          </g>
          <g id="Group_16417" data-name="Group 16417" transform="translate(18.282)">
            <path id="Path_39031" data-name="Path 39031" d="M3386.432,409.6a.181.181,0,0,1-.129-.309.187.187,0,0,1,.257,0,.179.179,0,0,1,0,.256.145.145,0,0,1-.027.023.153.153,0,0,1-.031.017.165.165,0,0,1-.034.011A.155.155,0,0,1,3386.432,409.6Z" transform="translate(-3386.251 -409.244)" fill="#bfccd9"/>
          </g>
        </g>
        <g id="Group_16419" data-name="Group 16419" transform="translate(43.617 21.941)">
          <path id="Path_39032" data-name="Path 39032" d="M3551.437,659.541a.272.272,0,0,1-.136-.508l3.867-2.233a.272.272,0,1,1,.272.471l-3.867,2.233A.272.272,0,0,1,3551.437,659.541Z" transform="translate(-3551.164 -656.764)" fill="#bfccd9"/>
        </g>
        <g id="Group_16420" data-name="Group 16420" transform="translate(46.689 25.348)">
          <path id="Path_39033" data-name="Path 39033" d="M3597.522,709.027a.272.272,0,0,1-.136-.508l1.076-.622a.272.272,0,0,1,.272.471l-1.076.621A.271.271,0,0,1,3597.522,709.027Z" transform="translate(-3597.25 -707.861)" fill="#bfccd9"/>
        </g>
        <g id="Group_16421" data-name="Group 16421" transform="translate(48.768 23.846)">
          <path id="Path_39034" data-name="Path 39034" d="M3628.71,686.8a.272.272,0,0,1-.136-.508l1.6-.923a.272.272,0,0,1,.272.471l-1.6.923A.269.269,0,0,1,3628.71,686.8Z" transform="translate(-3628.438 -685.336)" fill="#bfccd9"/>
        </g>
        <g id="Group_16425" data-name="Group 16425" transform="translate(50.396 17.215)">
          <g id="Group_16422" data-name="Group 16422" transform="translate(0 4.364)">
            <path id="Path_39035" data-name="Path 39035" d="M3653.042,651.69a.179.179,0,0,1-.127-.053.136.136,0,0,1-.023-.027.223.223,0,0,1-.017-.031.155.155,0,0,1-.011-.034.184.184,0,0,1,0-.071.154.154,0,0,1,.011-.034.222.222,0,0,1,.017-.031.138.138,0,0,1,.023-.027.142.142,0,0,1,.027-.023.2.2,0,0,1,.031-.017.224.224,0,0,1,.034-.011.174.174,0,0,1,.1.011.166.166,0,0,1,.032.017.19.19,0,0,1,.051.05.287.287,0,0,1,.017.031.184.184,0,0,1,.01.034.184.184,0,0,1,0,.071.185.185,0,0,1-.01.034.288.288,0,0,1-.017.031.178.178,0,0,1-.023.027A.182.182,0,0,1,3653.042,651.69Z" transform="translate(-3652.861 -651.327)" fill="#bfccd9"/>
          </g>
          <g id="Group_16423" data-name="Group 16423" transform="translate(0.63 0.361)">
            <path id="Path_39036" data-name="Path 39036" d="M3662.34,595.2a.182.182,0,1,1,.157.091A.182.182,0,0,1,3662.34,595.2Zm.63-.364a.18.18,0,1,1,.157.091A.181.181,0,0,1,3662.97,594.836Zm.631-.363a.181.181,0,1,1,.247.066.177.177,0,0,1-.091.025A.18.18,0,0,1,3663.6,594.473Zm.63-.364a.181.181,0,1,1,.248.066.181.181,0,0,1-.248-.066Zm.63-.364a.182.182,0,1,1,.248.067.187.187,0,0,1-.091.024A.183.183,0,0,1,3664.861,593.745Zm.631-.364a.181.181,0,1,1,.247.067.175.175,0,0,1-.09.024A.18.18,0,0,1,3665.491,593.381Zm.63-.364a.181.181,0,1,1,.157.091A.181.181,0,0,1,3666.121,593.017Zm.63-.363a.181.181,0,1,1,.157.091A.182.182,0,0,1,3666.751,592.654Zm.631-.364a.181.181,0,1,1,.247.067.184.184,0,0,1-.09.024A.181.181,0,0,1,3667.382,592.29Zm.63-.364a.181.181,0,1,1,.248.067.182.182,0,0,1-.248-.067Zm.63-.364a.182.182,0,1,1,.157.091A.181.181,0,0,1,3668.642,591.562Z" transform="translate(-3662.316 -591.29)" fill="#bfccd9"/>
          </g>
          <g id="Group_16424" data-name="Group 16424" transform="translate(7.562)">
            <path id="Path_39037" data-name="Path 39037" d="M3766.482,586.228a.161.161,0,0,1-.035,0,.213.213,0,0,1-.034-.01.193.193,0,0,1-.031-.017.153.153,0,0,1-.027-.023.181.181,0,0,1,0-.257.187.187,0,0,1,.256,0,.181.181,0,0,1-.128.309Z" transform="translate(-3766.3 -585.868)" fill="#bfccd9"/>
          </g>
        </g>
        <g id="Group_16429" data-name="Group 16429" transform="translate(53.251 18.864)">
          <g id="Group_16426" data-name="Group 16426" transform="translate(0 4.366)">
            <path id="Path_39038" data-name="Path 39038" d="M3695.873,676.452a.182.182,0,0,1-.181-.181.2.2,0,0,1,0-.036.226.226,0,0,1,.01-.034.156.156,0,0,1,.017-.031.267.267,0,0,1,.022-.027.188.188,0,0,1,.257,0,.264.264,0,0,1,.022.027.144.144,0,0,1,.017.031.2.2,0,0,1,.011.034.225.225,0,0,1,0,.036.184.184,0,0,1-.053.128A.182.182,0,0,1,3695.873,676.452Z" transform="translate(-3695.691 -676.092)" fill="#bfccd9"/>
          </g>
          <g id="Group_16427" data-name="Group 16427" transform="translate(0.63 0.361)">
            <path id="Path_39039" data-name="Path 39039" d="M3705.165,619.927a.181.181,0,1,1,.247.067.184.184,0,0,1-.09.024A.181.181,0,0,1,3705.165,619.927Zm.63-.364a.181.181,0,1,1,.248.067.186.186,0,0,1-.091.024A.181.181,0,0,1,3705.8,619.563Zm.63-.364a.182.182,0,1,1,.157.091A.182.182,0,0,1,3706.425,619.2Zm.631-.363a.181.181,0,1,1,.248.066.176.176,0,0,1-.09.025A.182.182,0,0,1,3707.056,618.835Zm.63-.364a.181.181,0,1,1,.157.091A.181.181,0,0,1,3707.686,618.472Zm.63-.364a.182.182,0,1,1,.248.067.186.186,0,0,1-.091.024A.182.182,0,0,1,3708.316,618.108Zm.63-.364a.181.181,0,1,1,.248.067.184.184,0,0,1-.09.024A.182.182,0,0,1,3708.946,617.744Zm.63-.364a.183.183,0,1,1,.157.091A.181.181,0,0,1,3709.576,617.38Zm.63-.363a.181.181,0,1,1,.157.091A.182.182,0,0,1,3710.206,617.016Zm.631-.364a.181.181,0,1,1,.247.066.177.177,0,0,1-.091.025A.18.18,0,0,1,3710.837,616.652Zm.63-.364a.181.181,0,1,1,.157.091A.181.181,0,0,1,3711.467,616.288Z" transform="translate(-3705.141 -616.016)" fill="#bfccd9"/>
          </g>
          <g id="Group_16428" data-name="Group 16428" transform="translate(7.562)">
            <path id="Path_39040" data-name="Path 39040" d="M3809.312,610.954a.18.18,0,0,1-.181-.181.249.249,0,0,1,0-.035.274.274,0,0,1,.011-.034.185.185,0,0,1,.017-.031.157.157,0,0,1,.022-.027.187.187,0,0,1,.257,0,.131.131,0,0,1,.022.027.185.185,0,0,1,.017.031.211.211,0,0,1,.011.034.218.218,0,0,1,0,.035.181.181,0,0,1-.181.181Z" transform="translate(-3809.131 -610.594)" fill="#bfccd9"/>
          </g>
        </g>
        <g id="Group_16430" data-name="Group 16430" transform="translate(21.141 15.556)">
          <path id="Path_39041" data-name="Path 39041" d="M3214.29,563.364a.272.272,0,0,1-.136-.508l3.193-1.844a.272.272,0,0,1,.272.471l-3.193,1.844A.27.27,0,0,1,3214.29,563.364Z" transform="translate(-3214.017 -560.976)" fill="#e6edf7"/>
        </g>
        <g id="Group_16434" data-name="Group 16434" transform="translate(17.997 13.921)">
          <g id="Group_16431" data-name="Group 16431" transform="translate(0 4.357)">
            <path id="Path_39042" data-name="Path 39042" d="M3167.033,602.179a.186.186,0,0,1-.129-.053.2.2,0,0,1-.022-.028.137.137,0,0,1-.017-.031.146.146,0,0,1-.01-.033.155.155,0,0,1,0-.071.162.162,0,0,1,.01-.034.169.169,0,0,1,.017-.031.192.192,0,0,1,.022-.027.183.183,0,0,1,.164-.049.154.154,0,0,1,.034.01.2.2,0,0,1,.031.017.226.226,0,0,1,.027.023.184.184,0,0,1,.053.128.179.179,0,0,1,0,.036.2.2,0,0,1-.01.033.192.192,0,0,1-.017.031.2.2,0,0,1-.022.028.3.3,0,0,1-.027.023.249.249,0,0,1-.031.017.189.189,0,0,1-.069.013Z" transform="translate(-3166.851 -601.817)" fill="#bfccd9"/>
          </g>
          <g id="Group_16432" data-name="Group 16432" transform="translate(0.629 0.363)">
            <path id="Path_39043" data-name="Path 39043" d="M3176.312,545.8a.181.181,0,1,1,.248.066.179.179,0,0,1-.091.025A.182.182,0,0,1,3176.312,545.8Zm.629-.363a.182.182,0,1,1,.248.067.185.185,0,0,1-.091.024A.183.183,0,0,1,3176.941,545.436Zm.629-.363a.18.18,0,1,1,.157.091A.181.181,0,0,1,3177.57,545.073Zm.628-.363a.182.182,0,1,1,.248.066.18.18,0,0,1-.091.025A.183.183,0,0,1,3178.2,544.71Zm.629-.363a.182.182,0,1,1,.248.067.18.18,0,0,1-.091.024A.182.182,0,0,1,3178.827,544.347Zm.63-.363a.18.18,0,1,1,.157.091A.181.181,0,0,1,3179.457,543.983Zm.628-.363a.181.181,0,1,1,.157.091A.182.182,0,0,1,3180.085,543.621Zm.629-.363a.181.181,0,1,1,.247.067.176.176,0,0,1-.091.024A.179.179,0,0,1,3180.715,543.257Zm.628-.363a.181.181,0,1,1,.157.091A.182.182,0,0,1,3181.343,542.895Zm.629-.363a.181.181,0,1,1,.157.091A.182.182,0,0,1,3181.972,542.531Zm.629-.363a.181.181,0,1,1,.247.067.174.174,0,0,1-.09.024A.181.181,0,0,1,3182.6,542.168Z" transform="translate(-3176.288 -541.896)" fill="#bfccd9"/>
          </g>
          <g id="Group_16433" data-name="Group 16433" transform="translate(7.547)">
            <path id="Path_39044" data-name="Path 39044" d="M3280.242,536.82a.154.154,0,0,1-.035,0,.137.137,0,0,1-.034-.01.156.156,0,0,1-.032-.017.206.206,0,0,1-.028-.023.183.183,0,0,1,0-.257.267.267,0,0,1,.028-.023.166.166,0,0,1,.032-.017.14.14,0,0,1,.034-.01.181.181,0,0,1,.071,0,.178.178,0,0,1,.034.01.25.25,0,0,1,.031.017.186.186,0,0,1,.027.023.181.181,0,0,1,0,.257A.181.181,0,0,1,3280.242,536.82Z" transform="translate(-3280.061 -536.457)" fill="#bfccd9"/>
          </g>
        </g>
        <g id="Group_16435" data-name="Group 16435" transform="translate(29.807 11.141)">
          <path id="Path_39045" data-name="Path 39045" d="M3344.273,496.551a.272.272,0,0,1-.136-.508l2.175-1.256a.272.272,0,0,1,.272.471l-2.174,1.256A.273.273,0,0,1,3344.273,496.551Z" transform="translate(-3344.001 -494.751)" fill="#e6edf7"/>
        </g>
        <g id="Group_16436" data-name="Group 16436" transform="translate(52.555 18.443)">
          <path id="Path_39046" data-name="Path 39046" d="M3685.523,607.461a.272.272,0,0,1-.136-.508l4.561-2.633a.272.272,0,1,1,.272.471l-4.562,2.633A.27.27,0,0,1,3685.523,607.461Z" transform="translate(-3685.25 -604.283)" fill="#e6edf7"/>
        </g>
        <g id="Group_16437" data-name="Group 16437" transform="translate(55.494 20.139)">
          <path id="Path_39047" data-name="Path 39047" d="M3729.6,632.909a.272.272,0,0,1-.136-.508l4.561-2.633a.272.272,0,0,1,.272.471l-4.561,2.634A.271.271,0,0,1,3729.6,632.909Z" transform="translate(-3729.329 -629.731)" fill="#e6edf7"/>
        </g>
        <g id="Group_16441" data-name="Group 16441" transform="translate(27.147 9.584)">
          <g id="Group_16438" data-name="Group 16438" transform="translate(0 3.412)">
            <path id="Path_39048" data-name="Path 39048" d="M3304.283,522.938a.152.152,0,0,1-.035,0,.149.149,0,0,1-.034-.01l-.031-.017a.191.191,0,0,1-.028-.023.182.182,0,0,1-.022-.028.172.172,0,0,1-.017-.031.224.224,0,0,1-.01-.034.2.2,0,0,1,0-.036.2.2,0,0,1,0-.035.227.227,0,0,1,.01-.034.183.183,0,0,1,.039-.059.187.187,0,0,1,.028-.023.2.2,0,0,1,.031-.017.152.152,0,0,1,.034-.01.182.182,0,0,1,.163.049.216.216,0,0,1,.023.027.17.17,0,0,1,.016.031.2.2,0,0,1,.01.034.179.179,0,0,1-.01.105.144.144,0,0,1-.016.031.186.186,0,0,1-.023.028.166.166,0,0,1-.027.023.23.23,0,0,1-.031.017.142.142,0,0,1-.034.01A.153.153,0,0,1,3304.283,522.938Z" transform="translate(-3304.102 -522.576)" fill="#bfccd9"/>
          </g>
          <g id="Group_16439" data-name="Group 16439" transform="translate(0.656 0.379)">
            <path id="Path_39049" data-name="Path 39049" d="M3313.973,480a.182.182,0,1,1,.248.066.179.179,0,0,1-.091.025A.182.182,0,0,1,3313.973,480Zm.657-.379a.181.181,0,1,1,.248.067.185.185,0,0,1-.091.024A.18.18,0,0,1,3314.63,479.621Zm.657-.379a.181.181,0,1,1,.248.067.182.182,0,0,1-.248-.067Zm.657-.379a.181.181,0,1,1,.247.067.176.176,0,0,1-.09.025A.181.181,0,0,1,3315.943,478.863Zm.657-.379a.181.181,0,1,1,.157.091A.181.181,0,0,1,3316.6,478.484Zm.656-.379a.181.181,0,1,1,.248.067.186.186,0,0,1-.091.024A.181.181,0,0,1,3317.257,478.1Zm.656-.379a.182.182,0,1,1,.157.091A.181.181,0,0,1,3317.913,477.725Zm.657-.379a.181.181,0,1,1,.157.091A.182.182,0,0,1,3318.57,477.347Z" transform="translate(-3313.948 -477.074)" fill="#bfccd9"/>
          </g>
          <g id="Group_16440" data-name="Group 16440" transform="translate(5.91)">
            <path id="Path_39050" data-name="Path 39050" d="M3392.943,471.75a.18.18,0,0,1-.128-.053.16.16,0,0,1-.023-.027.157.157,0,0,1-.017-.031.26.26,0,0,1-.011-.034.218.218,0,0,1,0-.035.21.21,0,0,1,0-.035.212.212,0,0,1,.011-.034.125.125,0,0,1,.017-.031.2.2,0,0,1,.023-.028.189.189,0,0,1,.027-.023.214.214,0,0,1,.031-.017.174.174,0,0,1,.034-.01.181.181,0,0,1,.163.049.168.168,0,0,1,.023.028.134.134,0,0,1,.017.031.172.172,0,0,1,.011.034.21.21,0,0,1,0,.035.218.218,0,0,1,0,.035.2.2,0,0,1-.011.034.171.171,0,0,1-.017.031.14.14,0,0,1-.023.027A.18.18,0,0,1,3392.943,471.75Z" transform="translate(-3392.761 -471.387)" fill="#bfccd9"/>
          </g>
        </g>
        <g id="Group_16442" data-name="Group 16442" transform="translate(11.629 6.714)">
          <path id="Path_39051" data-name="Path 39051" d="M3071.41,447.086a.091.091,0,0,1-.045-.169l32.156-18.565a.091.091,0,1,1,.091.157l-32.156,18.565A.09.09,0,0,1,3071.41,447.086Z" transform="translate(-3071.32 -428.339)" fill="#bfccd9"/>
        </g>
        <g id="Group_16443" data-name="Group 16443" transform="translate(25.778 14.883)">
          <path id="Path_39052" data-name="Path 39052" d="M3283.666,569.632a.091.091,0,0,1-.045-.169l32.156-18.565a.091.091,0,1,1,.091.157l-32.156,18.565A.093.093,0,0,1,3283.666,569.632Z" transform="translate(-3283.575 -550.885)" fill="#bfccd9"/>
        </g>
        <g id="Group_16444" data-name="Group 16444" transform="translate(7.888 4.593)">
          <path id="Path_39053" data-name="Path 39053" d="M3018.965,396.521l-1.082.624-1.081-.624-1.589.917,1.081.624-1.081.624,1.589.917,1.081-.624,1.082.624,1.589-.917-1.081-.624,1.081-.624Z" transform="translate(-3015.214 -396.521)" fill="#bfccd9"/>
          <path id="Path_39054" data-name="Path 39054" d="M3044.583,409.728a.734.734,0,0,0-.487.283c-.061.087-.1.2.024.273.01.006.008.028.029.039a.453.453,0,0,0,.135.031.05.05,0,0,0,.029-.006l.011,0,.008,0c.006,0,0,.01,0,.015a.074.074,0,0,1,.01-.013s.022,0,.02,0l-.024,0-.012,0-.009,0a.012.012,0,0,0,0-.01.169.169,0,0,0-.082-.075.427.427,0,0,0-.052-.01c-.131-.078.042-.258.12-.327a.7.7,0,0,1,.606-.116c.36.1.437.376.341.572a.937.937,0,0,1-.275.305l-.092-.058a.3.3,0,0,0-.026-.551l-1.033.6a1.123,1.123,0,0,0,.942.021l.12.063c-.056.048-.111.116-.06.167a.419.419,0,0,0,.363.043l.062-.018.108.057a.157.157,0,0,0-.073.2l.477-.275-.034,0a.146.146,0,0,0,.044-.057c.01-.033,0-.049-.03-.064a.4.4,0,0,0-.255,0,1.924,1.924,0,0,0-.219.071l-.219-.139.038-.028a1,1,0,0,0,.208-.218.417.417,0,0,0,.083-.386A.727.727,0,0,0,3044.583,409.728Zm.855,1.149a.41.41,0,0,1,.234-.033.068.068,0,0,1,.039.035.059.059,0,0,1,.006.035.617.617,0,0,0-.292.049l-.082-.052Zm-.269.021c-.12.027-.3.037-.24-.064a.175.175,0,0,1,.036-.043Z" transform="translate(-3041.918 -408.84)" fill="#fff"/>
        </g>
        <path id="Path_39055" data-name="Path 39055" d="M3146.276,679.168a1.482,1.482,0,0,1-.946.188l-2.337-.291a.262.262,0,0,1-.1-.029.088.088,0,0,1-.045-.06l-.2-.848a1.09,1.09,0,0,1-.035-.451q.034-.145.344-.324c.023-.013,0-.039-.066-.078s-.112-.051-.135-.038q-.111.08-.52.315t-.538.3c-.025.014,0,.041.063.08s.113.051.138.037q.23-.133.352-.063a.263.263,0,0,1,.106.177l.207.857a.048.048,0,0,1-.019.06.177.177,0,0,1-.1.009l-1.423-.179a.6.6,0,0,1-.215-.057.037.037,0,0,1-.013-.012.757.757,0,0,0,.207-.355q.077-.357-.4-.632a1.82,1.82,0,0,0-1.1-.22,2.771,2.771,0,0,0-1.156.364q-.153.089-.37.221t-.507.3q-.292.168-.612.338-.034.02.06.074t.129.034a.8.8,0,0,1,.806-.113l2.613,1.509q.31.179-.162.451-.031.021.067.079c.066.038.111.051.134.037q.185-.129.676-.412t.713-.39c.023-.013,0-.039-.066-.078s-.112-.052-.135-.038a.792.792,0,0,1-.8.106l-1.015-.586c-.044-.026-.06-.046-.048-.061a.142.142,0,0,1,.037-.034c.012-.007.044-.022.094-.045s.143-.074.3-.164a1.057,1.057,0,0,1,.171,0l2.125.236a.312.312,0,0,1,.107.025.072.072,0,0,1,.036.045l.323,1.331q.056.231-.371.477c-.023.013,0,.039.066.078s.112.052.135.038q.212-.144.6-.367t.6-.326c.025-.014,0-.041-.063-.08s-.113-.051-.138-.037q-.318.183-.453.106a.7.7,0,0,1-.231-.424l-.2-.742c-.009-.03,0-.049.012-.059a.181.181,0,0,1,.1-.005l1.739.2a.748.748,0,0,1,.26.061q.141.081-.162.256c-.025.014,0,.041.063.079s.113.051.138.037q.183-.127.66-.4t.7-.383c.023-.013,0-.039-.066-.078S3146.3,679.154,3146.276,679.168Zm-6.536.064a.249.249,0,0,1-.225,0l-1.479-.854q-.082-.047.042-.119l.236-.136a2.051,2.051,0,0,1,.969-.279,1.582,1.582,0,0,1,.858.18q.864.5-.112,1.062A2.381,2.381,0,0,1,3139.74,679.231Z" transform="translate(-3120.858 -653.926)" fill="#bfccd9"/>
      </g>
    </g>
    <g id="stethoscope" transform="translate(2439.892 -630.9)">
      <g id="Group_16454" data-name="Group 16454" transform="translate(71.511 6.341)">
        <path id="Path_39056" data-name="Path 39056" d="M3804.044,94.213c-.249-.139-1.021-.556-1.021-.556L3788.17,85.08a1.151,1.151,0,0,0,.01-.146.521.521,0,0,0-.219-.479l-1.764-1a.526.526,0,0,0-.531.052c-.028.016-.055.034-.082.053l-1.481-.855a1.179,1.179,0,0,0,.015-.183.522.522,0,0,0-.219-.479l-.418-.243a.526.526,0,0,0-.531.052,1.638,1.638,0,0,0-.743,1.288.522.522,0,0,0,.217.478l.155.09c-3.117-.778-7.747-1.356-11.271.679-4.671,2.7-2.9,5.765-1.548,7.272l-.686-.4a1.1,1.1,0,0,0,.013-.163.523.523,0,0,0-.219-.479l-.418-.243a.526.526,0,0,0-.531.052,1.639,1.639,0,0,0-.743,1.288.521.521,0,0,0,.218.478l.419.244-.024-.017a.508.508,0,0,0,.555-.035,1.1,1.1,0,0,0,.133-.091l1.333.769a1.166,1.166,0,0,0-.017.195.522.522,0,0,0,.217.478l1.766,1-.024-.017a.509.509,0,0,0,.555-.035,1.114,1.114,0,0,0,.14-.1l14.66,8.462s.712.447.963.589a8.6,8.6,0,0,0,7.778.463,5.406,5.406,0,0,0,.729-.434c.565-.41,1.99-1.72,3.31-2.962,1.841-.657,3.6-1.3,4.208-1.583.225-.1.636-.285.855-.416C3805.976,98.1,3806.967,95.845,3804.044,94.213Zm-20.669-10.4a1.11,1.11,0,0,0,.12-.081l.815.47c-.325-.1-.687-.212-1.082-.321A.858.858,0,0,0,3783.375,83.812Zm17.9,13.584a.568.568,0,0,1,.212.014A.8.8,0,0,0,3801.277,97.4Zm.422,1.586.049-.047.036.017Zm.91-.594a.527.527,0,0,1,.034.139A.9.9,0,0,0,3802.61,98.388Zm1.313-.274a7.945,7.945,0,0,1-.928.4l-.337.121a1.469,1.469,0,0,1,1.249-1.241c.155-.01.341-.219.224-.6a1.579,1.579,0,0,0-1.1-1.036c-.486-.063-.715.1-.713.255.01.853-1.241,1.432-1.241,1.432-.185.1-.255.319-.158.607v0l-.051.045-2.106,1.937-3.959,1.434a.858.858,0,0,0-.073-.086c-.346-.347-.626-.36-.72-.234-.513.681-1.857.374-1.857.374-.206-.035-.4.1-.5.384a1.639,1.639,0,0,0,.289,1.459c.243.277.524.3.71.082a1.484,1.484,0,0,1,1.769-.236c.128.087.4.035.542-.336a1.516,1.516,0,0,0,.086-.482c.423-.146,1.078-.373,1.847-.642-.587.542-1.088,1.005-1.377,1.275a2.56,2.56,0,0,1-.7.39,6.659,6.659,0,0,1-5.563-.471c-.251-.141-.963-.589-.963-.589l-15.258-8.811a1.118,1.118,0,0,0,.012-.155.522.522,0,0,0-.219-.479l-1.764-1a.408.408,0,0,0-.268-.044c-1.8-1.752-3.631-4.719.924-7.22,4.349-2.387,10.448-.72,13.208.254a.471.471,0,0,0,.209.362l1.766,1-.024-.017a.509.509,0,0,0,.555-.035,1.155,1.155,0,0,0,.149-.1l14.247,8.227s.774.414,1.021.556C3805.814,96.6,3804.391,97.844,3803.923,98.114Zm-11.13,5.1a.542.542,0,0,1-.057.128A.879.879,0,0,0,3792.793,103.211Zm-.289-1.459a.807.807,0,0,0-.159-.141A.566.566,0,0,1,3792.5,101.752Z" transform="translate(-3763.534 -79.346)" fill="#191919" opacity="0.2" style="mix-blend-mode: multiply;isolation: isolate"/>
        <path id="Path_39057" data-name="Path 39057" d="M3791.179,107.8s-5.693-3.994.8-7.74c5.837-3.37,14.71.427,14.71.427l.373.666s-8.883-4-14.668-.823c-6.958,3.82.973,8.729.973,8.729Z" transform="translate(-3783.781 -95.134)" fill="#bfccd9"/>
        <path id="Path_39058" data-name="Path 39058" d="M3788.622,104.488s-5.933-4.463.555-8.209c5.837-3.37,14.71.427,14.71.427l.373.666s-8.883-4-14.668-.823c-6.958,3.82.973,8.729.973,8.729Z" transform="translate(-3781.235 -91.604)" fill="#e6edf7"/>
        <g id="Group_16446" data-name="Group 16446" transform="translate(0 0.783)" style="mix-blend-mode: multiply;isolation: isolate">
          <path id="Path_39059" data-name="Path 39059" d="M3717.024,69.312c-.176-.1-4.328-2.434-4.483-5.579-.077-1.553.8-2.976,2.615-4.23a12.206,12.206,0,0,1,5.6-1.975,21.99,21.99,0,0,1,5.689.151,30.841,30.841,0,0,1,6.24,1.589l-.5,1.275.251-.637-.251.637a30.037,30.037,0,0,0-5.964-1.512c-3-.436-7.228-.513-10.282,1.6-1.4.965-2.077,1.986-2.026,3.033.1,1.979,2.761,3.883,3.779,4.451Z" transform="translate(-3712.536 -57.408)" fill="#191919" opacity="0.2"/>
        </g>
        <g id="Group_16447" data-name="Group 16447" transform="translate(0.394 0)">
          <path id="Path_39060" data-name="Path 39060" d="M3722.243,57.817c-.165-.14-4.033-3.468-3.781-6.855a4.685,4.685,0,0,1,2.485-3.651,11.682,11.682,0,0,1,5.54-1.615,21.95,21.95,0,0,1,5.581.461,31.494,31.494,0,0,1,6.094,1.887l-.562,1.25c-.115-.051-10.088-4.449-15.93-.819a3.355,3.355,0,0,0-1.842,2.587c-.2,2.692,3.267,5.682,3.3,5.712Z" transform="translate(-3718.45 -45.666)" fill="#3d4663"/>
        </g>
        <g id="Group_16448" data-name="Group 16448" transform="translate(3.809 10.617)">
          <path id="Path_39061" data-name="Path 39061" d="M3770.953,204.973a.526.526,0,0,0-.531.052,1.636,1.636,0,0,0-.743,1.288.521.521,0,0,0,.218.478l.419.244a.522.522,0,0,1-.218-.478,1.641,1.641,0,0,1,.744-1.288.526.526,0,0,1,.531-.052Z" transform="translate(-3769.679 -204.923)" fill="#7e87a8"/>
          <path id="Path_39062" data-name="Path 39062" d="M3776.715,208.682a1.638,1.638,0,0,0-.744,1.288c0,.473.336.664.749.426a1.64,1.64,0,0,0,.743-1.288C3777.461,208.635,3777.127,208.444,3776.715,208.682Z" transform="translate(-3775.552 -208.336)" fill="#3d4663"/>
        </g>
        <g id="Group_16449" data-name="Group 16449" transform="translate(18.84 2.038)">
          <path id="Path_39063" data-name="Path 39063" d="M3996.431,76.293a.525.525,0,0,0-.53.052,1.638,1.638,0,0,0-.744,1.288.521.521,0,0,0,.218.478l.419.244a.523.523,0,0,1-.217-.478,1.639,1.639,0,0,1,.743-1.288.526.526,0,0,1,.531-.052Z" transform="translate(-3995.157 -76.243)" fill="#7e87a8"/>
          <path id="Path_39064" data-name="Path 39064" d="M4002.193,80a1.638,1.638,0,0,0-.744,1.288c0,.473.336.664.749.426a1.638,1.638,0,0,0,.743-1.288C4002.939,79.954,4002.6,79.763,4002.193,80Z" transform="translate(-4001.03 -79.655)" fill="#3d4663"/>
        </g>
        <path id="Path_39065" data-name="Path 39065" d="M4010.183,89.011l-2.355-1.36a.53.53,0,0,0-.705.127c-.205.223-.324.654,0,.841l2.49,1.438A1.328,1.328,0,0,1,4010.183,89.011Z" transform="translate(-3987.297 -84.776)" fill="url(#linear-gradient-3)"/>
        <path id="Path_39066" data-name="Path 39066" d="M3785.313,218.892a1.126,1.126,0,0,1,.71-.893l-2.708-1.564c-.245-.125-.478-.26-.732-.068a.818.818,0,0,0-.27.388.478.478,0,0,0,.177.581l2.818,1.626C3785.308,218.939,3785.31,218.915,3785.313,218.892Z" transform="translate(-3777.634 -204.898)" fill="url(#linear-gradient-4)"/>
        <g id="Group_16450" data-name="Group 16450" transform="translate(21.556 3.694)">
          <path id="Path_39067" data-name="Path 39067" d="M4037.169,101.13a.526.526,0,0,0-.531.052,1.64,1.64,0,0,0-.743,1.288.522.522,0,0,0,.218.478l1.765,1a.522.522,0,0,1-.217-.478,1.638,1.638,0,0,1,.743-1.288.526.526,0,0,1,.531-.052Z" transform="translate(-4035.895 -101.079)" fill="url(#linear-gradient-5)"/>
          <path id="Path_39068" data-name="Path 39068" d="M4063.122,116.14a1.638,1.638,0,0,0-.744,1.288c0,.473.336.664.748.426a1.638,1.638,0,0,0,.744-1.288C4063.869,116.093,4063.534,115.9,4063.122,116.14Z" transform="translate(-4060.613 -115.041)" fill="#bfccd9"/>
        </g>
        <g id="Group_16451" data-name="Group 16451" transform="translate(6.426 12.16)">
          <path id="Path_39069" data-name="Path 39069" d="M3810.2,228.121a.525.525,0,0,0-.53.052,1.638,1.638,0,0,0-.744,1.288.522.522,0,0,0,.218.478l1.766,1a.521.521,0,0,1-.218-.478,1.638,1.638,0,0,1,.744-1.288.525.525,0,0,1,.53-.052Z" transform="translate(-3808.931 -228.071)" fill="url(#linear-gradient-6)"/>
          <path id="Path_39070" data-name="Path 39070" d="M3836.158,243.132a1.639,1.639,0,0,0-.744,1.288c0,.473.336.664.748.426a1.638,1.638,0,0,0,.744-1.288C3836.9,243.085,3836.57,242.894,3836.158,243.132Z" transform="translate(-3833.649 -242.032)" fill="#bfccd9"/>
        </g>
        <g id="Group_16452" data-name="Group 16452" transform="translate(37.509 16.036)">
          <path id="Path_39071" data-name="Path 39071" d="M4279.454,286.487c0-.157.227-.318.713-.255a1.58,1.58,0,0,1,1.1,1.036c.117.378-.069.587-.224.6-1.082.069-1.266,1.329-1.266,1.329a.633.633,0,0,0-.031-.337,1.64,1.64,0,0,0-1.12-.978c-.235-.046-.225,0-.413.039C4278.213,287.918,4279.465,287.339,4279.454,286.487Z" transform="translate(-4278.012 -286.218)" fill="url(#linear-gradient-7)"/>
          <path id="Path_39072" data-name="Path 39072" d="M4275.808,310.9a1.637,1.637,0,0,1,1.12.978c.152.448-.1.737-.569.646a1.639,1.639,0,0,1-1.121-.978C4275.086,311.1,4275.341,310.809,4275.808,310.9Z" transform="translate(-4275.194 -309.239)" fill="#3d4663"/>
        </g>
        <path id="Path_39073" data-name="Path 39073" d="M4075.367,140.394s7.186-2.607,9.056-3.274a7.963,7.963,0,0,0,.928-.4c.468-.27,1.891-1.513-1.069-3.214-.247-.142-1.02-.556-1.02-.556l-14.535-8.393c-.324-.187-.205-.618,0-.841a.53.53,0,0,1,.705-.127l15.02,8.673s.771.417,1.021.556c2.922,1.632,1.931,3.883.9,4.5-.219.131-.629.312-.855.416-1.473.677-9.556,3.454-9.556,3.454Z" transform="translate(-4044.794 -118.317)" fill="#f7f9fc"/>
        <path id="Path_39074" data-name="Path 39074" d="M4231.849,333.364a.4.4,0,0,0,.13-.392l-2.432.878-1.883,1.733c.946-.332,1.988-.7,2.962-1.051C4231.1,334.086,4231.522,333.678,4231.849,333.364Z" transform="translate(-4193.324 -313.819)" fill="#bfccd9"/>
        <path id="Path_39075" data-name="Path 39075" d="M4211.29,337.987l-2.952,1.067-1.847,1.7c.847-.295,1.91-.667,2.983-1.047C4210.132,339.092,4210.776,338.479,4211.29,337.987Z" transform="translate(-4173.563 -318.5)" fill="#e6edf7"/>
        <path id="Path_39076" data-name="Path 39076" d="M3870.616,255.317c-1.056.971-4.378,4.026-5.346,4.929a2.565,2.565,0,0,1-.7.39,6.659,6.659,0,0,1-5.563-.471c-.251-.141-.963-.589-.963-.589l-15.285-8.827c-.245-.125-.478-.26-.733-.068a.816.816,0,0,0-.27.388.478.478,0,0,0,.177.581l14.92,8.612s.713.447.963.589a8.6,8.6,0,0,0,7.778.463,5.39,5.39,0,0,0,.729-.434c.9-.653,3.979-3.586,5.343-4.9.293-.282.068-.635-.169-.831C3871.18,254.89,3870.819,255.131,3870.616,255.317Z" transform="translate(-3833.114 -236.925)" fill="#f7f9fc"/>
        <g id="Group_16453" data-name="Group 16453" transform="translate(28.226 21.371)">
          <path id="Path_39077" data-name="Path 39077" d="M4146.215,366.324c.094-.125.374-.113.72.234a1.579,1.579,0,0,1,.236,1.491c-.139.371-.414.423-.542.336a1.533,1.533,0,0,0-1.815.278.632.632,0,0,0,.183-.286,1.642,1.642,0,0,0-.289-1.459c-.158-.18-.179-.137-.351-.221C4144.358,366.7,4145.7,367.006,4146.215,366.324Z" transform="translate(-4143.797 -366.252)" fill="url(#linear-gradient-8)"/>
          <path id="Path_39078" data-name="Path 39078" d="M4136.864,373.085a1.637,1.637,0,0,1,.289,1.459.455.455,0,0,1-.845.162,1.638,1.638,0,0,1-.289-1.459A.455.455,0,0,1,4136.864,373.085Z" transform="translate(-4135.954 -372.417)" fill="#3d4663"/>
          <path id="Path_39079" data-name="Path 39079" d="M4136.577,380.072a.956.956,0,0,1,.169.852.266.266,0,0,1-.494.095.957.957,0,0,1-.169-.852A.266.266,0,0,1,4136.577,380.072Z" transform="translate(-4136.039 -379.027)" fill="#616b8c"/>
          <path id="Path_39080" data-name="Path 39080" d="M4139.538,385.37a.391.391,0,0,1,.069.348.109.109,0,0,1-.2.039.392.392,0,0,1-.069-.348A.108.108,0,0,1,4139.538,385.37Z" transform="translate(-4139.096 -384.045)" fill="#3d4663"/>
        </g>
      </g>
      <g id="Group_16464" data-name="Group 16464" transform="translate(0 0)">
        <g id="Group_16455" data-name="Group 16455" transform="translate(9.026 1.329)" opacity="0.2" style="mix-blend-mode: multiply;isolation: isolate">
          <path id="Path_39081" data-name="Path 39081" d="M2775.973-13.026l-.767-1.078c5.242-3.729,9.566-3.892,16.111-4.139l1.358-.052c5.529-.221,6.961-1.878,8.775-3.976a14.784,14.784,0,0,1,7.317-5.068c8.352-2.816,14.371-2.387,17.949-1.531a32.422,32.422,0,0,1,12.979,6.481l-.88.987a31.688,31.688,0,0,0-12.406-6.182c-3.409-.816-9.165-1.218-17.219,1.5a13.484,13.484,0,0,0-6.739,4.68c-1.862,2.154-3.622,4.188-9.723,4.432l-1.361.052C2784.835-16.675,2780.893-16.526,2775.973-13.026Zm62.843-8.375.44-.494Z" transform="translate(-2775.206 29.514)" fill="#191919"/>
        </g>
        <g id="Group_16456" data-name="Group 16456" transform="translate(39.86 3.189)" opacity="0.2" style="mix-blend-mode: multiply;isolation: isolate">
          <path id="Path_39082" data-name="Path 39082" d="M3251.958,14.543a19.212,19.212,0,0,1-6.051-.981c-3.662-1.222-6.517-3.438-7.636-5.927a5.585,5.585,0,0,1,.011-4.785,10.663,10.663,0,0,1,4.68-4.466l.647,1.154c-3.877,2.175-5.345,4.858-4.132,7.554,1.527,3.4,6.878,6.132,12.5,6.132a15.816,15.816,0,0,0,5.18-.844c3.1-1.073,5.038-2.723,5.775-4.9,1.3-3.854-1.542-8.211-1.57-8.254l1.1-.733c.133.2,3.231,4.93,1.724,9.4-.872,2.591-3.092,4.521-6.6,5.736A17.26,17.26,0,0,1,3251.958,14.543Z" transform="translate(-3237.739 1.615)" fill="#191919"/>
        </g>
        <g id="Group_16457" data-name="Group 16457" transform="translate(40.835 0.279)">
          <path id="Path_39083" data-name="Path 39083" d="M3266.375-27.118a18.691,18.691,0,0,1-6.019-1.008c-3.6-1.226-6.392-3.432-7.48-5.9a5.465,5.465,0,0,1,.04-4.682,10.2,10.2,0,0,1,4.587-4.278,19.731,19.731,0,0,1,9.374-2.275,17.307,17.307,0,0,1,7.787,1.773,5.5,5.5,0,0,1,2,1.694c.32.418,3.087,4.177,1.964,8.012-.741,2.534-2.987,4.467-6.675,5.746A17.021,17.021,0,0,1,3266.375-27.118Zm-.012-16.83a18.831,18.831,0,0,0-8.216,2.116l-.01.006c-3.776,2.041-5.214,4.622-4.05,7.266,1.488,3.38,6.767,6.106,12.325,6.106a15.586,15.586,0,0,0,5.1-.833c3.257-1.129,5.221-2.764,5.837-4.861.977-3.323-1.73-6.826-1.758-6.861l-.038-.048-.017-.032a4.525,4.525,0,0,0-1.651-1.315,16.107,16.107,0,0,0-7.058-1.535C3266.675-43.946,3266.518-43.948,3266.363-43.948Z" transform="translate(-3252.369 45.271)" fill="#3d4663"/>
        </g>
        <g id="Group_16458" data-name="Group 16458" transform="translate(8.66)">
          <path id="Path_39084" data-name="Path 39084" d="M2770.494-32.942l-.767-1.078c5.241-3.729,9.565-3.892,16.111-4.139l1.358-.052c5.528-.221,6.961-1.878,8.775-3.976a14.785,14.785,0,0,1,7.317-5.068,36.172,36.172,0,0,1,14.395-2.117,16.48,16.48,0,0,1,5.027,1.074,41.156,41.156,0,0,1,13.436,6.833l-.808,1.047a40.324,40.324,0,0,0-13.011-6.613l-.061-.016-.057-.027a15.146,15.146,0,0,0-4.72-.987A34.966,34.966,0,0,0,2803.712-46a13.483,13.483,0,0,0-6.74,4.68c-1.863,2.154-3.622,4.188-9.723,4.432l-1.362.052C2779.356-36.591,2775.413-36.442,2770.494-32.942Z" transform="translate(-2769.727 49.455)" fill="#3d4663"/>
        </g>
        <g id="Group_16463" data-name="Group 16463" transform="translate(0 11.279)">
          <g id="Group_16459" data-name="Group 16459" transform="translate(0 4.262)">
            <path id="Path_39085" data-name="Path 39085" d="M2651.983,207.346c2.8,1.615,2.812,4.232.034,5.847a11.122,11.122,0,0,1-10.094,0c-2.8-1.614-2.812-4.232-.033-5.846A11.123,11.123,0,0,1,2651.983,207.346Z" transform="translate(-2639.815 -204.637)" fill="#191919" opacity="0.2"/>
            <path id="Path_39086" data-name="Path 39086" d="M2670.13,245.409l0,.826a3.544,3.544,0,0,1-2.074,2.9,11.122,11.122,0,0,1-10.094,0,3.572,3.572,0,0,1-2.107-2.944l0-.826a3.572,3.572,0,0,0,2.107,2.944,11.122,11.122,0,0,0,10.094,0A3.544,3.544,0,0,0,2670.13,245.409Z" transform="translate(-2654.784 -241.254)" fill="url(#linear-gradient-9)"/>
            <path id="Path_39087" data-name="Path 39087" d="M2668.056,184.872c2.8,1.615,2.812,4.232.033,5.847a11.122,11.122,0,0,1-10.094,0c-2.8-1.614-2.812-4.232-.033-5.846A11.123,11.123,0,0,1,2668.056,184.872Z" transform="translate(-2654.817 -183.661)" fill="url(#linear-gradient-10)"/>
          </g>
          <g id="Group_16460" data-name="Group 16460" transform="translate(4.652 3.874)">
            <path id="Path_39088" data-name="Path 39088" d="M2716.712,208.6v.411a1.765,1.765,0,0,1-1.033,1.446,5.54,5.54,0,0,1-5.028,0,1.779,1.779,0,0,1-1.05-1.466v-.411a1.779,1.779,0,0,0,1.049,1.466,5.539,5.539,0,0,0,5.028,0A1.765,1.765,0,0,0,2716.712,208.6Z" transform="translate(-2709.601 -206.534)" fill="url(#linear-gradient-9)"/>
            <path id="Path_39089" data-name="Path 39089" d="M2715.679,178.452c1.393.8,1.4,2.108.017,2.912a5.539,5.539,0,0,1-5.027,0c-1.393-.8-1.4-2.108-.017-2.912A5.54,5.54,0,0,1,2715.679,178.452Z" transform="translate(-2709.617 -177.848)" fill="#f7f9fc"/>
          </g>
          <g id="Group_16461" data-name="Group 16461" transform="translate(5.511 1.051)">
            <path id="Path_39090" data-name="Path 39090" d="M2727.881,158.825v2.858a1.34,1.34,0,0,1-.783,1.1,4.2,4.2,0,0,1-3.813,0,1.349,1.349,0,0,1-.8-1.112v-2.858a1.349,1.349,0,0,0,.8,1.112,4.2,4.2,0,0,0,3.813,0A1.339,1.339,0,0,0,2727.881,158.825Z" transform="translate(-2722.488 -157.255)" fill="url(#linear-gradient-9)"/>
            <path id="Path_39091" data-name="Path 39091" d="M2727.1,135.957a1.167,1.167,0,0,1,.012,2.209,4.2,4.2,0,0,1-3.813,0,1.167,1.167,0,0,1-.012-2.208A4.2,4.2,0,0,1,2727.1,135.957Z" transform="translate(-2722.5 -135.5)" fill="#f7f9fc"/>
          </g>
          <g id="Group_16462" data-name="Group 16462" transform="translate(5.075 0)">
            <path id="Path_39092" data-name="Path 39092" d="M2727.413,168.828a2.419,2.419,0,0,0,.474-.354v-.892a2.4,2.4,0,0,1-.474.353c-.084.049-.173.094-.264.136l-.046.028a4.2,4.2,0,0,1-3.813,0l-.056-.034c-.086-.04-.171-.084-.252-.13a2.442,2.442,0,0,1-.489-.364v.894a2.43,2.43,0,0,0,.488.363A4.881,4.881,0,0,0,2727.413,168.828Z" transform="translate(-2722.058 -164.382)" fill="#bfccd9" style="mix-blend-mode: multiply;isolation: isolate"/>
            <path id="Path_39093" data-name="Path 39093" d="M2722.211,146.831v.893a1.555,1.555,0,0,1-.91,1.274,4.88,4.88,0,0,1-4.429,0,1.568,1.568,0,0,1-.925-1.292v-.893a1.567,1.567,0,0,0,.925,1.292,4.881,4.881,0,0,0,4.43,0A1.556,1.556,0,0,0,2722.211,146.831Z" transform="translate(-2715.945 -145.008)" fill="url(#linear-gradient-9)"/>
            <path id="Path_39094" data-name="Path 39094" d="M2721.3,120.265a1.356,1.356,0,0,1,.015,2.566,4.881,4.881,0,0,1-4.43,0,1.356,1.356,0,0,1-.014-2.566A4.88,4.88,0,0,1,2721.3,120.265Z" transform="translate(-2715.96 -119.734)" fill="#f7f9fc"/>
            <path id="Path_39095" data-name="Path 39095" d="M2733.6,122.2a.955.955,0,0,1,.01,1.808,3.439,3.439,0,0,1-3.122,0,.955.955,0,0,1-.01-1.808A3.44,3.44,0,0,1,2733.6,122.2Z" transform="translate(-2728.907 -121.682)" fill="#e6edf7"/>
          </g>
        </g>
      </g>
    </g>
    <g id="hand" transform="translate(2498.387 -607.55)">
      <g id="Group_16465" data-name="Group 16465" transform="translate(0.085 5.372)">
        <path id="Path_39096" data-name="Path 39096" d="M3548.76,391.387c-2.146-1.168-4.385-2.162-6.632-3.117a73.714,73.714,0,0,1-8.538-3.865c-1.712-.986-3.379-2.065-5.119-3a.881.881,0,0,0-.291.162c-.543,2.705-3.542,6.246-3.9,6.879-.435.656-.934,1.382-1.382,2.006-.022.017-.047.038-.073.062-.308.062-1.586,1.982-1.586,1.982a.3.3,0,0,0-.016.084,1.9,1.9,0,0,0,.47,2.509l.007.005.063.044.013.009.06.037.018.01.058.032.022.011.056.028.025.012.055.024.029.011.055.021.031.011.055.018.033.01.055.015.035.009.055.012.038.008.055.01.04.006.056.007.042,0,.056,0,.043,0,.057,0h.148l.058,0,.047,0,.059-.006.048-.005.06-.008.048-.007.062-.011.049-.01.063-.014.049-.012.066-.018.048-.013.036-.011-1.413,1.159-3.6,3.7a.274.274,0,0,0-.067.13.172.172,0,0,0,.111.143c.042.01.079-.01.139-.033a19.518,19.518,0,0,0,4.194-1.427l2.222-1.146a4.249,4.249,0,0,0,.234.366c.079.143.138.255.162.312.326.854,1.383,3.594,1.383,3.594a14.81,14.81,0,0,0,1.277,2,3.3,3.3,0,0,0,1.319,1.038c.467.2,3.077.716,5.348,1.123l19.728-11.337C3552.749,393.716,3550.785,392.488,3548.76,391.387Zm-20.573.226c.107-.167.206-.32.294-.447q.052-.089.111-.183.005.142.016.286Zm10.97,4.124c0,.017,0,.035,0,.052q0,.072,0,.143c0,.014,0,.028,0,.042,0,.06-.006.119-.01.177l0,.033q-.005.072-.012.143c0,.016,0,.032,0,.048q-.007.074-.016.146l0,.024c-.006.056-.015.11-.022.165,0,.013,0,.026-.006.039-.007.043-.013.085-.021.127l-.007.041c-.01.053-.019.1-.03.156v0c-.01.05-.021.1-.032.148,0,.013-.007.026-.01.039q-.014.06-.029.119l-.008.03c-.013.048-.026.1-.04.143,0,.008,0,.016-.007.023-.012.039-.023.078-.035.116l-.011.035c-.013.041-.027.081-.041.121l0,.012c-.016.044-.031.087-.047.13l-.01.028-.04.1-.012.028c-.016.041-.034.081-.05.121a20.656,20.656,0,0,1-5.77,1.508,35.306,35.306,0,0,1-2.205-3.1c-.047-.068-.093-.134-.14-.2l-.009-.013a7.121,7.121,0,0,0-1.57-1.639l.612-.5a2.889,2.889,0,0,0,2.18,1.132c1.677.04,2.316-1.315,2.858-1.417.811-.153,1.178.975,2.8.609a13.087,13.087,0,0,0,1.563-.793c.005.026.012.052.017.078l.013.064c.011.056.021.112.031.168l.01.054q.018.106.034.211l.006.041c.008.057.016.114.023.17,0,.02.005.04.007.06.007.058.013.115.019.171,0,.011,0,.023,0,.034.006.067.011.133.016.2,0,.017,0,.034,0,.051,0,.051.006.1.008.151,0,.018,0,.036,0,.054,0,.064,0,.128.005.19v.007C3539.158,395.618,3539.158,395.678,3539.158,395.737Z" transform="translate(-3518.575 -381.402)" fill="#bfccd9" style="mix-blend-mode: multiply;isolation: isolate"/>
        <path id="Path_39097" data-name="Path 39097" d="M3823.921,610.589c-2.152-1.338-4.392-2.539-6.589-3.8-2.277-1.308-4.545-2.635-6.782-4.013-4.432-2.731-8.648-5.774-12.89-8.785s-8.476-6-12.844-8.8l-.661-.424L3764.427,596.1c.942.169,1.826.319,2.474.421a19.156,19.156,0,0,0,9.432,1.16q.311-.034.626-.08l.033,0c3.535-.51,6.021,1.075,8.619,3a5.277,5.277,0,0,0,1.333,4.914l32.934,20.271a12.862,12.862,0,0,0,2.521.069,11.336,11.336,0,0,0,4.913-1.227,18.475,18.475,0,0,0,6.91-7.654C3830.634,615.13,3827.345,612.717,3823.921,610.589Z" transform="translate(-3748.037 -571.205)" fill="#191919" opacity="0.2" style="mix-blend-mode: multiply;isolation: isolate"/>
      </g>
      <g id="Group_16466" data-name="Group 16466" transform="translate(10.81 2.984)">
        <path id="Path_39098" data-name="Path 39098" d="M3696.5,359.81c1.492.359,2.4,1.894,7.294,4.15,2.309,1.063,1.7,4.016,1.32,6a42.471,42.471,0,0,0-5.627,1.1c-.936.241-2.294-.231-3.291-.041-.541.1-1.337.774-1.869.894-1.625.366-1.993-.763-2.8-.61-.541.1-1.181,1.457-2.858,1.417a3.133,3.133,0,0,1-2.825-2.392,7.254,7.254,0,0,1,.161-4.843C3688.113,361.92,3690.028,358.251,3696.5,359.81Z" transform="translate(-3685.113 -358.517)" fill="url(#linear-gradient-14)"/>
        <path id="Path_39099" data-name="Path 39099" d="M3679.45,345.894c.765-.691,4.539-.165,7.795.813,1.469.441,3.637-.018,4.524.557,2.133,1.383.134,11.589-2.607,7.979-.671-.884-3.309-2.109-4.8-2.88a15.456,15.456,0,0,1-3.1-1.635Z" transform="translate(-3679.45 -345.579)" fill="#ffcfb5"/>
      </g>
      <g id="Group_16472" data-name="Group 16472">
        <path id="Path_39100" data-name="Path 39100" d="M3814.386,378.423c-4.209-2.719-7.128-6.355-12.216-5.6a20.059,20.059,0,0,1-10.829-1.581c-.7-.4-1.573-5.152-.886-5.65.415-.3,1.709-.693,1.988-.977.775-.79,2.4-3.57.393-8.015-1.842-4.079-2.508-4.225-2.584-4.942a3.109,3.109,0,0,1,.938-2.965c1.246-1.041,2.363-.575,3.3-1.187a6.065,6.065,0,0,1,3.4-1.174c9.813.235,15.86,11.766,17.107,13.175,1.233,1.393,6.176,3.353,8.756,4.12C3824.631,363.894,3815.967,379.444,3814.386,378.423Z" transform="translate(-3772.012 -343.301)" fill="#ffcfb5"/>
        <g id="pen">
          <path id="Path_39101" data-name="Path 39101" d="M3517.332,640.173a.271.271,0,0,1,.1-.364l.623-.587.373.473-.715.457C3517.579,640.255,3517.42,640.284,3517.332,640.173Z" transform="translate(-3517.294 -616.662)" fill="#bfccd9"/>
          <g id="Group_16467" data-name="Group 16467" transform="translate(0.587 9.749)">
            <path id="Path_39102" data-name="Path 39102" d="M3541.211,451.889a2.726,2.726,0,0,1-1.533-1.944.876.876,0,0,1,.247-.853l-7.005,5.518a3.72,3.72,0,0,0-.54.528,3.532,3.532,0,0,1-.717.8,2.938,2.938,0,0,1-.976.5,1.316,1.316,0,0,0-.331.19L3528,458.494a28.817,28.817,0,0,0-1.881,3.293.468.468,0,0,0,.489.573,24.939,24.939,0,0,0,3.552-1.111l2.437-1.921a.994.994,0,0,0,.263-.317,2.519,2.519,0,0,1,.695-.775,3.265,3.265,0,0,1,.932-.547,2.034,2.034,0,0,0,.6-.326l7-5.515A.869.869,0,0,1,3541.211,451.889Z" transform="translate(-3526.098 -448.957)" fill="url(#linear-gradient-15)"/>
            <path id="Path_39103" data-name="Path 39103" d="M3732.242,449.094a2.726,2.726,0,0,0-1.532-1.943c-.733-.29-1.234.111-1.121.894a2.726,2.726,0,0,0,1.533,1.944C3731.854,450.278,3732.355,449.878,3732.242,449.094Z" transform="translate(-3716.008 -447.056)" fill="#353d57"/>
          </g>
          <g id="Group_16468" data-name="Group 16468" transform="translate(14.382 1.634)">
            <path id="Path_39104" data-name="Path 39104" d="M3744.854,329.564a2.392,2.392,0,0,1-1.344-1.7.768.768,0,0,1,.216-.748l-10.459,8.243a.767.767,0,0,0-.216.748,2.391,2.391,0,0,0,1.344,1.7.762.762,0,0,0,.766-.036l10.46-8.243A.762.762,0,0,1,3744.854,329.564Z" transform="translate(-3733.036 -326.993)" fill="url(#linear-gradient-16)"/>
            <path id="Path_39105" data-name="Path 39105" d="M3892.279,327.114a2.391,2.391,0,0,0-1.344-1.7c-.643-.254-1.083.1-.983.784a2.393,2.393,0,0,0,1.344,1.7C3891.939,328.152,3892.378,327.8,3892.279,327.114Z" transform="translate(-3879.479 -325.327)" fill="#e6edf7"/>
          </g>
          <g id="Group_16469" data-name="Group 16469" transform="translate(24.429 0.624)">
            <path id="Path_39106" data-name="Path 39106" d="M3886.271,315.9a3.227,3.227,0,0,1-1.814-2.3,1.037,1.037,0,0,1,.292-1.009l-.7.54a1.037,1.037,0,0,0-.292,1.009,3.228,3.228,0,0,0,1.814,2.3,1.028,1.028,0,0,0,1.034-.049l.7-.54A1.028,1.028,0,0,1,3886.271,315.9Z" transform="translate(-3883.742 -312.426)" fill="url(#linear-gradient-17)"/>
            <path id="Path_39107" data-name="Path 39107" d="M3897.331,312.589a3.228,3.228,0,0,0-1.814-2.3c-.867-.343-1.461.131-1.326,1.058a3.227,3.227,0,0,0,1.814,2.3C3896.872,313.99,3897.465,313.516,3897.331,312.589Z" transform="translate(-3893.477 -310.177)" fill="#bfccd9"/>
          </g>
          <g id="Group_16470" data-name="Group 16470" transform="translate(25.402)">
            <path id="Path_39108" data-name="Path 39108" d="M3900.9,317.456a2.619,2.619,0,0,0-1.471-1.866c-.7-.278-1.186.106-1.076.858a2.619,2.619,0,0,0,1.472,1.866C3900.524,318.592,3901.006,318.208,3900.9,317.456Z" transform="translate(-3898.334 -314.52)" fill="#758ba3" style="mix-blend-mode: multiply;isolation: isolate"/>
            <path id="Path_39109" data-name="Path 39109" d="M3903.194,305.048a2.393,2.393,0,0,1-1.344-1.7.769.769,0,0,1,.217-.748l-1.371,1.075a.768.768,0,0,0-.216.748,2.391,2.391,0,0,0,1.344,1.7.762.762,0,0,0,.766-.036l1.371-1.075A.762.762,0,0,1,3903.194,305.048Z" transform="translate(-3900.324 -302.477)" fill="url(#linear-gradient-18)"/>
            <path id="Path_39110" data-name="Path 39110" d="M3923.364,302.6a2.389,2.389,0,0,0-1.343-1.7c-.643-.254-1.083.1-.983.784a2.393,2.393,0,0,0,1.344,1.7C3923.025,303.636,3923.464,303.285,3923.364,302.6Z" transform="translate(-3919.511 -300.811)" fill="#3d4663"/>
          </g>
          <path id="Path_39111" data-name="Path 39111" d="M3715.91,472.9a1.766,1.766,0,0,1-1.465-.681,1.853,1.853,0,0,1-.341-1.61c.1-.077.2.7.7,1.33S3716.007,472.825,3715.91,472.9Z" transform="translate(-3700.921 -459.288)" fill="#353d57"/>
          <path id="Path_39112" data-name="Path 39112" d="M3706.842,483.452a1.469,1.469,0,0,1-1.243-.551,1.554,1.554,0,0,1-.267-1.364c.082-.064.146.6.563,1.13S3706.924,483.388,3706.842,483.452Z" transform="translate(-3692.739 -469.486)" fill="#353d57"/>
          <path id="Path_39113" data-name="Path 39113" d="M3534.569,605.58a9.956,9.956,0,0,1-3.369.845,3.316,3.316,0,0,0,1.707-2.6c.082-.064.082.294.5.822S3534.65,605.516,3534.569,605.58Z" transform="translate(-3530.273 -583.617)" fill="#353d57"/>
          <g id="Group_16471" data-name="Group 16471" transform="translate(20.584 4.02)" style="isolation: isolate">
            <path id="Path_39114" data-name="Path 39114" d="M3832.859,361.3l.129,1.161a.809.809,0,0,1-.272.681l-6.1,4.786-.551-.218,6.1-4.786a.808.808,0,0,0,.271-.681l-.16-1.123Z" transform="translate(-3826.068 -361.115)" fill="url(#linear-gradient-19)"/>
            <path id="Path_39115" data-name="Path 39115" d="M3832.278,361.115l.16,1.123a.808.808,0,0,1-.271.681l-6.1,4.786.175-.542a1.117,1.117,0,0,1,.346-.53l5.051-3.975a.32.32,0,0,0,.108-.271l-.1-.71Z" transform="translate(-3826.068 -361.115)" fill="url(#linear-gradient-20)"/>
          </g>
        </g>
        <path id="Path_39116" data-name="Path 39116" d="M3589.273,482.446l-4.183,3.294a3.708,3.708,0,0,0-.54.528,3.533,3.533,0,0,1-.717.8,2.934,2.934,0,0,1-.976.5,1.323,1.323,0,0,0-.332.19l-.531.419a2.482,2.482,0,0,0,1.778-.126,10.981,10.981,0,0,0,2.939-1.947,11.483,11.483,0,0,0,1.576-2.106C3588.537,483.575,3588.894,483.031,3589.273,482.446Z" transform="translate(-3577.682 -470.338)" fill="#bfccd9" style="mix-blend-mode: multiply;isolation: isolate"/>
        <path id="Path_39117" data-name="Path 39117" d="M3637.274,543.255c-2.589.949-4.207,1.654-5.77,1.508a35.264,35.264,0,0,1-2.205-3.1c-3.088-4.525-6.511-1.793-6.225-.757.354,1.279.811,1.322,1.837,4.156.582,1.608,1.905,4.77,3.5,5.1,1.977.65,8.993,1.652,8.993,1.652C3643.713,548.431,3640.06,542.233,3637.274,543.255Z" transform="translate(-3616.006 -523.247)" fill="#ffcfb5"/>
        <path id="Path_39118" data-name="Path 39118" d="M3645.146,435.2a14.175,14.175,0,0,1,2.3,1.59c.1.206.2.424.3.655,1.381,3.058,1.042,5.328.444,6.7a20.654,20.654,0,0,1-5.77,1.508,35.285,35.285,0,0,1-2.2-3.1c-2.115-3.1-4.264-2.893-5.462-2.005a2.983,2.983,0,0,1,2.862.217,5.91,5.91,0,0,1,2.14,2.159,31.335,31.335,0,0,0,2.168,3.692c2.952-.31,6.474-1.728,8.643-2.1.355-.061-.975-.727-.786-3.184a7.422,7.422,0,0,0-2.555-6.2c-.259-.208-.17-.9.777-2.185Z" transform="translate(-3626.925 -424.145)" fill="#edb79a"/>
        <path id="Path_39119" data-name="Path 39119" d="M3626.056,559.623c.077-.448.858-.914,1.448-.939.556-.024,1.28.5,1.178,2.158-.037.6-1.458,1.29-1.611.924A11.239,11.239,0,0,1,3626.056,559.623Z" transform="translate(-3618.804 -541.493)" fill="#edb79a"/>
        <path id="Path_39120" data-name="Path 39120" d="M3624.187,558.289c.076-.448.983-.744,1.332-.743.556,0,1.3.344,1.307,1.987,0,.6-1.268,1.239-1.563.975A6.482,6.482,0,0,1,3624.187,558.289Z" transform="translate(-3617.059 -540.431)" fill="url(#linear-gradient-21)"/>
        <path id="Path_39121" data-name="Path 39121" d="M3676.04,604.366c-4.3,3.13-3.591,7.76-5.924,7.681-2.387-.081-2.813-3.206-4.6-2.353-7.784,3.715-12.2.361-12.2.361-2.076-.143-6.087-.273-8.315-1.383-.4-.2-2.271-1.495-3.758-5.7-.159-.163-.317-.209-.238,0,.326.854,1.383,3.594,1.383,3.594a14.765,14.765,0,0,0,1.277,2,3.3,3.3,0,0,0,1.319,1.038c.661.284,5.612,1.2,7.822,1.544a19.332,19.332,0,0,0,10.091,1.075c5.092-.734,8.007,2.877,12.216,5.6C3675.638,618.161,3676.377,604.12,3676.04,604.366Z" transform="translate(-3632.739 -582.702)" fill="#edb79a"/>
      </g>
      <path id="Path_39122" data-name="Path 39122" d="M3582.413,353.173l-4.19-2.876c-1.161.325-2.391,3.2-2.726,4.341a9.519,9.519,0,0,1-1.173,2.538,33.624,33.624,0,0,1-2.538,3.482c-1.816,1.692-.276,4.336,2.223,3.293a10.981,10.981,0,0,0,2.939-1.947,11.459,11.459,0,0,0,1.576-2.106c.573-.987,1.726-2.594,2.4-3.892C3581.091,355.674,3582.144,353.531,3582.413,353.173Z" transform="translate(-3567.413 -346.998)" fill="#ffcfb5"/>
      <path id="Path_39123" data-name="Path 39123" d="M3576.84,484.7s-.054.42.129.433c.474.034,1.456-.887,1.7-1.334s.107-1.052-.142-1.122S3576.84,484.7,3576.84,484.7Z" transform="translate(-3572.863 -470.55)" fill="#edb79a"/>
      <path id="Path_39124" data-name="Path 39124" d="M3575.124,486.484a.276.276,0,0,0,.1.318c.251.176,1.389-.826,1.633-1.273s.131-.957-.117-1.027S3575.124,486.484,3575.124,486.484Z" transform="translate(-3571.253 -472.255)" fill="url(#linear-gradient-22)"/>
      <g id="Group_16473" data-name="Group 16473" transform="translate(39.072 18.122)">
        <path id="Path_39125" data-name="Path 39125" d="M4153.26,597.576a5.467,5.467,0,0,0-1.239-3.789l-1.942-1.126L4118.2,573.392s-6.121-3.511-11.942,4.774a14.322,14.322,0,0,0-1.7,14.216l32.822,19.863a12.858,12.858,0,0,0,2.521.069,11.336,11.336,0,0,0,4.912-1.227C4149.478,608.393,4153.26,602.344,4153.26,597.576Z" transform="translate(-4103.407 -572.654)" fill="#f1f4f6"/>
      </g>
      <path id="Path_39126" data-name="Path 39126" d="M3586.756,411.865c-.457-.268-.96-.576-1.434-.815a9.625,9.625,0,0,0-1.169-.767,15.934,15.934,0,0,1-.813,2.255c-.711,1.416-1.212,2.154-1.8,2.41-.312,1.387-2.282,3.3-3.149,3.8a3.906,3.906,0,0,1-3.844.478,2.082,2.082,0,0,0,2.779.7,10.978,10.978,0,0,0,2.938-1.947,11.438,11.438,0,0,0,1.576-2.106,23.679,23.679,0,0,0,2.4-3.892c.017-.047.062-.122.112-.222.7.374,1.024.479,1.6.736Z" transform="translate(-3570.729 -402.982)" fill="#edb79a"/>
    </g>
    <rect id="background" width="136.057" height="136.057" transform="translate(2425.612 -672.429)" fill="none"/>
    <g id="pill" transform="translate(2503.388 -611.407)">
      <path id="Path_39127" data-name="Path 39127" d="M3597.294,252.776a1.059,1.059,0,0,0-1.445-.278l-1.429.741-1.429.741a.937.937,0,1,0,.84,1.619l1.429-.741,1.429-.741A1.058,1.058,0,0,0,3597.294,252.776Z" transform="translate(-3592.303 -251.714)" fill="#191919" opacity="0.2"/>
      <path id="Path_39128" data-name="Path 39128" d="M3601.771,258.63l-1.483.769a.973.973,0,1,1-.872-1.68l1.483-.77Z" transform="translate(-3598.276 -256.015)" fill="#bfccd9"/>
      <path id="Path_39129" data-name="Path 39129" d="M3603.32,258.37c-.495.256-.761.764-.583,1.109s.748.419,1.242.163l1.331-.691-.66-1.272Z" transform="translate(-3601.99 -256.697)" fill="#f7f9fc"/>
      <path id="Path_39130" data-name="Path 39130" d="M3632.53,245.56l1.483-.769a.973.973,0,1,0-.872-1.681l-1.483.769Z" transform="translate(-3629.034 -242.946)" fill="#d42250"/>
      <path id="Path_39131" data-name="Path 39131" d="M3632.088,245.94l.659,1.272,1.332-.691c.495-.256.761-.764.582-1.109s-.748-.419-1.242-.163Z" transform="translate(-3629.436 -244.953)" fill="#fc3a6c"/>
    </g>
    <g id="pill-2" data-name="pill" transform="translate(2504.546 -614.91)">
      <path id="Path_39132" data-name="Path 39132" d="M3614.619,199.477a1.059,1.059,0,0,0-1.451-.246l-1.412.772-1.412.772a.938.938,0,1,0,.875,1.6l1.412-.772,1.412-.772A1.058,1.058,0,0,0,3614.619,199.477Z" transform="translate(-3609.678 -198.481)" fill="#191919" opacity="0.2"/>
      <path id="Path_39133" data-name="Path 39133" d="M3616.416,206.769l-1.466.8a.973.973,0,1,1-.908-1.661l1.466-.8Z" transform="translate(-3613.105 -204.128)" fill="#d42250"/>
      <path id="Path_39134" data-name="Path 39134" d="M3617.883,206.545c-.488.267-.744.781-.558,1.121s.756.4,1.245.135l1.316-.72-.688-1.257Z" transform="translate(-3616.758 -204.797)" fill="#fc3a6c"/>
      <path id="Path_39135" data-name="Path 39135" d="M3646.614,193.042l1.466-.8a.973.973,0,1,0-.908-1.661l-1.466.8Z" transform="translate(-3643.304 -190.401)" fill="#bfccd9"/>
      <path id="Path_39136" data-name="Path 39136" d="M3646.154,193.5l.687,1.257,1.316-.72c.489-.267.744-.781.558-1.121s-.756-.4-1.245-.135Z" transform="translate(-3643.722 -192.462)" fill="#f7f9fc"/>
    </g>
    <g id="bottle" transform="translate(2482.989 -652.904)">
      <path id="Path_39137" data-name="Path 39137" d="M3304.924,21.051a13.255,13.255,0,0,1-3.609,1.383,18.484,18.484,0,0,1-8.206,0,13.244,13.244,0,0,1-3.609-1.383,7.379,7.379,0,0,1-2.4-2.084,3.914,3.914,0,0,1,0-4.738,7.38,7.38,0,0,1,2.4-2.084,13.248,13.248,0,0,1,3.609-1.383,18.483,18.483,0,0,1,8.206,0,13.257,13.257,0,0,1,3.609,1.383,7.377,7.377,0,0,1,2.4,2.084,3.912,3.912,0,0,1,0,4.738A7.378,7.378,0,0,1,3304.924,21.051Z" transform="translate(-3286.306 15.687)" fill="#191919" opacity="0.2" style="mix-blend-mode: multiply;isolation: isolate"/>
      <g id="Group_16476" data-name="Group 16476" transform="translate(2.44 5.769)">
        <path id="Path_39138" data-name="Path 39138" d="M3342.536-281.313a5.05,5.05,0,0,0-.365-1.449,7.031,7.031,0,0,0-2.393-2.711c-.54-.443-1.346-1.239-1.374-1.978a3.95,3.95,0,0,1,.039-.882.555.555,0,0,1,.2-.381.119.119,0,0,0,.034-.058,1.156,1.156,0,0,0-.022-.531c-.033-.066-.147-.1-.147-.1,0-.026-.011-.23-.01-.3,0-.388.071-1.344.115-2.11.035-.581.064-1.043.064-1.043l-.951-.021-4.965-.111-4.965.111-.95.021s.03.463.064,1.042c.046.777.1,2.36.1,2.383a1.431,1.431,0,0,0-.126.11.908.908,0,0,0-.024.608.173.173,0,0,0,.033.062c.061.074.165.078.211.433a2.939,2.939,0,0,1,.017.773c-.186,1.693-1.481,2.073-2.238,2.7a5.113,5.113,0,0,0-1.772,2.755,17.484,17.484,0,0,0-.148,4.215l-.018,6.127c0,1.3.009,2.6-.011,3.9a5.263,5.263,0,0,0,1.82,3.823,9.431,9.431,0,0,0,3.715,1.98,15.111,15.111,0,0,0,8.238.115,9.674,9.674,0,0,0,3.868-1.933,5.287,5.287,0,0,0,1.979-3.915c-.011-.32,0-.644,0-.964q.007-2.606.014-5.212.008-2.781.016-5.563A17.412,17.412,0,0,0,3342.536-281.313Z" transform="translate(-3322.908 292.995)" fill="url(#linear-gradient-10)"/>
        <path id="Path_39139" data-name="Path 39139" d="M3396.388-226.786a.819.819,0,0,0-.083.247l-.006.012s-1.579,2.245-5.6,2.245c-4.211,0-5.726-2.139-5.726-2.139l0-.009a.924.924,0,0,0-.062-.254c-.049-.112,1.583,2.207,5.809,2.171A7.783,7.783,0,0,0,3396.388-226.786Z" transform="translate(-3380.768 231.202)" fill="#bfccd9" style="mix-blend-mode: multiply;isolation: isolate"/>
        <path id="Path_39140" data-name="Path 39140" d="M3382.551-239.919s1.279,2.542,5.592,2.522c1.7-.008,4.818-.429,5.9-2.543l.123.117s-1.2,2.611-6.011,2.611c-1.759,0-4.623-.7-5.731-2.545a.054.054,0,0,1,.012-.069Z" transform="translate(-3378.449 243.476)" fill="#f7f9fc"/>
        <path id="Path_39141" data-name="Path 39141" d="M3341.993-110.676a6.633,6.633,0,0,1-2.152,1.872,11.906,11.906,0,0,1-3.242,1.243,16.193,16.193,0,0,1-3.686.414,16.194,16.194,0,0,1-3.686-.414,11.9,11.9,0,0,1-3.242-1.243,6.632,6.632,0,0,1-2.152-1.872,3.948,3.948,0,0,1-.757-2.109l.022,12.316a3.793,3.793,0,0,0,.734,2.162,6.631,6.631,0,0,0,2.152,1.872,11.9,11.9,0,0,0,3.242,1.243,16.194,16.194,0,0,0,3.686.414,16.193,16.193,0,0,0,3.686-.414,11.9,11.9,0,0,0,3.242-1.243,6.632,6.632,0,0,0,2.152-1.872,3.668,3.668,0,0,0,.718-2.128l.024-12.379A3.6,3.6,0,0,1,3341.993-110.676Z" transform="translate(-3323.065 124.826)" fill="url(#linear-gradient-24)"/>
        <path id="Path_39142" data-name="Path 39142" d="M3341.993-107.546a6.633,6.633,0,0,1-2.152,1.872,11.9,11.9,0,0,1-3.242,1.243,16.192,16.192,0,0,1-3.686.414,16.193,16.193,0,0,1-3.686-.414,11.9,11.9,0,0,1-3.242-1.243,6.631,6.631,0,0,1-2.152-1.872,3.948,3.948,0,0,1-.757-2.109l.022,12.316a3.793,3.793,0,0,0,.734,2.162,6.632,6.632,0,0,0,2.152,1.872,11.9,11.9,0,0,0,3.242,1.243,16.2,16.2,0,0,0,3.686.414,16.2,16.2,0,0,0,3.686-.414,11.9,11.9,0,0,0,3.242-1.243,6.632,6.632,0,0,0,2.152-1.872,3.668,3.668,0,0,0,.718-2.128l.024-12.379A3.6,3.6,0,0,1,3341.993-107.546Z" transform="translate(-3323.065 121.904)" fill="url(#linear-gradient-25)"/>
        <g id="Group_16475" data-name="Group 16475" transform="translate(0.735 14.39)">
          <g id="Group_16474" data-name="Group 16474" transform="translate(7.336 5.548)">
            <path id="Path_39143" data-name="Path 39143" d="M3460.111,19.1a7.994,7.994,0,0,1-1.531.009c0,.248-.011.58-.016.828,0,.02,0,.046,0,.066a7.931,7.931,0,0,1-1.024-.16q-.029.657-.057,1.313a8.351,8.351,0,0,0,1.054.161q-.008.447-.018.894a9.031,9.031,0,0,0,1.639-.009l-.013-.894a8.272,8.272,0,0,0,1.047-.172q-.025-.657-.05-1.313a7.832,7.832,0,0,1-1.017.171q-.006-.447-.013-.894Z" transform="translate(-3456.581 -18.234)" fill="#29b4e3"/>
            <path id="Path_39144" data-name="Path 39144" d="M3446.73,10.688c-2.5-.139-3.044-2.784-1.889-3.715,1.189-.948,4.462-.9,4.372,1.416a2.488,2.488,0,0,1-2.483,2.3Zm0-4.6c-3.33.061-3.226,2.9-1.889,4.171a2.766,2.766,0,0,0,4.615-2.421c-.206-1.117-1.221-1.75-2.656-1.741Z" transform="translate(-3443.974 -6.084)" fill="#fc3a6c"/>
          </g>
          <path id="Path_39145" data-name="Path 39145" d="M3542.722-10.969c-.692,2.477-3.395,3.714-4.944,4.23a.435.435,0,0,0-.332.384c0,.628,0,.725.294.641,4.855-1.685,5.019-4.411,5.022-4.716a3.568,3.568,0,0,0-.01-.6.159.159,0,0,0-.031.057Z" transform="translate(-3523.88 15.433)" fill="#29b4e3"/>
          <path id="Path_39146" data-name="Path 39146" d="M3542.647,15.359c-.692,2.477-3.395,3.714-4.944,4.23a.435.435,0,0,0-.332.384c0,.628,0,.724.294.641,4.854-1.685,5.019-4.411,5.022-4.716a3.65,3.65,0,0,0-.009-.6.155.155,0,0,0-.031.057Z" transform="translate(-3523.81 -9.139)" fill="#29b4e3"/>
          <path id="Path_39147" data-name="Path 39147" d="M3569.139,60.042a6.86,6.86,0,0,1-2.481,2.112.525.525,0,0,0-.255.412c0,.508,0,.508.019.555.009.022.064.128.234.046,1.516-.859,2.585-1.917,2.6-2.572,0-.495,0-.495,0-.532,0,0-.015-.109-.076-.062a.2.2,0,0,0-.037.042Z" transform="translate(-3550.905 -50.847)" fill="#29b4e3"/>
          <path id="Path_39148" data-name="Path 39148" d="M3615.588-77.1a7.153,7.153,0,0,0-.167.952,5.75,5.75,0,0,0,.011.945l.011,0a.1.1,0,0,0,.021-.045,3.094,3.094,0,0,0,.135-.957c0-.914,0-.914,0-.943-.005.01-.005.01-.01.045Z" transform="translate(-3596.656 77.141)" fill="#bfccd9"/>
          <path id="Path_39149" data-name="Path 39149" d="M3336.641-28.556a8.643,8.643,0,0,1-2.417-1.661l0,.593a8.442,8.442,0,0,0,2.418,1.661v-.593Z" transform="translate(-3334.203 33.345)" fill="#bfccd9"/>
          <path id="Path_39150" data-name="Path 39150" d="M3336.521,13.885a8.641,8.641,0,0,1-2.418-1.661l0,.593a8.438,8.438,0,0,0,2.418,1.661v-.593Z" transform="translate(-3334.09 -6.267)" fill="#bfccd9"/>
          <path id="Path_39151" data-name="Path 39151" d="M3336.448,39.752a8.649,8.649,0,0,1-2.418-1.661v.593a8.435,8.435,0,0,0,2.418,1.661l0-.593Z" transform="translate(-3334.022 -30.409)" fill="#bfccd9"/>
          <path id="Path_39152" data-name="Path 39152" d="M3336.355,72.348a8.642,8.642,0,0,1-2.418-1.661v.593a8.43,8.43,0,0,0,2.418,1.661v-.593Z" transform="translate(-3333.936 -60.832)" fill="#bfccd9"/>
          <path id="Path_39153" data-name="Path 39153" d="M3336.613-14.517a8.639,8.639,0,0,1-2.418-1.661v.3a8.438,8.438,0,0,0,2.418,1.661v-.3Z" transform="translate(-3334.177 20.242)" fill="#bfccd9"/>
          <path id="Path_39154" data-name="Path 39154" d="M3336.574-.666a8.646,8.646,0,0,1-2.418-1.661v.3a8.432,8.432,0,0,0,2.418,1.661v-.3Z" transform="translate(-3334.141 7.314)" fill="#bfccd9"/>
          <path id="Path_39155" data-name="Path 39155" d="M3336.595-6.563a8.645,8.645,0,0,1-2.418-1.661v.2a8.44,8.44,0,0,0,2.418,1.661v-.2Z" transform="translate(-3334.16 12.818)" fill="#bfccd9"/>
          <path id="Path_39156" data-name="Path 39156" d="M3336.48,32.515a8.639,8.639,0,0,1-2.418-1.661v.3a8.43,8.43,0,0,0,2.418,1.661v-.3Z" transform="translate(-3334.053 -23.655)" fill="#bfccd9"/>
          <path id="Path_39157" data-name="Path 39157" d="M3336.5,26.322a8.646,8.646,0,0,1-2.418-1.661v.2a8.431,8.431,0,0,0,2.418,1.661v-.2Z" transform="translate(-3334.073 -17.875)" fill="#bfccd9"/>
          <path id="Path_39158" data-name="Path 39158" d="M3336.554,7.984a8.642,8.642,0,0,1-2.418-1.661v.2a8.427,8.427,0,0,0,2.418,1.661v-.2Z" transform="translate(-3334.122 -0.759)" fill="#bfccd9"/>
          <path id="Path_39159" data-name="Path 39159" d="M3336.408,57.868a8.64,8.64,0,0,1-2.418-1.661v.3a8.438,8.438,0,0,0,2.418,1.661v-.3Z" transform="translate(-3333.986 -47.318)" fill="#bfccd9"/>
          <path id="Path_39160" data-name="Path 39160" d="M3336.43,51.783a8.643,8.643,0,0,1-2.418-1.661v.2a8.431,8.431,0,0,0,2.418,1.661v-.2Z" transform="translate(-3334.006 -41.638)" fill="#bfccd9"/>
          <path id="Path_39161" data-name="Path 39161" d="M3336.39,65.619a8.643,8.643,0,0,1-2.417-1.661v.2a8.433,8.433,0,0,0,2.418,1.661v-.2Z" transform="translate(-3333.969 -54.552)" fill="#bfccd9"/>
          <path id="Path_39162" data-name="Path 39162" d="M3546.454-14.551a10.562,10.562,0,0,1-2.416,1.2.2.2,0,0,0-.154.177c0,.3,0,.324.127.291.879-.326,2.525-1.072,2.539-1.4,0-.234,0-.234-.007-.255s-.022-.056-.09-.013Z" transform="translate(-3529.889 18.739)" fill="#bfccd9"/>
        </g>
      </g>
      <g id="signe" transform="translate(6.207)">
        <path id="Path_39163" data-name="Path 39163" d="M3394.192-316.644c-.045.766-.1,1.737-.1,2.124-.034.057-.07.112-.109.168a4.118,4.118,0,0,1-1.337,1.163,7.4,7.4,0,0,1-2.014.772,10.071,10.071,0,0,1-2.29.258,10.073,10.073,0,0,1-2.29-.258,7.4,7.4,0,0,1-2.014-.772,4.119,4.119,0,0,1-1.337-1.163c-.039-.055-.1-.134-.132-.19-.024-.488-.064-1.333-.111-2.11a2.98,2.98,0,0,1,.243-.345,3.562,3.562,0,0,1,.676-.712,5.053,5.053,0,0,1,.661-.451,7.391,7.391,0,0,1,2.014-.772,10.054,10.054,0,0,1,2.29-.258,10.052,10.052,0,0,1,2.29.258,7.386,7.386,0,0,1,2.014.772,5.05,5.05,0,0,1,.661.451,3.556,3.556,0,0,1,.676.712A2.722,2.722,0,0,1,3394.192-316.644Z" transform="translate(-3382.253 323.212)" fill="#bfccd9" style="mix-blend-mode: multiply;isolation: isolate"/>
        <path id="Path_39164" data-name="Path 39164" d="M3389.809-373.537a7.4,7.4,0,0,1-2.014.772,10.061,10.061,0,0,1-2.29.257,10.059,10.059,0,0,1-2.29-.257,7.4,7.4,0,0,1-2.014-.772,4.117,4.117,0,0,1-1.337-1.163,2.277,2.277,0,0,1-.446-1.322,2.277,2.277,0,0,1,.446-1.322,4.118,4.118,0,0,1,1.337-1.163,7.4,7.4,0,0,1,2.014-.772,10.062,10.062,0,0,1,2.29-.257,10.062,10.062,0,0,1,2.29.257,7.4,7.4,0,0,1,2.014.772,4.12,4.12,0,0,1,1.337,1.163,2.278,2.278,0,0,1,.446,1.322,2.278,2.278,0,0,1-.446,1.322A4.119,4.119,0,0,1,3389.809-373.537Z" transform="translate(-3379.417 379.537)" fill="#f7f9fc"/>
        <path id="Path_39165" data-name="Path 39165" d="M3391.146-325.493a4.119,4.119,0,0,1-1.337,1.163,7.4,7.4,0,0,1-2.014.772,10.064,10.064,0,0,1-2.29.257,10.062,10.062,0,0,1-2.29-.257,7.4,7.4,0,0,1-2.014-.772,4.117,4.117,0,0,1-1.337-1.163,2.277,2.277,0,0,1-.446-1.322v3.7a2.277,2.277,0,0,0,.446,1.322,4.117,4.117,0,0,0,1.337,1.163,7.4,7.4,0,0,0,2.014.772,10.062,10.062,0,0,0,2.29.257,10.061,10.061,0,0,0,2.29-.257,7.4,7.4,0,0,0,2.014-.772,4.119,4.119,0,0,0,1.337-1.163,2.278,2.278,0,0,0,.446-1.322v-3.7A2.278,2.278,0,0,1,3391.146-325.493Z" transform="translate(-3379.417 330.33)" fill="url(#linear-gradient-26)"/>
        <g id="Group_16477" data-name="Group 16477" transform="translate(0.594 5.707)" style="mix-blend-mode: multiply;isolation: isolate">
          <path id="Path_39166" data-name="Path 39166" d="M3388.38-287.042a.168.168,0,0,1-.049-.118v-1.648a.168.168,0,0,1,.287-.118.167.167,0,0,1,.049.118v1.648A.168.168,0,0,1,3388.38-287.042Z" transform="translate(-3388.331 289.306)" fill="#bfccd9"/>
          <path id="Path_39167" data-name="Path 39167" d="M3403.692-274.944a.168.168,0,0,1-.071-.137V-276.8a.168.168,0,0,1,.265-.137.168.168,0,0,1,.071.137v1.715A.168.168,0,0,1,3403.692-274.944Z" transform="translate(-3402.602 278.095)" fill="#bfccd9"/>
          <path id="Path_39168" data-name="Path 39168" d="M3420.22-266.661a.168.168,0,0,1-.1-.152v-1.755a.168.168,0,0,1,.238-.152.168.168,0,0,1,.1.152v1.755A.168.168,0,0,1,3420.22-266.661Z" transform="translate(-3418.004 270.416)" fill="#bfccd9"/>
          <path id="Path_39169" data-name="Path 39169" d="M3439.638-261.29a.168.168,0,0,1-.123-.162v-1.777a.168.168,0,0,1,.213-.162.167.167,0,0,1,.122.162v1.777A.168.168,0,0,1,3439.638-261.29Z" transform="translate(-3436.103 265.432)" fill="#bfccd9"/>
          <path id="Path_39170" data-name="Path 39170" d="M3461.5-258.683a.168.168,0,0,1-.168-.168v-1.79a.168.168,0,0,1,.168-.168.168.168,0,0,1,.168.168v1.79A.168.168,0,0,1,3461.5-258.683Z" transform="translate(-3456.465 263.017)" fill="#bfccd9"/>
          <path id="Path_39171" data-name="Path 39171" d="M3485.639-260.274a.168.168,0,0,1-.192-.166v-1.786a.168.168,0,0,1,.144-.166.168.168,0,0,1,.192.166v1.786A.168.168,0,0,1,3485.639-260.274Z" transform="translate(-3478.973 264.496)" fill="#bfccd9"/>
          <path id="Path_39172" data-name="Path 39172" d="M3510.031-266.124a.168.168,0,0,1-.22-.159v-1.772a.168.168,0,0,1,.115-.159.168.168,0,0,1,.22.159v1.772A.167.167,0,0,1,3510.031-266.124Z" transform="translate(-3501.713 269.936)" fill="#bfccd9"/>
          <path id="Path_39173" data-name="Path 39173" d="M3532.433-275.911a.168.168,0,0,1-.246-.148v-1.746a.168.168,0,0,1,.089-.148.168.168,0,0,1,.246.148v1.746A.168.168,0,0,1,3532.433-275.911Z" transform="translate(-3522.597 279.037)" fill="#bfccd9"/>
          <path id="Path_39174" data-name="Path 39174" d="M3551.605-291.943a.168.168,0,0,1-.275-.129v-1.688a.168.168,0,0,1,.06-.129.168.168,0,0,1,.276.129v1.688A.167.167,0,0,1,3551.605-291.943Z" transform="translate(-3540.464 293.928)" fill="#bfccd9"/>
        </g>
        <path id="Path_39175" data-name="Path 39175" d="M3410.666-357.283c.8.756.628,1.757-.5,2.41a5.327,5.327,0,0,1-4.813,0c-1.215-.7-1.317-1.8-.309-2.574l.353.2.06-.469.06-.469-.812.035-.812.035.382.221a2.774,2.774,0,0,0-.669.655,1.678,1.678,0,0,0-.328.974,1.678,1.678,0,0,0,.328.974,3.032,3.032,0,0,0,.984.856,5.452,5.452,0,0,0,1.483.568,7.414,7.414,0,0,0,1.687.19,7.412,7.412,0,0,0,1.686-.19,5.447,5.447,0,0,0,1.483-.568,3.034,3.034,0,0,0,.985-.856,1.678,1.678,0,0,0,.328-.974,1.678,1.678,0,0,0-.328-.974,2.588,2.588,0,0,0-.465-.5Z" transform="translate(-3401.684 359.605)" fill="#e6edf7"/>
      </g>
    </g>
  </g>
</svg>
