<svg id="Group_16340" data-name="Group 16340" xmlns="http://www.w3.org/2000/svg" width="96" height="96" viewBox="0 0 96 96">
  <g id="Group_16302" data-name="Group 16302" transform="translate(1.548 1.548)">
    <g id="Group_16281" data-name="Group 16281">
      <path id="Path_38896" data-name="Path 38896" d="M1173.226,219.055h-6.193a4.639,4.639,0,0,0-4.646,4.645v1.548h-1.037a5.164,5.164,0,0,0-3.1,9.291l4.134,3.1v6.194l-6.441-4.026a12.431,12.431,0,0,1-4.366-4.6,12.674,12.674,0,0,1,.542-13.146l.976-1.455-.217-.217a9.854,9.854,0,0,1,6.968-16.816h19.572a7.742,7.742,0,0,1,0,15.484h-6.194Z" transform="translate(-1150 -203.571)" fill="#656d78"/>
    </g>
    <g id="Group_16282" data-name="Group 16282" transform="translate(46.452)">
      <path id="Path_38897" data-name="Path 38897" d="M1284.983,217.894l-3.794.96a6.673,6.673,0,0,1-1.672.2,6.866,6.866,0,0,1-5.7-3.02l-1.161.232a7.728,7.728,0,0,0-6.225,7.587v1.393h-1.548a4.639,4.639,0,0,0-4.645,4.645,7.722,7.722,0,0,1,.526-12.728,7.7,7.7,0,0,1,7.215-10.5h.031a27.838,27.838,0,0,0,17-3.1,7.729,7.729,0,0,1,6.317,3.283,7.689,7.689,0,0,1,5.543,10.312,7.722,7.722,0,0,1,.526,12.728,4.639,4.639,0,0,0-4.645-4.645h-1.549V224.2a4.952,4.952,0,0,0-.944-2.911,5,5,0,0,0-2.478-1.827A8.55,8.55,0,0,1,1284.983,217.894Z" transform="translate(-1257.143 -203.571)" fill="#e6e9ed"/>
    </g>
    <g id="Group_16283" data-name="Group 16283" transform="translate(6.194 49.548)">
      <path id="Path_38898" data-name="Path 38898" d="M1192.157,333.341l-.975.975a23.962,23.962,0,0,0-7.107-10.653,9.9,9.9,0,0,0-.759-.65,24.733,24.733,0,0,0-3.546-2.354,24.476,24.476,0,0,0-8.485-2.725c-.263-.031-.542-.046-.805-.078a11.432,11.432,0,0,0-4.521,4.134,11.215,11.215,0,0,0-1.672,5.884,17.344,17.344,0,0,0,.635,4.645l4.692,16.908a11.87,11.87,0,0,0,19.82,5.218l5.822-5.822,6.194-6.194Z" transform="translate(-1164.286 -317.857)" fill="#e6e9ed"/>
    </g>
    <g id="Group_16284" data-name="Group 16284" transform="translate(6.194 59.566)">
      <path id="Path_38899" data-name="Path 38899" d="M1195.254,374.3h-30.968V340.964a17.343,17.343,0,0,0,.635,4.645l4.692,16.908a11.87,11.87,0,0,0,19.82,5.218l5.822-5.822Z" transform="translate(-1164.286 -340.964)" fill="#e6e9ed"/>
    </g>
    <g id="Group_16285" data-name="Group 16285" transform="translate(18.581 58.839)">
      <path id="Path_38900" data-name="Path 38900" d="M1199.051,339.286v4.645a1.553,1.553,0,0,1-1.549,1.548h-3.1a1.553,1.553,0,0,1-1.549-1.548v-4.645Z" transform="translate(-1192.857 -339.286)" fill="#aab2bd"/>
    </g>
    <g id="Group_16286" data-name="Group 16286" transform="translate(43.355 47.814)">
      <path id="Path_38901" data-name="Path 38901" d="M1284.931,313.857l-3.964,7.928-6.194-4.645-6.194,4.645-3.964-7.928a24.16,24.16,0,0,0-5.5,3.344,2.441,2.441,0,0,1,.17.9v10.467a2.5,2.5,0,0,1-2.509,2.508,2.7,2.7,0,0,1-.6-.077,4.163,4.163,0,0,1,.016.449,6.574,6.574,0,0,1-1.92,4.645L1250,340.365v3.1h9.291v15.484h30.968V343.462h9.29v-7.169A24.524,24.524,0,0,0,1284.931,313.857Z" transform="translate(-1250 -313.857)" fill="#fcd770"/>
    </g>
    <g id="Group_16287" data-name="Group 16287" transform="translate(68.129 46.452)">
      <path id="Path_38902" data-name="Path 38902" d="M1317.3,312.077,1313.337,320l-6.194-4.645,6.194-4.645A24.413,24.413,0,0,1,1317.3,312.077Z" transform="translate(-1307.143 -310.714)" fill="#ffc729"/>
    </g>
    <g id="Group_16288" data-name="Group 16288" transform="translate(57.971 46.452)">
      <path id="Path_38903" data-name="Path 38903" d="M1287.678,310.714l6.194,4.645L1287.678,320l-3.964-7.928A24.434,24.434,0,0,1,1287.678,310.714Z" transform="translate(-1283.714 -310.714)" fill="#ffc729"/>
    </g>
    <g id="Group_16289" data-name="Group 16289" transform="translate(71.226 61.936)">
      <path id="Path_38904" data-name="Path 38904" d="M1329.77,350.315v.279a4.254,4.254,0,0,1-1.579,3.3l-1.517,1.208-4.645,3.716-6.163-4.924a4.254,4.254,0,0,1-1.579-3.3v-.279a4.427,4.427,0,0,1,.077-.79,3.849,3.849,0,0,1,2.013-2.6,4.86,4.86,0,0,1,2.137-.5,4.746,4.746,0,0,1,3.36,1.393l.155.155.155-.155a4.745,4.745,0,0,1,3.36-1.393,4.862,4.862,0,0,1,2.137.5A3.789,3.789,0,0,1,1329.77,350.315Z" transform="translate(-1314.286 -346.429)" fill="#ff826e"/>
    </g>
    <g id="Group_16290" data-name="Group 16290" transform="translate(43.355 49.548)">
      <path id="Path_38905" data-name="Path 38905" d="M1259.291,330.833a2.5,2.5,0,0,1-2.509,2.508,2.7,2.7,0,0,1-.6-.077,6.543,6.543,0,0,0-6.178-6.1v-6.209l5.667-2.834a2.5,2.5,0,0,1,3.453,1.347,2.441,2.441,0,0,1,.17.9v10.467Z" transform="translate(-1250 -317.857)" fill="#ccd1d9"/>
    </g>
    <g id="Group_16291" data-name="Group 16291" transform="translate(37.161 52.645)">
      <path id="Path_38906" data-name="Path 38906" d="M1241.908,325v6.209a3.045,3.045,0,0,0-.372-.015,6.574,6.574,0,0,0-4.645,1.92l-1.177,1.177v-7.742a1.553,1.553,0,0,1,1.549-1.548Z" transform="translate(-1235.714 -325)" fill="#ccd1d9"/>
    </g>
    <g id="Group_16292" data-name="Group 16292" transform="translate(21.677 15.484)">
      <path id="Path_38907" data-name="Path 38907" d="M1212.232,244.086a6.844,6.844,0,0,1,.155,1.393,6.174,6.174,0,1,1-.155-1.393Z" transform="translate(-1200 -239.286)" fill="#69d6f4"/>
    </g>
    <g id="Group_16293" data-name="Group 16293" transform="translate(12.387 15.484)">
      <path id="Path_38908" data-name="Path 38908" d="M1189.41,239.286h4.646a6.192,6.192,0,0,0-6.194,6.193h-9.29v-1.548a4.639,4.639,0,0,1,4.646-4.645Z" transform="translate(-1178.571 -239.286)" fill="#f0d0b4"/>
    </g>
    <g id="Group_16294" data-name="Group 16294" transform="translate(6.194 20.284)">
      <path id="Path_38909" data-name="Path 38909" d="M1170.479,273.955v-9.817l-4.134-3.1a5.164,5.164,0,0,1,3.1-9.291h10.328a6.193,6.193,0,1,0,12.387,0,6.844,6.844,0,0,0-.155-1.393,18.633,18.633,0,0,1,3.252,10.684h-3.1v3.1a9.355,9.355,0,0,1-.526,3.1h-.016a9.244,9.244,0,0,1-8.748,6.193h-3.1v9a24.476,24.476,0,0,0-8.485-2.725A20.922,20.922,0,0,1,1170.479,273.955Z" transform="translate(-1164.286 -250.357)" fill="#f0d0b4"/>
    </g>
    <g id="Group_16295" data-name="Group 16295" transform="translate(34.064 58.839)">
      <path id="Path_38910" data-name="Path 38910" d="M1231.668,342.383l1.177-1.177a6.574,6.574,0,0,1,4.645-1.92,3.043,3.043,0,0,1,.371.015,6.543,6.543,0,0,1,6.178,6.1,4.163,4.163,0,0,1,.016.449,6.574,6.574,0,0,1-1.92,4.645l-4.274,4.273-9.29-9.29Z" transform="translate(-1228.571 -339.286)" fill="#f0d0b4"/>
    </g>
    <g id="Group_16296" data-name="Group 16296" transform="translate(43.355 77.42)">
      <rect id="Rectangle_4080" data-name="Rectangle 4080" width="9.29" height="15.484" fill="#f0d0b4"/>
    </g>
    <g id="Group_16297" data-name="Group 16297" transform="translate(83.613 77.42)">
      <rect id="Rectangle_4081" data-name="Rectangle 4081" width="9.29" height="15.484" fill="#f0d0b4"/>
    </g>
    <g id="Group_16298" data-name="Group 16298" transform="translate(80.516 21.677)">
      <path id="Path_38911" data-name="Path 38911" d="M1337.263,253.571a4.645,4.645,0,0,1,0,9.29h-1.549v-9.29Z" transform="translate(-1335.714 -253.571)" fill="#f0d0b4"/>
    </g>
    <g id="Group_16299" data-name="Group 16299" transform="translate(61.935 40.072)">
      <path id="Path_38912" data-name="Path 38912" d="M1303.974,296l1.27,6.379-6.194,4.645-6.194-4.645,1.27-6.379a8.91,8.91,0,0,0,1.827.186h6.194A8.912,8.912,0,0,0,1303.974,296Z" transform="translate(-1292.857 -296)" fill="#f0d0b4"/>
    </g>
    <g id="Group_16300" data-name="Group 16300" transform="translate(55.742 12.465)">
      <path id="Path_38913" data-name="Path 38913" d="M1303.345,241.534v9.29a9.274,9.274,0,0,1-7.463,9.1,8.911,8.911,0,0,1-1.827.186h-6.194a8.9,8.9,0,0,1-1.827-.186,9.274,9.274,0,0,1-7.464-9.1V240.14a7.728,7.728,0,0,1,6.225-7.587l1.161-.232a6.866,6.866,0,0,0,5.7,3.02,6.674,6.674,0,0,0,1.672-.2l3.793-.96a8.553,8.553,0,0,0,2.8,1.564,5,5,0,0,1,2.478,1.827,4.953,4.953,0,0,1,.944,2.911Z" transform="translate(-1278.571 -232.321)" fill="#f0d0b4"/>
    </g>
    <g id="Group_16301" data-name="Group 16301" transform="translate(49.549 21.677)">
      <path id="Path_38914" data-name="Path 38914" d="M1270.479,253.571v9.29h-1.548a4.645,4.645,0,0,1,0-9.29Z" transform="translate(-1264.286 -253.571)" fill="#f0d0b4"/>
    </g>
  </g>
  <g id="Group_16339" data-name="Group 16339" transform="translate(0 0)">
    <g id="Group_16303" data-name="Group 16303" transform="translate(61.965 41.324)">
      <rect id="Rectangle_4082" data-name="Rectangle 4082" width="6.498" height="3.097" transform="translate(0 6.372) rotate(-78.678)"/>
    </g>
    <g id="Group_16304" data-name="Group 16304" transform="translate(73.078 41.324)">
      <rect id="Rectangle_4083" data-name="Rectangle 4083" width="3.097" height="6.498" transform="matrix(0.981, -0.196, 0.196, 0.981, 0, 0.607)"/>
    </g>
    <g id="Group_16305" data-name="Group 16305" transform="translate(83.613 72.154)">
      <rect id="Rectangle_4084" data-name="Rectangle 4084" width="3.097" height="22.297"/>
    </g>
    <g id="Group_16306" data-name="Group 16306" transform="translate(85.161 77.419)">
      <rect id="Rectangle_4085" data-name="Rectangle 4085" width="9.29" height="3.097"/>
    </g>
    <g id="Group_16307" data-name="Group 16307" transform="translate(18.581 20.955)">
      <path id="Path_38915" data-name="Path 38915" d="M1197.028,273.83h-7.742v-3.1h7.742a7.751,7.751,0,0,0,7.742-7.742v-4.645h3.032a17,17,0,0,0-2.915-8.256l2.549-1.757a20.227,20.227,0,0,1,3.528,11.561v1.548h-3.1v1.549A10.852,10.852,0,0,1,1197.028,273.83Z" transform="translate(-1189.286 -248.333)"/>
    </g>
    <g id="Group_16308" data-name="Group 16308" transform="translate(24.774 34.064)">
      <path id="Path_38916" data-name="Path 38916" d="M1213.879,284.765h-4.114a6.2,6.2,0,0,1-6.194-6.194h3.1a3.1,3.1,0,0,0,3.1,3.1h4.114Z" transform="translate(-1203.571 -278.571)"/>
    </g>
    <g id="Group_16309" data-name="Group 16309" transform="translate(18.581 6.194)">
      <path id="Path_38917" data-name="Path 38917" d="M1195.479,226.673a6.193,6.193,0,0,1,0-12.387v3.1a3.1,3.1,0,0,0,0,6.193Z" transform="translate(-1189.286 -214.286)"/>
    </g>
    <g id="Group_16310" data-name="Group 16310" transform="translate(6.193 63.484)">
      <path id="Path_38918" data-name="Path 38918" d="M1194.779,378.945h-34.064V346.429h3.1v29.419h27.871V365.009h3.1Z" transform="translate(-1160.714 -346.429)"/>
    </g>
    <g id="Group_16311" data-name="Group 16311" transform="translate(6.193 49.515)">
      <path id="Path_38919" data-name="Path 38919" d="M1179.024,357.6a13.459,13.459,0,0,1-12.927-9.824l-4.694-16.9a18.922,18.922,0,0,1-.69-5.06,12.681,12.681,0,0,1,7.049-11.405l.395-.2.439.039a25.6,25.6,0,0,1,21.148,15.224l3.563-3.562a8.118,8.118,0,1,1,11.48,11.481l-16.277,16.276A13.5,13.5,0,0,1,1179.024,357.6Zm-10.26-40.219a9.6,9.6,0,0,0-4.954,8.433,15.764,15.764,0,0,0,.578,4.231l4.694,16.9a10.318,10.318,0,0,0,17.238,4.533L1202.6,335.2a5.021,5.021,0,1,0-7.1-7.1l-21.3,21.3-2.189-2.189,15.363-15.363A22.507,22.507,0,0,0,1168.765,317.378Z" transform="translate(-1160.714 -314.209)"/>
    </g>
    <g id="Group_16312" data-name="Group 16312" transform="translate(37.161 52.645)">
      <path id="Path_38920" data-name="Path 38920" d="M1235.24,332.268h-3.1v-7.742a3.1,3.1,0,0,1,3.1-3.1h6.193v7.752h-3.1v-4.656h-3.1Z" transform="translate(-1232.143 -321.429)"/>
    </g>
    <g id="Group_16313" data-name="Group 16313" transform="translate(44.21 49.548)">
      <path id="Path_38921" data-name="Path 38921" d="M1255.879,332.867a4.01,4.01,0,0,1-.986-.123l.756-3a.968.968,0,0,0,1.187-.929V318.34a.986.986,0,0,0-1.385-.856l-5.664,2.832-1.385-2.77,5.664-2.832a4.054,4.054,0,0,1,5.867,3.626v10.473A4.059,4.059,0,0,1,1255.879,332.867Z" transform="translate(-1248.402 -314.286)"/>
    </g>
    <g id="Group_16314" data-name="Group 16314" transform="translate(34.518 65.486)">
      <rect id="Rectangle_4086" data-name="Rectangle 4086" width="3.096" height="13.139" transform="translate(0 2.189) rotate(-45)"/>
    </g>
    <g id="Group_16315" data-name="Group 16315">
      <path id="Path_38922" data-name="Path 38922" d="M1159.543,243.119l-6.443-4.027a14.195,14.195,0,0,1-4.286-19.911l.292-.437A11.4,11.4,0,0,1,1157.83,200H1177.4a9.29,9.29,0,1,1,0,18.581H1165.01a3.1,3.1,0,0,0-3.1,3.1v1.548h-3.1v-1.548a6.2,6.2,0,0,1,6.194-6.194H1177.4a6.193,6.193,0,0,0,0-12.387H1157.83a8.305,8.305,0,0,0-5.871,14.179l1.109,1.107-1.677,2.516a11.1,11.1,0,0,0,3.352,15.569l6.443,4.026Z" transform="translate(-1146.429 -200)"/>
    </g>
    <g id="Group_16316" data-name="Group 16316" transform="translate(6.193 21.677)">
      <path id="Path_38923" data-name="Path 38923" d="M1167.528,265.174l-4.13-3.1A6.709,6.709,0,0,1,1167.423,250h10.323v3.1h-10.323a3.613,3.613,0,0,0-2.167,6.5l4.128,3.1Z" transform="translate(-1160.714 -250)"/>
    </g>
    <g id="Group_16317" data-name="Group 16317" transform="translate(52.645 71.226)">
      <rect id="Rectangle_4087" data-name="Rectangle 4087" width="3.097" height="23.226"/>
    </g>
    <g id="Group_16318" data-name="Group 16318" transform="translate(21.677 15.484)">
      <path id="Path_38924" data-name="Path 38924" d="M1204.171,251.2a7.742,7.742,0,1,1,7.742-7.742A7.751,7.751,0,0,1,1204.171,251.2Zm0-12.387a4.645,4.645,0,1,0,4.645,4.645A4.65,4.65,0,0,0,1204.171,238.811Z" transform="translate(-1196.429 -235.714)"/>
    </g>
    <g id="Group_16319" data-name="Group 16319" transform="translate(21.677 44.903)">
      <rect id="Rectangle_4088" data-name="Rectangle 4088" width="3.097" height="9.002"/>
    </g>
    <g id="Group_16320" data-name="Group 16320" transform="translate(12.387 27.871)">
      <path id="Path_38925" data-name="Path 38925" d="M1181.647,297.9A22.546,22.546,0,0,1,1175,281.849V264.286h3.1v17.563a19.47,19.47,0,0,0,5.74,13.858Z" transform="translate(-1175 -264.286)"/>
    </g>
    <g id="Group_16321" data-name="Group 16321" transform="translate(24.884 44.371)">
      <path id="Path_38926" data-name="Path 38926" d="M1206.7,318.935l-2.876-1.149a41.585,41.585,0,0,0,2.986-15.441l3.1.006A44.677,44.677,0,0,1,1206.7,318.935Z" transform="translate(-1203.826 -302.344)"/>
    </g>
    <g id="Group_16322" data-name="Group 16322" transform="translate(18.581 58.839)">
      <path id="Path_38927" data-name="Path 38927" d="M1195.479,345h-3.1a3.1,3.1,0,0,1-3.1-3.1v-6.194h9.29v6.194A3.1,3.1,0,0,1,1195.479,345Zm-3.1-6.194v3.1h3.1l0-3.1Z" transform="translate(-1189.286 -335.714)"/>
    </g>
    <g id="Group_16323" data-name="Group 16323" transform="translate(58.132 48.667)">
      <path id="Path_38928" data-name="Path 38928" d="M1285.31,323.227l-4.8-9.59,2.77-1.385,3.136,6.272,4.71-3.532,1.857,2.477Z" transform="translate(-1280.514 -312.253)"/>
    </g>
    <g id="Group_16324" data-name="Group 16324" transform="translate(68.749 48.667)">
      <path id="Path_38929" data-name="Path 38929" d="M1312.678,323.227,1305,317.469l1.857-2.477,4.71,3.532,3.136-6.272,2.77,1.385Z" transform="translate(-1305.001 -312.253)"/>
    </g>
    <g id="Group_16325" data-name="Group 16325" transform="translate(61.935 21.677)">
      <path id="Path_38930" data-name="Path 38930" d="M1290.834,250a1.548,1.548,0,1,0,1.549,1.548,1.548,1.548,0,0,0-1.549-1.548Z" transform="translate(-1289.286 -250)"/>
    </g>
    <g id="Group_16326" data-name="Group 16326" transform="translate(74.322 21.677)">
      <path id="Path_38931" data-name="Path 38931" d="M1319.406,250a1.548,1.548,0,1,0,1.548,1.548,1.548,1.548,0,0,0-1.548-1.548Z" transform="translate(-1317.857 -250)"/>
    </g>
    <g id="Group_16327" data-name="Group 16327" transform="translate(49.548 21.677)">
      <path id="Path_38932" data-name="Path 38932" d="M1268.456,262.387h-1.548a6.193,6.193,0,1,1,0-12.387h1.548v3.1h-1.548a3.1,3.1,0,0,0,0,6.194h1.548Z" transform="translate(-1260.714 -250)"/>
    </g>
    <g id="Group_16328" data-name="Group 16328" transform="translate(82.064 21.677)">
      <path id="Path_38933" data-name="Path 38933" d="M1337.263,262.387h-1.549v-3.1h1.549a3.1,3.1,0,0,0,0-6.194h-1.549V250h1.549a6.193,6.193,0,0,1,0,12.387Z" transform="translate(-1335.714 -250)"/>
    </g>
    <g id="Group_16329" data-name="Group 16329" transform="translate(65.032 30.968)">
      <path id="Path_38934" data-name="Path 38934" d="M1302.622,277.622h-6.193v-3.1h6.193a3.1,3.1,0,0,0,3.1-3.1h3.1A6.2,6.2,0,0,1,1302.622,277.622Z" transform="translate(-1296.429 -271.429)"/>
    </g>
    <g id="Group_16330" data-name="Group 16330" transform="translate(55.742 9.291)">
      <path id="Path_38935" data-name="Path 38935" d="M1292.032,255.493h-6.194A10.851,10.851,0,0,1,1275,244.655V233.968a9.313,9.313,0,0,1,7.468-9.109l1.157-.231.608,3.036-1.157.232a6.208,6.208,0,0,0-4.979,6.072v10.686a7.751,7.751,0,0,0,7.742,7.742h6.194a7.751,7.751,0,0,0,7.742-7.742V234.318a3.442,3.442,0,0,0-2.356-3.269,10.125,10.125,0,0,1-6.935-9.62h3.1a7.031,7.031,0,0,0,4.818,6.682,6.539,6.539,0,0,1,4.473,6.207v10.337A10.852,10.852,0,0,1,1292.032,255.493Z" transform="translate(-1275 -221.429)"/>
    </g>
    <g id="Group_16331" data-name="Group 16331" transform="translate(61.935 9.291)">
      <path id="Path_38936" data-name="Path 38936" d="M1297.728,230.719a8.452,8.452,0,0,1-8.442-8.442v-.848h3.1v.848a5.343,5.343,0,0,0,6.641,5.185l3.8-.948.75,3-3.8.95A8.423,8.423,0,0,1,1297.728,230.719Z" transform="translate(-1289.286 -221.429)"/>
    </g>
    <g id="Group_16332" data-name="Group 16332" transform="translate(43.355 46.319)">
      <path id="Path_38937" data-name="Path 38937" d="M1299.074,356.518h-52.645V336.388h3.1v17.032h46.452V332.315a22.946,22.946,0,0,0-16.7-22.108l-6.521,4.892-6.522-4.892a22.786,22.786,0,0,0-8.155,4.222l-1.944-2.411a25.857,25.857,0,0,1,10.052-5l.715-.18,5.853,4.391,5.853-4.391.715.18a26.038,26.038,0,0,1,19.754,25.3Z" transform="translate(-1246.429 -306.836)"/>
    </g>
    <g id="Group_16333" data-name="Group 16333" transform="translate(38.046 83.613)">
      <path id="Path_38938" data-name="Path 38938" d="M1235.514,404.051l-1.331-2.8a9.342,9.342,0,0,0,5.309-8.4h3.1A12.455,12.455,0,0,1,1235.514,404.051Z" transform="translate(-1234.183 -392.857)"/>
    </g>
    <g id="Group_16334" data-name="Group 16334" transform="translate(21.677 66.581)">
      <rect id="Rectangle_4089" data-name="Rectangle 4089" width="3.097" height="12.387"/>
    </g>
    <g id="Group_16335" data-name="Group 16335" transform="translate(44.903 77.419)">
      <rect id="Rectangle_4090" data-name="Rectangle 4090" width="9.29" height="3.097"/>
    </g>
    <g id="Group_16336" data-name="Group 16336" transform="translate(71.225 61.953)">
      <path id="Path_38939" data-name="Path 38939" d="M1320,358.8l-7.124-5.7a5.753,5.753,0,0,1-2.167-4.512v-.275a5.3,5.3,0,0,1,2.947-4.769,49.868,49.868,0,0,0,12.685,0,5.3,5.3,0,0,1,2.948,4.769v.275a5.749,5.749,0,0,1-2.166,4.511Zm-3.522-12.821a3.254,3.254,0,0,0-1.438.339,2.223,2.223,0,0,0-1.234,2v.275a2.671,2.671,0,0,0,1.005,2.094l5.188,4.149,5.188-4.151a2.665,2.665,0,0,0,1.006-2.093v-.275a2.222,2.222,0,0,0-1.235-2,3.271,3.271,0,0,0-3.709.6L1320,348.166l-1.249-1.249A3.194,3.194,0,0,0,1316.483,345.976Z" transform="translate(-1310.714 -342.897)"/>
    </g>
    <g id="Group_16337" data-name="Group 16337" transform="translate(54.193 58.839)">
      <path id="Path_38940" data-name="Path 38940" d="M1280.357,356.93l-5.436-18.119h-3.493v-3.1h5.8l3.854,12.848,3.327-6.655h5.686V345h-3.771Z" transform="translate(-1271.429 -335.714)"/>
    </g>
    <g id="Group_16338" data-name="Group 16338" transform="translate(46.451)">
      <path id="Path_38941" data-name="Path 38941" d="M1296.308,229.109l-1.86-2.477a6.173,6.173,0,0,0-.425-10.181l-1.072-.677.454-1.185a6.13,6.13,0,0,0-4.43-8.24l-.584-.128-.346-.49a6.167,6.167,0,0,0-9.389-.855l-1.084,1.064-1.084-1.064a6.146,6.146,0,0,0-9.261.7l-.464.616-.9,0a6.149,6.149,0,0,0-5.673,8.4l.454,1.185-1.072.677a6.173,6.173,0,0,0-.425,10.181l-1.86,2.477a9.269,9.269,0,0,1-.351-14.566,8.9,8.9,0,0,1-.268-2.156,9.3,9.3,0,0,1,8.571-9.263A45.091,45.091,0,0,0,1282.991,200a9.3,9.3,0,0,1,7.225,3.472,9.343,9.343,0,0,1,6.71,8.915,8.9,8.9,0,0,1-.267,2.156,9.269,9.269,0,0,1-.351,14.566Z" transform="translate(-1253.571 -200)"/>
    </g>
  </g>
</svg>
