<svg xmlns="http://www.w3.org/2000/svg" width="829.495" height="141.722" viewBox="0 0 829.495 141.722">
  <g id="Group_25054" data-name="Group 25054" transform="translate(-285 -5374)">
    <text id="Importante._La_información_que_se_presenta_a_continuación_aplica_a_las_dos_resoluciones_citadas_salvo_cuando_se_realice_alguna_aclaración_adicional_en_relación_con_una_de_ellas_en_específico." data-name="Importante. La información que se presenta a continuación, aplica a las dos resoluciones citadas, salvo cuando se realice alguna aclaración adicional, en relación con una de ellas, en específico." transform="translate(323 5449.5)" fill="#ed8730" font-size="17" font-family="SegoeUI-Bold, Segoe UI" font-weight="700"><tspan x="0" y="18">Importante. </tspan><tspan y="18" fill="#00223d" font-family="SegoeUI, Segoe UI" font-weight="400">La información que se presenta a continuación aplica a las dos resoluciones citadas, </tspan><tspan x="0" y="42" fill="#00223d" font-family="SegoeUI, Segoe UI" font-weight="400">salvo cuando se realice alguna aclaración adicional en relación con una de ellas en específico.</tspan></text>
    <path id="Path_38803" data-name="Path 38803" d="M326.392,160.7H-4.247a2.85,2.85,0,0,0-2.85,2.85,2.85,2.85,0,0,0,2.85,2.85h330.64a25.832,25.832,0,0,1,25.8,25.8v49.23a25.832,25.832,0,0,1-25.8,25.8H-440.1a25.832,25.832,0,0,1-25.8-25.8V192.2a25.831,25.831,0,0,1,25.8-25.8H-108.47A28.639,28.639,0,0,1-86.5,177.324a32.5,32.5,0,0,0,3.708,6.142c.027.06.056.118.082.178l.122.082A32.417,32.417,0,0,0-57,196.211a32.5,32.5,0,0,0,32.5-32.5,32.5,32.5,0,0,0-32.5-32.5,32.487,32.487,0,0,0-29.114,18.062A28.64,28.64,0,0,1-108.335,160.7H-440.1a31.538,31.538,0,0,0-31.5,31.5v49.23a31.538,31.538,0,0,0,31.5,31.5h766.49a31.538,31.538,0,0,0,31.5-31.5V192.2A31.538,31.538,0,0,0,326.392,160.7ZM-53.8,184.482c-.954-.322-7.634.912-7.4-1.073V176.65a1.031,1.031,0,0,1,1.073-1.02c.894.319,7.623-.89,7.35,1.019C-53.106,177.552-51.892,184.755-53.8,184.482Zm.215-41.411a1.064,1.064,0,0,1,1.073,1.073l-1.073,26.769c.142,2.008-4.647.826-5.633,1.127a1.219,1.219,0,0,1-1.18-1.127c0-.054-1.077-26.772-1.073-26.822C-61.568,142.171-54.556,143.4-53.59,143.071Z" transform="translate(756.6 5242.787)" fill="#ed8730"/>
  </g>
</svg>
