<svg xmlns="http://www.w3.org/2000/svg" xmlns:xlink="http://www.w3.org/1999/xlink" width="279.292" height="235" viewBox="0 0 279.292 235">
  <defs>
    <linearGradient id="linear-gradient" x1="-0.154" y1="0.5" x2="0.846" y2="0.5" gradientUnits="objectBoundingBox">
      <stop offset="0.396" stop-color="#3d4663"/>
      <stop offset="0.433" stop-color="#3d4663"/>
      <stop offset="0.619" stop-color="#616b8c"/>
    </linearGradient>
    <linearGradient id="linear-gradient-2" x1="-0.105" y1="0.531" x2="-0.125" y2="0.472" gradientUnits="objectBoundingBox">
      <stop offset="0" stop-color="#bfccd9"/>
      <stop offset="0.006" stop-color="#c0cdd9"/>
      <stop offset="0.116" stop-color="#d5deea"/>
      <stop offset="0.225" stop-color="#e1e9f3"/>
      <stop offset="0.328" stop-color="#e6edf7"/>
      <stop offset="0.686" stop-color="#e4ebf5"/>
      <stop offset="0.82" stop-color="#dde5f0"/>
      <stop offset="0.917" stop-color="#d1dbe7"/>
      <stop offset="0.995" stop-color="#c0cdda"/>
      <stop offset="1" stop-color="#bfccd9"/>
    </linearGradient>
    <linearGradient id="linear-gradient-3" x1="0.337" y1="0.767" x2="0.854" y2="-0.355" gradientUnits="objectBoundingBox">
      <stop offset="0" stop-color="#d6deeb"/>
      <stop offset="0.034" stop-color="#d3dce8"/>
      <stop offset="0.173" stop-color="#d1dbe6"/>
      <stop offset="0.303" stop-color="#e5ebf1"/>
      <stop offset="0.433" stop-color="#f2f5f9"/>
      <stop offset="0.553" stop-color="#f7f9fc"/>
    </linearGradient>
    <linearGradient id="linear-gradient-4" x1="0.391" y1="0.823" x2="0.746" y2="-0.475" gradientUnits="objectBoundingBox">
      <stop offset="0" stop-color="#d6deeb"/>
      <stop offset="0.034" stop-color="#d3dce8"/>
      <stop offset="0.173" stop-color="#d1dbe6"/>
      <stop offset="0.276" stop-color="#e5ebf1"/>
      <stop offset="0.378" stop-color="#f2f5f9"/>
      <stop offset="0.473" stop-color="#f7f9fc"/>
    </linearGradient>
    <linearGradient id="linear-gradient-5" x1="0.323" y1="0.695" x2="0.817" y2="-0.227" gradientUnits="objectBoundingBox">
      <stop offset="0" stop-color="#d6deeb"/>
      <stop offset="0.034" stop-color="#d3dce8"/>
      <stop offset="0.173" stop-color="#d1dbe6"/>
      <stop offset="0.337" stop-color="#e5ebf1"/>
      <stop offset="0.501" stop-color="#f2f5f9"/>
      <stop offset="0.653" stop-color="#f7f9fc"/>
    </linearGradient>
    <linearGradient id="linear-gradient-6" x1="0.323" y1="0.695" x2="0.817" y2="-0.227" xlink:href="#linear-gradient-5"/>
    <linearGradient id="linear-gradient-7" x1="-105.761" y1="18.933" x2="-104.836" y2="17.785" gradientUnits="objectBoundingBox">
      <stop offset="0.084" stop-color="#616b8c"/>
      <stop offset="0.152" stop-color="#6c7697"/>
      <stop offset="0.262" stop-color="#7982a3"/>
      <stop offset="0.365" stop-color="#7e87a8"/>
    </linearGradient>
    <linearGradient id="linear-gradient-8" x1="-96.38" y1="-21.091" x2="-95.395" y2="-22.508" xlink:href="#linear-gradient-7"/>
    <linearGradient id="linear-gradient-9" y1="0.5" x2="1" y2="0.5" gradientUnits="objectBoundingBox">
      <stop offset="0" stop-color="#bfccd9"/>
      <stop offset="0.77" stop-color="#e6edf7"/>
    </linearGradient>
    <linearGradient id="linear-gradient-10" y1="0.5" x2="1" y2="0.5" gradientUnits="objectBoundingBox">
      <stop offset="0" stop-color="#d6deeb"/>
      <stop offset="0.034" stop-color="#d3dce8"/>
      <stop offset="0.173" stop-color="#d1dbe6"/>
      <stop offset="0.397" stop-color="#e5ebf1"/>
      <stop offset="0.622" stop-color="#f2f5f9"/>
      <stop offset="0.83" stop-color="#f7f9fc"/>
    </linearGradient>
    <linearGradient id="linear-gradient-14" x1="0.118" y1="1.324" x2="0.742" y2="0.15" gradientUnits="objectBoundingBox">
      <stop offset="0.306" stop-color="#edb79a"/>
      <stop offset="0.358" stop-color="#e4ac8e"/>
      <stop offset="0.543" stop-color="#c78c6b"/>
      <stop offset="0.643" stop-color="#bd805e"/>
      <stop offset="0.75" stop-color="#edb79a"/>
    </linearGradient>
    <linearGradient id="linear-gradient-15" x1="-17.318" y1="17.287" x2="-17.431" y2="17.051" gradientUnits="objectBoundingBox">
      <stop offset="0.515" stop-color="#3d4663"/>
      <stop offset="0.635" stop-color="#48516e"/>
      <stop offset="0.851" stop-color="#666f8e"/>
      <stop offset="1" stop-color="#7e87a8"/>
    </linearGradient>
    <linearGradient id="linear-gradient-16" x1="-24.186" y1="22.757" x2="-24.312" y2="22.503" xlink:href="#linear-gradient-15"/>
    <linearGradient id="linear-gradient-17" x1="-90.714" y1="62.774" x2="-89.792" y2="62.774" gradientUnits="objectBoundingBox">
      <stop offset="0.606" stop-color="#f7f9fc"/>
      <stop offset="0.939" stop-color="#e6edf7"/>
    </linearGradient>
    <linearGradient id="linear-gradient-18" x1="-92.37" y1="69.579" x2="-92.812" y2="68.839" xlink:href="#linear-gradient-15"/>
    <linearGradient id="linear-gradient-19" x1="-6.161" y1="-21.125" x2="-6.035" y2="-20.915" gradientUnits="objectBoundingBox">
      <stop offset="0" stop-color="#bfccd9"/>
      <stop offset="0.139" stop-color="#c8d3e0"/>
      <stop offset="0.415" stop-color="#d4dde9"/>
      <stop offset="0.692" stop-color="#d8e1ed"/>
    </linearGradient>
    <linearGradient id="linear-gradient-20" x1="-49.687" y1="37.164" x2="-48.37" y2="37.164" xlink:href="#linear-gradient-17"/>
    <linearGradient id="linear-gradient-21" x1="0.697" y1="-0.03" x2="0.328" y2="0.894" gradientUnits="objectBoundingBox">
      <stop offset="0.34" stop-color="#f2e6df"/>
      <stop offset="0.987" stop-color="#f2d8c9"/>
    </linearGradient>
    <linearGradient id="linear-gradient-22" x1="0.793" y1="-0.095" x2="0.325" y2="0.989" xlink:href="#linear-gradient-21"/>
    <linearGradient id="linear-gradient-24" y1="0.5" x2="1" y2="0.5" gradientUnits="objectBoundingBox">
      <stop offset="0.774" stop-color="#fff"/>
      <stop offset="1" stop-color="#e6edf7"/>
    </linearGradient>
    <linearGradient id="linear-gradient-25" y1="0.5" x2="1" y2="0.5" gradientUnits="objectBoundingBox">
      <stop offset="0.774" stop-color="#f7f9fc"/>
      <stop offset="1" stop-color="#e6edf7"/>
    </linearGradient>
    <linearGradient id="linear-gradient-26" y1="0.5" x2="1" y2="0.5" gradientUnits="objectBoundingBox">
      <stop offset="0.12" stop-color="#bfccd9"/>
      <stop offset="0.561" stop-color="#e6edf7"/>
    </linearGradient>
  </defs>
  <g id="Group_16478" data-name="Group 16478" transform="translate(-2425.612 672.43)">
    <g id="tablet" transform="translate(2440.675 -576.189)">
      <path id="Path_38984" data-name="Path 38984" d="M2715.792,250.181c2.747,1.594,2.736,4.2-.024,5.782l-57.391,35.082c-2.761,1.586-11.72,2.035-14.468.441l-85.425-49.557c-2.748-1.594-2.737-4.2.024-5.783l61.844-35.536a11.109,11.109,0,0,1,10.015.014Z" transform="translate(-2556.43 -195.276)" fill="#191919" opacity="0.2" style="mix-blend-mode: multiply;isolation: isolate"/>
      <path id="Path_38985" data-name="Path 38985" d="M2776.609,238.626l.119,2.808a4.175,4.175,0,0,1-2.192,2.87l-61.843,35.537a11.111,11.111,0,0,1-10.016-.014l-85.425-49.557c-1.4-.812-1.893-1.6-1.955-2.466l-.1-3.17,63.922-35.683a11.108,11.108,0,0,1,10.015.014Z" transform="translate(-2608.432 -184.959)" fill="url(#linear-gradient)"/>
      <path id="Path_38986" data-name="Path 38986" d="M2774.56,214.329c2.748,1.594,2.737,4.2-.024,5.782l-61.844,35.537a11.111,11.111,0,0,1-10.016-.014l-85.425-49.557c-2.748-1.594-2.737-4.2.024-5.783l61.844-35.536a9.9,9.9,0,0,1,10.015.014Z" transform="translate(-2608.431 -163.404)" fill="#97a2c9"/>
      <path id="Path_38987" data-name="Path 38987" d="M2713.915,259.793a10.361,10.361,0,0,1-4.246-.884l-85.427-49.558a3.434,3.434,0,0,1-2.018-2.892c0-1.181.792-1.976,2.04-2.693l61.844-35.537a9.3,9.3,0,0,1,8.47.012L2780,217.8c1.238.718,2.1,1.652,2.1,2.734a3.655,3.655,0,0,1-2.121,2.851l-61.844,35.537A11.447,11.447,0,0,1,2713.915,259.793Z" transform="translate(-2614.649 -166.777)" fill="#7e87a8"/>
      <path id="Path_38988" data-name="Path 38988" d="M2794.492,253.1l-2.561-1.486a6.439,6.439,0,0,0-4.816-.4,1.009,1.009,0,0,0-.341.029s-.94-.542-.94-.542a.734.734,0,0,0-.731,0l-38.334,21.783a.34.34,0,0,0,0,.59l.979.567c-1.578.906-1.555,2.445.014,3.355l2.563,1.486a6.347,6.347,0,0,0,5.722.008l38.433-22.085C2796.057,255.493,2796.062,254.006,2794.492,253.1Zm-1.44,2.476-38.432,22.084a3.167,3.167,0,0,1-2.862,0l-2.562-1.486a.873.873,0,0,1,.007-1.652l.031-.017.088.05.21.123,1.762,1.022,39-22.409-2.148-1.245.217.125a3.177,3.177,0,0,1,2.138.27l2.561,1.486A.873.873,0,0,1,2793.052,255.572Z" transform="translate(-2724.68 -240.559)" fill="#97a2c9" style="mix-blend-mode: multiply;isolation: isolate"/>
      <path id="Path_38989" data-name="Path 38989" d="M2801.133,248.652l-39,22.655-4.443-2.578a.492.492,0,0,1-.245-.443l.027-.857,38.623-21.7Z" transform="translate(-2734.302 -236.252)" fill="#bfccd9"/>
      <g id="Group_16384" data-name="Group 16384" transform="translate(16.539 5.562)">
        <path id="Path_38990" data-name="Path 38990" d="M2841.543,275.66l-60.99,35.046-80.479-46.688,60.989-35.046Z" transform="translate(-2700.074 -226.984)" fill="#d5d9eb"/>
        <path id="Path_38991" data-name="Path 38991" d="M2841.542,267.03l-60.99,35.046-80.479-46.688,60.989-35.046Z" transform="translate(-2700.073 -219.348)" fill="#eaecf5"/>
        <path id="Path_38992" data-name="Path 38992" d="M2841.541,258.4l-60.99,35.046-80.48-46.688,60.99-35.046Z" transform="translate(-2700.071 -211.712)" fill="#fff"/>
      </g>
      <path id="Path_38993" data-name="Path 38993" d="M2858.332,284.666c-10.539,6.056-29.345,16.98-38.433,22.084a5.773,5.773,0,0,1-2.747.3l42.061-23.76A1.473,1.473,0,0,1,2858.332,284.666Z" transform="translate(-2787.132 -269.483)" fill="#979797" style="mix-blend-mode: darken;isolation: isolate"/>
      <path id="Path_38994" data-name="Path 38994" d="M2806.788,265.875l-38.433,22.085a6.339,6.339,0,0,1-5.721-.009l-2.488-1.442,1.436-.823,2.486,1.442a3.174,3.174,0,0,0,2.863,0l38.431-22.085a.872.872,0,0,0,.007-1.652l-2.483-1.442,1.432-.825,2.487,1.442C2808.373,263.483,2808.366,264.97,2806.788,265.875Z" transform="translate(-2736.689 -249.877)" fill="#d5d9eb" style="mix-blend-mode: multiply;isolation: isolate"/>
      <path id="Path_38995" data-name="Path 38995" d="M2797.741,250.539l1.495.867a3.177,3.177,0,0,1,2.138.27l2.561,1.486a.873.873,0,0,1-.007,1.653L2765.5,276.9a3.167,3.167,0,0,1-2.862,0l-2.562-1.486c-.787-.457-.806-1.176-.016-1.63a.842.842,0,0,0,.148-.449c0-.3-.024-.3-.024-.3l-1.5-.12-1.206.837a3.063,3.063,0,0,0-.011.82,2.1,2.1,0,0,0,1.173,1.664l2.563,1.486a6.346,6.346,0,0,0,5.722.008l38.433-22.085a2.03,2.03,0,0,0,1.186-1.715c0-.577,0-.786,0-.786l-3.735-2.289A6.447,6.447,0,0,0,2797.741,250.539Z" transform="translate(-2734.303 -240.177)" fill="#bfccd9"/>
      <path id="Path_38996" data-name="Path 38996" d="M2797.762,244.813l1.494.867a3.178,3.178,0,0,1,2.139.27l2.561,1.486a.873.873,0,0,1-.007,1.653l-38.432,22.084a3.167,3.167,0,0,1-2.862,0l-2.562-1.486a.873.873,0,0,1,.007-1.652l.031-.017,1.064-.635a13.018,13.018,0,0,0-1.121-1.134l-1.429.907c-1.578.907-1.555,2.445.014,3.355l2.563,1.486a6.346,6.346,0,0,0,5.722.008l38.433-22.085c1.578-.906,1.583-2.393.013-3.3l-2.561-1.486A6.447,6.447,0,0,0,2797.762,244.813Z" transform="translate(-2734.323 -235.11)" fill="#f7f9fc"/>
      <path id="Path_38997" data-name="Path 38997" d="M2801.379,244.3l-39,22.409-1.762-1.022-.21-.123a1.806,1.806,0,0,0-.163-.537,1.885,1.885,0,0,0-.117-.193,1.157,1.157,0,0,0-.354-.331c-.036-.019-.072-.038-.113-.055a.626.626,0,0,0-.437-.019,1.089,1.089,0,0,0-.39.223l-.979-.567a.34.34,0,0,1,0-.589l38.334-21.783a.733.733,0,0,1,.731,0l.936.544a1.034,1.034,0,0,1,.594.017.064.064,0,0,1,.019.006,1.019,1.019,0,0,1,.206.091c.01,0,.019.011.027.015a.606.606,0,0,1,.053.036.824.824,0,0,1,.125.1l.023.021a1.406,1.406,0,0,1,.153.18l.013.019a1.679,1.679,0,0,1,.134.24c.015.036.025.07.025.07Z" transform="translate(-2734.514 -232.614)" fill="#f7f9fc"/>
      <path id="Path_38998" data-name="Path 38998" d="M2832.64,262.408l.5.29-39,22.409-.561-.325Z" transform="translate(-2766.275 -251.008)" fill="#e6edf7"/>
      <path id="Path_38999" data-name="Path 38999" d="M2807.706,248.658l-38.633,22.478a1.445,1.445,0,0,0-.111-.5,1.121,1.121,0,0,0-.561-.557,1,1,0,0,0-.741.1l38.937-22.286a1.162,1.162,0,0,1,.594.017.066.066,0,0,1,.019.006,1.007,1.007,0,0,1,.206.091c.01,0,.019.011.028.015a.531.531,0,0,1,.053.036.841.841,0,0,1,.125.1l.023.021a1.422,1.422,0,0,1,.153.18l.013.019C2807.873,248.473,2807.706,248.658,2807.706,248.658Z" transform="translate(-2743.338 -238.136)" fill="#bfccd9"/>
      <path id="Path_39000" data-name="Path 39000" d="M2807.959,246.719l-38.913,22.456a3.06,3.06,0,0,0-.148-.529,1.093,1.093,0,0,0-.6-.586c-.454-.123-.548.079-.827.2l-.024-.014,39.047-22.378a.757.757,0,0,1,.824-.082,1.486,1.486,0,0,1,.551.705C2807.884,246.53,2807.959,246.719,2807.959,246.719Z" transform="translate(-2743.15 -236.221)" fill="url(#linear-gradient-2)"/>
      <g id="Group_16445" data-name="Group 16445" transform="translate(39.2 18.909)">
        <g id="Group_16385" data-name="Group 16385" transform="translate(11.665 32.912)">
          <path id="Path_39001" data-name="Path 39001" d="M2998.663,618.1a.47.47,0,0,1-.236-.877l6.4-3.7a.47.47,0,1,1,.47.814l-6.4,3.7A.467.467,0,0,1,2998.663,618.1Z" transform="translate(-2998.193 -613.465)" fill="#bfccd9"/>
        </g>
        <g id="Group_16386" data-name="Group 16386" transform="translate(9.546 28.816)">
          <path id="Path_39002" data-name="Path 39002" d="M2980.256,585.352a.47.47,0,0,1-.235-.877l11.29-6.518a.47.47,0,0,1,.47.814l-11.29,6.518A.467.467,0,0,1,2980.256,585.352Z" transform="translate(-2979.785 -577.893)" fill="#bfccd9"/>
        </g>
        <g id="Group_16389" data-name="Group 16389" transform="translate(14.682 8.344)">
          <g id="Group_16387" data-name="Group 16387" transform="translate(0 6.593)">
            <path id="Path_39003" data-name="Path 39003" d="M3024.864,464.59a.47.47,0,0,1-.235-.877l10.9-6.293a.47.47,0,0,1,.47.814l-10.9,6.293A.467.467,0,0,1,3024.864,464.59Z" transform="translate(-3024.393 -457.356)" fill="#e6edf7"/>
          </g>
          <g id="Group_16388" data-name="Group 16388" transform="translate(13.208)">
            <path id="Path_39004" data-name="Path 39004" d="M3139.569,406.3a.47.47,0,0,1-.235-.877l9.112-5.261a.47.47,0,1,1,.47.814l-9.112,5.261A.468.468,0,0,1,3139.569,406.3Z" transform="translate(-3139.099 -400.096)" fill="#e6edf7"/>
          </g>
        </g>
        <g id="Group_16390" data-name="Group 16390" transform="translate(37.013 16.912)">
          <path id="Path_39005" data-name="Path 39005" d="M3218.808,480.708a.47.47,0,0,1-.235-.877l9.113-5.261a.47.47,0,0,1,.47.814l-9.113,5.261A.466.466,0,0,1,3218.808,480.708Z" transform="translate(-3218.337 -474.507)" fill="#e6edf7"/>
        </g>
        <g id="Group_16395" data-name="Group 16395" transform="translate(7.905 4.432)">
          <g id="Group_16391" data-name="Group 16391" transform="translate(0 14.219)">
            <path id="Path_39006" data-name="Path 39006" d="M2966.008,494.238a.47.47,0,0,1-.236-.877l6.4-3.7a.47.47,0,1,1,.47.814l-6.4,3.7A.467.467,0,0,1,2966.008,494.238Z" transform="translate(-2965.538 -489.602)" fill="#bfccd9"/>
          </g>
          <g id="Group_16392" data-name="Group 16392" transform="translate(8.666 6.393)">
            <path id="Path_39007" data-name="Path 39007" d="M3041.268,429.1a.47.47,0,0,1-.235-.877l11.29-6.518a.47.47,0,1,1,.47.814l-11.29,6.518A.468.468,0,0,1,3041.268,429.1Z" transform="translate(-3040.797 -421.641)" fill="#bfccd9"/>
          </g>
          <g id="Group_16393" data-name="Group 16393" transform="translate(22.205 3.763)">
            <path id="Path_39008" data-name="Path 39008" d="M3158.854,401.067a.47.47,0,0,1-.236-.877l2.307-1.332a.47.47,0,0,1,.47.814L3159.088,401A.467.467,0,0,1,3158.854,401.067Z" transform="translate(-3158.383 -398.795)" fill="#bfccd9"/>
          </g>
          <g id="Group_16394" data-name="Group 16394" transform="translate(26.703)">
            <path id="Path_39009" data-name="Path 39009" d="M3197.923,369.553a.47.47,0,0,1-.235-.877l4.325-2.5a.47.47,0,1,1,.47.814l-4.325,2.5A.471.471,0,0,1,3197.923,369.553Z" transform="translate(-3197.453 -366.116)" fill="#bfccd9"/>
          </g>
        </g>
        <g id="Group_16396" data-name="Group 16396" transform="translate(45.894 31.471)">
          <path id="Path_39010" data-name="Path 39010" d="M3295.933,608.407a.47.47,0,0,1-.235-.877l11.29-6.518a.47.47,0,1,1,.47.814l-11.29,6.518A.469.469,0,0,1,3295.933,608.407Z" transform="translate(-3295.463 -600.949)" fill="#bfccd9"/>
        </g>
        <g id="Group_16397" data-name="Group 16397" transform="translate(59.433 28.841)">
          <path id="Path_39011" data-name="Path 39011" d="M3413.52,580.376a.47.47,0,0,1-.236-.877l2.307-1.332a.47.47,0,0,1,.47.814l-2.307,1.332A.467.467,0,0,1,3413.52,580.376Z" transform="translate(-3413.049 -578.104)" fill="#bfccd9"/>
        </g>
        <g id="Group_16398" data-name="Group 16398" transform="translate(63.932 25.078)">
          <path id="Path_39012" data-name="Path 39012" d="M3452.59,548.863a.47.47,0,0,1-.236-.877l4.326-2.5a.47.47,0,1,1,.47.814l-4.326,2.5A.467.467,0,0,1,3452.59,548.863Z" transform="translate(-3452.12 -545.425)" fill="#bfccd9"/>
        </g>
        <g id="Group_16399" data-name="Group 16399" transform="translate(48.951 37.556)">
          <path id="Path_39013" data-name="Path 39013" d="M3322.481,656.93a.47.47,0,0,1-.235-.877l3.808-2.2a.47.47,0,1,1,.47.814l-3.808,2.2A.468.468,0,0,1,3322.481,656.93Z" transform="translate(-3322.011 -653.792)" fill="#bfccd9"/>
        </g>
        <g id="Group_16400" data-name="Group 16400" transform="translate(55.354 31.911)">
          <path id="Path_39014" data-name="Path 39014" d="M3378.094,609.859a.47.47,0,0,1-.236-.877l7.18-4.146a.47.47,0,1,1,.47.814l-7.181,4.146A.467.467,0,0,1,3378.094,609.859Z" transform="translate(-3377.624 -604.773)" fill="#bfccd9"/>
        </g>
        <g id="Group_16401" data-name="Group 16401" transform="translate(65.014 26.843)">
          <path id="Path_39015" data-name="Path 39015" d="M3461.994,565.329a.47.47,0,0,1-.235-.877l6.3-3.637a.47.47,0,0,1,.47.814l-6.3,3.637A.469.469,0,0,1,3461.994,565.329Z" transform="translate(-3461.523 -560.752)" fill="#bfccd9"/>
        </g>
        <g id="Group_16402" data-name="Group 16402" transform="translate(52.007 36.34)">
          <path id="Path_39016" data-name="Path 39016" d="M3349.029,649.355a.47.47,0,0,1-.235-.877l8.97-5.179a.47.47,0,1,1,.47.814l-8.97,5.179A.467.467,0,0,1,3349.029,649.355Z" transform="translate(-3348.558 -643.236)" fill="#bfccd9"/>
        </g>
        <g id="Group_16403" data-name="Group 16403" transform="translate(63.342 31.046)">
          <path id="Path_39017" data-name="Path 39017" d="M3447.469,602.124a.47.47,0,0,1-.236-.877l6.805-3.929a.47.47,0,1,1,.47.814l-6.805,3.929A.468.468,0,0,1,3447.469,602.124Z" transform="translate(-3446.998 -597.255)" fill="#bfccd9"/>
        </g>
        <g id="Group_16404" data-name="Group 16404" transform="translate(72.397 28.607)">
          <path id="Path_39018" data-name="Path 39018" d="M3526.109,578.159a.47.47,0,0,1-.235-.877l1.974-1.14a.47.47,0,0,1,.47.814l-1.974,1.14A.465.465,0,0,1,3526.109,578.159Z" transform="translate(-3525.639 -576.079)" fill="#bfccd9"/>
        </g>
        <g id="Group_16405" data-name="Group 16405" transform="translate(15.818 37.574)">
          <path id="Path_39019" data-name="Path 39019" d="M3034.728,656.224a.47.47,0,0,1-.235-.877l2.307-1.332a.47.47,0,1,1,.47.814l-2.307,1.332A.469.469,0,0,1,3034.728,656.224Z" transform="translate(-3034.258 -653.952)" fill="#bfccd9"/>
        </g>
        <g id="Group_16406" data-name="Group 16406" transform="translate(20.317 33.811)">
          <path id="Path_39020" data-name="Path 39020" d="M3073.8,624.71a.47.47,0,0,1-.236-.877l4.325-2.5a.47.47,0,1,1,.47.814l-4.326,2.5A.469.469,0,0,1,3073.8,624.71Z" transform="translate(-3073.328 -621.272)" fill="#bfccd9"/>
        </g>
        <g id="Group_16407" data-name="Group 16407" transform="translate(3.419 27.589)">
          <path id="Path_39021" data-name="Path 39021" d="M2927.048,572.164a.47.47,0,0,1-.235-.878l6.934-3.99a.47.47,0,0,1,.469.815l-6.934,3.99A.469.469,0,0,1,2927.048,572.164Z" transform="translate(-2926.578 -567.234)" fill="#bfccd9"/>
        </g>
        <g id="Group_16408" data-name="Group 16408" transform="translate(12.372 22.628)">
          <path id="Path_39022" data-name="Path 39022" d="M3004.8,528.881a.47.47,0,0,1-.235-.877l6.575-3.8a.47.47,0,0,1,.47.814l-6.575,3.8A.466.466,0,0,1,3004.8,528.881Z" transform="translate(-3004.33 -524.145)" fill="#bfccd9"/>
        </g>
        <g id="Group_16409" data-name="Group 16409" transform="translate(37.073 6.837)">
          <path id="Path_39023" data-name="Path 39023" d="M3219.322,393.255a.47.47,0,0,1-.235-.877l9.225-5.313a.47.47,0,1,1,.469.815l-9.225,5.313A.469.469,0,0,1,3219.322,393.255Z" transform="translate(-3218.852 -387.001)" fill="#bfccd9"/>
        </g>
        <g id="Group_16410" data-name="Group 16410" transform="translate(39.016 6.885)">
          <path id="Path_39024" data-name="Path 39024" d="M3236.2,394.747a.47.47,0,0,1-.235-.877l11.085-6.387a.47.47,0,1,1,.469.815l-11.085,6.387A.467.467,0,0,1,3236.2,394.747Z" transform="translate(-3235.731 -387.42)" fill="#bfccd9"/>
        </g>
        <g id="Group_16411" data-name="Group 16411" transform="translate(48.633 3.198)">
          <path id="Path_39025" data-name="Path 39025" d="M3319.724,358.629a.47.47,0,0,1-.235-.877l3.967-2.29a.47.47,0,0,1,.47.814l-3.967,2.29A.468.468,0,0,1,3319.724,358.629Z" transform="translate(-3319.254 -355.399)" fill="#bfccd9"/>
        </g>
        <g id="Group_16412" data-name="Group 16412" transform="translate(5.307 30.203)">
          <path id="Path_39026" data-name="Path 39026" d="M2943.44,593.373a.47.47,0,0,1-.236-.877l4.326-2.5a.47.47,0,1,1,.47.814l-4.326,2.5A.466.466,0,0,1,2943.44,593.373Z" transform="translate(-2942.97 -589.936)" fill="#bfccd9"/>
        </g>
        <g id="Group_16413" data-name="Group 16413">
          <path id="Path_39027" data-name="Path 39027" d="M2897.038,360.006a.157.157,0,0,1-.078-.292l55.541-32.066a.157.157,0,1,1,.156.271l-55.541,32.067A.156.156,0,0,1,2897.038,360.006Z" transform="translate(-2896.881 -327.626)" fill="#bfccd9"/>
        </g>
        <g id="Group_16414" data-name="Group 16414" transform="translate(5.465 3.155)">
          <path id="Path_39028" data-name="Path 39028" d="M2944.5,387.408a.157.157,0,0,1-.078-.293l55.541-32.066a.157.157,0,0,1,.157.272l-55.541,32.066A.16.16,0,0,1,2944.5,387.408Z" transform="translate(-2944.342 -355.028)" fill="#bfccd9"/>
        </g>
        <g id="Group_16418" data-name="Group 16418" transform="translate(24.769 9.398)">
          <g id="Group_16415" data-name="Group 16415" transform="translate(0 18.231)">
            <path id="Path_39029" data-name="Path 39029" d="M3112.315,568.2a.316.316,0,0,1-.222-.092.314.314,0,0,1,.443-.443.314.314,0,0,1-.221.535Z" transform="translate(-3112.001 -567.578)" fill="#bfccd9"/>
          </g>
          <g id="Group_16416" data-name="Group 16416" transform="translate(1.089 0.624)">
            <path id="Path_39030" data-name="Path 39030" d="M3121.5,432.111a.313.313,0,1,1,.427.114.308.308,0,0,1-.156.043A.311.311,0,0,1,3121.5,432.111Zm1.088-.63a.312.312,0,1,1,.271.158A.313.313,0,0,1,3122.592,431.481Zm1.089-.628a.313.313,0,1,1,.272.157A.314.314,0,0,1,3123.681,430.853Zm1.089-.63a.313.313,0,1,1,.427.115.307.307,0,0,1-.156.043A.31.31,0,0,1,3124.77,430.223Zm1.088-.628a.312.312,0,1,1,.272.157A.314.314,0,0,1,3125.858,429.6Zm1.089-.63a.311.311,0,1,1,.272.158A.312.312,0,0,1,3126.948,428.966Zm1.088-.628a.314.314,0,1,1,.428.114.309.309,0,0,1-.156.043A.315.315,0,0,1,3128.036,428.339Zm1.089-.629a.312.312,0,1,1,.272.157A.314.314,0,0,1,3129.125,427.71Zm1.089-.629a.313.313,0,1,1,.272.157A.314.314,0,0,1,3130.214,427.081Zm1.089-.629a.314.314,0,1,1,.427.114.307.307,0,0,1-.157.043A.312.312,0,0,1,3131.3,426.452Zm1.088-.629a.312.312,0,1,1,.272.157A.314.314,0,0,1,3132.392,425.824Zm1.089-.629a.313.313,0,1,1,.428.114.31.31,0,0,1-.157.042A.314.314,0,0,1,3133.481,425.2Zm1.088-.629a.314.314,0,1,1,.428.114.309.309,0,0,1-.157.042A.315.315,0,0,1,3134.569,424.567Zm1.089-.629a.313.313,0,1,1,.272.157A.314.314,0,0,1,3135.658,423.938Zm1.089-.629a.312.312,0,1,1,.272.156A.313.313,0,0,1,3136.747,423.309Zm1.088-.629a.314.314,0,1,1,.428.114.311.311,0,0,1-.156.043A.315.315,0,0,1,3137.835,422.681Zm1.09-.629a.312.312,0,1,1,.271.156A.313.313,0,0,1,3138.925,422.052Zm1.089-.629a.313.313,0,1,1,.272.156A.314.314,0,0,1,3140.014,421.423Zm1.088-.629a.314.314,0,1,1,.428.114.307.307,0,0,1-.156.043A.315.315,0,0,1,3141.1,420.795Zm1.089-.629a.314.314,0,1,1,.428.114.31.31,0,0,1-.156.043A.314.314,0,0,1,3142.191,420.166Zm1.089-.629a.313.313,0,1,1,.272.157A.314.314,0,0,1,3143.281,419.537Zm1.088-.629a.313.313,0,1,1,.272.157A.314.314,0,0,1,3144.369,418.908Zm1.089-.629a.313.313,0,1,1,.428.115.323.323,0,0,1-.157.041A.315.315,0,0,1,3145.458,418.28Zm1.09-.629a.313.313,0,1,1,.428.115.322.322,0,0,1-.157.041A.313.313,0,0,1,3146.547,417.651Zm1.088-.629a.314.314,0,1,1,.428.115.318.318,0,0,1-.156.041A.314.314,0,0,1,3147.635,417.022Zm1.089-.629a.313.313,0,1,1,.428.115.322.322,0,0,1-.157.041A.313.313,0,0,1,3148.725,416.394Zm1.089-.629a.314.314,0,1,1,.272.157A.314.314,0,0,1,3149.814,415.765Zm1.088-.629a.314.314,0,1,1,.428.115.322.322,0,0,1-.156.042A.315.315,0,0,1,3150.9,415.136Z" transform="translate(-3121.461 -414.666)" fill="#bfccd9"/>
          </g>
          <g id="Group_16417" data-name="Group 16417" transform="translate(31.578)">
            <path id="Path_39031" data-name="Path 39031" d="M3386.564,409.866a.313.313,0,0,1-.222-.534.323.323,0,0,1,.443,0,.311.311,0,0,1,0,.442.274.274,0,0,1-.047.039.283.283,0,0,1-.054.029.291.291,0,0,1-.059.018A.274.274,0,0,1,3386.564,409.866Z" transform="translate(-3386.251 -409.244)" fill="#bfccd9"/>
          </g>
        </g>
        <g id="Group_16419" data-name="Group 16419" transform="translate(75.336 37.898)">
          <path id="Path_39032" data-name="Path 39032" d="M3551.635,661.56a.47.47,0,0,1-.235-.877l6.679-3.857a.47.47,0,1,1,.47.814l-6.679,3.856A.469.469,0,0,1,3551.635,661.56Z" transform="translate(-3551.164 -656.764)" fill="#bfccd9"/>
        </g>
        <g id="Group_16420" data-name="Group 16420" transform="translate(80.642 43.781)">
          <path id="Path_39033" data-name="Path 39033" d="M3597.72,709.875a.47.47,0,0,1-.235-.877l1.859-1.073a.47.47,0,1,1,.47.814l-1.859,1.073A.469.469,0,0,1,3597.72,709.875Z" transform="translate(-3597.25 -707.861)" fill="#bfccd9"/>
        </g>
        <g id="Group_16421" data-name="Group 16421" transform="translate(84.233 41.188)">
          <path id="Path_39034" data-name="Path 39034" d="M3628.908,687.869a.47.47,0,0,1-.235-.877l2.76-1.594a.47.47,0,0,1,.47.814l-2.76,1.594A.465.465,0,0,1,3628.908,687.869Z" transform="translate(-3628.438 -685.336)" fill="#bfccd9"/>
        </g>
        <g id="Group_16425" data-name="Group 16425" transform="translate(87.046 29.735)">
          <g id="Group_16422" data-name="Group 16422" transform="translate(0 7.537)">
            <path id="Path_39035" data-name="Path 39035" d="M3653.174,651.954a.311.311,0,0,1-.221-.092.253.253,0,0,1-.04-.047.348.348,0,0,1-.029-.054.3.3,0,0,1-.018-.059.32.32,0,0,1,0-.122.3.3,0,0,1,.018-.059.347.347,0,0,1,.029-.054.258.258,0,0,1,.04-.047.244.244,0,0,1,.047-.039.353.353,0,0,1,.054-.029.4.4,0,0,1,.059-.018.3.3,0,0,1,.181.018.284.284,0,0,1,.054.029.318.318,0,0,1,.048.039.3.3,0,0,1,.039.047.423.423,0,0,1,.029.054.336.336,0,0,1,.017.059.334.334,0,0,1,0,.122.336.336,0,0,1-.017.059.425.425,0,0,1-.029.054.3.3,0,0,1-.039.047A.314.314,0,0,1,3653.174,651.954Z" transform="translate(-3652.861 -651.327)" fill="#bfccd9"/>
          </g>
          <g id="Group_16423" data-name="Group 16423" transform="translate(1.089 0.624)">
            <path id="Path_39036" data-name="Path 39036" d="M3662.358,598.044a.313.313,0,1,1,.428.115.315.315,0,0,1-.428-.115Zm1.088-.629a.311.311,0,1,1,.272.158A.313.313,0,0,1,3663.446,597.415Zm1.089-.628a.313.313,0,1,1,.427.114.305.305,0,0,1-.157.043A.312.312,0,0,1,3664.535,596.788Zm1.088-.629a.313.313,0,1,1,.428.114.312.312,0,0,1-.428-.114Zm1.088-.629a.314.314,0,1,1,.428.115.321.321,0,0,1-.157.042A.315.315,0,0,1,3666.711,595.53Zm1.089-.629a.313.313,0,1,1,.427.115.3.3,0,0,1-.155.042A.311.311,0,0,1,3667.8,594.9Zm1.088-.629a.312.312,0,1,1,.271.158A.312.312,0,0,1,3668.889,594.273Zm1.088-.628a.314.314,0,1,1,.428.114.31.31,0,0,1-.156.043A.315.315,0,0,1,3669.977,593.646Zm1.089-.629a.313.313,0,1,1,.427.115.318.318,0,0,1-.156.042A.313.313,0,0,1,3671.066,593.017Zm1.088-.629a.313.313,0,1,1,.428.115.314.314,0,0,1-.428-.115Zm1.088-.629a.314.314,0,1,1,.428.115.309.309,0,0,1-.156.042A.313.313,0,0,1,3673.242,591.759Z" transform="translate(-3662.316 -591.29)" fill="#bfccd9"/>
          </g>
          <g id="Group_16424" data-name="Group 16424" transform="translate(13.062)">
            <path id="Path_39037" data-name="Path 39037" d="M3766.614,586.49a.281.281,0,0,1-.061-.006.357.357,0,0,1-.059-.017.34.34,0,0,1-.054-.029.263.263,0,0,1-.047-.039.312.312,0,0,1,0-.443.324.324,0,0,1,.443,0,.313.313,0,0,1-.222.534Z" transform="translate(-3766.3 -585.868)" fill="#bfccd9"/>
          </g>
        </g>
        <g id="Group_16429" data-name="Group 16429" transform="translate(91.977 32.582)">
          <g id="Group_16426" data-name="Group 16426" transform="translate(0 7.542)">
            <path id="Path_39038" data-name="Path 39038" d="M3696,676.714a.314.314,0,0,1-.313-.313.359.359,0,0,1,.006-.062.383.383,0,0,1,.018-.059.257.257,0,0,1,.029-.054.417.417,0,0,1,.039-.047.325.325,0,0,1,.443,0,.434.434,0,0,1,.038.047.246.246,0,0,1,.029.054.359.359,0,0,1,.019.059.384.384,0,0,1,.006.062.319.319,0,0,1-.091.221A.315.315,0,0,1,3696,676.714Z" transform="translate(-3695.691 -676.092)" fill="#bfccd9"/>
          </g>
          <g id="Group_16427" data-name="Group 16427" transform="translate(1.088 0.624)">
            <path id="Path_39039" data-name="Path 39039" d="M3705.183,622.771a.313.313,0,1,1,.427.115.318.318,0,0,1-.156.041A.314.314,0,0,1,3705.183,622.771Zm1.088-.629a.313.313,0,1,1,.428.115.322.322,0,0,1-.156.041A.314.314,0,0,1,3706.271,622.142Zm1.088-.629a.315.315,0,1,1,.272.157A.315.315,0,0,1,3707.359,621.513Zm1.089-.627a.314.314,0,1,1,.427.114.3.3,0,0,1-.156.043A.314.314,0,0,1,3708.448,620.886Zm1.088-.629a.313.313,0,1,1,.272.156A.314.314,0,0,1,3709.537,620.257Zm1.088-.629a.314.314,0,1,1,.428.115.321.321,0,0,1-.156.041A.315.315,0,0,1,3710.625,619.628Zm1.089-.629a.313.313,0,1,1,.427.115.319.319,0,0,1-.156.041A.314.314,0,0,1,3711.714,619Zm1.088-.629a.313.313,0,1,1,.428.115.315.315,0,0,1-.428-.115Zm1.088-.627a.313.313,0,1,1,.272.156A.314.314,0,0,1,3713.89,617.744Zm1.089-.629a.313.313,0,1,1,.427.114.305.305,0,0,1-.156.043A.311.311,0,0,1,3714.979,617.115Zm1.088-.629a.313.313,0,1,1,.428.114.309.309,0,0,1-.156.043A.312.312,0,0,1,3716.068,616.486Z" transform="translate(-3705.14 -616.016)" fill="#bfccd9"/>
          </g>
          <g id="Group_16428" data-name="Group 16428" transform="translate(13.062)">
            <path id="Path_39040" data-name="Path 39040" d="M3809.444,611.216a.311.311,0,0,1-.313-.313.4.4,0,0,1,.006-.061.442.442,0,0,1,.018-.059.33.33,0,0,1,.029-.054.3.3,0,0,1,.038-.047.323.323,0,0,1,.443,0,.241.241,0,0,1,.039.047.35.35,0,0,1,.029.054.38.38,0,0,1,.018.059.346.346,0,0,1,.006.061.312.312,0,0,1-.313.313Z" transform="translate(-3809.131 -610.594)" fill="#bfccd9"/>
          </g>
        </g>
        <g id="Group_16430" data-name="Group 16430" transform="translate(36.516 26.869)">
          <path id="Path_39041" data-name="Path 39041" d="M3214.488,565.1a.47.47,0,0,1-.235-.877l5.515-3.184a.47.47,0,0,1,.47.814l-5.516,3.184A.466.466,0,0,1,3214.488,565.1Z" transform="translate(-3214.017 -560.976)" fill="#e6edf7"/>
        </g>
        <g id="Group_16434" data-name="Group 16434" transform="translate(31.085 24.045)">
          <g id="Group_16431" data-name="Group 16431" transform="translate(0 7.526)">
            <path id="Path_39042" data-name="Path 39042" d="M3167.166,602.442a.321.321,0,0,1-.222-.091.346.346,0,0,1-.039-.048.27.27,0,0,1-.029-.054.265.265,0,0,1-.017-.058.271.271,0,0,1,0-.123.294.294,0,0,1,.017-.059.349.349,0,0,1,.029-.054.329.329,0,0,1,.039-.047.317.317,0,0,1,.283-.085.277.277,0,0,1,.059.017.341.341,0,0,1,.054.029.357.357,0,0,1,.047.039.317.317,0,0,1,.091.221.3.3,0,0,1-.006.062.314.314,0,0,1-.017.058.332.332,0,0,1-.029.054.364.364,0,0,1-.039.048.487.487,0,0,1-.047.039.445.445,0,0,1-.054.029.284.284,0,0,1-.059.017A.281.281,0,0,1,3167.166,602.442Z" transform="translate(-3166.851 -601.817)" fill="#bfccd9"/>
          </g>
          <g id="Group_16432" data-name="Group 16432" transform="translate(1.087 0.626)">
            <path id="Path_39043" data-name="Path 39043" d="M3176.33,548.638a.313.313,0,1,1,.272.157A.314.314,0,0,1,3176.33,548.638Zm1.086-.628a.314.314,0,1,1,.428.115.319.319,0,0,1-.157.042A.315.315,0,0,1,3177.416,548.01Zm1.087-.628a.312.312,0,1,1,.272.158A.313.313,0,0,1,3178.5,547.383Zm1.086-.626a.313.313,0,1,1,.272.156A.314.314,0,0,1,3179.588,546.757Zm1.086-.628a.315.315,0,1,1,.272.157A.315.315,0,0,1,3180.674,546.129Zm1.087-.628a.311.311,0,1,1,.272.158A.312.312,0,0,1,3181.761,545.5Zm1.086-.626a.314.314,0,1,1,.428.114.309.309,0,0,1-.156.043A.314.314,0,0,1,3182.847,544.875Zm1.087-.628a.313.313,0,1,1,.427.115.3.3,0,0,1-.156.042A.31.31,0,0,1,3183.934,544.248Zm1.086-.626a.312.312,0,1,1,.272.157A.314.314,0,0,1,3185.02,543.621Zm1.086-.627a.314.314,0,1,1,.428.114.31.31,0,0,1-.156.043A.315.315,0,0,1,3186.105,542.994Zm1.087-.628a.313.313,0,1,1,.427.115.3.3,0,0,1-.156.041A.312.312,0,0,1,3187.193,542.366Z" transform="translate(-3176.288 -541.896)" fill="#bfccd9"/>
          </g>
          <g id="Group_16433" data-name="Group 16433" transform="translate(13.035)">
            <path id="Path_39044" data-name="Path 39044" d="M3280.374,537.084a.266.266,0,0,1-.061-.007.244.244,0,0,1-.059-.017.284.284,0,0,1-.054-.029.343.343,0,0,1-.048-.039.315.315,0,0,1,0-.443.423.423,0,0,1,.048-.039.288.288,0,0,1,.054-.029.244.244,0,0,1,.059-.017.312.312,0,0,1,.122,0,.3.3,0,0,1,.059.017.4.4,0,0,1,.054.029.3.3,0,0,1,.047.039.312.312,0,0,1,0,.443A.313.313,0,0,1,3280.374,537.084Z" transform="translate(-3280.061 -536.457)" fill="#bfccd9"/>
          </g>
        </g>
        <g id="Group_16435" data-name="Group 16435" transform="translate(51.483 19.243)">
          <path id="Path_39045" data-name="Path 39045" d="M3344.471,497.859a.47.47,0,0,1-.235-.877l3.756-2.169a.47.47,0,1,1,.47.814l-3.756,2.169A.469.469,0,0,1,3344.471,497.859Z" transform="translate(-3344.001 -494.751)" fill="#e6edf7"/>
        </g>
        <g id="Group_16436" data-name="Group 16436" transform="translate(90.775 31.855)">
          <path id="Path_39046" data-name="Path 39046" d="M3685.721,609.772a.47.47,0,0,1-.235-.877l7.878-4.549a.47.47,0,1,1,.47.814l-7.878,4.548A.467.467,0,0,1,3685.721,609.772Z" transform="translate(-3685.25 -604.283)" fill="#e6edf7"/>
        </g>
        <g id="Group_16437" data-name="Group 16437" transform="translate(95.85 34.785)">
          <path id="Path_39047" data-name="Path 39047" d="M3729.8,635.22a.47.47,0,0,1-.235-.877l7.878-4.549a.47.47,0,0,1,.47.814l-7.878,4.549A.468.468,0,0,1,3729.8,635.22Z" transform="translate(-3729.329 -629.731)" fill="#e6edf7"/>
        </g>
        <g id="Group_16441" data-name="Group 16441" transform="translate(46.888 16.553)">
          <g id="Group_16438" data-name="Group 16438" transform="translate(0 5.894)">
            <path id="Path_39048" data-name="Path 39048" d="M3304.415,523.2a.266.266,0,0,1-.061-.006.259.259,0,0,1-.059-.017.49.49,0,0,1-.054-.029.346.346,0,0,1-.047-.039.327.327,0,0,1-.039-.048.28.28,0,0,1-.029-.053.3.3,0,0,1-.024-.121.355.355,0,0,1,.006-.061.364.364,0,0,1,.018-.059.337.337,0,0,1,.029-.054.4.4,0,0,1,.039-.047.349.349,0,0,1,.047-.039.367.367,0,0,1,.054-.029.266.266,0,0,1,.059-.017.315.315,0,0,1,.282.085.4.4,0,0,1,.039.047.286.286,0,0,1,.029.054.364.364,0,0,1,.018.059.307.307,0,0,1-.018.182.243.243,0,0,1-.029.053.33.33,0,0,1-.039.048.3.3,0,0,1-.047.039.409.409,0,0,1-.054.029.247.247,0,0,1-.059.017A.265.265,0,0,1,3304.415,523.2Z" transform="translate(-3304.101 -522.576)" fill="#bfccd9"/>
          </g>
          <g id="Group_16439" data-name="Group 16439" transform="translate(1.134 0.655)">
            <path id="Path_39049" data-name="Path 39049" d="M3313.99,482.128a.314.314,0,1,1,.429.114.31.31,0,0,1-.156.043A.316.316,0,0,1,3313.99,482.128Zm1.135-.655a.313.313,0,1,1,.427.115.318.318,0,0,1-.157.042A.311.311,0,0,1,3315.125,481.473Zm1.134-.655a.313.313,0,1,1,.427.115.306.306,0,0,1-.156.041A.311.311,0,0,1,3316.26,480.818Zm1.134-.655a.313.313,0,1,1,.427.115.305.305,0,0,1-.156.043A.313.313,0,0,1,3317.394,480.163Zm1.134-.654a.313.313,0,1,1,.272.157A.314.314,0,0,1,3318.528,479.509Zm1.134-.655a.313.313,0,1,1,.428.115.321.321,0,0,1-.156.042A.313.313,0,0,1,3319.662,478.854Zm1.134-.655a.315.315,0,1,1,.272.157A.313.313,0,0,1,3320.8,478.2Zm1.134-.654a.313.313,0,1,1,.428.114.31.31,0,0,1-.156.043A.314.314,0,0,1,3321.93,477.545Z" transform="translate(-3313.948 -477.074)" fill="#bfccd9"/>
          </g>
          <g id="Group_16440" data-name="Group 16440" transform="translate(10.209)">
            <path id="Path_39050" data-name="Path 39050" d="M3393.074,472.013a.31.31,0,0,1-.221-.092.266.266,0,0,1-.039-.047.269.269,0,0,1-.029-.054.417.417,0,0,1-.019-.059.371.371,0,0,1-.006-.061.359.359,0,0,1,.006-.061.348.348,0,0,1,.019-.059.219.219,0,0,1,.029-.054.324.324,0,0,1,.039-.048.338.338,0,0,1,.047-.039.394.394,0,0,1,.054-.029.3.3,0,0,1,.059-.017.314.314,0,0,1,.282.085.3.3,0,0,1,.039.048.27.27,0,0,1,.029.054.308.308,0,0,1,.018.059.359.359,0,0,1,.006.061.371.371,0,0,1-.006.061.361.361,0,0,1-.018.059.353.353,0,0,1-.029.054.247.247,0,0,1-.039.047A.31.31,0,0,1,3393.074,472.013Z" transform="translate(-3392.761 -471.387)" fill="#bfccd9"/>
          </g>
        </g>
        <g id="Group_16442" data-name="Group 16442" transform="translate(20.085 11.596)">
          <path id="Path_39051" data-name="Path 39051" d="M3071.476,460.719a.157.157,0,0,1-.078-.292l55.541-32.066a.157.157,0,1,1,.157.271L3071.554,460.7A.156.156,0,0,1,3071.476,460.719Z" transform="translate(-3071.32 -428.339)" fill="#bfccd9"/>
        </g>
        <g id="Group_16443" data-name="Group 16443" transform="translate(44.525 25.707)">
          <path id="Path_39052" data-name="Path 39052" d="M3283.732,583.265a.157.157,0,0,1-.079-.292l55.541-32.066a.157.157,0,1,1,.157.271l-55.541,32.067A.158.158,0,0,1,3283.732,583.265Z" transform="translate(-3283.575 -550.885)" fill="#bfccd9"/>
        </g>
        <g id="Group_16444" data-name="Group 16444" transform="translate(13.625 7.933)">
          <path id="Path_39053" data-name="Path 39053" d="M3021.694,396.521l-1.868,1.078-1.867-1.078-2.745,1.585,1.868,1.078-1.868,1.078,2.745,1.585,1.867-1.078,1.868,1.078,2.744-1.585-1.867-1.078,1.867-1.078Z" transform="translate(-3015.214 -396.521)" fill="#bfccd9"/>
          <path id="Path_39054" data-name="Path 39054" d="M3045.133,409.734a1.267,1.267,0,0,0-.84.488c-.105.15-.167.345.042.471.017.01.014.049.05.068a.785.785,0,0,0,.233.054.086.086,0,0,0,.05-.01l.018,0,.014,0c.011,0,0,.017,0,.026a.115.115,0,0,1,.017-.022c.007-.006.039-.006.035-.007l-.041-.006-.02-.005c-.01,0-.016,0-.016-.005a.021.021,0,0,0,0-.016.289.289,0,0,0-.141-.13.712.712,0,0,0-.089-.018c-.227-.134.073-.446.207-.565a1.2,1.2,0,0,1,1.047-.2c.622.165.754.65.589.988a1.619,1.619,0,0,1-.474.527l-.159-.1a.516.516,0,0,0-.046-.951l-1.784,1.03a1.941,1.941,0,0,0,1.627.036l.207.108c-.1.083-.192.2-.1.289a.724.724,0,0,0,.627.074c.037-.01.072-.021.107-.032l.187.1a.27.27,0,0,0-.127.34l.824-.476-.059-.007a.251.251,0,0,0,.075-.1c.018-.058-.008-.085-.052-.111a.684.684,0,0,0-.441,0,3.333,3.333,0,0,0-.378.122l-.378-.24c.023-.016.045-.032.066-.048a1.733,1.733,0,0,0,.359-.376.719.719,0,0,0,.144-.666A1.256,1.256,0,0,0,3045.133,409.734Zm1.477,1.985a.708.708,0,0,1,.4-.056.117.117,0,0,1,.066.061.1.1,0,0,1,.011.06,1.068,1.068,0,0,0-.505.085l-.14-.089Zm-.464.036c-.208.047-.51.064-.415-.11a.307.307,0,0,1,.063-.074Z" transform="translate(-3040.531 -408.2)" fill="#fff"/>
        </g>
        <path id="Path_39055" data-name="Path 39055" d="M3153.126,680.576a2.56,2.56,0,0,1-1.634.325l-4.037-.5a.45.45,0,0,1-.169-.05.152.152,0,0,1-.078-.1l-.338-1.464a1.9,1.9,0,0,1-.06-.78q.06-.251.6-.56.059-.034-.114-.135t-.234-.066q-.192.138-.9.545t-.929.51c-.043.025-.006.07.11.137s.2.088.238.064q.4-.23.609-.108a.452.452,0,0,1,.183.307l.357,1.48a.083.083,0,0,1-.032.1.307.307,0,0,1-.174.016l-2.458-.309a1.041,1.041,0,0,1-.371-.1.066.066,0,0,1-.022-.021,1.3,1.3,0,0,0,.357-.614q.133-.616-.691-1.092a3.142,3.142,0,0,0-1.895-.38,4.79,4.79,0,0,0-2,.629q-.265.153-.639.382t-.876.519q-.5.291-1.057.584-.06.035.1.128t.222.06a1.384,1.384,0,0,1,1.392-.2l4.513,2.606q.535.309-.279.78-.055.037.116.136c.115.066.192.088.231.065q.32-.222,1.167-.711t1.231-.674q.06-.034-.115-.135t-.233-.066a1.369,1.369,0,0,1-1.387.182l-1.753-1.012q-.115-.066-.083-.106a.246.246,0,0,1,.064-.058c.021-.012.076-.038.163-.078s.246-.128.517-.283a1.835,1.835,0,0,1,.3,0l3.671.407a.539.539,0,0,1,.185.044.125.125,0,0,1,.062.078l.558,2.3q.1.4-.641.825c-.039.023,0,.068.115.135s.194.089.233.066q.367-.248,1.035-.634t1.039-.563c.043-.025.006-.071-.11-.138s-.2-.088-.238-.063q-.549.317-.783.182a1.214,1.214,0,0,1-.4-.732l-.352-1.282c-.015-.051-.009-.085.021-.1a.314.314,0,0,1,.172-.009l3,.338a1.293,1.293,0,0,1,.448.106q.243.14-.279.441-.064.037.11.137t.238.063q.315-.219,1.14-.7t1.208-.661q.06-.034-.114-.135T3153.126,680.576Zm-11.288.11a.43.43,0,0,1-.389.005l-2.555-1.475c-.094-.055-.07-.123.073-.206l.407-.235a3.539,3.539,0,0,1,1.673-.482,2.733,2.733,0,0,1,1.481.31q1.492.862-.193,1.834A4.106,4.106,0,0,1,3141.838,680.685Z" transform="translate(-3109.224 -636.977)" fill="#bfccd9"/>
      </g>
    </g>
    <g id="stethoscope" transform="translate(2450.276 -600.698)">
      <g id="Group_16454" data-name="Group 16454" transform="translate(123.516 10.953)">
        <path id="Path_39056" data-name="Path 39056" d="M3830.856,103.275c-.43-.24-1.763-.96-1.763-.96L3803.437,87.5a1.9,1.9,0,0,0,.018-.252.9.9,0,0,0-.378-.828L3800.03,84.7a.908.908,0,0,0-.917.09c-.048.028-.095.058-.141.091l-2.558-1.477a1.979,1.979,0,0,0,.026-.316.9.9,0,0,0-.378-.827l-.723-.42a.908.908,0,0,0-.916.09,2.829,2.829,0,0,0-1.284,2.224.9.9,0,0,0,.375.826l.267.155c-5.383-1.343-13.38-2.342-19.467,1.173-8.068,4.658-5.016,9.958-2.674,12.561l-1.185-.684a1.921,1.921,0,0,0,.022-.282.9.9,0,0,0-.378-.827l-.722-.42a.909.909,0,0,0-.917.09,2.83,2.83,0,0,0-1.284,2.224.9.9,0,0,0,.376.826l.724.421c-.015-.009-.028-.019-.042-.029a.878.878,0,0,0,.958-.061,1.973,1.973,0,0,0,.23-.158l2.3,1.329a2,2,0,0,0-.03.337.9.9,0,0,0,.376.826l3.049,1.722c-.015-.009-.028-.019-.042-.029a.879.879,0,0,0,.958-.061,1.958,1.958,0,0,0,.241-.167l25.32,14.615s1.231.773,1.663,1.018a14.85,14.85,0,0,0,13.434.8,9.317,9.317,0,0,0,1.26-.75c.977-.708,3.438-2.97,5.717-5.117,3.18-1.135,6.212-2.248,7.269-2.734.389-.179,1.1-.493,1.478-.719C3834.192,109.982,3835.9,106.093,3830.856,103.275Zm-35.7-17.964a1.929,1.929,0,0,0,.207-.14l1.407.813c-.561-.179-1.187-.367-1.869-.554A1.48,1.48,0,0,0,3795.155,85.31Zm30.921,23.463a.982.982,0,0,1,.366.025A1.383,1.383,0,0,0,3826.076,108.774Zm.729,2.739.085-.082.062.029Zm1.572-1.026a.91.91,0,0,1,.059.24A1.452,1.452,0,0,0,3828.378,110.487Zm2.268-.474a13.737,13.737,0,0,1-1.6.7l-.583.209a2.538,2.538,0,0,1,2.157-2.143c.267-.017.588-.378.386-1.032a2.729,2.729,0,0,0-1.9-1.789c-.84-.109-1.235.169-1.231.44.018,1.473-2.144,2.473-2.144,2.473-.318.169-.44.551-.272,1.048l0,.007c-.031.026-.061.053-.089.078l-3.638,3.346-6.838,2.477a1.444,1.444,0,0,0-.126-.148c-.6-.6-1.081-.621-1.244-.4-.886,1.177-3.208.646-3.208.646-.355-.061-.686.167-.856.663a2.831,2.831,0,0,0,.5,2.519c.419.479.9.51,1.227.141a2.563,2.563,0,0,1,3.054-.408c.222.15.7.06.937-.58a2.623,2.623,0,0,0,.149-.833c.731-.253,1.861-.644,3.19-1.108-1.014.936-1.879,1.736-2.379,2.2a4.429,4.429,0,0,1-1.211.673,11.5,11.5,0,0,1-9.608-.814c-.434-.244-1.663-1.018-1.663-1.018L3777.3,102.136a1.923,1.923,0,0,0,.02-.267.9.9,0,0,0-.378-.827l-3.047-1.721a.705.705,0,0,0-.463-.076c-3.117-3.025-6.271-8.151,1.6-12.47,7.511-4.123,18.046-1.244,22.814.439a.812.812,0,0,0,.361.625l3.049,1.722c-.014-.008-.028-.019-.042-.029a.878.878,0,0,0,.958-.061,2,2,0,0,0,.259-.179l24.607,14.21s1.337.715,1.763.96C3833.912,107.4,3831.455,109.546,3830.646,110.013Zm-19.224,8.8a.939.939,0,0,1-.1.22A1.494,1.494,0,0,0,3811.422,118.817Zm-.5-2.519a1.381,1.381,0,0,0-.275-.243A.978.978,0,0,1,3810.923,116.3Z" transform="translate(-3760.885 -77.597)" fill="#191919" opacity="0.2" style="mix-blend-mode: multiply;isolation: isolate"/>
        <path id="Path_39057" data-name="Path 39057" d="M3792.859,114.445s-9.833-6.9,1.374-13.369c10.083-5.821,25.407.738,25.407.738l.644,1.15s-15.344-6.906-25.335-1.421c-12.018,6.6,1.68,15.078,1.68,15.078Z" transform="translate(-3780.08 -92.565)" fill="#bfccd9"/>
        <path id="Path_39058" data-name="Path 39058" d="M3790.426,111.472s-10.248-7.708.959-14.178c10.083-5.821,25.407.738,25.407.738l.643,1.15s-15.344-6.906-25.335-1.421c-12.018,6.6,1.68,15.078,1.68,15.078Z" transform="translate(-3777.667 -89.218)" fill="#e6edf7"/>
        <g id="Group_16446" data-name="Group 16446" transform="translate(0 1.352)" style="mix-blend-mode: multiply;isolation: isolate">
          <path id="Path_39059" data-name="Path 39059" d="M3720.288,77.969c-.3-.169-7.475-4.2-7.743-9.636-.133-2.683,1.387-5.14,4.517-7.305a21.082,21.082,0,0,1,9.67-3.412,37.979,37.979,0,0,1,9.826.26,53.266,53.266,0,0,1,10.777,2.744l-.868,2.2.434-1.1-.434,1.1a51.886,51.886,0,0,0-10.3-2.611c-5.189-.753-12.483-.885-17.759,2.763-2.411,1.667-3.588,3.43-3.5,5.239.166,3.417,4.769,6.708,6.528,7.687Z" transform="translate(-3712.536 -57.408)" fill="#191919" opacity="0.2"/>
        </g>
        <g id="Group_16447" data-name="Group 16447" transform="translate(0.681 0)">
          <path id="Path_39060" data-name="Path 39060" d="M3725,66.652c-.285-.242-6.966-5.991-6.531-11.84.188-2.531,1.632-4.653,4.292-6.306a20.18,20.18,0,0,1,9.569-2.789,37.913,37.913,0,0,1,9.639.8,54.426,54.426,0,0,1,10.527,3.259l-.97,2.158c-.2-.089-17.425-7.685-27.515-1.414-2.009,1.248-3.049,2.71-3.181,4.468-.349,4.65,5.643,9.814,5.7,9.866Z" transform="translate(-3718.45 -45.666)" fill="#3d4663"/>
        </g>
        <g id="Group_16448" data-name="Group 16448" transform="translate(6.58 18.337)">
          <path id="Path_39061" data-name="Path 39061" d="M3771.88,205.01a.909.909,0,0,0-.917.09,2.829,2.829,0,0,0-1.284,2.224.9.9,0,0,0,.376.826l.724.421a.9.9,0,0,1-.376-.826,2.831,2.831,0,0,1,1.284-2.224.909.909,0,0,1,.917-.09Z" transform="translate(-3769.679 -204.923)" fill="#7e87a8"/>
          <path id="Path_39062" data-name="Path 39062" d="M3777.256,208.756a2.829,2.829,0,0,0-1.284,2.224c0,.818.581,1.147,1.293.737a2.832,2.832,0,0,0,1.284-2.224C3778.545,208.675,3777.967,208.345,3777.256,208.756Z" transform="translate(-3775.247 -208.158)" fill="#3d4663"/>
        </g>
        <g id="Group_16449" data-name="Group 16449" transform="translate(32.542 3.521)">
          <path id="Path_39063" data-name="Path 39063" d="M3997.358,76.33a.909.909,0,0,0-.917.09,2.829,2.829,0,0,0-1.284,2.224.9.9,0,0,0,.376.826l.724.421a.9.9,0,0,1-.375-.826,2.83,2.83,0,0,1,1.284-2.224.909.909,0,0,1,.917-.09Z" transform="translate(-3995.157 -76.243)" fill="#7e87a8"/>
          <path id="Path_39064" data-name="Path 39064" d="M4002.733,80.076a2.831,2.831,0,0,0-1.284,2.224c0,.818.581,1.147,1.293.736a2.829,2.829,0,0,0,1.284-2.224C4004.023,79.995,4003.445,79.665,4002.733,80.076Z" transform="translate(-4000.725 -79.478)" fill="#3d4663"/>
        </g>
        <path id="Path_39065" data-name="Path 39065" d="M4012.554,90.059l-4.068-2.349a.915.915,0,0,0-1.218.219c-.354.386-.559,1.13,0,1.452l4.3,2.483A2.294,2.294,0,0,1,4012.554,90.059Z" transform="translate(-3973.025 -82.745)" fill="url(#linear-gradient-3)"/>
        <path id="Path_39066" data-name="Path 39066" d="M3787.516,220.8a1.945,1.945,0,0,1,1.227-1.543l-4.677-2.7c-.423-.216-.826-.449-1.265-.117a1.416,1.416,0,0,0-.467.671.826.826,0,0,0,.306,1l4.866,2.809C3787.508,220.879,3787.511,220.838,3787.516,220.8Z" transform="translate(-3774.252 -196.627)" fill="url(#linear-gradient-4)"/>
        <g id="Group_16450" data-name="Group 16450" transform="translate(37.232 6.38)">
          <path id="Path_39067" data-name="Path 39067" d="M4038.1,101.166a.909.909,0,0,0-.917.09,2.832,2.832,0,0,0-1.284,2.224.9.9,0,0,0,.376.826l3.049,1.722a.9.9,0,0,1-.375-.826,2.83,2.83,0,0,1,1.284-2.224.909.909,0,0,1,.917-.09Z" transform="translate(-4035.895 -101.079)" fill="url(#linear-gradient-5)"/>
          <path id="Path_39068" data-name="Path 39068" d="M4063.663,116.214a2.828,2.828,0,0,0-1.284,2.224c0,.818.581,1.147,1.292.737a2.83,2.83,0,0,0,1.284-2.224C4064.952,116.134,4064.374,115.8,4063.663,116.214Z" transform="translate(-4059.329 -114.315)" fill="#bfccd9"/>
        </g>
        <g id="Group_16451" data-name="Group 16451" transform="translate(11.099 21.003)">
          <path id="Path_39069" data-name="Path 39069" d="M3811.131,228.158a.909.909,0,0,0-.917.09,2.831,2.831,0,0,0-1.284,2.224.9.9,0,0,0,.376.826l3.049,1.722a.9.9,0,0,1-.376-.826,2.83,2.83,0,0,1,1.285-2.224.908.908,0,0,1,.916-.09Z" transform="translate(-3808.931 -228.071)" fill="url(#linear-gradient-6)"/>
          <path id="Path_39070" data-name="Path 39070" d="M3836.7,243.206a2.829,2.829,0,0,0-1.284,2.224c0,.818.581,1.147,1.292.737a2.83,2.83,0,0,0,1.284-2.224C3837.988,243.125,3837.41,242.8,3836.7,243.206Z" transform="translate(-3832.365 -241.307)" fill="#bfccd9"/>
        </g>
        <g id="Group_16452" data-name="Group 16452" transform="translate(64.786 27.698)">
          <path id="Path_39071" data-name="Path 39071" d="M4280.356,286.682c0-.271.392-.549,1.232-.44a2.731,2.731,0,0,1,1.9,1.789c.2.653-.12,1.015-.387,1.032-1.869.119-2.187,2.3-2.187,2.3a1.1,1.1,0,0,0-.053-.583,2.833,2.833,0,0,0-1.935-1.689c-.406-.08-.389,0-.713.068C4278.213,289.155,4280.375,288.155,4280.356,286.682Z" transform="translate(-4277.865 -286.218)" fill="url(#linear-gradient-7)"/>
          <path id="Path_39072" data-name="Path 39072" d="M4276.254,310.913a2.829,2.829,0,0,1,1.935,1.689c.262.774-.178,1.274-.984,1.115a2.83,2.83,0,0,1-1.935-1.689C4275.007,311.254,4275.447,310.755,4276.254,310.913Z" transform="translate(-4275.194 -308.044)" fill="#3d4663"/>
        </g>
        <path id="Path_39073" data-name="Path 39073" d="M4080.341,152.676s12.412-4.5,15.641-5.656a13.777,13.777,0,0,0,1.6-.7c.809-.467,3.266-2.613-1.847-5.551-.426-.245-1.762-.96-1.762-.96l-25.1-14.5c-.559-.323-.354-1.067,0-1.452a.915.915,0,0,1,1.218-.219l25.942,14.98s1.333.72,1.764.96c5.047,2.819,3.335,6.707,1.563,7.765-.378.226-1.088.539-1.478.719-2.543,1.169-16.5,5.966-16.5,5.966Z" transform="translate(-4027.536 -114.543)" fill="#f7f9fc"/>
        <path id="Path_39074" data-name="Path 39074" d="M4234.892,333.648a.7.7,0,0,0,.224-.676c-1.166.42-2.644.954-4.2,1.517-1,.918-2.151,1.979-3.251,2.993,1.633-.573,3.435-1.21,5.116-1.815C4233.592,334.9,4234.328,334.191,4234.892,333.648Z" transform="translate(-4168.351 -299.891)" fill="#bfccd9"/>
        <path id="Path_39075" data-name="Path 39075" d="M4214.78,337.987c-1.542.556-3.348,1.21-5.1,1.844-1.1,1.012-2.229,2.053-3.19,2.941,1.462-.509,3.3-1.151,5.153-1.809C4212.78,339.9,4213.892,338.837,4214.78,337.987Z" transform="translate(-4149.616 -304.328)" fill="#e6edf7"/>
        <path id="Path_39076" data-name="Path 39076" d="M3891.626,258.758c-1.825,1.677-7.561,6.953-9.234,8.514a4.43,4.43,0,0,1-1.211.673,11.5,11.5,0,0,1-9.608-.814c-.434-.244-1.663-1.018-1.663-1.018l-26.4-15.245c-.424-.216-.826-.449-1.265-.117a1.408,1.408,0,0,0-.467.671.825.825,0,0,0,.306,1l25.77,14.875s1.231.773,1.663,1.018a14.85,14.85,0,0,0,13.434.8,9.315,9.315,0,0,0,1.26-.75c1.556-1.128,6.872-6.195,9.229-8.46.506-.487.117-1.1-.292-1.435C3892.6,258.02,3891.977,258.436,3891.626,258.758Z" transform="translate(-3826.851 -226.991)" fill="#f7f9fc"/>
        <g id="Group_16453" data-name="Group 16453" transform="translate(48.753 36.913)">
          <path id="Path_39077" data-name="Path 39077" d="M4147.566,366.377c.163-.216.646-.2,1.244.4a2.727,2.727,0,0,1,.408,2.576c-.239.641-.715.73-.937.58-1.552-1.048-3.134.48-3.134.48a1.085,1.085,0,0,0,.315-.493,2.835,2.835,0,0,0-.5-2.519c-.272-.311-.309-.237-.605-.382C4144.358,367.023,4146.68,367.554,4147.566,366.377Z" transform="translate(-4143.39 -366.252)" fill="url(#linear-gradient-8)"/>
          <path id="Path_39078" data-name="Path 39078" d="M4137.526,373.25a2.83,2.83,0,0,1,.5,2.519.786.786,0,0,1-1.46.28,2.829,2.829,0,0,1-.5-2.519A.785.785,0,0,1,4137.526,373.25Z" transform="translate(-4135.954 -372.097)" fill="#3d4663"/>
          <path id="Path_39079" data-name="Path 39079" d="M4136.964,380.168a1.656,1.656,0,0,1,.292,1.472.459.459,0,0,1-.854.164,1.652,1.652,0,0,1-.292-1.472A.459.459,0,0,1,4136.964,380.168Z" transform="translate(-4136.035 -378.363)" fill="#616b8c"/>
          <path id="Path_39080" data-name="Path 39080" d="M4139.7,385.41a.674.674,0,0,1,.119.6c-.063.185-.219.215-.349.067a.676.676,0,0,1-.119-.6A.188.188,0,0,1,4139.7,385.41Z" transform="translate(-4138.933 -383.121)" fill="#3d4663"/>
        </g>
      </g>
      <g id="Group_16464" data-name="Group 16464" transform="translate(0 0)">
        <g id="Group_16455" data-name="Group 16455" transform="translate(15.589 2.296)" opacity="0.2" style="mix-blend-mode: multiply;isolation: isolate">
          <path id="Path_39081" data-name="Path 39081" d="M2776.531-1.035,2775.206-2.9c9.053-6.442,16.522-6.723,27.827-7.149q1.144-.043,2.346-.09c9.549-.382,12.023-3.244,15.157-6.867a25.536,25.536,0,0,1,12.639-8.753c14.426-4.865,24.821-4.123,31-2.645a56,56,0,0,1,22.417,11.195l-1.52,1.705a54.732,54.732,0,0,0-21.429-10.678c-5.889-1.409-15.829-2.1-29.741,2.588a23.289,23.289,0,0,0-11.64,8.083c-3.217,3.72-6.255,7.234-16.794,7.656q-1.206.048-2.351.091C2791.837-7.338,2785.028-7.081,2776.531-1.035ZM2885.075-15.5s.76-.853.76-.853Z" transform="translate(-2775.206 29.514)" fill="#191919"/>
        </g>
        <g id="Group_16456" data-name="Group 16456" transform="translate(68.847 5.508)" opacity="0.2" style="mix-blend-mode: multiply;isolation: isolate">
          <path id="Path_39082" data-name="Path 39082" d="M3262.3,26.294a33.186,33.186,0,0,1-10.451-1.694c-6.325-2.111-11.255-5.938-13.188-10.238a9.646,9.646,0,0,1,.019-8.264c1.339-2.86,4.058-5.455,8.084-7.713L3247.88.378c-6.7,3.756-9.231,8.39-7.137,13.048,2.637,5.866,11.88,10.591,21.586,10.592a27.32,27.32,0,0,0,8.948-1.459c5.346-1.853,8.7-4.7,9.975-8.468,2.249-6.657-2.662-14.182-2.712-14.257l1.9-1.265c.229.344,5.58,8.514,2.978,16.241-1.507,4.476-5.341,7.81-11.394,9.908A29.813,29.813,0,0,1,3262.3,26.294Z" transform="translate(-3237.739 1.615)" fill="#191919"/>
        </g>
        <g id="Group_16457" data-name="Group 16457" transform="translate(70.531 0.482)">
          <path id="Path_39083" data-name="Path 39083" d="M3276.56-13.917a32.282,32.282,0,0,1-10.4-1.741c-6.212-2.117-11.041-5.928-12.919-10.194a9.439,9.439,0,0,1,.069-8.087c1.324-2.775,3.99-5.261,7.923-7.388a34.077,34.077,0,0,1,16.19-3.929c5.64.193,10.165,1.223,13.45,3.062a9.5,9.5,0,0,1,3.447,2.926c.553.721,5.332,7.214,3.393,13.838-1.281,4.377-5.16,7.716-11.53,9.924A29.4,29.4,0,0,1,3276.56-13.917Zm-.02-29.07a32.526,32.526,0,0,0-14.191,3.655l-.018.01c-6.521,3.526-9.006,7.983-7,12.55,2.569,5.838,11.688,10.546,21.288,10.546a26.92,26.92,0,0,0,8.816-1.439c5.625-1.95,9.017-4.775,10.082-8.4,1.687-5.739-2.989-11.79-3.036-11.851l-.065-.083-.029-.055a7.812,7.812,0,0,0-2.851-2.272c-2.032-1.089-5.8-2.432-12.191-2.651C3277.078-42.982,3276.808-42.986,3276.54-42.986Z" transform="translate(-3252.369 45.271)" fill="#3d4663"/>
        </g>
        <g id="Group_16458" data-name="Group 16458" transform="translate(14.958)">
          <path id="Path_39084" data-name="Path 39084" d="M2771.052-20.933l-1.324-1.862c9.053-6.442,16.522-6.723,27.827-7.149q1.144-.043,2.346-.09c9.549-.382,12.024-3.244,15.157-6.867a25.536,25.536,0,0,1,12.638-8.753c11.211-3.781,19.709-4.075,24.863-3.657a28.465,28.465,0,0,1,8.682,1.855,71.086,71.086,0,0,1,23.206,11.8l-1.4,1.809a69.652,69.652,0,0,0-22.472-11.422l-.106-.027-.1-.047a26.158,26.158,0,0,0-8.153-1.705c-4.915-.38-13.034-.073-23.8,3.556a23.288,23.288,0,0,0-11.64,8.083c-3.217,3.72-6.256,7.234-16.794,7.656q-1.206.048-2.352.091C2786.358-27.236,2779.549-26.979,2771.052-20.933Z" transform="translate(-2769.727 49.455)" fill="#3d4663"/>
        </g>
        <g id="Group_16463" data-name="Group 16463" transform="translate(0 19.481)">
          <g id="Group_16459" data-name="Group 16459" transform="translate(0 7.361)">
            <path id="Path_39085" data-name="Path 39085" d="M2660.831,208.227c4.831,2.789,4.856,7.31.058,10.1s-12.6,2.789-17.435,0-4.856-7.309-.057-10.1S2656,205.438,2660.831,208.227Z" transform="translate(-2639.815 -203.548)" fill="#191919" opacity="0.2"/>
            <path id="Path_39086" data-name="Path 39086" d="M2680.513,245.439l0,1.427c-.005,1.816-1.2,3.629-3.582,5.014-4.8,2.789-12.6,2.788-17.434,0-2.43-1.4-3.645-3.245-3.639-5.084l0-1.427c-.005,1.839,1.209,3.681,3.639,5.084,4.831,2.789,12.635,2.79,17.435,0C2679.315,249.068,2680.508,247.255,2680.513,245.439Z" transform="translate(-2654.006 -238.263)" fill="url(#linear-gradient-9)"/>
            <path id="Path_39087" data-name="Path 39087" d="M2676.9,185.752c4.831,2.789,4.856,7.31.058,10.1s-12.6,2.788-17.435,0-4.856-7.309-.057-10.1S2672.074,182.964,2676.9,185.752Z" transform="translate(-2654.038 -183.661)" fill="url(#linear-gradient-10)"/>
          </g>
          <g id="Group_16460" data-name="Group 16460" transform="translate(8.035 6.691)">
            <path id="Path_39088" data-name="Path 39088" d="M2721.884,208.619l0,.711a3.048,3.048,0,0,1-1.784,2.5,9.568,9.568,0,0,1-8.684,0,3.072,3.072,0,0,1-1.813-2.532l0-.711a3.073,3.073,0,0,0,1.813,2.532,9.567,9.567,0,0,0,8.684,0A3.049,3.049,0,0,0,2721.884,208.619Z" transform="translate(-2709.601 -205.044)" fill="url(#linear-gradient-9)"/>
            <path id="Path_39089" data-name="Path 39089" d="M2720.086,178.89c2.406,1.389,2.419,3.641.029,5.03a9.568,9.568,0,0,1-8.684,0c-2.406-1.389-2.419-3.64-.028-5.03A9.569,9.569,0,0,1,2720.086,178.89Z" transform="translate(-2709.616 -177.848)" fill="#f7f9fc"/>
          </g>
          <g id="Group_16461" data-name="Group 16461" transform="translate(9.519 1.815)">
            <path id="Path_39090" data-name="Path 39090" d="M2731.8,158.836v4.937a2.313,2.313,0,0,1-1.353,1.894,7.256,7.256,0,0,1-6.586,0,2.329,2.329,0,0,1-1.375-1.92v-4.936a2.33,2.33,0,0,0,1.375,1.92,7.257,7.257,0,0,0,6.586,0A2.312,2.312,0,0,0,2731.8,158.836Z" transform="translate(-2722.488 -156.125)" fill="url(#linear-gradient-9)"/>
            <path id="Path_39091" data-name="Path 39091" d="M2730.439,136.29c1.824,1.054,1.834,2.761.021,3.815a7.257,7.257,0,0,1-6.586,0c-1.824-1.053-1.834-2.761-.021-3.814A7.257,7.257,0,0,1,2730.439,136.29Z" transform="translate(-2722.499 -135.5)" fill="#f7f9fc"/>
          </g>
          <g id="Group_16462" data-name="Group 16462" transform="translate(8.766 0)">
            <path id="Path_39092" data-name="Path 39092" d="M2730.989,169.742a4.161,4.161,0,0,0,.819-.612v-1.541a4.169,4.169,0,0,1-.818.61c-.146.085-.3.162-.456.235-.026.016-.051.032-.079.048a7.257,7.257,0,0,1-6.586,0l-.1-.058c-.15-.07-.3-.144-.435-.225a4.223,4.223,0,0,1-.844-.629v1.543a4.2,4.2,0,0,0,.843.627A8.431,8.431,0,0,0,2730.989,169.742Z" transform="translate(-2721.741 -162.063)" fill="#bfccd9" style="mix-blend-mode: multiply;isolation: isolate"/>
            <path id="Path_39093" data-name="Path 39093" d="M2726.767,146.844l0,1.542a2.686,2.686,0,0,1-1.572,2.2,8.43,8.43,0,0,1-7.651,0,2.707,2.707,0,0,1-1.6-2.231v-1.542a2.708,2.708,0,0,0,1.6,2.231,8.43,8.43,0,0,0,7.651,0A2.687,2.687,0,0,0,2726.767,146.844Z" transform="translate(-2715.945 -143.695)" fill="url(#linear-gradient-9)"/>
            <path id="Path_39094" data-name="Path 39094" d="M2725.183,120.651c2.12,1.224,2.131,3.208.026,4.432a8.43,8.43,0,0,1-7.651,0c-2.119-1.224-2.131-3.207-.025-4.431A8.43,8.43,0,0,1,2725.183,120.651Z" transform="translate(-2715.959 -119.734)" fill="#f7f9fc"/>
            <path id="Path_39095" data-name="Path 39095" d="M2736.333,122.468c1.493.863,1.5,2.261.018,3.123a5.941,5.941,0,0,1-5.392,0c-1.494-.862-1.5-2.26-.018-3.123A5.942,5.942,0,0,1,2736.333,122.468Z" transform="translate(-2728.234 -121.581)" fill="#e6edf7"/>
          </g>
        </g>
      </g>
    </g>
    <g id="hand" transform="translate(2551.311 -560.368)">
      <g id="Group_16465" data-name="Group 16465" transform="translate(0.147 9.279)">
        <path id="Path_39096" data-name="Path 39096" d="M3570.712,398.648c-3.706-2.017-7.573-3.734-11.455-5.384-4.982-2.08-10.059-3.975-14.747-6.676-2.958-1.7-5.837-3.566-8.842-5.187a1.521,1.521,0,0,0-.5.28c-.938,4.673-6.117,10.788-6.734,11.882-.751,1.133-1.613,2.387-2.386,3.466-.039.03-.081.066-.125.108-.532.107-2.74,3.424-2.74,3.424a.512.512,0,0,0-.027.145,3.288,3.288,0,0,0,.812,4.334l.012.009.109.076.023.015c.034.022.069.044.1.065l.031.018.1.056.039.02.1.048.044.02.1.042.049.02.1.036.054.019.095.031.058.017.095.026.062.015.1.021.065.013.1.017.068.011.1.012.072.008.1.008.075,0,.1,0h.176l.08,0,.1-.005.082-.005.1-.01.083-.009.1-.015.083-.013.106-.019.085-.016.109-.024.085-.02.114-.031.083-.023.063-.019-2.441,2-6.211,6.4a.475.475,0,0,0-.115.225.3.3,0,0,0,.191.247c.074.018.136-.017.24-.058a33.711,33.711,0,0,0,7.244-2.465l3.839-1.979a7.357,7.357,0,0,0,.4.632c.136.248.239.441.28.538.563,1.475,2.388,6.208,2.388,6.208a25.551,25.551,0,0,0,2.206,3.458,5.7,5.7,0,0,0,2.278,1.792c.807.347,5.315,1.237,9.237,1.94l34.075-19.581C3577.6,402.671,3574.208,400.551,3570.712,398.648Zm-35.534.391c.185-.289.355-.553.507-.773q.09-.154.192-.316.01.245.027.493Zm18.948,7.123c0,.03,0,.06,0,.09q0,.125-.007.248c0,.024,0,.049,0,.073,0,.1-.01.2-.018.306l0,.057q-.009.125-.021.247c0,.028-.005.056-.008.083q-.012.127-.028.252c0,.013,0,.027,0,.041-.012.1-.025.191-.039.285,0,.023-.007.045-.011.068-.011.074-.023.147-.036.219,0,.024-.008.048-.013.071-.017.091-.033.181-.052.27v.006c-.018.086-.037.171-.056.255l-.017.068c-.016.069-.033.138-.051.206l-.014.052c-.022.083-.044.166-.068.247,0,.014-.008.027-.012.04-.02.068-.04.135-.061.2l-.019.061c-.023.071-.046.14-.07.209,0,.007,0,.014-.007.021-.026.076-.054.151-.081.225l-.018.048-.068.175-.02.049c-.028.071-.058.14-.087.209-4.471,1.64-6.65,2.286-9.966,2.605a60.829,60.829,0,0,1-3.809-5.361c-.081-.118-.161-.232-.242-.345l-.016-.022a12.3,12.3,0,0,0-2.711-2.831l1.056-.866a4.99,4.99,0,0,0,3.766,1.955c2.9.069,4-2.272,4.937-2.448,1.4-.264,2.035,1.684,4.842,1.053a22.538,22.538,0,0,0,2.7-1.37c.009.045.02.09.029.134s.015.073.022.11q.029.146.055.289c.005.031.012.062.017.093q.032.184.059.364l.01.071q.021.148.04.294c0,.035.009.07.013.1q.018.149.032.3l.006.058c.011.115.02.23.027.343,0,.029,0,.059.006.088q.008.131.013.261c0,.031,0,.062,0,.093,0,.111.007.22.009.329v.012C3554.127,405.956,3554.127,406.06,3554.126,406.162Z" transform="translate(-3518.574 -381.402)" fill="#bfccd9" style="mix-blend-mode: multiply;isolation: isolate"/>
        <path id="Path_39097" data-name="Path 39097" d="M3867.186,629.371c-3.717-2.31-7.586-4.386-11.381-6.566-3.934-2.26-7.851-4.551-11.714-6.931-7.654-4.716-14.937-9.972-22.264-15.173-7.311-5.189-14.64-10.362-22.185-15.208l-1.142-.732-34.074,19.581c1.627.292,3.154.552,4.273.727a33.085,33.085,0,0,0,16.291,2q.538-.059,1.082-.138l.056-.008c6.106-.88,10.4,1.857,14.887,5.184-.942,5.784,2.3,8.488,2.3,8.488l56.884,35.013a22.22,22.22,0,0,0,4.354.12c2.4-.29,5.321-.293,8.484-2.12a31.908,31.908,0,0,0,11.935-13.221C3878.782,637.214,3873.1,633.047,3867.186,629.371Z" transform="translate(-3736.118 -561.347)" fill="#191919" opacity="0.2" style="mix-blend-mode: multiply;isolation: isolate"/>
      </g>
      <g id="Group_16466" data-name="Group 16466" transform="translate(18.671 5.155)">
        <path id="Path_39098" data-name="Path 39098" d="M3704.492,360.078c2.576.62,4.138,3.271,12.6,7.168,3.987,1.836,2.928,6.936,2.28,10.362a73.344,73.344,0,0,0-9.719,1.906c-1.616.416-3.962-.4-5.685-.07-.935.178-2.31,1.337-3.229,1.544-2.807.632-3.443-1.317-4.843-1.053-.935.177-2.039,2.517-4.936,2.448a5.41,5.41,0,0,1-4.879-4.132c-.848-3.076-.723-6.673.277-8.365C3690,363.722,3693.308,357.386,3704.492,360.078Z" transform="translate(-3684.818 -357.845)" fill="url(#linear-gradient-14)"/>
        <path id="Path_39099" data-name="Path 39099" d="M3679.45,346.122c1.322-1.193,7.839-.285,13.463,1.4,2.538.762,6.282-.031,7.814.962,3.684,2.388.231,20.016-4.5,13.782-1.159-1.527-5.715-3.642-8.285-4.975-1.762-.914-3.645-1.422-5.35-2.823Z" transform="translate(-3679.45 -345.579)" fill="#ffcfb5"/>
      </g>
      <g id="Group_16472" data-name="Group 16472">
        <path id="Path_39100" data-name="Path 39100" d="M3831.971,401.757c-7.27-4.7-12.312-10.977-21.1-9.664a34.647,34.647,0,0,1-18.7-2.731c-1.2-.7-2.716-8.9-1.531-9.759.716-.52,2.952-1.2,3.434-1.688,1.338-1.365,4.146-6.167.678-13.843-3.182-7.045-4.331-7.3-4.464-8.536-.26-2.425.312-4.029,1.62-5.121,2.153-1.8,4.081-.993,5.7-2.05a10.475,10.475,0,0,1,5.876-2.027c16.949.406,27.393,20.322,29.547,22.757,2.129,2.407,10.668,5.792,15.124,7.117C3849.666,376.663,3834.7,403.52,3831.971,401.757Z" transform="translate(-3758.781 -341.094)" fill="#ffcfb5"/>
        <g id="pen">
          <path id="Path_39101" data-name="Path 39101" d="M3517.36,640.864a.468.468,0,0,1,.167-.628l1.076-1.014.644.816-1.234.79C3517.787,641.006,3517.512,641.057,3517.36,640.864Z" transform="translate(-3517.293 -600.256)" fill="#bfccd9"/>
          <g id="Group_16467" data-name="Group 16467" transform="translate(1.014 16.839)">
            <path id="Path_39102" data-name="Path 39102" d="M3552.2,453.923a4.71,4.71,0,0,1-2.648-3.357,1.513,1.513,0,0,1,.426-1.473l-12.1,9.53a6.4,6.4,0,0,0-.932.912,6.11,6.11,0,0,1-1.239,1.387,5.07,5.07,0,0,1-1.686.866,2.276,2.276,0,0,0-.572.329l-4.075,3.214a49.752,49.752,0,0,0-3.25,5.687.808.808,0,0,0,.844.989,43.079,43.079,0,0,0,6.136-1.918l4.209-3.317a1.708,1.708,0,0,0,.453-.547,4.353,4.353,0,0,1,1.2-1.339,5.633,5.633,0,0,1,1.61-.944,3.523,3.523,0,0,0,1.042-.564l12.088-9.526A1.5,1.5,0,0,1,3552.2,453.923Z" transform="translate(-3526.098 -448.859)" fill="url(#linear-gradient-15)"/>
            <path id="Path_39103" data-name="Path 39103" d="M3734.183,450.576a4.71,4.71,0,0,0-2.647-3.357c-1.266-.5-2.132.191-1.936,1.544a4.711,4.711,0,0,0,2.648,3.357C3733.513,452.621,3734.38,451.93,3734.183,450.576Z" transform="translate(-3706.144 -447.056)" fill="#353d57"/>
          </g>
          <g id="Group_16468" data-name="Group 16468" transform="translate(24.841 2.823)">
            <path id="Path_39104" data-name="Path 39104" d="M3753.448,331.347a4.131,4.131,0,0,1-2.321-2.944,1.326,1.326,0,0,1,.374-1.292l-18.066,14.237a1.326,1.326,0,0,0-.374,1.292,4.13,4.13,0,0,0,2.321,2.944,1.316,1.316,0,0,0,1.323-.063l18.066-14.237A1.317,1.317,0,0,1,3753.448,331.347Z" transform="translate(-3733.036 -326.906)" fill="url(#linear-gradient-16)"/>
            <path id="Path_39105" data-name="Path 39105" d="M3893.981,328.413a4.13,4.13,0,0,0-2.321-2.943c-1.11-.439-1.87.168-1.7,1.354a4.132,4.132,0,0,0,2.322,2.944C3893.394,330.207,3894.153,329.6,3893.981,328.413Z" transform="translate(-3871.872 -325.327)" fill="#e6edf7"/>
          </g>
          <g id="Group_16469" data-name="Group 16469" transform="translate(42.194 1.078)">
            <path id="Path_39106" data-name="Path 39106" d="M3888.109,318.3a5.575,5.575,0,0,1-3.133-3.973,1.791,1.791,0,0,1,.5-1.743l-1.2.932a1.79,1.79,0,0,0-.5,1.743,5.574,5.574,0,0,0,3.133,3.973,1.776,1.776,0,0,0,1.786-.085l1.2-.932A1.776,1.776,0,0,1,3888.109,318.3Z" transform="translate(-3883.742 -312.31)" fill="url(#linear-gradient-17)"/>
            <path id="Path_39107" data-name="Path 39107" d="M3899.628,314.342a5.575,5.575,0,0,0-3.133-3.972c-1.5-.593-2.523.226-2.291,1.828a5.574,5.574,0,0,0,3.133,3.973C3898.835,316.763,3899.86,315.944,3899.628,314.342Z" transform="translate(-3892.971 -310.177)" fill="#bfccd9"/>
          </g>
          <g id="Group_16470" data-name="Group 16470" transform="translate(43.874)">
            <path id="Path_39108" data-name="Path 39108" d="M3902.76,318.878a4.522,4.522,0,0,0-2.541-3.222c-1.215-.481-2.047.183-1.858,1.483a4.522,4.522,0,0,0,2.542,3.222C3902.117,320.841,3902.949,320.177,3902.76,318.878Z" transform="translate(-3898.334 -313.808)" fill="#758ba3" style="mix-blend-mode: multiply;isolation: isolate"/>
            <path id="Path_39109" data-name="Path 39109" d="M3905.179,306.831a4.131,4.131,0,0,1-2.322-2.944,1.329,1.329,0,0,1,.374-1.292l-2.367,1.856a1.327,1.327,0,0,0-.374,1.292,4.13,4.13,0,0,0,2.321,2.944,1.316,1.316,0,0,0,1.323-.063l2.367-1.856A1.316,1.316,0,0,1,3905.179,306.831Z" transform="translate(-3900.22 -302.39)" fill="url(#linear-gradient-18)"/>
            <path id="Path_39110" data-name="Path 39110" d="M3925.066,303.9a4.129,4.129,0,0,0-2.32-2.943c-1.111-.439-1.87.168-1.7,1.354a4.132,4.132,0,0,0,2.322,2.944C3924.479,305.69,3925.239,305.084,3925.066,303.9Z" transform="translate(-3918.411 -300.811)" fill="#3d4663"/>
          </g>
          <path id="Path_39111" data-name="Path 39111" d="M3717.271,474.572a3.05,3.05,0,0,1-2.53-1.176,3.2,3.2,0,0,1-.59-2.78c.169-.133.34,1.2,1.2,2.3S3717.441,474.439,3717.271,474.572Z" transform="translate(-3691.383 -451.056)" fill="#353d57"/>
          <path id="Path_39112" data-name="Path 39112" d="M3707.985,484.848a2.537,2.537,0,0,1-2.148-.951,2.684,2.684,0,0,1-.46-2.355c.141-.111.252,1.039.972,1.952S3708.126,484.736,3707.985,484.848Z" transform="translate(-3683.626 -460.725)" fill="#353d57"/>
          <path id="Path_39113" data-name="Path 39113" d="M3537.019,606.862c-.141.111-4.127,1.661-5.819,1.46a5.726,5.726,0,0,0,2.949-4.492c.141-.111.141.507.861,1.42S3537.16,606.751,3537.019,606.862Z" transform="translate(-3529.599 -568.928)" fill="#353d57"/>
          <g id="Group_16471" data-name="Group 16471" transform="translate(35.553 6.944)" style="isolation: isolate">
            <path id="Path_39114" data-name="Path 39114" d="M3837.8,361.426l.223,2.005a1.4,1.4,0,0,1-.469,1.176l-10.532,8.267-.951-.376,10.533-8.267a1.4,1.4,0,0,0,.469-1.176l-.277-1.94Z" transform="translate(-3826.068 -361.115)" fill="url(#linear-gradient-19)"/>
            <path id="Path_39115" data-name="Path 39115" d="M3836.793,361.115l.277,1.94a1.4,1.4,0,0,1-.469,1.176l-10.533,8.267.3-.937a1.935,1.935,0,0,1,.6-.915l8.725-6.866a.553.553,0,0,0,.187-.468l-.171-1.226Z" transform="translate(-3826.068 -361.115)" fill="url(#linear-gradient-20)"/>
          </g>
        </g>
        <path id="Path_39116" data-name="Path 39116" d="M3594.566,482.446l-7.224,5.69a6.385,6.385,0,0,0-.932.912,6.1,6.1,0,0,1-1.24,1.387,5.065,5.065,0,0,1-1.686.866,2.276,2.276,0,0,0-.572.329l-.918.724a4.286,4.286,0,0,0,3.072-.217,18.961,18.961,0,0,0,5.076-3.363,19.8,19.8,0,0,0,2.722-3.637C3593.293,484.4,3593.911,483.456,3594.566,482.446Z" transform="translate(-3574.545 -461.532)" fill="#bfccd9" style="mix-blend-mode: multiply;isolation: isolate"/>
        <path id="Path_39117" data-name="Path 39117" d="M3647.613,546.251c-4.471,1.64-7.266,2.856-9.966,2.6a60.939,60.939,0,0,1-3.809-5.361c-5.333-7.815-11.247-3.1-10.752-1.307.61,2.209,1.4,2.283,3.173,7.179,1,2.777,3.291,8.239,6.04,8.8,3.415,1.123,15.533,2.854,15.533,2.854C3658.734,555.191,3652.425,544.486,3647.613,546.251Z" transform="translate(-3610.879 -511.694)" fill="#ffcfb5"/>
        <path id="Path_39118" data-name="Path 39118" d="M3652.7,436.838c1.9,1.272,2.881,1.655,3.973,2.747.167.357.341.732.52,1.131,2.386,5.282,1.8,9.2.768,11.58-4.471,1.64-6.65,2.286-9.966,2.6a60.929,60.929,0,0,1-3.808-5.361c-3.653-5.352-7.364-5-9.435-3.463a5.152,5.152,0,0,1,4.943.375,10.21,10.21,0,0,1,3.7,3.729c2.39,4.16,3.461,6.326,3.744,6.377,5.1-.536,11.182-2.984,14.929-3.627.613-.105-1.685-1.255-1.357-5.5.187-2.454-.374-7.456-4.413-10.7-.447-.36-.294-1.56,1.341-3.773Z" transform="translate(-3621.23 -417.739)" fill="#edb79a"/>
        <path id="Path_39119" data-name="Path 39119" d="M3626.058,560.307c.132-.773,1.482-1.578,2.5-1.622.96-.042,2.21.872,2.034,3.727-.063,1.033-2.518,2.228-2.783,1.6C3627.611,563.534,3625.967,560.842,3626.058,560.307Z" transform="translate(-3613.531 -528.991)" fill="#edb79a"/>
        <path id="Path_39120" data-name="Path 39120" d="M3624.188,558.83c.132-.773,1.7-1.286,2.3-1.284.961,0,2.243.594,2.258,3.433.005,1.035-2.19,2.141-2.7,1.685A11.21,11.21,0,0,1,3624.188,558.83Z" transform="translate(-3611.877 -527.985)" fill="url(#linear-gradient-21)"/>
        <path id="Path_39121" data-name="Path 39121" d="M3701.533,605.478c-7.426,5.406-6.2,13.4-10.232,13.266-4.124-.14-4.859-5.537-7.947-4.063-13.445,6.417-21.069.623-21.069.623-3.585-.247-10.514-.471-14.362-2.389-.7-.347-3.922-2.582-6.492-9.837-.275-.282-.548-.36-.411,0,.563,1.475,2.388,6.208,2.388,6.208a25.5,25.5,0,0,0,2.206,3.458,5.7,5.7,0,0,0,2.278,1.792c1.142.491,9.693,2.069,13.51,2.667a33.39,33.39,0,0,0,17.429,1.857c8.8-1.268,13.831,4.969,21.1,9.664C3700.838,629.307,3702.116,605.054,3701.533,605.478Z" transform="translate(-3626.742 -568.06)" fill="#edb79a"/>
      </g>
      <path id="Path_39122" data-name="Path 39122" d="M3590.717,355.264l-7.236-4.967c-2,.561-4.13,5.52-4.708,7.5a16.445,16.445,0,0,1-2.026,4.384,58.064,58.064,0,0,1-4.384,6.014c-3.137,2.922-.478,7.489,3.839,5.687a18.964,18.964,0,0,0,5.076-3.363,19.8,19.8,0,0,0,2.722-3.637c.989-1.705,2.98-4.481,4.137-6.722C3588.434,359.584,3590.252,355.883,3590.717,355.264Z" transform="translate(-3564.81 -344.599)" fill="#ffcfb5"/>
      <path id="Path_39123" data-name="Path 39123" d="M3576.845,486.17s-.093.726.222.749c.819.059,2.515-1.532,2.936-2.3s.185-1.817-.244-1.938S3576.845,486.17,3576.845,486.17Z" transform="translate(-3569.977 -461.733)" fill="#edb79a"/>
      <path id="Path_39124" data-name="Path 39124" d="M3575.135,487.927a.477.477,0,0,0,.171.55c.434.3,2.4-1.427,2.82-2.2s.226-1.653-.2-1.774S3575.135,487.927,3575.135,487.927Z" transform="translate(-3568.451 -463.35)" fill="url(#linear-gradient-22)"/>
      <g id="Group_16473" data-name="Group 16473" transform="translate(67.487 31.301)">
        <path id="Path_39125" data-name="Path 39125" d="M4189.513,615.7a9.443,9.443,0,0,0-2.14-6.544l-3.355-1.945-55.069-33.281s-10.571-6.064-20.627,8.245c-8.96,12.751-2.929,24.554-2.929,24.554l56.69,34.307a22.219,22.219,0,0,0,4.354.12c2.4-.29,5.321-.292,8.484-2.12C4182.98,634.383,4189.513,623.936,4189.513,615.7Z" transform="translate(-4103.407 -572.654)" fill="#f1f4f6"/>
      </g>
      <path id="Path_39126" data-name="Path 39126" d="M3595.636,413.017c-.789-.463-1.659-1-2.477-1.408a16.644,16.644,0,0,0-2.02-1.324,27.482,27.482,0,0,1-1.4,3.9c-1.228,2.445-2.094,3.72-3.111,4.162-.538,2.4-3.942,5.7-5.439,6.571-1.655.964-3.462,2.016-6.64.826.77,1.373,2.563,2.15,4.8,1.216a18.96,18.96,0,0,0,5.076-3.363,19.79,19.79,0,0,0,2.723-3.637c.989-1.705,3.153-4.06,4.137-6.722.03-.081.107-.21.194-.383,1.207.646,1.769.828,2.756,1.271Z" transform="translate(-3567.954 -397.675)" fill="#edb79a"/>
    </g>
    <rect id="background" width="235" height="235" transform="translate(2425.612 -672.429)" fill="none"/>
    <g id="pill" transform="translate(2559.948 -567.031)">
      <path id="Path_39127" data-name="Path 39127" d="M3600.923,253.093a1.828,1.828,0,0,0-2.5-.48l-2.468,1.28-2.468,1.28a1.619,1.619,0,1,0,1.451,2.8l2.468-1.28,2.468-1.28A1.828,1.828,0,0,0,3600.923,253.093Z" transform="translate(-3592.303 -251.258)" fill="#191919" opacity="0.2"/>
      <path id="Path_39128" data-name="Path 39128" d="M3604,259.852l-2.562,1.329a1.681,1.681,0,1,1-1.506-2.9l2.562-1.329Z" transform="translate(-3597.966 -255.337)" fill="#bfccd9"/>
      <path id="Path_39129" data-name="Path 39129" d="M3603.783,258.872c-.854.443-1.314,1.32-1.006,1.915s1.291.724,2.145.281l2.3-1.193-1.139-2.2Z" transform="translate(-3601.487 -255.983)" fill="#f7f9fc"/>
      <path id="Path_39130" data-name="Path 39130" d="M3633.164,247.461l2.562-1.329a1.681,1.681,0,1,0-1.506-2.9l-2.562,1.329Z" transform="translate(-3627.126 -242.946)" fill="#d42250"/>
      <path id="Path_39131" data-name="Path 39131" d="M3632.088,246.553l1.139,2.2,2.3-1.193c.854-.443,1.314-1.32,1.006-1.915s-1.292-.724-2.146-.281Z" transform="translate(-3627.507 -244.849)" fill="#fc3a6c"/>
    </g>
    <g id="pill-2" data-name="pill" transform="translate(2561.948 -573.081)">
      <path id="Path_39132" data-name="Path 39132" d="M3618.213,199.781a1.829,1.829,0,0,0-2.506-.425l-2.439,1.334-2.439,1.334a1.619,1.619,0,1,0,1.512,2.764l2.439-1.334,2.439-1.334A1.828,1.828,0,0,0,3618.213,199.781Z" transform="translate(-3609.678 -198.062)" fill="#191919" opacity="0.2"/>
      <path id="Path_39133" data-name="Path 39133" d="M3618.645,207.977l-2.532,1.385a1.681,1.681,0,1,1-1.569-2.869l2.532-1.385Z" transform="translate(-3612.927 -203.415)" fill="#d42250"/>
      <path id="Path_39134" data-name="Path 39134" d="M3618.333,207.068c-.844.462-1.285,1.349-.963,1.937s1.306.7,2.151.234l2.273-1.243-1.187-2.171Z" transform="translate(-3616.39 -204.049)" fill="#fc3a6c"/>
      <path id="Path_39135" data-name="Path 39135" d="M3647.275,194.963l2.532-1.385a1.681,1.681,0,1,0-1.569-2.869l-2.532,1.385Z" transform="translate(-3641.558 -190.401)" fill="#bfccd9"/>
      <path id="Path_39136" data-name="Path 39136" d="M3646.154,194.139l1.187,2.171,2.272-1.243c.844-.462,1.285-1.349.963-1.937s-1.307-.7-2.151-.234Z" transform="translate(-3641.954 -192.355)" fill="#f7f9fc"/>
    </g>
    <g id="bottle" transform="translate(2524.715 -638.705)">
      <path id="Path_39137" data-name="Path 39137" d="M3318.464,28.868a22.891,22.891,0,0,1-6.234,2.389,31.925,31.925,0,0,1-14.174,0,22.885,22.885,0,0,1-6.234-2.389,12.741,12.741,0,0,1-4.138-3.6,6.759,6.759,0,0,1,0-8.184,12.743,12.743,0,0,1,4.138-3.6,22.894,22.894,0,0,1,6.233-2.389,31.925,31.925,0,0,1,14.174,0,22.9,22.9,0,0,1,6.234,2.389,12.749,12.749,0,0,1,4.138,3.6,6.759,6.759,0,0,1,0,8.184A12.75,12.75,0,0,1,3318.464,28.868Z" transform="translate(-3286.305 34.586)" fill="#191919" opacity="0.2" style="mix-blend-mode: multiply;isolation: isolate"/>
      <g id="Group_16476" data-name="Group 16476" transform="translate(4.215 9.965)">
        <path id="Path_39138" data-name="Path 39138" d="M3356.81-272.818a8.724,8.724,0,0,0-.63-2.5c-.909-2.139-2.41-3.266-4.133-4.682-.932-.766-2.324-2.14-2.372-3.417a6.826,6.826,0,0,1,.067-1.523.958.958,0,0,1,.344-.657.2.2,0,0,0,.059-.1,1.991,1.991,0,0,0-.038-.918c-.057-.114-.254-.177-.254-.177-.005-.045-.019-.4-.017-.524.006-.669.122-2.322.2-3.645.06-1,.11-1.8.11-1.8l-1.642-.037-8.576-.192-8.576.192-1.642.037s.052.8.111,1.8c.08,1.342.176,4.076.171,4.115a2.443,2.443,0,0,0-.217.19,1.566,1.566,0,0,0-.042,1.051.3.3,0,0,0,.057.107c.105.127.284.134.364.747a5.078,5.078,0,0,1,.029,1.336c-.321,2.924-2.558,3.581-3.865,4.666a8.83,8.83,0,0,0-3.061,4.759c-.593,2.292-.249,4.928-.256,7.28q-.015,5.291-.03,10.582c-.006,2.245.015,4.491-.019,6.736a9.09,9.09,0,0,0,3.143,6.6,16.288,16.288,0,0,0,6.417,3.42,26.1,26.1,0,0,0,14.229.2,16.709,16.709,0,0,0,6.682-3.338c1.9-1.654,3.511-4.183,3.418-6.762-.02-.554,0-1.112.005-1.666q.012-4.5.025-9,.014-4.8.028-9.608A30.1,30.1,0,0,0,3356.81-272.818Z" transform="translate(-3322.908 292.995)" fill="url(#linear-gradient-10)"/>
        <path id="Path_39139" data-name="Path 39139" d="M3404.741-226.785a1.417,1.417,0,0,0-.144.426l-.01.02s-2.727,3.878-9.679,3.878c-7.274,0-9.891-3.695-9.891-3.695l-.008-.016a1.6,1.6,0,0,0-.106-.438c-.084-.193,2.734,3.813,10.033,3.75A13.442,13.442,0,0,0,3404.741-226.785Z" transform="translate(-3377.763 234.411)" fill="#bfccd9" style="mix-blend-mode: multiply;isolation: isolate"/>
        <path id="Path_39140" data-name="Path 39140" d="M3382.649-239.9s2.209,4.39,9.658,4.357c2.937-.013,8.322-.74,10.191-4.392l.213.2s-2.073,4.511-10.382,4.509c-3.039,0-7.985-1.213-9.9-4.4a.093.093,0,0,1,.021-.12Z" transform="translate(-3375.564 246.048)" fill="#f7f9fc"/>
        <path id="Path_39141" data-name="Path 39141" d="M3355.749-109.121a11.452,11.452,0,0,1-3.717,3.233,20.566,20.566,0,0,1-5.6,2.146,27.966,27.966,0,0,1-6.366.716,27.972,27.972,0,0,1-6.366-.716,20.565,20.565,0,0,1-5.6-2.146,11.453,11.453,0,0,1-3.717-3.233,6.821,6.821,0,0,1-1.307-3.643l.039,21.272a6.549,6.549,0,0,0,1.268,3.735,11.451,11.451,0,0,0,3.717,3.233,20.557,20.557,0,0,0,5.6,2.146,27.972,27.972,0,0,0,6.366.716,27.966,27.966,0,0,0,6.366-.716,20.563,20.563,0,0,0,5.6-2.146,11.45,11.45,0,0,0,3.717-3.233,6.333,6.333,0,0,0,1.24-3.676l.042-21.382A6.221,6.221,0,0,1,3355.749-109.121Z" transform="translate(-3323.056 133.561)" fill="url(#linear-gradient-24)"/>
        <path id="Path_39142" data-name="Path 39142" d="M3355.749-105.991a11.452,11.452,0,0,1-3.717,3.233,20.562,20.562,0,0,1-5.6,2.146,27.965,27.965,0,0,1-6.366.716,27.971,27.971,0,0,1-6.366-.716,20.557,20.557,0,0,1-5.6-2.146,11.451,11.451,0,0,1-3.717-3.233,6.821,6.821,0,0,1-1.307-3.642l.039,21.272a6.55,6.55,0,0,0,1.268,3.735,11.454,11.454,0,0,0,3.717,3.233,20.564,20.564,0,0,0,5.6,2.146,27.979,27.979,0,0,0,6.366.716,27.979,27.979,0,0,0,6.366-.716,20.563,20.563,0,0,0,5.6-2.146,11.45,11.45,0,0,0,3.717-3.233,6.333,6.333,0,0,0,1.24-3.676l.042-21.382A6.222,6.222,0,0,1,3355.749-105.991Z" transform="translate(-3323.056 130.791)" fill="url(#linear-gradient-25)"/>
        <g id="Group_16475" data-name="Group 16475" transform="translate(1.27 24.854)">
          <g id="Group_16474" data-name="Group 16474" transform="translate(12.67 9.583)">
            <path id="Path_39143" data-name="Path 39143" d="M3462.023,19.1a13.806,13.806,0,0,1-2.644.016c-.008.429-.02,1-.028,1.43,0,.034,0,.08,0,.114a13.7,13.7,0,0,1-1.769-.276q-.049,1.134-.1,2.268a14.412,14.412,0,0,0,1.821.278q-.015.772-.031,1.544a15.6,15.6,0,0,0,2.83-.015q-.011-.772-.022-1.545a14.3,14.3,0,0,0,1.808-.3l-.086-2.268a13.517,13.517,0,0,1-1.756.3q-.011-.772-.023-1.544Z" transform="translate(-3455.927 -17.603)" fill="#29b4e3"/>
            <path id="Path_39144" data-name="Path 39144" d="M3448.735,14.036c-4.321-.24-5.257-4.809-3.263-6.417,2.053-1.638,7.707-1.56,7.551,2.446a4.3,4.3,0,0,1-4.288,3.972Zm.008-7.952c-5.752.105-5.572,5.014-3.263,7.2,3.562,3.256,8.813-.2,7.971-4.182-.355-1.929-2.109-3.022-4.588-3.007Z" transform="translate(-3443.974 -6.084)" fill="#fc3a6c"/>
          </g>
          <path id="Path_39145" data-name="Path 39145" d="M3546.559-10.927c-1.2,4.279-5.864,6.415-8.54,7.307a.751.751,0,0,0-.573.663c0,1.085,0,1.252.508,1.107,8.385-2.911,8.669-7.619,8.675-8.146a6.223,6.223,0,0,0-.016-1.03.273.273,0,0,0-.053.1Z" transform="translate(-3514.014 18.639)" fill="#29b4e3"/>
          <path id="Path_39146" data-name="Path 39146" d="M3546.484,15.4c-1.2,4.279-5.863,6.415-8.539,7.307a.752.752,0,0,0-.573.663c0,1.085,0,1.251.508,1.107,8.385-2.911,8.669-7.619,8.674-8.146a6.3,6.3,0,0,0-.016-1.03.264.264,0,0,0-.053.1Z" transform="translate(-3513.947 -4.658)" fill="#29b4e3"/>
          <path id="Path_39147" data-name="Path 39147" d="M3571.13,60.081a11.855,11.855,0,0,1-4.286,3.648.907.907,0,0,0-.441.712c0,.877,0,.877.032.959.016.038.112.222.4.079,2.619-1.483,4.466-3.31,4.491-4.443,0-.855,0-.855-.006-.919,0-.008-.027-.188-.132-.108a.36.36,0,0,0-.063.072Z" transform="translate(-3539.635 -44.199)" fill="#29b4e3"/>
          <path id="Path_39148" data-name="Path 39148" d="M3615.71-77.063a12.353,12.353,0,0,0-.288,1.645,9.7,9.7,0,0,0,.02,1.632l.018,0a.172.172,0,0,0,.037-.077,5.354,5.354,0,0,0,.232-1.653c0-1.579,0-1.579,0-1.629-.009.017-.009.017-.017.078Z" transform="translate(-3583.009 77.141)" fill="#bfccd9"/>
          <path id="Path_39149" data-name="Path 39149" d="M3338.4-27.347a14.929,14.929,0,0,1-4.176-2.87l0,1.025a14.574,14.574,0,0,0,4.176,2.87l0-1.025Z" transform="translate(-3334.189 35.62)" fill="#bfccd9"/>
          <path id="Path_39150" data-name="Path 39150" d="M3338.281,15.094a14.93,14.93,0,0,1-4.177-2.87l0,1.025a14.569,14.569,0,0,0,4.177,2.87l0-1.025Z" transform="translate(-3334.082 -1.934)" fill="#bfccd9"/>
          <path id="Path_39151" data-name="Path 39151" d="M3338.208,40.961a14.929,14.929,0,0,1-4.177-2.87l0,1.025a14.567,14.567,0,0,0,4.176,2.87l0-1.025Z" transform="translate(-3334.018 -24.823)" fill="#bfccd9"/>
          <path id="Path_39152" data-name="Path 39152" d="M3338.115,73.557a14.925,14.925,0,0,1-4.177-2.87l0,1.025a14.564,14.564,0,0,0,4.177,2.87l0-1.025Z" transform="translate(-3333.936 -53.666)" fill="#bfccd9"/>
          <path id="Path_39153" data-name="Path 39153" d="M3338.372-13.308a14.923,14.923,0,0,1-4.176-2.87l0,.513a14.571,14.571,0,0,0,4.177,2.87v-.513Z" transform="translate(-3334.165 23.197)" fill="#bfccd9"/>
          <path id="Path_39154" data-name="Path 39154" d="M3338.333.543a14.926,14.926,0,0,1-4.176-2.87v.513a14.565,14.565,0,0,0,4.177,2.87V.543Z" transform="translate(-3334.13 10.941)" fill="#bfccd9"/>
          <path id="Path_39155" data-name="Path 39155" d="M3338.354-5.354a14.926,14.926,0,0,1-4.176-2.87v.349a14.57,14.57,0,0,0,4.176,2.87v-.349Z" transform="translate(-3334.149 16.159)" fill="#bfccd9"/>
          <path id="Path_39156" data-name="Path 39156" d="M3338.239,33.724a14.928,14.928,0,0,1-4.177-2.87v.512a14.563,14.563,0,0,0,4.176,2.87v-.513Z" transform="translate(-3334.047 -18.419)" fill="#bfccd9"/>
          <path id="Path_39157" data-name="Path 39157" d="M3338.26,27.531a14.925,14.925,0,0,1-4.177-2.87v.349a14.557,14.557,0,0,0,4.176,2.87v-.349Z" transform="translate(-3334.066 -12.939)" fill="#bfccd9"/>
          <path id="Path_39158" data-name="Path 39158" d="M3338.313,9.193a14.927,14.927,0,0,1-4.176-2.87v.349a14.558,14.558,0,0,0,4.176,2.87V9.193Z" transform="translate(-3334.113 3.287)" fill="#bfccd9"/>
          <path id="Path_39159" data-name="Path 39159" d="M3338.167,59.077a14.925,14.925,0,0,1-4.177-2.87v.513a14.569,14.569,0,0,0,4.176,2.87l0-.513Z" transform="translate(-3333.983 -40.853)" fill="#bfccd9"/>
          <path id="Path_39160" data-name="Path 39160" d="M3338.188,52.992a14.936,14.936,0,0,1-4.176-2.87v.349a14.568,14.568,0,0,0,4.177,2.87v-.349Z" transform="translate(-3334.002 -35.469)" fill="#bfccd9"/>
          <path id="Path_39161" data-name="Path 39161" d="M3338.148,66.828a14.938,14.938,0,0,1-4.176-2.87v.348a14.571,14.571,0,0,0,4.177,2.87v-.348Z" transform="translate(-3333.968 -47.711)" fill="#bfccd9"/>
          <path id="Path_39162" data-name="Path 39162" d="M3548.323-14.538a18.243,18.243,0,0,1-4.173,2.079.342.342,0,0,0-.266.306c0,.517,0,.559.22.5,1.518-.562,4.362-1.851,4.385-2.424,0-.4,0-.4-.012-.44,0-.01-.039-.1-.155-.023Z" transform="translate(-3519.71 21.773)" fill="#bfccd9"/>
        </g>
      </g>
      <g id="signe" transform="translate(10.721)">
        <path id="Path_39163" data-name="Path 39163" d="M3402.727-314.794c-.077,1.323-.168,3-.175,3.669q-.088.146-.189.29a7.113,7.113,0,0,1-2.309,2.009,12.78,12.78,0,0,1-3.479,1.333,17.4,17.4,0,0,1-3.955.445,17.4,17.4,0,0,1-3.955-.445,12.778,12.778,0,0,1-3.479-1.333,7.113,7.113,0,0,1-2.31-2.009c-.067-.1-.171-.231-.229-.328-.041-.843-.112-2.3-.192-3.644a5.161,5.161,0,0,1,.42-.6,6.129,6.129,0,0,1,1.168-1.23,8.725,8.725,0,0,1,1.141-.779,12.769,12.769,0,0,1,3.479-1.333,17.365,17.365,0,0,1,3.955-.445,17.365,17.365,0,0,1,3.955.445,12.761,12.761,0,0,1,3.479,1.333,8.689,8.689,0,0,1,1.141.779,6.123,6.123,0,0,1,1.168,1.23A4.662,4.662,0,0,1,3402.727-314.794Z" transform="translate(-3382.105 326.138)" fill="#bfccd9" style="mix-blend-mode: multiply;isolation: isolate"/>
        <path id="Path_39164" data-name="Path 39164" d="M3397.366-369.174a12.776,12.776,0,0,1-3.479,1.333,17.379,17.379,0,0,1-3.956.445,17.378,17.378,0,0,1-3.956-.445,12.773,12.773,0,0,1-3.479-1.333,7.112,7.112,0,0,1-2.31-2.009,3.935,3.935,0,0,1-.77-2.284,3.934,3.934,0,0,1,.77-2.284,7.114,7.114,0,0,1,2.309-2.009,12.78,12.78,0,0,1,3.479-1.333,17.385,17.385,0,0,1,3.956-.445,17.381,17.381,0,0,1,3.955.445,12.776,12.776,0,0,1,3.479,1.333,7.118,7.118,0,0,1,2.31,2.009,3.936,3.936,0,0,1,.77,2.284,3.935,3.935,0,0,1-.77,2.284A7.117,7.117,0,0,1,3397.366-369.174Z" transform="translate(-3379.417 379.537)" fill="#f7f9fc"/>
        <path id="Path_39165" data-name="Path 39165" d="M3399.676-324.531a7.117,7.117,0,0,1-2.31,2.009,12.776,12.776,0,0,1-3.479,1.333,17.379,17.379,0,0,1-3.956.445,17.378,17.378,0,0,1-3.956-.445,12.773,12.773,0,0,1-3.479-1.333,7.112,7.112,0,0,1-2.31-2.009,3.934,3.934,0,0,1-.77-2.284v6.393a3.934,3.934,0,0,0,.77,2.284,7.112,7.112,0,0,0,2.31,2.009,12.774,12.774,0,0,0,3.479,1.333,17.379,17.379,0,0,0,3.956.445,17.372,17.372,0,0,0,3.956-.445,12.772,12.772,0,0,0,3.479-1.333,7.117,7.117,0,0,0,2.31-2.009,3.936,3.936,0,0,0,.77-2.284v-6.393A3.936,3.936,0,0,1,3399.676-324.531Z" transform="translate(-3379.417 332.886)" fill="url(#linear-gradient-26)"/>
        <g id="Group_16477" data-name="Group 16477" transform="translate(1.026 9.857)" style="mix-blend-mode: multiply;isolation: isolate">
          <path id="Path_39166" data-name="Path 39166" d="M3388.415-285.635a.29.29,0,0,1-.084-.2v-2.847a.29.29,0,0,1,.5-.2.29.29,0,0,1,.084.2v2.847A.29.29,0,0,1,3388.415-285.635Z" transform="translate(-3388.331 289.546)" fill="#bfccd9"/>
          <path id="Path_39167" data-name="Path 39167" d="M3403.744-273.475a.29.29,0,0,1-.123-.237v-2.962a.29.29,0,0,1,.457-.237.29.29,0,0,1,.122.237v2.962A.29.29,0,0,1,3403.744-273.475Z" transform="translate(-3401.86 278.917)" fill="#bfccd9"/>
          <path id="Path_39168" data-name="Path 39168" d="M3420.291-265.152a.289.289,0,0,1-.167-.263v-3.032a.29.29,0,0,1,.412-.263.29.29,0,0,1,.168.263v3.032A.29.29,0,0,1,3420.291-265.152Z" transform="translate(-3416.463 271.637)" fill="#bfccd9"/>
          <path id="Path_39169" data-name="Path 39169" d="M3439.727-259.758a.289.289,0,0,1-.212-.279v-3.069a.29.29,0,0,1,.368-.279.29.29,0,0,1,.211.279v3.069A.289.289,0,0,1,3439.727-259.758Z" transform="translate(-3433.622 266.912)" fill="#bfccd9"/>
          <path id="Path_39170" data-name="Path 39170" d="M3461.621-257.138a.29.29,0,0,1-.29-.29v-3.092a.29.29,0,0,1,.29-.29.29.29,0,0,1,.29.29v3.092A.29.29,0,0,1,3461.621-257.138Z" transform="translate(-3452.926 264.622)" fill="#bfccd9"/>
          <path id="Path_39171" data-name="Path 39171" d="M3485.778-258.732a.29.29,0,0,1-.332-.287V-262.1a.29.29,0,0,1,.248-.287.29.29,0,0,1,.332.287v3.085A.29.29,0,0,1,3485.778-258.732Z" transform="translate(-3474.264 266.025)" fill="#bfccd9"/>
          <path id="Path_39172" data-name="Path 39172" d="M3510.192-264.6a.29.29,0,0,1-.381-.275v-3.061a.29.29,0,0,1,.2-.275.29.29,0,0,1,.381.275v3.061A.289.289,0,0,1,3510.192-264.6Z" transform="translate(-3495.824 271.183)" fill="#bfccd9"/>
          <path id="Path_39173" data-name="Path 39173" d="M3532.612-274.411a.29.29,0,0,1-.425-.256v-3.016a.29.29,0,0,1,.154-.256.29.29,0,0,1,.425.256v3.016A.289.289,0,0,1,3532.612-274.411Z" transform="translate(-3515.623 279.81)" fill="#bfccd9"/>
          <path id="Path_39174" data-name="Path 39174" d="M3551.806-290.5a.29.29,0,0,1-.476-.223v-2.916a.29.29,0,0,1,.1-.223.29.29,0,0,1,.476.223v2.916A.289.289,0,0,1,3551.806-290.5Z" transform="translate(-3532.562 293.928)" fill="#bfccd9"/>
        </g>
        <path id="Path_39175" data-name="Path 39175" d="M3416.041-356.631c1.374,1.306,1.084,3.035-.868,4.162a9.2,9.2,0,0,1-8.313,0c-2.1-1.211-2.275-3.117-.534-4.446l.61.353.1-.81.1-.81-1.4.06-1.4.06.66.381a4.783,4.783,0,0,0-1.156,1.131,2.9,2.9,0,0,0-.567,1.682,2.9,2.9,0,0,0,.567,1.682,5.237,5.237,0,0,0,1.7,1.479,9.416,9.416,0,0,0,2.562.982,12.805,12.805,0,0,0,2.913.327,12.8,12.8,0,0,0,2.913-.327,9.41,9.41,0,0,0,2.562-.982,5.239,5.239,0,0,0,1.7-1.479,2.9,2.9,0,0,0,.567-1.682,2.9,2.9,0,0,0-.567-1.682,4.476,4.476,0,0,0-.8-.858Z" transform="translate(-3400.527 360.64)" fill="#e6edf7"/>
      </g>
    </g>
  </g>
</svg>
