<svg xmlns="http://www.w3.org/2000/svg" width="160.7" height="93.51" viewBox="0 0 160.7 93.51">
  <g id="Group_17741" data-name="Group 17741" transform="translate(-2427.65 -946.951)">
    <path id="Path_41226" data-name="Path 41226" d="M2568.724,991.046c-2.889-4.765-8.056-7.9-11.453-12.354-3.763-4.935-5.112-11.146-8.209-16.479-6.656-11.466-22-17.7-35.366-14.367-8.028,2-14.831,6.9-22.1,10.7-10.187,5.331-18.528,5.336-29.317,2.588-8.642-2.2-17.262,1.835-24.356,6.216-28.6,17.659,10.294,59.237,22.413,71.139h81.753l.159-.122c4.713-3.678,8.695-7.823,13.5-11.377a45.468,45.468,0,0,0,12.526-15.126C2571.608,1005.37,2572.524,997.313,2568.724,991.046Z" transform="translate(0 0)" fill="#4c98c4" opacity="0.22" style="mix-blend-mode: multiply;isolation: isolate"/>
    <g id="Group_17702" data-name="Group 17702" transform="translate(2453.318 982.908)">
      <rect id="Rectangle_4905" data-name="Rectangle 4905" width="0.8" height="2.456" transform="translate(9.462 52.241)" fill="#899ea9"/>
      <rect id="Rectangle_4906" data-name="Rectangle 4906" width="0.8" height="2.456" transform="translate(22.723 52.241)" fill="#899ea9"/>
      <rect id="Rectangle_4907" data-name="Rectangle 4907" width="11.371" height="1.6" transform="translate(9.243 19.33)" fill="#fff"/>
      <rect id="Rectangle_4908" data-name="Rectangle 4908" width="2.649" height="1.6" transform="translate(20.614 19.33)" fill="#fff"/>
      <rect id="Rectangle_4909" data-name="Rectangle 4909" width="11.371" height="29.939" transform="translate(9.243 20.93)" fill="#eefaff"/>
      <rect id="Rectangle_4910" data-name="Rectangle 4910" width="2.649" height="29.939" transform="translate(20.614 20.93)" fill="#fff"/>
      <g id="Group_17701" data-name="Group 17701" transform="translate(0 0)">
        <rect id="Rectangle_4911" data-name="Rectangle 4911" width="1.143" height="2.666" transform="translate(15.073)" fill="#fff"/>
        <path id="Path_41227" data-name="Path 41227" d="M2696.057,1159.93a6.829,6.829,0,0,1-2.4-.495l.271-.716a4.681,4.681,0,0,0,3.223.264,3.162,3.162,0,0,0,1.75-1.734c.79-1.669.937-4.422.392-7.365-.473-2.557-1.408-4.754-2.224-5.223a4.588,4.588,0,0,0-2.658-.644,4.514,4.514,0,0,0-1.71.479.326.326,0,0,0-.176.292v.815h-.766v-.815a1.088,1.088,0,0,1,.593-.974,5.284,5.284,0,0,1,2-.562,5.337,5.337,0,0,1,3.1.744,4.461,4.461,0,0,1,1.542,2.138,17.1,17.1,0,0,1,1.053,3.609,19.156,19.156,0,0,1,.326,4.139,9.538,9.538,0,0,1-.779,3.693,3.9,3.9,0,0,1-2.181,2.126A3.962,3.962,0,0,1,2696.057,1159.93Z" transform="translate(-2669.024 -1143.219)" fill="#597099"/>
        <path id="Path_41228" data-name="Path 41228" d="M2574.131,1170.255a12.458,12.458,0,0,1-3.945-2.51,7.262,7.262,0,0,1-2.451-4.3,6.886,6.886,0,0,1,.223-2.675,4.424,4.424,0,0,1,.919-1.707,1.757,1.757,0,0,1,1.188-.673c.712,0,4.511,0,4.549,0v.766c-.038,0-3.836,0-4.547,0a1.134,1.134,0,0,0-.622.421,5.016,5.016,0,0,0-.947,3.793,6.2,6.2,0,0,0,2.213,3.817,11.824,11.824,0,0,0,3.687,2.35Z" transform="translate(-2567.694 -1155.592)" fill="#597099"/>
        <rect id="Rectangle_4912" data-name="Rectangle 4912" width="3.032" height="3.524" transform="translate(6.883 3.445)" fill="#c2e8f2"/>
        <rect id="Rectangle_4913" data-name="Rectangle 4913" width="0.711" height="14.706" transform="translate(18.954 2.195)" fill="#fff"/>
        <rect id="Rectangle_4914" data-name="Rectangle 4914" width="7.167" height="14.706" transform="translate(11.787 2.195)" fill="#eefaff"/>
        <path id="Path_41229" data-name="Path 41229" d="M2603.528,1184.978h-4.408a.652.652,0,0,1-.652-.652v-7.794a2.856,2.856,0,1,1,5.711,0v7.794A.652.652,0,0,1,2603.528,1184.978Z" transform="translate(-2592.828 -1168.078)" fill="#c2e8f2"/>
        <path id="Path_41230" data-name="Path 41230" d="M2605.5,1177.671a2.254,2.254,0,0,0-2.254-2.255h-.429a2.255,2.255,0,0,0-2.254,2.255v4.364h4.938Z" transform="translate(-2594.541 -1169.499)" fill="#ebf6ff"/>
        <path id="Path_41231" data-name="Path 41231" d="M2600.566,1211.528v3.276a.52.52,0,0,0,.52.52h3.9a.52.52,0,0,0,.52-.52v-3.276Z" transform="translate(-2594.541 -1198.992)" fill="#9cc7e8"/>
        <rect id="Rectangle_4915" data-name="Rectangle 4915" width="2.646" height="3.524" transform="translate(7.086 3.445)" fill="#ebf6ff"/>
        <path id="Path_41232" data-name="Path 41232" d="M2606.917,1159.568H2603.8a.265.265,0,0,1,0-.529h3.114a.265.265,0,0,1,0,.529Z" transform="translate(-2596.969 -1156.123)" fill="#db6b63"/>
        <path id="Path_41233" data-name="Path 41233" d="M2647.506,1164.912a1.775,1.775,0,1,1-1.775-1.775A1.775,1.775,0,0,1,2647.506,1164.912Z" transform="translate(-2629.979 -1159.47)" fill="#b0e1ff"/>
        <path id="Path_41234" data-name="Path 41234" d="M2648.276,1165.9a1.552,1.552,0,1,1-1.552-1.552A1.552,1.552,0,0,1,2648.276,1165.9Z" transform="translate(-2630.972 -1160.463)" fill="#ebf6ff"/>
        <path id="Path_41235" data-name="Path 41235" d="M2639.006,1189.214a.517.517,0,1,1-.517-.517A.517.517,0,0,1,2639.006,1189.214Z" transform="translate(-2625.091 -1180.345)" fill="#9cc7e8"/>
        <path id="Path_41236" data-name="Path 41236" d="M2664.355,1189.214a.517.517,0,1,1-.517-.517A.517.517,0,0,1,2664.355,1189.214Z" transform="translate(-2645.794 -1180.345)" fill="#9cc7e8"/>
        <path id="Path_41237" data-name="Path 41237" d="M2664.355,1199.383a.517.517,0,1,1-.517-.517A.517.517,0,0,1,2664.355,1199.383Z" transform="translate(-2645.794 -1188.651)" fill="#db6b63"/>
        <circle id="Ellipse_1704" data-name="Ellipse 1704" cx="0.947" cy="0.947" r="0.947" transform="translate(14.719 12.41)" fill="#9cc7e8"/>
        <path id="Path_41238" data-name="Path 41238" d="M2644.2,1210.519h-2.326a1.12,1.12,0,0,1-1.119-1.119v-.835a1.12,1.12,0,0,1,1.119-1.119h2.326a1.12,1.12,0,0,1,1.119,1.119v.835A1.12,1.12,0,0,1,2644.2,1210.519Zm-2.326-2.818a.865.865,0,0,0-.864.864v.835a.865.865,0,0,0,.864.864h2.326a.865.865,0,0,0,.864-.864v-.835a.865.865,0,0,0-.864-.864Z" transform="translate(-2627.365 -1195.658)" fill="#9cc7e8"/>
        <path id="Path_41239" data-name="Path 41239" d="M2604.309,1180.553a.255.255,0,0,1-.255-.246,1.878,1.878,0,0,1,.482-1.623.262.262,0,0,1,.376-.041.256.256,0,0,1,.023.36c-.257.291-.4.456-.371,1.284a.256.256,0,0,1-.246.265Z" transform="translate(-2597.386 -1172.084)" fill="#c2e8f2"/>
        <path id="Path_41240" data-name="Path 41240" d="M2604.305,1198.634a.255.255,0,0,1-.255-.255v-3.488a.255.255,0,1,1,.51,0v3.488A.255.255,0,0,1,2604.305,1198.634Z" transform="translate(-2597.386 -1185.195)" fill="#c2e8f2"/>
        <rect id="Rectangle_4916" data-name="Rectangle 4916" width="3.032" height="3.524" transform="translate(24.578 6.969) rotate(180)" fill="#c2e8f2"/>
        <path id="Path_41241" data-name="Path 41241" d="M2678.061,1184.978h4.408a.652.652,0,0,0,.652-.652v-7.794a2.856,2.856,0,0,0-5.712,0v7.794A.652.652,0,0,0,2678.061,1184.978Z" transform="translate(-2657.299 -1168.078)" fill="#c2e8f2"/>
        <path id="Path_41242" data-name="Path 41242" d="M2679.534,1177.671a2.255,2.255,0,0,1,2.255-2.255h.428a2.255,2.255,0,0,1,2.255,2.255v4.364h-4.938Z" transform="translate(-2659.036 -1169.499)" fill="#ebf6ff"/>
        <path id="Path_41243" data-name="Path 41243" d="M2684.472,1211.528v3.276a.52.52,0,0,1-.52.52h-3.9a.52.52,0,0,1-.52-.52v-3.276Z" transform="translate(-2659.036 -1198.992)" fill="#9cc7e8"/>
        <rect id="Rectangle_4917" data-name="Rectangle 4917" width="2.646" height="3.524" transform="translate(24.375 6.969) rotate(180)" fill="#ebf6ff"/>
        <path id="Path_41244" data-name="Path 41244" d="M2683.894,1159.568h3.113a.265.265,0,0,0,0-.529h-3.113a.265.265,0,0,0,0,.529Z" transform="translate(-2662.38 -1156.123)" fill="#db6b63"/>
        <path id="Path_41245" data-name="Path 41245" d="M2698.511,1180.546a.258.258,0,0,1-.255-.265c.032-.828-.114-.993-.355-1.266a.262.262,0,0,1,.007-.378.255.255,0,0,1,.36.023,1.893,1.893,0,0,1,.5,1.641A.256.256,0,0,1,2698.511,1180.546Z" transform="translate(-2673.973 -1172.077)" fill="#c2e8f2"/>
        <path id="Path_41246" data-name="Path 41246" d="M2700.459,1198.634a.255.255,0,0,1-.255-.255v-3.488a.255.255,0,0,1,.511,0v3.488A.256.256,0,0,1,2700.459,1198.634Z" transform="translate(-2675.917 -1185.195)" fill="#c2e8f2"/>
        <path id="Path_41247" data-name="Path 41247" d="M2595.951,1165.907a.6.6,0,0,1-.6-.6v-.34a.6.6,0,1,1,1.2,0v.34A.6.6,0,0,1,2595.951,1165.907Z" transform="translate(-2590.282 -1160.475)" fill="#c2e8f2"/>
        <rect id="Rectangle_4918" data-name="Rectangle 4918" width="0.727" height="0.861" transform="translate(5.286 3.316)" fill="#c2e8f2"/>
        <rect id="Rectangle_4919" data-name="Rectangle 4919" width="1.616" height="0.451" transform="translate(4.832 2.955)" fill="#c2e8f2"/>
        <rect id="Rectangle_4920" data-name="Rectangle 4920" width="0.556" height="1.411" transform="translate(22.846 2.034)" fill="#c2e8f2"/>
      </g>
      <rect id="Rectangle_4921" data-name="Rectangle 4921" width="24.558" height="2.779" transform="translate(3.17 16.75)" fill="#eefaff"/>
      <rect id="Rectangle_4922" data-name="Rectangle 4922" width="22.28" height="1.72" transform="translate(5.069 50.503)" fill="#fff"/>
      <rect id="Rectangle_4923" data-name="Rectangle 4923" width="22.28" height="0.62" transform="translate(5.069 52.223)" fill="#cee8ef"/>
      <path id="Path_41248" data-name="Path 41248" d="M2614.72,1435.415A1.724,1.724,0,1,1,2613,1433.6,1.768,1.768,0,0,1,2614.72,1435.415Z" transform="translate(-2603.288 -1380.364)" fill="#899ea9"/>
      <path id="Path_41249" data-name="Path 41249" d="M2690.441,1435.415a1.724,1.724,0,1,1-1.723-1.811A1.768,1.768,0,0,1,2690.441,1435.415Z" transform="translate(-2665.13 -1380.364)" fill="#899ea9"/>
    </g>
    <g id="Group_17708" data-name="Group 17708" transform="translate(2534.466 966.789)">
      <g id="Group_17703" data-name="Group 17703" transform="translate(6.52 72.314)">
        <path id="Path_41250" data-name="Path 41250" d="M3046.618,1450.959h21.474a.614.614,0,0,0,0-1.229h-21.474a.614.614,0,1,0,0,1.229Z" transform="translate(-3046.004 -1449.73)" fill="#3a90bd"/>
      </g>
      <g id="Group_17707" data-name="Group 17707" transform="translate(0 0)">
        <g id="Group_17704" data-name="Group 17704" transform="translate(8.063)">
          <path id="Path_41251" data-name="Path 41251" d="M3065.6,1107.325c.751-2.21,4.956-.531,6.668-5.149.351-.947-3.3-2.585-3.224-3.71.034-.527,3.851-.492,3.869-1.041.211-6.443-2.922-10.862-1.689-14.66.431-1.329-2.376-1.384-2.051-2.421.111-.355,2.924.364,3.174.079,1.462-1.662,4.611-4.806,5.162-6.695.4-1.383.154-3.6-.149-5.691-.066-.455-2.935-.352-3-.786-.215-1.441,2.888-.43,2.981-1.165.256-2.026,3.172-9.548-.159-10.831-2.487-.958-8.915,8.674-9.7,11.24-.091.3,2.326,2.894,2.014,3.123-.274.2-3.413-2.066-3.729-1.845-2.445,1.711-5.909,3.987-6.668,6.274-.969,2.92,1.1,8.453.781,10.292-.5,2.868-4.625,8.147-5.386,13.512-.047.329,3.956-.453,3.937-.123-.035.576-4.062,2.263-4,2.835.045.415,7.363-3.02,7.466-2.61.137.544-6.917,4.932-6.663,5.463,1.935,4.051,5.471,2.561,7.135,2.5A5.315,5.315,0,0,1,3065.6,1107.325Z" transform="translate(-3054.423 -1055.188)" fill="#db6b63"/>
          <path id="Path_41252" data-name="Path 41252" d="M3113.947,1301.719c-.224-.055-.448-.1-.673-.146a122.448,122.448,0,0,0,.471,18.609.427.427,0,0,0,.847-.1A126.145,126.145,0,0,1,3113.947,1301.719Z" transform="translate(-3102.374 -1256.415)" fill="#8dccf2"/>
          <path id="Path_41253" data-name="Path 41253" d="M3123.886,1097.325c-.143-.123-.226.043-.627.509-5.838,7.368-8.315,22.292-9,35.461q.33.058.658.132c.535-13.052,2.82-27.395,8.094-34.8.395-.53.591-.754.883-1.1A.142.142,0,0,0,3123.886,1097.325Z" transform="translate(-3103.295 -1089.57)" fill="#f7f6f1"/>
        </g>
        <path id="Path_41254" data-name="Path 41254" d="M3097.525,1145.073c1.53-1.922,4.827.99,8.438-2.729.258-.265-3.886-2.61-3.677-2.925.33-.5,4.978,1,5.208.4,1.524-4,1.116-9.977,2.6-14.054.132-.364-2.646-2.266-2.481-2.6.2-.408,3.355.768,3.6.417,2.139-3.06,5.721-4.1,8.259-5.869.413-.289-3.155-4.458-2.807-4.8.24-.235,4.414,3.377,4.614,3.108,1.756-2.363,1.824-5.806,2.206-8.2.1-.6-2.172-1.52-2.005-1.956.131-.343,2.677-.242,2.887-.446,1.54-1.5,5.362-5.489,3.161-7.812-.279-.295-2.136,2.37-2.454,2.255-.415-.151.7-3.022.226-2.917-2.676.6-6.179,4.835-9.624,7.277-.279.2.912,3.481.635,3.652-.31.191-2.088-2.734-2.4-2.583-2.527,1.239-8.814,2.105-10.992,4.5-.158.174,5.837,4.781,5.705,4.989-.167.265-6.454-3.858-6.586-3.547-1.194,2.828-1.038,7.323-2.007,9.032-1.511,2.665-7.48,6.427-10.143,11.471-.164.31,4.081.959,3.944,1.278-.239.558-4.83.8-4.972,1.385-.1.427,8.369-.373,8.325.07-.058.588-8.607,2.426-8.545,3.042.476,4.7,4.51,4.484,6.181,5.012A5.593,5.593,0,0,1,3097.525,1145.073Z" transform="translate(-3074.307 -1089.287)" fill="#8dccf2"/>
        <path id="Path_41255" data-name="Path 41255" d="M3144.739,1171.511a.146.146,0,0,1,.188.223c-11.139,9.513-18.1,30.192-19.733,44.814a.375.375,0,1,1-.746-.083C3125.939,1203.117,3132.977,1181.364,3144.739,1171.511Z" transform="translate(-3103.549 -1150.161)" fill="#8dccf2"/>
        <path id="Path_41256" data-name="Path 41256" d="M3153.932,1171.511c-8.9,7.457-15.1,21.727-18.23,34.013a.652.652,0,0,1,.667.091c3.1-12.678,9.2-26.574,17.751-33.881A.146.146,0,0,0,3153.932,1171.511Z" transform="translate(-3112.741 -1150.161)" fill="#f7f6f1"/>
        <g id="Group_17706" data-name="Group 17706" transform="translate(0 13.927)">
          <g id="Group_17705" data-name="Group 17705">
            <path id="Path_41257" data-name="Path 41257" d="M3027.576,1173.977c-.861-1.746-4.157.1-6.076-3.533-.394-.745,2.446-2.5,2.263-3.42-.086-.432-3.239.012-3.313-.44-.876-5.306,1.234-9.3-.2-12.31-.5-1.052,1.814-1.4,1.433-2.226-.131-.282-2.379.619-2.616.411-1.391-1.215-4.338-3.474-5-4.976a13.092,13.092,0,0,1-.5-4.724c0-.384,2.389-.611,2.4-.977.021-1.215-2.436-.041-2.593-.639-.432-1.648-3.664-7.552-1.048-8.976,1.953-1.063,8.319,6.2,9.25,8.24.107.234-1.608,2.647-1.325,2.8.249.136,2.6-2.081,2.884-1.932,2.209,1.149,5.322,2.655,6.2,4.463,1.119,2.31.012,7.112.475,8.6.722,2.318,4.712,6.235,5.926,10.59.074.268-3.322.056-3.27.327.091.472,3.606,1.43,3.618,1.909.008.348-6.419-1.7-6.459-1.346-.054.465,6.258,3.326,6.106,3.793-1.159,3.561-4.246,2.714-5.63,2.842A4.434,4.434,0,0,0,3027.576,1173.977Z" transform="translate(-3011.153 -1131.9)" fill="#f7f6f1"/>
            <path id="Path_41258" data-name="Path 41258" d="M3026.856,1173.412a.171.171,0,0,1-.147-.091c-.315-.639-1.016-.742-1.9-.872a4.8,4.8,0,0,1-4.172-2.657c-.254-.482.372-1.116,1.1-1.85.535-.543,1.2-1.215,1.154-1.592a5.777,5.777,0,0,0-1.476-.1c-1.169,0-1.784-.015-1.842-.365a23.238,23.238,0,0,1,.077-6.794c.249-2.117.465-3.945-.262-5.472-.327-.686.307-1.119.816-1.466.433-.3.7-.5.632-.722a6.022,6.022,0,0,0-1.161.247c-.906.245-1.265.324-1.43.18-.255-.223-.57-.487-.9-.766-1.512-1.269-3.584-3.007-4.138-4.267a13.184,13.184,0,0,1-.51-4.792c0-.306.463-.436,1.343-.658a4.333,4.333,0,0,0,1.053-.344.339.339,0,0,0-.1-.262c-.216-.194-.8-.121-1.262-.062-.6.076-1.125.141-1.226-.246a16.186,16.186,0,0,0-.563-1.518,23.34,23.34,0,0,1-1.385-4.235c-.314-1.737.016-2.884.98-3.409a1.468,1.468,0,0,1,1.179-.007c2.665.888,7.5,6.588,8.3,8.323.075.164-.058.423-.615,1.374a13.1,13.1,0,0,0-.685,1.264c.262-.161.748-.547,1.094-.821,1.14-.9,1.479-1.134,1.69-1.024l.479.248c2.207,1.14,4.953,2.559,5.792,4.289.692,1.428.561,3.693.445,5.692a10.762,10.762,0,0,0,.039,2.928,16.125,16.125,0,0,0,2.111,3.552,24.858,24.858,0,0,1,3.816,7.042.2.2,0,0,1-.032.17c-.113.152-.453.178-1.743.2-.451.008-1.089.019-1.388.06a11.645,11.645,0,0,0,1.579.717c1.372.551,1.932.807,1.939,1.129a.188.188,0,0,1-.073.154c-.171.135-.694.032-3.292-.651-1.019-.268-2.347-.618-2.92-.7.472.348,1.738,1.026,2.707,1.545,2.807,1.5,3.318,1.846,3.217,2.158-.993,3.05-3.357,2.99-4.92,2.949a7.807,7.807,0,0,0-.851.006,4.282,4.282,0,0,0-2.409,1.462A.164.164,0,0,1,3026.856,1173.412Zm-5.369-7.493c1.084,0,1.653.022,1.717.344.108.543-.547,1.206-1.239,1.908-.527.534-1.182,1.2-1.04,1.467a4.473,4.473,0,0,0,3.93,2.486c.855.125,1.6.235,2.028.846a4.316,4.316,0,0,1,2.479-1.407,7.942,7.942,0,0,1,.889-.007c1.546.04,3.662.095,4.587-2.682a4.135,4.135,0,0,0-.985-.676c-.577-.337-1.332-.741-2.061-1.132-2.6-1.394-3.087-1.71-3.053-1.994a.192.192,0,0,1,.084-.138c.1-.066.25-.1,1.254.134.609.141,1.4.349,2.166.55.949.25,2.177.573,2.748.668a14.344,14.344,0,0,0-1.528-.678c-1.293-.519-1.825-.76-1.881-1.05a.2.2,0,0,1,.042-.162c.12-.148.484-.175,1.766-.2a13.069,13.069,0,0,0,1.432-.07,25.044,25.044,0,0,0-3.737-6.828,16.24,16.24,0,0,1-2.155-3.641,10.789,10.789,0,0,1-.053-3.045c.108-1.862.242-4.179-.413-5.53-.791-1.632-3.484-3.023-5.647-4.141l-.452-.234a8.807,8.807,0,0,0-1.363.976c-1.065.844-1.356,1.047-1.551.94a.222.222,0,0,1-.106-.137c-.062-.226.184-.682.762-1.668a8.216,8.216,0,0,0,.587-1.1,23.084,23.084,0,0,0-3.393-4.382,14.678,14.678,0,0,0-4.7-3.74,1.167,1.167,0,0,0-.918-.016c-1.933,1.052-.377,4.922.552,7.234a15.878,15.878,0,0,1,.576,1.557c.029.11.617.036.869,0,.587-.074,1.194-.15,1.522.144a.667.667,0,0,1,.207.535c0,.293-.449.418-1.3.632a4.176,4.176,0,0,0-1.1.364,12.919,12.919,0,0,0,.483,4.635c.524,1.19,2.562,2.9,4.049,4.148.329.276.639.536.895.759a5.393,5.393,0,0,0,1.141-.238c.973-.263,1.408-.368,1.529-.107.237.511-.276.861-.729,1.17-.567.387-.9.651-.7,1.054.768,1.612.548,3.484.292,5.651a23.026,23.026,0,0,0-.082,6.682,5.456,5.456,0,0,0,1.522.111Z" transform="translate(-3010.432 -1131.171)" fill="#8dccf2"/>
          </g>
          <path id="Path_41259" data-name="Path 41259" d="M3044,1211.177s0-.188,0-.54c0-.174-.008-.389-.013-.642s-.015-.545-.029-.871c-.05-1.306-.165-3.172-.389-5.406-.111-1.117-.249-2.326-.416-3.6s-.362-2.62-.588-4.005-.48-2.815-.767-4.261-.6-2.911-.949-4.368-.725-2.907-1.128-4.325-.84-2.8-1.3-4.128-.941-2.595-1.445-3.777-1.021-2.283-1.546-3.273a29.518,29.518,0,0,0-1.561-2.626,19.981,19.981,0,0,0-1.418-1.876l-.156-.18-.074-.086-.075-.081-.278-.3c-.042-.047-.086-.089-.128-.13l-.119-.118c-.076-.075-.145-.144-.207-.2l-.4-.36a.126.126,0,0,1-.012-.18.125.125,0,0,1,.176-.009l.407.363c.065.061.135.13.214.206l.123.119c.042.042.088.084.132.131l.285.3.077.081.077.087.16.181a20.29,20.29,0,0,1,1.458,1.887,29.824,29.824,0,0,1,1.605,2.638c.541.994,1.074,2.1,1.593,3.284s1.016,2.458,1.494,3.786.926,2.717,1.349,4.137.817,2.873,1.179,4.333.7,2.927,1,4.378.575,2.882.816,4.272.452,2.737.633,4.018.333,2.495.457,3.617c.249,2.245.384,4.125.448,5.444.034.659.048,1.179.058,1.535s.01.539.01.539a.375.375,0,1,1-.751.014Z" transform="translate(-3027.208 -1159.451)" fill="#8dccf2"/>
        </g>
        <path id="Path_41260" data-name="Path 41260" d="M3078.877,1398.5l.427.8s.288,8.46,2.417,8.46h7.752c2.1,0,2.418-8.354,2.418-8.354l.427-.91a.342.342,0,0,0-.342-.342h-12.759A.341.341,0,0,0,3078.877,1398.5Z" transform="translate(-3066.332 -1335.294)" fill="#8dccf2"/>
        <path id="Path_41261" data-name="Path 41261" d="M3099.828,1398.5l.427.8s.288,8.46,2.417,8.46h3.912c2.1,0,2.418-8.354,2.418-8.354l.427-.91a.342.342,0,0,0-.342-.342h-8.918A.341.341,0,0,0,3099.828,1398.5Z" transform="translate(-3083.443 -1335.294)" fill="#8dccf2"/>
      </g>
    </g>
    <g id="patient" transform="translate(2438.306 1011.823)">
      <g id="Group_17711" data-name="Group 17711" transform="translate(0 2.175)">
        <path id="Path_41262" data-name="Path 41262" d="M3004.34,1312.757v3.449h18.345a1.151,1.151,0,0,0,1.15-1.151v-1.148a1.15,1.15,0,0,0-1.15-1.15Z" transform="translate(-2909.297 -1312.757)" fill="#8dccf2"/>
        <g id="Group_17709" data-name="Group 17709" transform="translate(0 0)">
          <path id="Path_41263" data-name="Path 41263" d="M2493.352,1316.706a8.365,8.365,0,0,1-5.678-2.974q-.084-.091-.167-.186h98.143a1.005,1.005,0,0,1,1.006,1.006v1.147a1.007,1.007,0,0,1-1.006,1.006Z" transform="translate(-2487.192 -1313.402)" fill="#f7f6f1"/>
          <path id="Path_41264" data-name="Path 41264" d="M2584.246,1313.047a.861.861,0,0,1,.862.862v1.147a.863.863,0,0,1-.862.862h-92.295a8.193,8.193,0,0,1-5.523-2.871Zm0-.289h-98.458q.185.22.376.428a8.5,8.5,0,0,0,5.781,3.021h92.3a1.15,1.15,0,0,0,1.151-1.151v-1.147a1.15,1.15,0,0,0-1.151-1.151Z" transform="translate(-2485.788 -1312.758)" fill="#8dccf2"/>
        </g>
        <path id="Path_41265" data-name="Path 41265" d="M2679.639,1313.346c-5.378.55-15.839.381-17.842.66-2.4.335-16.182.745-17.74.476s-7.552.388-12.323.748-25.8.719-27.639-.49c-.932-.611-1.767-1.4-2.735-1.983h77.275A1.151,1.151,0,0,1,2679.639,1313.346Z" transform="translate(-2580.177 -1312.758)" fill="#bfe9ff" style="mix-blend-mode: multiply;isolation: isolate"/>
        <path id="Rectangle_4924" data-name="Rectangle 4924" d="M10.963,0h37.76a10.96,10.96,0,0,1,10.96,10.96v0A10.963,10.963,0,0,1,48.721,21.924H10.96A10.96,10.96,0,0,1,0,10.963v0A10.963,10.963,0,0,1,10.963,0Z" transform="translate(27.72 3.457)" fill="#8dccf2"/>
        <g id="Group_17710" data-name="Group 17710" transform="translate(18.372 3.313)">
          <path id="Rectangle_4925" data-name="Rectangle 4925" d="M10.959,0H48.722A10.962,10.962,0,0,1,59.684,10.962v0A10.962,10.962,0,0,1,48.722,21.924H10.959A10.959,10.959,0,0,1,0,10.965v-.006A10.959,10.959,0,0,1,10.959,0Z" transform="translate(0.144 0.145)" fill="#f7f6f1"/>
          <path id="Path_41266" data-name="Path 41266" d="M2643.627,1353.047h-55.235a2.371,2.371,0,0,1-2.368-2.369V1333.2a2.371,2.371,0,0,1,2.368-2.368h55.235A2.371,2.371,0,0,1,2646,1333.2v17.476A2.371,2.371,0,0,1,2643.627,1353.047Zm-55.235-21.924a2.082,2.082,0,0,0-2.08,2.079v17.476a2.082,2.082,0,0,0,2.08,2.08h55.235a2.082,2.082,0,0,0,2.08-2.08V1333.2a2.082,2.082,0,0,0-2.08-2.079Z" transform="translate(-2586.023 -1330.834)" fill="#8dccf2"/>
        </g>
        <path id="Path_41267" data-name="Path 41267" d="M2654.169,1331.622l-16.023,21.924h-17.533l23.393-21.924Z" transform="translate(-2595.902 -1328.165)" fill="#ebf5fa" style="mix-blend-mode: multiply;isolation: isolate"/>
        <path id="Path_41268" data-name="Path 41268" d="M2771.8,1331.622l-5.364,21.924h-20.246l16.642-21.924Z" transform="translate(-2698.463 -1328.165)" fill="#ebf5fa" style="mix-blend-mode: multiply;isolation: isolate"/>
      </g>
      <g id="Group_17712" data-name="Group 17712" transform="translate(5.354)">
        <path id="Path_41269" data-name="Path 41269" d="M2531.549,1302.694a1.015,1.015,0,0,1-.3.718.935.935,0,0,1-.122.1,1.008,1.008,0,0,1-.6.194H2516.8a1.015,1.015,0,1,1,0-2.031h13.732A1.015,1.015,0,0,1,2531.549,1302.694Z" transform="translate(-2515.642 -1301.535)" fill="#f7f6f1"/>
        <path id="Path_41270" data-name="Path 41270" d="M2529.889,1303.21h-13.732a1.16,1.16,0,1,1,0-2.319h13.732a1.16,1.16,0,0,1,.821,1.98,1.1,1.1,0,0,1-.141.119A1.148,1.148,0,0,1,2529.889,1303.21Zm-13.732-2.031a.871.871,0,0,0,0,1.742h13.732a.861.861,0,0,0,.511-.166.8.8,0,0,0,.1-.089.871.871,0,0,0-.616-1.487Z" transform="translate(-2514.998 -1300.891)" fill="#8dccf2"/>
      </g>
      <path id="Path_41271" data-name="Path 41271" d="M2550.633,1302.694a1.014,1.014,0,0,1-.3.718.967.967,0,0,1-.122.1,5.078,5.078,0,0,0-3.1-.594c-2.1.246-5.767.337-7.956-1.242h10.464A1.015,1.015,0,0,1,2550.633,1302.694Z" transform="translate(-2529.373 -1301.535)" fill="#bfe9ff" style="mix-blend-mode: multiply;isolation: isolate"/>
      <path id="Path_41272" data-name="Path 41272" d="M2655.7,1333.845v1.969H2586.81v-1.969a2.224,2.224,0,0,1,2.225-2.224h64.439A2.224,2.224,0,0,1,2655.7,1333.845Z" transform="translate(-2568.294 -1325.989)" fill="#bbe4fa" style="mix-blend-mode: multiply;isolation: isolate"/>
    </g>
    <g id="Group_17713" data-name="Group 17713" transform="translate(2432.581 1037.046)">
      <path id="Path_41273" data-name="Path 41273" d="M2455,1439.717h105.111c.246,0,.446-.271.446-.6s-.2-.6-.446-.6H2455c-.246,0-.446.271-.446.6S2454.752,1439.717,2455,1439.717Z" transform="translate(-2454.552 -1438.508)" fill="#3a90bd"/>
    </g>
    <g id="Group_17714" data-name="Group 17714" transform="translate(2447.762 1002.172)">
      <path id="Path_41274" data-name="Path 41274" d="M2541.918,1255.286c-1.784-2.276-4.055-.469-4.46,1.06s.649,6.946,4.46,7.562a8.6,8.6,0,0,0,6.73-2.231Z" transform="translate(-2537.377 -1253.115)" fill="#232b59"/>
      <path id="Path_41275" data-name="Path 41275" d="M2584.844,1277.919s6.558,1.311,6.85,1.916.084,5-.936,5-9.994-4.237-9.994-4.237Z" transform="translate(-2572.811 -1272.479)" fill="#f3a088"/>
      <path id="Path_41276" data-name="Path 41276" d="M2560.611,1249.831c1.442-.948,5.091-1.956,6.372-1.468.368.14.254.715.329.967.119.4,2.107.151,2.589,1.688.757,2.415-2.551,6.341-5.151,5.007-.687,2.05-3.589.4-.8-.827-.478-.713-2.406.547-2.855-.613C2560.055,1251.884,2559.7,1250.43,2560.611,1249.831Z" transform="translate(-2555.926 -1248.236)" fill="#f7b690"/>
      <path id="Path_41277" data-name="Path 41277" d="M2998.848,1278.031a16.648,16.648,0,0,0,4.346-.379c.518-.162,4.6-3.421,5.167-3.421s-1.808,6.705-2.739,6.984-1.21-.736-1.676-.8-6.6.063-6.6.063Z" transform="translate(-2913.042 -1269.467)" fill="#f3a088"/>
      <path id="Path_41278" data-name="Path 41278" d="M3038.837,1274.232a22.582,22.582,0,0,0-3.738,2.472,5.535,5.535,0,0,1,.05,2.378,5.837,5.837,0,0,1-.318,1.021c-.054.14-.108.285-.168.427.348.276.673.914,1.435.686C3037.029,1280.937,3039.406,1274.232,3038.837,1274.232Z" transform="translate(-2943.517 -1269.467)" fill="#0a3d5f"/>
      <path id="Path_41279" data-name="Path 41279" d="M2766.024,1259.7c6.423-1.4,20.425-1.631,25.384-1.392,1.846.089,21.157,6.249,21.157,6.249l-.505,3.746h-47.3Z" transform="translate(-2723.082 -1256.395)" fill="#222b54"/>
      <path id="Path_41280" data-name="Path 41280" d="M2999.017,1271.088a16.639,16.639,0,0,0,4.346-.378c.518-.162,3.862-5.406,5.414-5.244.566.059-3.188,8.309-4.12,8.587s-1.035-.455-1.5-.521-5.64,0-5.64,0Z" transform="translate(-2913.179 -1262.305)" fill="#f7b690"/>
      <path id="Path_41281" data-name="Path 41281" d="M3035.075,1265.466c-1.239-.13-3.62,3.186-4.793,4.611-.068.859-.161,1.713-.289,2.568a3.641,3.641,0,0,1-.277,1.006c.287.216.508.62,1.238.4C3031.886,1273.774,3035.642,1265.525,3035.075,1265.466Z" transform="translate(-2939.478 -1262.305)" fill="#0a3d5f"/>
      <path id="Path_41282" data-name="Path 41282" d="M2766.024,1264.723c8.921-1.013,23.026.513,24.875.513s21.126,4.343,21.126,4.343l-.506,3.746h-46.76Z" transform="translate(-2723.082 -1261.418)" fill="#0a3c60"/>
      <path id="Path_41283" data-name="Path 41283" d="M2635.02,1255.508c-3.809.216-10.752,4.021-11.669,7.627-.327,1.284-.732,2.2-.545,2.591.513,1.065,3.649,1.617,5.608,1.617,9.115,0,24.455-.343,25.961-1.309,1.95-1.251,2.31-8.1.368-9.364C2653.416,1255.806,2642.279,1255.1,2635.02,1255.508Z" transform="translate(-2607.109 -1254.077)" fill="#f7b690"/>
      <path id="Path_41284" data-name="Path 41284" d="M2630.746,1285.763a3.113,3.113,0,0,1,3.758-2.457c2.465.571,16.838,1.545,17.74,1.668,1.439.2,10.989,1.24,11.989,1.384,2.335.338,7.106,1.918,6.74,2.391a17.284,17.284,0,0,1-6.567-.122,3.194,3.194,0,0,0-1.4-.2c-3.7.273-9.13,1.181-10.689,1.273-1.3.076-15.976-.068-18.659-.183a3.107,3.107,0,0,1-2.926-3.686Z" transform="translate(-2613.574 -1276.812)" fill="#f3a088"/>
      <path id="Path_41285" data-name="Path 41285" d="M3045.119,1266.269c.662,0,.541,1.622.361,2.234s-2.724,6.368-3.436,6.209S3044.615,1266.269,3045.119,1266.269Z" transform="translate(-2949.464 -1262.964)" fill="#6a9dbd"/>
      <path id="Path_41286" data-name="Path 41286" d="M3040.162,1265.472c-.532.069-1.035.955-1.279,1.388-.646,1.145-3.5,7.2-2.842,7.2C3036.839,1274.059,3041.417,1265.31,3040.162,1265.472Z" transform="translate(-2944.565 -1262.311)" fill="#8dccf2"/>
    </g>
    <g id="nurse" transform="translate(2522.015 960.003)">
      <path id="Path_41287" data-name="Path 41287" d="M3004.681,1054.405c.475-1.113,1.9-2.983,3.479-3.123,3.51-.312,4.46,1.989,4.413,4.212-.033,1.56-1.07,2.426-1.019,3.836.035.972,2.624,2.444,1.849,5.21-.545,1.946-3.572,2.773-5.5,1.3a4.941,4.941,0,0,1-1.246-5c.712-2.513,1.324-2.92,1.746-4.177.573-1.711-.471-4.356-3.523-2.089C3004.146,1055.116,3004.587,1054.626,3004.681,1054.405Z" transform="translate(-2993.107 -1045.189)" fill="#232b59"/>
      <path id="Path_41288" data-name="Path 41288" d="M2974.938,1274.125c.073,1.279-.184,6.743-.269,10.649-.186,8.514.76,18.413.344,19.7-.606,1.879,1.074,1.345,1.112-.024.067-2.487,5.455-13.006,4.936-16.347-.272-1.749-.848-2.87-.935-3.93s2.807-10.151,2.807-10.151Z" transform="translate(-2968.753 -1227.128)" fill="#f7b690"/>
      <path id="Path_41289" data-name="Path 41289" d="M3015.445,1267.96c.36,1.228,1.056,6.377,1.973,10.173.284,1.175,1.271,4.17,1.912,6.257,1.923,6.26,4.047,11.947,3.962,12.96-.167,1.969,1.847,1.035,1.251-.2s1.13-13.32.126-16.546-1.977-3.511-2.3-4.523.838-10.066.838-10.066Z" transform="translate(-3002.075 -1220.591)" fill="#f7b690"/>
      <path id="Path_41290" data-name="Path 41290" d="M2971.315,1267.8a54.789,54.789,0,0,0,0,7.371c.125.387,3.844,1.005,8.1,1.22s7.866-1.186,8.117-1.5-.019-8.229-.145-8.9S2971.315,1267.8,2971.315,1267.8Z" transform="translate(-2965.937 -1220.476)" fill="#2e6c9e"/>
      <path id="Path_41291" data-name="Path 41291" d="M2961.579,1091.95a10.47,10.47,0,0,0-3.233-2.355c-.922-.592-3.195-1.1-4.368-.365a13.576,13.576,0,0,0-4.047,3.005,1.412,1.412,0,0,0-.183.161c-4.252,4.479-7.692,11.556-7.2,14.079.408,2.1,2.752,2.587,4.916,2.371-.379,7.224-.49,14.339-.18,15.032.6,1.35,15.548,1.374,17.268.082.207-.156.068-8.046-.344-15.776,1.527.317,3.353.354,4.11-.739C2971.025,1103.534,2963.658,1093.858,2961.579,1091.95Zm2.409,12.277c-.055-.833-.117-1.387-.178-2.173a8.524,8.524,0,0,1,1.015,2.034C2964.735,1104.122,2964.318,1104.172,2963.989,1104.226Z" transform="translate(-2942.501 -1075.906)" fill="#f7f6f1"/>
      <g id="Group_17722" data-name="Group 17722" transform="translate(2.747 15.913)">
        <g id="Group_17715" data-name="Group 17715" transform="translate(9.176 0.237)">
          <path id="Path_41292" data-name="Path 41292" d="M3007.651,1114.481a.1.1,0,0,1-.086-.054.1.1,0,0,1,.043-.131c1.262-.638,6.041-5.361,6.964-7.959a.1.1,0,0,1,.124-.059.1.1,0,0,1,.058.125,16.885,16.885,0,0,1-3.378,4.76,19.606,19.606,0,0,1-3.682,3.308A.093.093,0,0,1,3007.651,1114.481Z" transform="translate(-3007.554 -1106.272)" fill="#8dccf2"/>
        </g>
        <g id="Group_17716" data-name="Group 17716" transform="translate(5.451)">
          <path id="Path_41293" data-name="Path 41293" d="M2990.592,1112.447a.1.1,0,0,1-.078-.039,20.7,20.7,0,0,1-3.281-7.307.1.1,0,1,1,.188-.045,20.5,20.5,0,0,0,3.248,7.235.1.1,0,0,1-.019.137A.1.1,0,0,1,2990.592,1112.447Z" transform="translate(-2987.23 -1104.981)" fill="#8dccf2"/>
        </g>
        <g id="Group_17717" data-name="Group 17717" transform="translate(8.501 6.23)">
          <path id="Path_41294" data-name="Path 41294" d="M3004.181,1165.716a.1.1,0,0,1-.1-.086c-.188-1.562-.265-7.277-.182-13.59.035-2.631.184-11.346.646-13a.1.1,0,0,1,.12-.067.1.1,0,0,1,.066.12c-.362,1.292-.567,7.534-.639,12.945-.083,6.305-.007,12.01.181,13.564a.1.1,0,0,1-.084.109Z" transform="translate(-3003.869 -1138.973)" fill="#8dccf2"/>
        </g>
        <g id="Group_17718" data-name="Group 17718" transform="translate(17.757 12.174)">
          <path id="Path_41295" data-name="Path 41295" d="M3054.464,1171.938a.1.1,0,0,1-.027-.191,6.868,6.868,0,0,1,3.446-.166.1.1,0,0,1,.057.125.1.1,0,0,1-.124.058,6.821,6.821,0,0,0-3.325.171A.108.108,0,0,1,3054.464,1171.938Z" transform="translate(-3054.367 -1171.404)" fill="#8dccf2"/>
        </g>
        <g id="Group_17719" data-name="Group 17719" transform="translate(16.367 15.561)">
          <path id="Path_41296" data-name="Path 41296" d="M3048.988,1191.263a3.152,3.152,0,0,1-2.19-1.232.1.1,0,0,1,.034-.134.1.1,0,0,1,.133.034,2.931,2.931,0,0,0,2.031,1.136.1.1,0,0,1-.008.2Z" transform="translate(-3046.784 -1189.884)" fill="#8dccf2"/>
        </g>
        <g id="Group_17720" data-name="Group 17720" transform="translate(0 12.501)">
          <path id="Path_41297" data-name="Path 41297" d="M2961.3,1173.788a.1.1,0,0,1-.061-.022c-.392-.324-2.846-.433-3.649-.373a.1.1,0,0,1-.015-.194c.623-.047,3.3.015,3.785.416a.1.1,0,0,1,.014.137A.1.1,0,0,1,2961.3,1173.788Z" transform="translate(-2957.489 -1173.185)" fill="#8dccf2"/>
        </g>
        <g id="Group_17721" data-name="Group 17721" transform="translate(2.572 15.562)">
          <path id="Path_41298" data-name="Path 41298" d="M2971.617,1191.681a.1.1,0,0,1-.012-.194,16.811,16.811,0,0,0,2.064-.536c.284-.106.445-.2.47-.972a.1.1,0,1,1,.193.006c-.025.8-.2,1-.6,1.149a16.715,16.715,0,0,1-2.108.547Z" transform="translate(-2971.52 -1189.885)" fill="#8dccf2"/>
        </g>
      </g>
      <g id="Group_17723" data-name="Group 17723" transform="translate(10.295 0.343)">
        <path id="Path_41299" data-name="Path 41299" d="M2999.566,1027.728a5.18,5.18,0,0,1,.777-6.724,3.479,3.479,0,0,1,4.458-.292c1.058.65,2.563,4.2-.286,6.96S3001.364,1029.647,2999.566,1027.728Z" transform="translate(-2998.67 -1020.032)" fill="#232b59"/>
        <path id="Path_41300" data-name="Path 41300" d="M3004.19,1092.411a4.4,4.4,0,0,1,2.569,1.443c.662.859-3.828,6.829-4.1,6.829-.577,0-1.77-6.245-1.489-6.982A4.567,4.567,0,0,1,3004.19,1092.411Z" transform="translate(-3000.676 -1079.135)" fill="#2e6c9e"/>
        <path id="Path_41301" data-name="Path 41301" d="M3007.4,1067.523a17.233,17.233,0,0,0,.879,4.9c.488.92-2.151,1.8-3.257,1.5s-1.432-.887-1.464-1.282,1.3-1.7,1.529-4.47C3005.276,1065.967,3007.349,1066.678,3007.4,1067.523Z" transform="translate(-3002.664 -1058.15)" fill="#f3a088"/>
        <path id="Path_41302" data-name="Path 41302" d="M2999.569,1043.632c-.371,3.05.86,6.355,1.837,6.533,1.327.242,3.692-1.5,3.772-4.332.695.2.871-.9.717-1.609-.191-.886-.849.1-.849.1S2999.713,1042.443,2999.569,1043.632Z" transform="translate(-2999.349 -1038.985)" fill="#f7b690"/>
      </g>
      <path id="Path_41303" data-name="Path 41303" d="M2961.335,1440.06c-2.262,1.682-3.518,2.443-3.434,2.951s5.191-.338,5.609-.592-1.064-2.383-1.064-2.383Z" transform="translate(-2955.076 -1362.713)" fill="#2e6c9e"/>
      <path id="Path_41304" data-name="Path 41304" d="M3046.907,1436.083c-.918,1.252-2.847,2.878-2.509,3.555s4.63-1.213,4.905-1.978c.148-.411-1.146-1.773-1.146-1.773Z" transform="translate(-3025.689 -1359.325)" fill="#2e6c9e"/>
      <g id="Group_17724" data-name="Group 17724" transform="translate(4.934 24.49)">
        <path id="Path_41305" data-name="Path 41305" d="M2969.516,1155.239a.1.1,0,0,1-.1-.106c0-.022.207-2.257.386-3.273a.1.1,0,0,1,.112-.079.1.1,0,0,1,.078.113c-.178,1.008-.382,3.234-.384,3.257A.1.1,0,0,1,2969.516,1155.239Z" transform="translate(-2969.419 -1151.779)" fill="#8dccf2"/>
      </g>
      <g id="Group_17725" data-name="Group 17725" transform="translate(21.799 45.536)">
        <path id="Path_41306" data-name="Path 41306" d="M3061.531,1269.318a.1.1,0,0,1-.089-.06.1.1,0,0,1,.052-.128c.011-.007.118-.095.167-.909.029-.484.026-1.031.024-1.357,0-.062,0-.115,0-.159a.1.1,0,1,1,.193,0c0,.043,0,.1,0,.158.009,1.685-.075,2.348-.309,2.447A.092.092,0,0,1,3061.531,1269.318Z" transform="translate(-3061.434 -1266.607)" fill="#8dccf2"/>
      </g>
      <g id="Group_17726" data-name="Group 17726" transform="translate(4.514 45.536)">
        <path id="Path_41307" data-name="Path 41307" d="M2967.568,1269.319a.094.094,0,0,1-.041-.009c-.34-.159-.375-.937-.389-2.107,0-.173,0-.337-.008-.495a.1.1,0,1,1,.193-.005c0,.159.006.323.009.5.01.765.022,1.813.277,1.932a.1.1,0,0,1,.047.13A.1.1,0,0,1,2967.568,1269.319Z" transform="translate(-2967.129 -1266.608)" fill="#8dccf2"/>
      </g>
      <g id="Group_17729" data-name="Group 17729" transform="translate(6.295 16.316)">
        <g id="Group_17728" data-name="Group 17728" transform="translate(4.816)">
          <g id="Group_17727" data-name="Group 17727">
            <path id="Path_41308" data-name="Path 41308" d="M3023.3,1129.581a1.462,1.462,0,0,1-.484.184c-.21.034-.429-.011-.636.028a.458.458,0,0,0-.246.14.673.673,0,0,0-.148.24c.047-.108.258-.175.356-.217a1.65,1.65,0,0,1,.629-.1C3022.934,1129.852,3023.3,1129.813,3023.3,1129.581Z" transform="translate(-3018.363 -1125.476)" fill="#db6b63"/>
            <path id="Path_41309" data-name="Path 41309" d="M3024.277,1131.725a.108.108,0,0,0-.056.022c-.064.037-.126.079-.188.119a1.166,1.166,0,0,1-.1.083.4.4,0,0,1-.177.014c-.073-.007-.138-.048-.211-.054a.4.4,0,0,0-.186.042.3.3,0,0,0-.169.146.87.87,0,0,0,.141-.063.491.491,0,0,1,.244-.028,1.147,1.147,0,0,0,.3.061.388.388,0,0,0,.276-.134c.027-.041.045-.113.094-.132Z" transform="translate(-3019.508 -1127.227)" fill="#db6b63"/>
            <path id="Path_41310" data-name="Path 41310" d="M3022.251,1131.255c-.181.137-.353.292-.543.419a3.369,3.369,0,0,1-.853.348.367.367,0,0,0-.281.462c.254-.112.454-.329.7-.456a1.1,1.1,0,0,1,.488-.124.754.754,0,0,0,.311-.021C3022.344,1131.749,3022.284,1131.444,3022.251,1131.255Z" transform="translate(-3017.37 -1126.843)" fill="#db6b63"/>
            <path id="Path_41311" data-name="Path 41311" d="M3013.67,1119.657a.624.624,0,0,0,.02.556,1.3,1.3,0,0,1,.1.649c-.016-.1.036-.262.026-.387-.014-.18-.022-.353-.023-.534,0-.3.1-.58.089-.875-.009.12-.157.257-.19.391A.372.372,0,0,0,3013.67,1119.657Z" transform="translate(-3011.691 -1116.887)" fill="#db6b63"/>
            <path id="Path_41312" data-name="Path 41312" d="M3017.055,1123.934a1.09,1.09,0,0,0-.256.693,3.033,3.033,0,0,1-.048.433,2.672,2.672,0,0,1-.125.3.849.849,0,0,1,.019-.215,3.886,3.886,0,0,0,.174-.431c.037-.212,0-.354.15-.528.037-.042.192-.138.188-.206S3017.1,1123.911,3017.055,1123.934Z" transform="translate(-3014.15 -1120.854)" fill="#db6b63"/>
            <path id="Path_41313" data-name="Path 41313" d="M3012.774,1135.449a.972.972,0,0,0,.264-.222,1.256,1.256,0,0,0,.189-.3.633.633,0,0,1,.092-.2c.094-.081.376-.08.4-.208-.121-.027-.218.116-.256.209a.961.961,0,0,1-.268.468c-.115.1-.214.081-.34.142C3012.8,1135.372,3012.7,1135.405,3012.774,1135.449Z" transform="translate(-3010.984 -1129.511)" fill="#db6b63"/>
            <path id="Path_41314" data-name="Path 41314" d="M3014.81,1133.565a.71.71,0,0,0-.327-.19,2.742,2.742,0,0,0-.521-.033c.066-.072.315-.033.417-.047a.417.417,0,0,1,.319.077A.162.162,0,0,1,3014.81,1133.565Z" transform="translate(-3011.976 -1128.505)" fill="#db6b63"/>
            <path id="Path_41315" data-name="Path 41315" d="M3009.038,1116.7c-.733-.511.99-2.292-1.112-3.073a2.429,2.429,0,0,0-2.441.59.243.243,0,0,0-.132.07,4.951,4.951,0,0,0-1,1.46,13.06,13.06,0,0,0-1.227,5.159,12.761,12.761,0,0,0,.037,1.43c-.1.841-.119,1.35,1.179,1.5,1.757.207,4.088-1.206,5.576-3.033S3009.771,1117.214,3009.038,1116.7Z" transform="translate(-3003.121 -1112.346)" fill="#ea786a"/>
            <path id="Path_41316" data-name="Path 41316" d="M3020.29,1143.569c-1.686,1.269-3.016,2.849-5.19,3.142a40.141,40.141,0,0,0,4.346-1.062c.085-.1.176-.187.256-.286A2.376,2.376,0,0,0,3020.29,1143.569Z" transform="translate(-3012.904 -1136.9)" fill="#db6b63"/>
            <path id="Path_41317" data-name="Path 41317" d="M3016.011,1168.36l.171-.1a1.127,1.127,0,0,0-.409-.046C3015.857,1168.262,3015.938,1168.314,3016.011,1168.36Z" transform="translate(-3013.455 -1157.024)" fill="#db6b63"/>
            <path id="Path_41318" data-name="Path 41318" d="M3011.482,1167.776a2.209,2.209,0,0,1,.786-.243C3011.956,1167.348,3011.613,1167.226,3011.482,1167.776Z" transform="translate(-3009.949 -1156.344)" fill="#db6b63"/>
            <path id="Path_41319" data-name="Path 41319" d="M3018,1161.663a1.044,1.044,0,0,1,.137.048,8.131,8.131,0,0,0,2.715-1.577C3019.889,1160.6,3018.915,1161.119,3018,1161.663Z" transform="translate(-3015.275 -1150.429)" fill="#db6b63"/>
            <path id="Path_41320" data-name="Path 41320" d="M3026.606,1136.673a3.24,3.24,0,0,0-.537-1.067,5.568,5.568,0,0,1-3.146,1.067Z" transform="translate(-3019.293 -1130.396)" fill="#db6b63"/>
            <path id="Path_41321" data-name="Path 41321" d="M3016.5,1169.092c.054-.012.105-.015.159-.03l-.055-.032Z" transform="translate(-3014.049 -1157.694)" fill="#db6b63"/>
            <path id="Path_41322" data-name="Path 41322" d="M3017.07,1168.578l.055.032c.083-.022.169-.059.253-.086a1.088,1.088,0,0,0-.137-.048Z" transform="translate(-3014.514 -1157.242)" fill="#db6b63"/>
            <path id="Path_41323" data-name="Path 41323" d="M3011.432,1168.469c0,.02-.007.045-.011.066a3.813,3.813,0,0,0,.931-.1l.1-.062c-.074-.046-.154-.1-.237-.147A2.211,2.211,0,0,0,3011.432,1168.469Z" transform="translate(-3009.9 -1157.038)" fill="#db6b63"/>
            <path id="Path_41324" data-name="Path 41324" d="M3010.785,1169.618c.038,0,.078,0,.116,0,0-.021.007-.046.011-.066Z" transform="translate(-3009.381 -1158.121)" fill="#db6b63"/>
            <path id="Path_41325" data-name="Path 41325" d="M3004.774,1150.324c1.131-.352,2.546-.287,3.326-1.068C3007.455,1149.9,3005.653,1149.391,3004.774,1150.324Z" transform="translate(-3004.471 -1141.545)" fill="#db6b63"/>
            <path id="Path_41326" data-name="Path 41326" d="M3028.26,1126.335a2.129,2.129,0,0,0-1.423,1.331,2.242,2.242,0,0,1,1.437-.646A1.132,1.132,0,0,1,3028.26,1126.335Z" transform="translate(-3022.49 -1122.825)" fill="#db6b63"/>
            <path id="Path_41327" data-name="Path 41327" d="M3029.627,1108.688a2.47,2.47,0,0,1,.43-1.044,1.164,1.164,0,0,1,.628-.428,1.313,1.313,0,0,1,.336-.033,1.294,1.294,0,0,0-.319.086,1.045,1.045,0,0,0-.5.474,2.008,2.008,0,0,0-.2.661,2.107,2.107,0,0,0-.021.309Z" transform="translate(-3024.769 -1107.183)" fill="#db6b63"/>
            <path id="Path_41328" data-name="Path 41328" d="M3032.164,1118.228a2.582,2.582,0,0,1,.2-.378,3.14,3.14,0,0,1,.586-.7,2.468,2.468,0,0,1,.766-.467,1.682,1.682,0,0,1,.28-.084l.107-.026-.1.04a1.679,1.679,0,0,0-.261.12,2.361,2.361,0,0,0-.662.542,2.9,2.9,0,0,0-.447.717,2.2,2.2,0,0,0-.127.351Z" transform="translate(-3026.841 -1114.851)" fill="#db6b63"/>
            <path id="Path_41329" data-name="Path 41329" d="M3036.089,1127.753a4.127,4.127,0,0,1,.969-.76,2.227,2.227,0,0,1,.792-.264,1.367,1.367,0,0,1,.273,0l.1.007a1.391,1.391,0,0,0-.365.052,2.108,2.108,0,0,0-.706.36,3.7,3.7,0,0,0-.57.548,3.235,3.235,0,0,0-.213.281Z" transform="translate(-3030.047 -1123.139)" fill="#db6b63"/>
            <path id="Path_41330" data-name="Path 41330" d="M3029.1,1132.372a.469.469,0,0,0-.121.093,1.228,1.228,0,0,1-.406.267c-.263.113-.539.168-.8.256a1.727,1.727,0,0,0,.853-.086c.14-.03.311-.047.366-.2C3029.023,1132.612,3028.917,1132.326,3029.1,1132.372Z" transform="translate(-3023.254 -1127.751)" fill="#db6b63"/>
            <path id="Path_41331" data-name="Path 41331" d="M3019.878,1114.414a.905.905,0,0,0-.233.358,3.785,3.785,0,0,1-.119.5,2.716,2.716,0,0,1-.235.378c-.074.1-.193.224-.189.357.123-.093.194-.28.3-.4.137-.144.342-.26.44-.435C3019.985,1114.925,3019.761,1114.71,3019.878,1114.414Z" transform="translate(-3016.173 -1113.089)" fill="#db6b63"/>
            <path id="Path_41332" data-name="Path 41332" d="M3021.827,1118.483c-.134.09-.253.214-.382.315-.2.153-.4.255-.61.391a1.549,1.549,0,0,0-.511.545c-.081.14-.185.263-.27.4.005-.067.112-.135.158-.169.111-.082.234-.147.342-.236.071-.058.132-.127.2-.184a6.576,6.576,0,0,0,.478-.454c.122-.122.3-.179.409-.314A1.689,1.689,0,0,0,3021.827,1118.483Z" transform="translate(-3016.951 -1116.412)" fill="#db6b63"/>
            <path id="Path_41333" data-name="Path 41333" d="M3028.789,1115.815a1.253,1.253,0,0,0-.038.356c.015.168.16.284.156.457a1.762,1.762,0,0,1-.155.473,2.076,2.076,0,0,0-.119.551,1.065,1.065,0,0,1,.213-.541c.089-.143.3-.357.265-.551-.024-.131-.171-.249-.227-.376a.325.325,0,0,1-.035-.211.715.715,0,0,1,.128-.26c.042-.066.073-.187.017-.248-.029.177-.2.319-.223.487Z" transform="translate(-3023.956 -1113.948)" fill="#db6b63"/>
            <path id="Path_41334" data-name="Path 41334" d="M3024.173,1116.711c-.064.008-.125.029-.193.035a4.964,4.964,0,0,0-.648,0,2.065,2.065,0,0,0-.492.3.731.731,0,0,1,.5-.284,2.628,2.628,0,0,1,.484.034C3023.89,1116.8,3024.28,1116.742,3024.173,1116.711Z" transform="translate(-3019.227 -1114.965)" fill="#db6b63"/>
            <path id="Path_41335" data-name="Path 41335" d="M3031.609,1117.45a2.4,2.4,0,0,1-.118.407,3.043,3.043,0,0,0-.031.311c-.029.219-.258.4-.24.627.2-.1.232-.395.313-.585a1.129,1.129,0,0,0,.119-.489c0-.114.045-.47-.062-.525A.693.693,0,0,0,3031.609,1117.45Z" transform="translate(-3026.068 -1115.361)" fill="#db6b63"/>
            <path id="Path_41336" data-name="Path 41336" d="M3023.761,1120.922a5.315,5.315,0,0,1-.422.739,1.515,1.515,0,0,1-.22.207c-.041.035-.077.057-.072.115.12-.036.185-.19.311-.239.1-.04.344-.04.4-.152.039-.077,0-.2-.008-.275a.372.372,0,0,1,.083-.272c.2-.239.072-.565.129-.838-.229.076-.091.391-.08.544s-.1.186-.164.3Z" transform="translate(-3019.394 -1117.82)" fill="#db6b63"/>
            <path id="Path_41337" data-name="Path 41337" d="M3023.857,1129.929c-.067-.018-.1-.1-.164-.14a1.917,1.917,0,0,0-.285-.075c.124,0,.482.006.427.224C3023.854,1129.942,3023.887,1129.946,3023.857,1129.929Z" transform="translate(-3019.689 -1125.585)" fill="#db6b63"/>
            <path id="Path_41338" data-name="Path 41338" d="M3028.136,1126.956a1.985,1.985,0,0,0-.714-.085c-.139.016-.259.086-.4.11.231-.179.63-.027.867.048C3028.058,1127.081,3028.081,1127.066,3028.136,1126.956Z" transform="translate(-3022.644 -1123.255)" fill="#db6b63"/>
            <path id="Path_41339" data-name="Path 41339" d="M3030.958,1129.648a.41.41,0,0,0-.235.356.582.582,0,0,1-.046.317,2.249,2.249,0,0,0,.182-.483C3030.886,1129.759,3030.906,1129.62,3030.958,1129.648Z" transform="translate(-3025.627 -1125.527)" fill="#db6b63"/>
            <path id="Path_41340" data-name="Path 41340" d="M3031.841,1131.38a.458.458,0,0,0-.416.145c-.049.051-.035.065-.114.09-.043.014-.1.008-.128.046a.709.709,0,0,0,.34-.029.7.7,0,0,1,.26-.078c.047,0,.291.125.315.1C3032.173,1131.59,3031.825,1131.388,3031.841,1131.38Z" transform="translate(-3026.04 -1126.945)" fill="#db6b63"/>
            <path id="Path_41341" data-name="Path 41341" d="M3032.075,1134.321c-.1.172-.281.3-.316.5.077-.042.253-.177.272-.268C3032.044,1134.5,3031.949,1134.358,3032.075,1134.321Z" transform="translate(-3026.51 -1129.347)" fill="#db6b63"/>
            <path id="Path_41342" data-name="Path 41342" d="M3026.586,1145.589a1.463,1.463,0,0,1-.514.062c-.212-.018-.413-.115-.624-.127a.458.458,0,0,0-.273.076.673.673,0,0,0-.2.2c.072-.094.292-.107.4-.124a1.652,1.652,0,0,1,.634.06C3026.167,1145.765,3026.532,1145.816,3026.586,1145.589Z" transform="translate(-3020.968 -1138.496)" fill="#db6b63"/>
            <path id="Path_41343" data-name="Path 41343" d="M3008.852,1162.867a1.448,1.448,0,0,1-.514.062c-.213-.018-.413-.115-.624-.127a.46.46,0,0,0-.273.076.677.677,0,0,0-.2.2c.072-.094.293-.107.4-.124a1.656,1.656,0,0,1,.634.06C3008.433,1163.043,3008.8,1163.094,3008.852,1162.867Z" transform="translate(-3006.484 -1152.607)" fill="#db6b63"/>
            <path id="Path_41344" data-name="Path 41344" d="M3007.608,1135.269a.622.622,0,0,0,.02.556,1.29,1.29,0,0,1,.1.649c-.016-.1.036-.262.026-.387-.014-.18-.023-.353-.023-.534,0-.3.1-.58.089-.875-.009.12-.157.257-.19.391A.372.372,0,0,0,3007.608,1135.269Z" transform="translate(-3006.74 -1129.638)" fill="#db6b63"/>
            <path id="Path_41345" data-name="Path 41345" d="M3016.665,1135.77a1.09,1.09,0,0,0-.623.4,3.041,3.041,0,0,1-.3.316,2.651,2.651,0,0,1-.279.161.845.845,0,0,1,.145-.159,3.876,3.876,0,0,0,.4-.238c.157-.147.213-.283.439-.33.056-.011.237.006.275-.051S3016.718,1135.781,3016.665,1135.77Z" transform="translate(-3013.201 -1130.53)" fill="#db6b63"/>
            <path id="Path_41346" data-name="Path 41346" d="M3025.767,1148.589a.475.475,0,0,0-.121.093,1.226,1.226,0,0,1-.406.267c-.263.112-.539.167-.8.256a1.727,1.727,0,0,0,.853-.086c.14-.031.311-.047.366-.2C3025.689,1148.83,3025.583,1148.544,3025.767,1148.589Z" transform="translate(-3020.53 -1140.996)" fill="#db6b63"/>
            <path id="Path_41347" data-name="Path 41347" d="M3011.192,1125.733a.9.9,0,0,0-.054.424,3.881,3.881,0,0,1,.109.5,2.721,2.721,0,0,1-.047.443.658.658,0,0,0-.015.4,3.56,3.56,0,0,0,.1-.49,2.612,2.612,0,0,0,.207-.584C3011.511,1126.146,3011.216,1126.051,3011.192,1125.733Z" transform="translate(-3009.664 -1122.333)" fill="#db6b63"/>
            <path id="Path_41348" data-name="Path 41348" d="M3014.971,1126.538c-.075.129-.124.28-.19.415-.1.206-.233.375-.349.57a1.428,1.428,0,0,0-.205.658c-.01.148-.047.293-.063.438-.023-.058.038-.157.063-.2.06-.113.135-.217.189-.333.036-.077.059-.158.094-.235a6.016,6.016,0,0,0,.213-.569c.052-.15.181-.271.213-.426A1.571,1.571,0,0,0,3014.971,1126.538Z" transform="translate(-3012.136 -1122.99)" fill="#db6b63"/>
            <path id="Path_41349" data-name="Path 41349" d="M3017.952,1124.052a1.145,1.145,0,0,0,.112.311c.08.133.247.172.313.317a1.619,1.619,0,0,1,.062.454,1.911,1.911,0,0,0,.123.506.984.984,0,0,1-.042-.535c.017-.155.106-.417,0-.564-.073-.1-.243-.138-.34-.22a.3.3,0,0,1-.114-.161.664.664,0,0,1,0-.267c.008-.071-.015-.185-.085-.212.047.158-.035.344.011.494Z" transform="translate(-3015.234 -1120.656)" fill="#db6b63"/>
            <path id="Path_41350" data-name="Path 41350" d="M3013.871,1124.843c-.054.036-.1.081-.158.115a4.934,4.934,0,0,0-.583.283,2.083,2.083,0,0,0-.31.488.73.73,0,0,1,.328-.474c.134-.1.3-.1.451-.18C3013.654,1125.046,3013.98,1124.824,3013.871,1124.843Z" transform="translate(-3011.042 -1121.605)" fill="#db6b63"/>
            <path id="Path_41351" data-name="Path 41351" d="M3025.546,1133.062a2.417,2.417,0,0,1-.118.407,2.918,2.918,0,0,0-.031.311c-.029.218-.258.4-.241.627.2-.1.232-.395.314-.585a1.134,1.134,0,0,0,.119-.489c0-.114.045-.47-.062-.525A.7.7,0,0,0,3025.546,1133.062Z" transform="translate(-3021.116 -1128.111)" fill="#db6b63"/>
            <path id="Path_41352" data-name="Path 41352" d="M3025.279,1137.255a5.283,5.283,0,0,1-.588.615,1.518,1.518,0,0,1-.264.148c-.049.024-.088.037-.1.094.125-.005.226-.14.36-.156.111-.014.344.045.427-.051.057-.065.045-.191.059-.269a.371.371,0,0,1,.146-.244c.256-.182.207-.531.328-.782-.241.018-.183.357-.209.509s-.139.157-.233.254Z" transform="translate(-3020.442 -1131.216)" fill="#db6b63"/>
            <path id="Path_41353" data-name="Path 41353" d="M3023.863,1143.333c-.067-.018-.1-.1-.164-.14a1.984,1.984,0,0,0-.285-.075c.124,0,.481.006.426.224C3023.86,1143.345,3023.893,1143.349,3023.863,1143.333Z" transform="translate(-3019.695 -1136.532)" fill="#db6b63"/>
            <path id="Path_41354" data-name="Path 41354" d="M3029.85,1143.551a1.987,1.987,0,0,0-.672-.256c-.139-.018-.271.021-.413.011.268-.118.618.127.829.256C3029.743,1143.653,3029.769,1143.644,3029.85,1143.551Z" transform="translate(-3024.064 -1136.659)" fill="#db6b63"/>
            <path id="Path_41355" data-name="Path 41355" d="M3010.729,1142.407a5.3,5.3,0,0,1-.588.615,1.522,1.522,0,0,1-.264.147c-.048.024-.089.037-.1.094.125-.005.226-.14.36-.156.111-.014.344.045.428-.05.057-.065.044-.191.059-.269a.371.371,0,0,1,.146-.243c.255-.182.207-.531.328-.782-.241.018-.183.357-.209.509s-.139.157-.233.254Z" transform="translate(-3008.558 -1135.425)" fill="#db6b63"/>
            <path id="Path_41356" data-name="Path 41356" d="M3009.312,1148.486c-.067-.018-.1-.1-.164-.14a1.936,1.936,0,0,0-.285-.074c.124,0,.482.005.426.224C3009.309,1148.5,3009.342,1148.5,3009.312,1148.486Z" transform="translate(-3007.811 -1140.741)" fill="#db6b63"/>
            <path id="Path_41357" data-name="Path 41357" d="M3015.3,1148.7a1.99,1.99,0,0,0-.672-.256c-.139-.017-.272.021-.412.011.268-.118.617.127.829.256C3015.193,1148.807,3015.219,1148.8,3015.3,1148.7Z" transform="translate(-3012.182 -1140.869)" fill="#db6b63"/>
            <path id="Path_41358" data-name="Path 41358" d="M3009.464,1160.459c-.067-.018-.1-.1-.164-.14a1.956,1.956,0,0,0-.285-.075c.124,0,.482.006.426.224C3009.461,1160.472,3009.494,1160.476,3009.464,1160.459Z" transform="translate(-3007.935 -1150.519)" fill="#db6b63"/>
            <path id="Path_41359" data-name="Path 41359" d="M3015.452,1160.678a1.988,1.988,0,0,0-.672-.256c-.139-.017-.272.021-.412.011.268-.118.618.127.829.256C3015.345,1160.78,3015.371,1160.771,3015.452,1160.678Z" transform="translate(-3012.306 -1150.647)" fill="#db6b63"/>
            <path id="Path_41360" data-name="Path 41360" d="M3028.741,1150.539c-.1.172-.281.3-.316.5.077-.041.253-.177.272-.268C3028.709,1150.714,3028.615,1150.576,3028.741,1150.539Z" transform="translate(-3023.787 -1142.592)" fill="#db6b63"/>
          </g>
        </g>
        <path id="Path_41361" data-name="Path 41361" d="M2990.3,1150.64h-12.1a.854.854,0,0,1-.848-.756l-.5-4.34a1.115,1.115,0,0,1,1.108-1.242h12.579a1.115,1.115,0,0,1,1.107,1.242l-.5,4.34A.853.853,0,0,1,2990.3,1150.64Z" transform="translate(-2976.846 -1137.499)" fill="#c5e9ff" opacity="0.65"/>
      </g>
      <path id="Path_41362" data-name="Path 41362" d="M2978.858,1166.868c-.211.013-.6-.191-.816-.1-.785.332-1.218,2.074-1.5,2.464-.357.5.605,1.223,1.1,1.5a6.156,6.156,0,0,0,2.523.1c.837-.176,2.2-1.279,1.848-1.435a34.319,34.319,0,0,1-2.972-2.031.441.441,0,0,0,.433-.438C2979.484,1166.824,2978.987,1166.86,2978.858,1166.868Z" transform="translate(-2970.241 -1139.513)" fill="#f7b690"/>
      <path id="Path_41363" data-name="Path 41363" d="M3034.895,1168.1c.211.013.6-.19.816-.1.785.332,1.479,1.848,1.759,2.238.358.5-.6,1.223-1.1,1.5a3.1,3.1,0,0,1-1.937.042c-.413-.167-1.614-1.527-1.261-1.683a13.7,13.7,0,0,0,1.9-1.326c-.323-.035-.78-.424-.794-.614C3034.268,1168.058,3034.765,1168.094,3034.895,1168.1Z" transform="translate(-3016.5 -1140.521)" fill="#f7b690"/>
      <path id="Path_41364" data-name="Path 41364" d="M3004.588,1054.923a4.055,4.055,0,0,0-.335,1.315,4.974,4.974,0,0,1,.016,1l.07.591.022.161a4.4,4.4,0,0,1-1.156.616,9.566,9.566,0,0,1-2.995-.053c-.414-.167-.807-2.559-.645-3.347.175-.85,1.819-.453,3.009-.391C3002.8,1054.821,3004.5,1055.133,3004.588,1054.923Z" transform="translate(-2989.076 -1047.973)" fill="#ebf6ff"/>
      <g id="Group_17730" data-name="Group 17730" transform="translate(13.962 5.354)">
        <path id="Path_41365" data-name="Path 41365" d="M3018.781,1049.96a.107.107,0,0,1-.1-.154,6.061,6.061,0,0,1,2.085-2.414.107.107,0,0,1,.12.178,5.849,5.849,0,0,0-2.011,2.328A.108.108,0,0,1,3018.781,1049.96Z" transform="translate(-3018.674 -1047.374)" fill="#ebf6ff"/>
      </g>
      <g id="Group_17731" data-name="Group 17731" transform="translate(14.701 8.324)">
        <path id="Path_41366" data-name="Path 41366" d="M3022.815,1065.057a.107.107,0,0,1-.078-.182l1.207-1.262a.107.107,0,1,1,.155.148l-1.207,1.262A.107.107,0,0,1,3022.815,1065.057Z" transform="translate(-3022.708 -1063.58)" fill="#ebf6ff"/>
      </g>
      <path id="Path_41367" data-name="Path 41367" d="M2997.684,1022.9a18.31,18.31,0,0,1,.213-3.628c.284-.848,2.822-1.306,4.126-1.031a9.193,9.193,0,0,1,3.587,1.94c.418.48-.389,3.247-.425,3.609s-2.111-.867-4.273-1.227S2998.46,1022.468,2997.684,1022.9Z" transform="translate(-2987.563 -1018.163)" fill="#c5e9ff"/>
    </g>
    <g id="doctor2" transform="translate(2485.927 957.049)">
      <g id="dad" transform="translate(0 0.916)">
        <path id="Path_41368" data-name="Path 41368" d="M2861.626,1447.555c-.242.045-.53.6-.089.834a39.893,39.893,0,0,0,5.123.129,13.092,13.092,0,0,0,3.844-.224c.15-.076.228-.685-.424-.781C2869.768,1447.467,2862.8,1447.337,2861.626,1447.555Z" transform="translate(-2840.101 -1366.715)" fill="#000725"/>
        <path id="Path_41369" data-name="Path 41369" d="M2862.949,1398.608c.1,1.458.322,4.224.53,5.127.058.25.758,1.368.482,1.684a2.274,2.274,0,0,1-2.624-.5,41.05,41.05,0,0,1-1.46-6.6C2859.878,1397.594,2862.9,1397.836,2862.949,1398.608Z" transform="translate(-2838.933 -1326.248)" fill="#f7b690"/>
        <path id="Path_41370" data-name="Path 41370" d="M2863.02,1429.992c-.153.227-1.078,2.1-.541,2.869a53.529,53.529,0,0,0,8.736,0c.088-.055-.134-.285-.535-.606s-1.7-.132-2.348-.568a24.037,24.037,0,0,1-2.675-2.58c-.182.212.067,1.295-1.034,1.512C2863.743,1430.793,2863.166,1429.776,2863.02,1429.992Z" transform="translate(-2840.922 -1351.744)" fill="#001b44"/>
        <path id="Path_41371" data-name="Path 41371" d="M2837.832,1236.048c-.026.6-2.612.852-2.951.266-.183-.317-2.742-8.573-2.188-11.774.562-3.249,1.354-4.654,1.47-6.053.486-5.861-8.641-24.118-4.32-23.491,3.315.481,8.716,1.333,8.969,3.345.991,7.873.772,19.025.08,22.57C2838.552,1230.532,2837.846,1235.7,2837.832,1236.048Z" transform="translate(-2813.452 -1160.533)" fill="#224f73"/>
        <path id="Path_41372" data-name="Path 41372" d="M2969.185,1131.008a3.86,3.86,0,0,1,1.942-.508c.668,0,1.417-.4,1.461-.275a16.177,16.177,0,0,1-.247,2.085c-.1.563-1.453.821-1.485,1.112a4.332,4.332,0,0,1-.485,1.614c-.29.388-2.228.517-2.228.517l-.448-1.336A8.983,8.983,0,0,1,2969.185,1131.008Z" transform="translate(-2926.99 -1107.627)" fill="#e0947d"/>
        <g id="Group_17732" data-name="Group 17732" transform="translate(0 69.69)">
          <path id="Path_41373" data-name="Path 41373" d="M2746.294,1436.316a.67.67,0,0,0-.649.913c.363.957,4.766,2.537,5.353,2.409a.785.785,0,0,0,.472-.966C2751.232,1438.114,2746.294,1436.316,2746.294,1436.316Z" transform="translate(-2745.605 -1427.322)" fill="#000725"/>
          <path id="Path_41374" data-name="Path 41374" d="M2761.813,1388.975c-.765,1.894-1.857,5.234-1.838,6.774.007.555-1.341,1.733-2.615.246-.222-.259-.68-1.4-.473-1.785.151-.277.49-.546.741-.941,1.207-1.9,1.509-5.241,1.836-5.713C2759.86,1386.986,2762.549,1387.152,2761.813,1388.975Z" transform="translate(-2754.777 -1387.265)" fill="#f7b690"/>
          <path id="Path_41375" data-name="Path 41375" d="M2749.011,1425.786c-.167-.055-.42.113-.616.6-.4,1-1.37,1.529-1.1,1.878.667.855,3.464,1.82,5.06,2.135.221.044.42-.427.308-.849-.062-.231-.366-.557-.4-.728-.2-.907.309-2.732-.909-3.222-.43-.173-1.628,1.473-2.1,1.037C2749.04,1426.446,2749.011,1425.786,2749.011,1425.786Z" transform="translate(-2746.947 -1418.562)" fill="#001b44"/>
        </g>
        <path id="Path_41376" data-name="Path 41376" d="M2775.313,1217.9a19.738,19.738,0,0,1-2.286,3.923c-.615.982-.614,2.528-1.8,4.7a53.405,53.405,0,0,1-4.585,7.086c-.375.662-2.354-.34-2.616-.818.709-5.061.246-7.76,1.844-10.945,1.238-2.467,3.992-3.722,4.434-5.16,1.021-3.324-2.432-21.306-.4-24.034a56.578,56.578,0,0,1,8.965.443C2782.188,1193.576,2776.431,1214.341,2775.313,1217.9Z" transform="translate(-2760.649 -1158.611)" fill="#2e6c9e"/>
        <path id="Path_41377" data-name="Path 41377" d="M2885.2,1090.719c1.082,2.534,2.665,11.365,3.723,12.077,1.386.932,8.32-.857,8.32-.857a.768.768,0,0,1,.94.845c0,.37-5.686,6.476-12.715,4.562-1.866-.508-4.183-12.192-4.183-12.192Z" transform="translate(-2856.416 -1075.382)" fill="#f3a088"/>
        <path id="Path_41378" data-name="Path 41378" d="M2884.2,1081.735c1.955,2.148,4.162,9.981,3.7,10.677s-6.252,1.725-7.247,1.457S2884.2,1081.735,2884.2,1081.735Z" transform="translate(-2855.781 -1068.045)" fill="#2e6c9e"/>
        <path id="Path_41379" data-name="Path 41379" d="M2794.089,1062.035c-.668,1.749-3.342,8.88-3.342,14.734,0,1.719-1.575,12.131.217,13.876,2.886,2.812,11.827,1,16.912.434,2.388-.265.532-14.369.588-14.891.323-3.044,1.994-12.8,1.9-14.152a17.053,17.053,0,0,0-7.28-4.315C2800.745,1057.017,2794.875,1059.976,2794.089,1062.035Z" transform="translate(-2781.95 -1048.345)" fill="#2e6c9e"/>
        <path id="Path_41380" data-name="Path 41380" d="M2855.7,1031.879c-.381,1.943-5.188,4.545-5.28,5.053-.222,1.232.614,2.911,1.837,4.033s3.459,1.287,3.523.387c.158-2.227,3.13-4.855,3.13-4.855Z" transform="translate(-2831.176 -1027.327)" fill="#f3a088"/>
        <path id="Path_41381" data-name="Path 41381" d="M2876.506,1031.928c-.43,1.2-1.354,2.826-1.216,3.843s2.884,4.008,4.185,3.786,1.138-4.382,1.138-4.382l-3.755-4.162Z" transform="translate(-2851.51 -1026.619)" fill="#232b59"/>
        <path id="Path_41382" data-name="Path 41382" d="M2888.335,1017.8a7.865,7.865,0,0,1-.9,2.3c-.184.128-.295,0-.365.1s-.343,2.646-.862,2.553-.728-.721-.728-.721a12.066,12.066,0,0,1-1.815-.528,9.248,9.248,0,0,1-2.382-3.3c.019-.1,1.25-3.922,2.409-4.405.765-.319,3.19.9,3.19.9l1.5,2.844Z" transform="translate(-2856.416 -1012.515)" fill="#f7b690"/>
        <path id="Path_41383" data-name="Path 41383" d="M2883.221,1010.892c.686-.26,1.937,1.306,2.752,1.861.479.326,1.024-1.4,1.292-2.222.369-1.135.511-.391-.416-.98-1.392-.884-3.177-2.2-4.834-2.5-1.039-.187-2.891,2.054-3.064,2.719s-.4,2.563.128,2.926.973-2.191,1.592-2.348.762,2.471,1.051,2.429S2882.358,1011.219,2883.221,1010.892Z" transform="translate(-2854.347 -1007.042)" fill="#232b59"/>
        <path id="Path_41384" data-name="Path 41384" d="M2809.884,1079.85c-6.568,3.149-1.788,19.464,2.119,20.084,3.276.52,11.827-1.6,15.531-7.313.156-.24-.353-1.069-.611-.963-3.606,1.482-11.409,3.467-11.954,2.673C2812.5,1090.741,2814.033,1079.645,2809.884,1079.85Z" transform="translate(-2795.447 -1066.503)" fill="#f7b690"/>
        <path id="Path_41385" data-name="Path 41385" d="M2916.658,1128.149a11.134,11.134,0,0,1,1.89-3.636,7.693,7.693,0,0,1,2.633-.321c.258.107.021.5-.361.589-.151.035-1.446.161-1.446.161a16.123,16.123,0,0,1,2.51.627c.18.188-.3,1.218-.78,1.168-.8-.083-1.213-.161-1.213-.161s1.316.8,1.239,1.125-.483.195-.716.088a8.185,8.185,0,0,1-.847-.571s-.467,1.758-1.164,2.075a1.059,1.059,0,0,1-1.153-.106Z" transform="translate(-2885.306 -1102.697)" fill="#f7b690"/>
        <path id="Path_41386" data-name="Path 41386" d="M2808.256,1063.428c-6.094,1.763-6.931,8.3-5.188,14.877.392,1.477,8-.438,8.018-1.6C2812.72,1073.846,2811.236,1062.566,2808.256,1063.428Z" transform="translate(-2791.883 -1053.055)" fill="#2e6c9e"/>
        <path id="Path_41387" data-name="Path 41387" d="M2967.7,1141.348c.327-1.818,1.027-1.967,1.439-2.086a6.761,6.761,0,0,1,1.447-.186c.181,0,.641-.225.708-.115.151.248-.08.714-.467.858-.494.183-1.042.143-1.174.409-.1.2.579.787.207,1.64-.24.551-1.477,1.137-1.976,1.313Z" transform="translate(-2926.99 -1114.757)" fill="#f3a088"/>
        <path id="Path_41388" data-name="Path 41388" d="M2813.052,1198.38c.275.239.554,1.354,0,1.453a49.189,49.189,0,0,1-6.46,0c-.246-.184-.369-1.169,0-1.321A44.017,44.017,0,0,1,2813.052,1198.38Z" transform="translate(-2795.224 -1163.249)" fill="#224f73"/>
        <path id="Path_41389" data-name="Path 41389" d="M2881.048,1119.121c.094.238.188,1.353,0,1.452a5.738,5.738,0,0,1-2.2,0,2.811,2.811,0,0,1,0-1.321A5.162,5.162,0,0,1,2881.048,1119.121Z" transform="translate(-2854.364 -1098.517)" fill="#224f73"/>
        <g id="Group_17733" data-name="Group 17733" transform="translate(17.402 15.097)">
          <path id="Path_41390" data-name="Path 41390" d="M2842.335,1098.432c-.083,0-.142-.037-.143-.093s-.107-5.88-1.635-8.785c-.026-.051.007-.111.075-.135a.142.142,0,0,1,.171.049c1.544,2.938,1.652,8.8,1.653,8.855A.123.123,0,0,1,2842.335,1098.432Z" transform="translate(-2840.549 -1089.41)" fill="#265a85"/>
        </g>
        <g id="Group_17734" data-name="Group 17734" transform="translate(26.593 18.46)">
          <path id="Path_41391" data-name="Path 41391" d="M2890.7,1107.761a71.84,71.84,0,0,1,.077,7.246.132.132,0,0,0,.125.145.146.146,0,0,0,.139-.14,72.1,72.1,0,0,0-.075-7.231Z" transform="translate(-2890.696 -1107.761)" fill="#265a85"/>
        </g>
      </g>
      <path id="Path_41392" data-name="Path 41392" d="M2884.832,1041.08a3.331,3.331,0,0,1-.451,1.126,4.19,4.19,0,0,0-.557.7l-.378.385-.106.1a4.1,4.1,0,0,0,.585,1.073,4.261,4.261,0,0,0,1.517,1.1c.421.106,1.391.313,1.392.313.722.154,1.547-1.213,1.849-1.867.325-.7-1.2-1.318-2.184-1.924C2886.313,1041.984,2884.786,1041.277,2884.832,1041.08Z" transform="translate(-2858.094 -1033.925)" fill="#ebf6ff"/>
      <g id="Group_17735" data-name="Group 17735" transform="translate(27.039 5.479)">
        <path id="Path_41393" data-name="Path 41393" d="M2893.514,1035.3a.113.113,0,0,1-.107-.128,5.911,5.911,0,0,0-.27-3.094.108.108,0,0,1,.2-.075,6.125,6.125,0,0,1,.28,3.208A.109.109,0,0,1,2893.514,1035.3Z" transform="translate(-2893.13 -1031.935)" fill="#ebf6ff"/>
      </g>
      <g id="Group_17736" data-name="Group 17736" transform="translate(25.367 7.97)">
        <path id="Path_41394" data-name="Path 41394" d="M2884.357,1047.492a.108.108,0,0,1-.107-.094l-.242-1.746a.108.108,0,1,1,.215-.03l.242,1.746a.108.108,0,0,1-.093.122Z" transform="translate(-2884.008 -1045.529)" fill="#ebf6ff"/>
      </g>
      <path id="Path_41395" data-name="Path 41395" d="M2887.418,1008.844a17.11,17.11,0,0,0,1.68-3.262c.172-.89-1.986-2.671-3.361-3.144a10.464,10.464,0,0,0-4.392-.274c-.644.188-1.317,3.028-1.471,3.361s2.443.4,4.67,1.266S2886.911,1008.044,2887.418,1008.844Z" transform="translate(-2855.259 -1002.043)" fill="#c5e9ff"/>
    </g>
    <g id="Group_17737" data-name="Group 17737" transform="translate(2446.311 1032.557)">
      <rect id="Rectangle_4926" data-name="Rectangle 4926" width="3.507" height="0.813" transform="translate(0.575 0) rotate(44.999)" fill="#67baed"/>
      <rect id="Rectangle_4927" data-name="Rectangle 4927" width="3.507" height="0.813" transform="translate(3.055 0.575) rotate(135.001)" fill="#67baed"/>
    </g>
    <g id="Group_17738" data-name="Group 17738" transform="translate(2545.629 971.687)">
      <rect id="Rectangle_4928" data-name="Rectangle 4928" width="3.507" height="0.814" transform="matrix(0.707, 0.707, -0.707, 0.707, 0.575, 0)" fill="#67baed"/>
      <rect id="Rectangle_4929" data-name="Rectangle 4929" width="3.507" height="0.814" transform="translate(3.055 0.575) rotate(135)" fill="#67baed"/>
    </g>
    <g id="Group_17739" data-name="Group 17739" transform="translate(2448.334 979.013)">
      <path id="Path_41396" data-name="Path 41396" d="M2540.523,1124.509a2.3,2.3,0,1,1,2.606,1.957A2.307,2.307,0,0,1,2540.523,1124.509Zm3.341-.475a1.07,1.07,0,1,0-.909,1.209A1.071,1.071,0,0,0,2543.864,1124.034Z" transform="translate(-2540.5 -1121.88)" fill="#67baed"/>
    </g>
    <g id="Group_17740" data-name="Group 17740" transform="translate(2554.216 958.761)">
      <path id="Path_41397" data-name="Path 41397" d="M3118.207,1014.016a2.3,2.3,0,1,1,2.605,1.957A2.307,2.307,0,0,1,3118.207,1014.016Zm3.34-.475a1.07,1.07,0,1,0-.909,1.21A1.071,1.071,0,0,0,3121.547,1013.542Z" transform="translate(-3118.184 -1011.388)" fill="#67baed"/>
    </g>
  </g>
</svg>
