<svg xmlns="http://www.w3.org/2000/svg" width="121" height="121" viewBox="0 0 121 121">
  <g id="Group_25057" data-name="Group 25057" transform="translate(-215 -3178)">
    <g id="Group_9933" data-name="Group 9933" transform="translate(2476 7085)">
      <circle id="Ellipse_497" data-name="Ellipse 497" cx="60.5" cy="60.5" r="60.5" transform="translate(-2261 -3907)" fill="#92934e"/>
      <path id="Path_1178" data-name="Path 1178" d="M53.993,0A53.993,53.993,0,1,1,0,53.993,53.993,53.993,0,0,1,53.993,0Z" transform="translate(-2254 -3900)" fill="#fff"/>
    </g>
    <g id="Group_17909" data-name="Group 17909" transform="translate(243 3203.46)">
      <g id="Group_17907" data-name="Group 17907" transform="translate(24.787 10.832)">
        <path id="Path_41810" data-name="Path 41810" d="M969.455-74.474a1.138,1.138,0,0,0-1.141,1.139,1.138,1.138,0,0,0,1.141,1.139h5.694v7.343a1.136,1.136,0,0,0,1.139,1.139,1.136,1.136,0,0,0,1.139-1.139v-8.482a1.136,1.136,0,0,0-1.139-1.139Z" transform="translate(-968.314 89.587)" fill="#ed8730"/>
        <path id="Path_41811" data-name="Path 41811" d="M980.157-71.63A16.6,16.6,0,0,0,968.38-55.7a16.582,16.582,0,0,0,16.494,16.632,16.547,16.547,0,0,0,15.345-10.515l-2.476-3.74A13.02,13.02,0,0,1,984.875-42.79,12.983,12.983,0,0,1,971.783-55.7a12.925,12.925,0,0,1,8.375-12.04Z" transform="translate(-968.247 92.496)" fill="#ed8730"/>
        <path id="Path_41812" data-name="Path 41812" d="M978.873-81.945A4.945,4.945,0,0,0,973.927-77a4.943,4.943,0,0,0,4.946,4.942A4.943,4.943,0,0,0,983.819-77,4.945,4.945,0,0,0,978.873-81.945Z" transform="translate(-962.573 81.945)" fill="#ed8730"/>
        <path id="Path_41813" data-name="Path 41813" d="M978.294-76.456c-2.911.006-3.443,1.835-3.443,3.334v17.651a2.72,2.72,0,0,0,2.739,2.727l12.521-.044L996.6-43a3.417,3.417,0,0,0,2.753,1.851,2.874,2.874,0,0,0,2.976-2.976,3.944,3.944,0,0,0-.615-1.833c-1.928-2.874-5.745-9.089-7.843-11.423a2.852,2.852,0,0,0-2.128-1.013l-10.363.042V-69.332l7.391,5.1a2.33,2.33,0,0,0,3.249-.6,2.328,2.328,0,0,0-.6-3.249s-7.693-5.31-11.538-7.962a3.232,3.232,0,0,0-1.588-.415Z" transform="translate(-961.628 87.559)" fill="#ed8730"/>
      </g>
      <g id="Group_17908" data-name="Group 17908" transform="translate(0 0)">
        <ellipse id="Ellipse_1738" data-name="Ellipse 1738" cx="4.944" cy="4.944" rx="4.944" ry="4.944" transform="translate(12.242)" fill="#ed8730"/>
        <path id="Path_41814" data-name="Path 41814" d="M969.861-82.218a2.992,2.992,0,0,0-1.875.8,2.659,2.659,0,0,0-.728,1.115c-.138.421-5.075,12-5.506,17.682L960.8-50l-4.653,13.81s-.548,1.928,1.129,2.518a2.254,2.254,0,0,0,2.891-1.173c.5-1.651,4.612-12.465,4.9-13.235a10.266,10.266,0,0,0,.8-4.535c.026-2.11.119-5.613.119-5.613.392.437,6.182,10.282,6.182,10.282,0,.02-.587,11.184-.587,12.285,0,1.984.417,2.573,1.944,2.666,1.366.085,2.185-.755,2.338-2.735l.86-11.122s-.036-3.342-.9-4.758c-1.76-2.874-6.012-10.052-5.852-10.968.19-1.092.573-3.273.573-3.273.582-3.354,2.035-6.726,2.976-9.679,1.679.748,3.17,1.307,5.106,2.106l2.373,5.257h4.238c-1.155-3.3-2.622-7.448-3.748-8.091-3.3-1.887-6.192-3.981-9.859-5.575A4.04,4.04,0,0,0,969.861-82.218Z" transform="translate(-956.061 92.496)" fill="#ed8730"/>
      </g>
    </g>
  </g>
</svg>
